<svg width="960" height="960" viewBox="0 0 960 960" fill="none" xmlns="http://www.w3.org/2000/svg">
<path d="M464.8 254.401L454.844 256.089L452 239.289L461.955 237.601L464.8 254.401ZM666.755 662.667L673.067 655.912L691.911 673.423L685.6 680.178L666.755 662.667ZM729.244 433.601L726.489 425.334L746.755 418.578L749.511 426.845L729.244 433.601ZM498.044 746.312C496.889 746.312 495.733 746.312 494.578 746.312L494.755 736.001C495.911 736.001 496.978 736.001 498.133 736.001V746.312H498.044ZM507.555 746.134L507.2 735.823C508.355 735.823 509.422 735.734 510.578 735.645L511.111 745.956C509.867 746.045 508.711 746.134 507.555 746.134ZM480.533 745.69C479.378 745.601 478.222 745.512 477.067 745.423L477.955 735.201C479.111 735.289 480.178 735.378 481.333 735.467L480.533 745.69ZM463.2 743.912C462.044 743.734 460.889 743.556 459.733 743.378L461.333 733.245C462.4 733.423 463.555 733.601 464.622 733.69L463.2 743.912ZM542.311 742.401L540.533 732.267C541.6 732.089 542.756 731.912 543.822 731.645L545.778 741.778C544.622 742.045 543.467 742.223 542.311 742.401ZM559.467 738.756L556.978 728.801C558.044 728.534 559.111 728.267 560.267 728.001L562.933 737.956C561.689 738.223 560.622 738.489 559.467 738.756ZM428.889 736.712C427.733 736.356 426.667 736.09 425.511 735.734L428.444 725.867C429.511 726.223 430.578 726.49 431.644 726.845L428.889 736.712ZM576.267 733.956L573.067 724.178C574.133 723.823 575.2 723.467 576.267 723.112L579.555 732.889C578.489 733.245 577.422 733.601 576.267 733.956ZM412.267 731.29C411.2 730.934 410.044 730.489 408.978 730.045L412.622 720.445C413.689 720.801 414.755 721.245 415.822 721.601L412.267 731.29ZM592.711 727.912L588.889 718.401C589.955 717.956 590.933 717.601 592 717.156L596 726.667C594.844 727.112 593.778 727.556 592.711 727.912ZM395.911 724.801C394.844 724.356 393.778 723.823 392.711 723.378L396.978 714.045C397.955 714.489 399.022 714.934 400 715.467L395.911 724.801ZM380.178 717.156C379.111 716.623 378.133 716.09 377.067 715.467L382.044 706.401C383.022 706.934 384 707.467 384.978 708.001L380.178 717.156ZM624.089 712.623L618.933 703.734C619.911 703.201 620.889 702.578 621.867 702.045L627.111 710.934C626.133 711.467 625.067 712.001 624.089 712.623ZM638.933 703.378L633.156 694.845C634.044 694.223 635.022 693.601 635.911 692.978L641.778 701.423C640.889 702.045 639.911 702.756 638.933 703.378ZM350.4 698.667C349.422 697.956 348.533 697.334 347.555 696.623L353.689 688.356C354.578 689.067 355.467 689.689 356.444 690.312L350.4 698.667ZM653.067 693.067L646.755 684.978C647.644 684.267 648.533 683.556 649.422 682.934L655.822 690.934C654.933 691.645 654.044 692.356 653.067 693.067ZM336.533 687.912C335.644 687.201 334.755 686.401 333.867 685.69L340.533 677.867C341.422 678.578 342.222 679.289 343.111 680.001L336.533 687.912ZM666.489 681.867L659.644 674.223C660.444 673.512 661.333 672.712 662.133 672.001L669.067 679.556C668.267 680.356 667.378 681.156 666.489 681.867ZM323.467 676.267C322.578 675.467 321.778 674.667 320.978 673.867L328.178 666.489C328.978 667.289 329.778 668.09 330.578 668.801L323.467 676.267ZM311.289 663.734C310.489 662.845 309.689 662.045 308.978 661.156L316.711 654.312C317.422 655.112 318.222 656.001 318.933 656.801L311.289 663.734ZM690.933 656.801L683.111 650.134C683.822 649.245 684.533 648.445 685.244 647.556L693.156 654.134C692.444 655.023 691.733 655.912 690.933 656.801ZM701.778 643.112L693.511 636.978C694.133 636.089 694.844 635.201 695.467 634.223L703.822 640.178C703.2 641.245 702.489 642.134 701.778 643.112ZM289.511 636.356C288.889 635.378 288.178 634.401 287.555 633.423L296.089 627.734C296.711 628.623 297.333 629.601 297.955 630.489L289.511 636.356ZM711.733 628.623L703.022 623.112C703.644 622.134 704.178 621.245 704.8 620.267L713.6 625.69C712.978 626.667 712.355 627.645 711.733 628.623ZM280.089 621.601C279.467 620.623 278.933 619.556 278.311 618.578L287.289 613.512C287.822 614.489 288.444 615.467 288.978 616.445L280.089 621.601ZM720.622 613.512L711.555 608.623C712.089 607.645 712.622 606.667 713.156 605.69L722.311 610.489C721.689 611.467 721.155 612.534 720.622 613.512ZM271.733 606.223C271.2 605.156 270.667 604.178 270.222 603.112L279.467 598.578C279.911 599.556 280.444 600.623 280.978 601.601L271.733 606.223ZM264.444 590.401C264 589.334 263.555 588.267 263.111 587.201L272.711 583.378C273.155 584.445 273.511 585.423 273.955 586.489L264.444 590.401ZM735.111 581.601L725.422 578.045C725.778 576.978 726.222 575.912 726.578 574.845L736.267 578.312C735.911 579.467 735.555 580.534 735.111 581.601ZM740.711 564.978L730.844 562.045C731.2 560.978 731.467 559.912 731.733 558.845L741.689 561.601C741.333 562.756 740.978 563.823 740.711 564.978ZM253.333 557.245C253.067 556.09 252.711 555.023 252.444 553.867L262.4 551.378C262.667 552.445 262.933 553.601 263.2 554.667L253.333 557.245ZM745.067 548.001L735.022 545.778C735.289 544.712 735.467 543.556 735.733 542.489L745.778 544.534C745.511 545.778 745.333 546.845 745.067 548.001ZM249.511 540.178C249.333 539.023 249.067 537.867 248.889 536.712L259.022 534.934C259.2 536.001 259.378 537.156 259.644 538.223L249.511 540.178ZM748.178 530.845L737.955 529.334C738.133 528.267 738.311 527.112 738.4 526.045L748.622 527.378C748.533 528.534 748.355 529.689 748.178 530.845ZM246.844 522.845C246.667 521.689 246.578 520.534 246.489 519.378L256.711 518.312C256.8 519.467 256.978 520.534 257.067 521.69L246.844 522.845ZM245.422 505.423C245.333 504.267 245.333 503.112 245.244 501.956L255.555 501.601C255.555 502.756 255.644 503.823 255.733 504.978L245.422 505.423ZM750.933 495.912L740.622 495.823V492.445L750.933 492.356V495.912ZM740.267 479.023C740.178 477.867 740.089 476.801 740.089 475.645L750.4 474.934C750.489 476.089 750.578 477.245 750.667 478.401L740.267 479.023ZM256.444 471.289L246.222 470.312C246.311 469.156 246.4 468.001 246.578 466.845L256.8 467.912C256.622 469.067 256.533 470.223 256.444 471.289ZM738.667 462.312C738.489 461.156 738.4 460.09 738.222 459.023L748.444 457.601C748.622 458.756 748.8 459.912 748.889 461.067L738.667 462.312ZM258.489 454.667L248.355 453.067C248.533 451.912 248.711 450.756 248.978 449.601L259.111 451.378C258.933 452.445 258.667 453.601 258.489 454.667ZM736 445.778C735.822 444.712 735.555 443.556 735.289 442.489L745.333 440.356C745.6 441.512 745.778 442.667 746.044 443.823L736 445.778ZM261.778 438.223L251.733 435.912C252 434.756 252.267 433.601 252.533 432.534L262.489 435.023C262.311 436.001 262.044 437.067 261.778 438.223ZM266.133 421.956L256.267 418.934C256.622 417.778 256.978 416.712 257.333 415.556L267.111 418.756C266.844 419.823 266.489 420.889 266.133 421.956ZM727.111 413.334C726.755 412.267 726.4 411.201 725.955 410.134L735.644 406.578C736.089 407.645 736.444 408.801 736.8 409.867L727.111 413.334ZM721.067 397.778C720.622 396.712 720.178 395.734 719.733 394.667L729.156 390.489C729.6 391.556 730.133 392.623 730.578 393.689L721.067 397.778ZM278.311 390.578L268.978 386.223C269.511 385.156 269.955 384.089 270.489 383.023L279.733 387.556C279.289 388.623 278.755 389.601 278.311 390.578ZM713.867 382.578C713.333 381.601 712.8 380.623 712.267 379.645L721.333 374.756C721.867 375.823 722.4 376.801 722.933 377.867L713.867 382.578ZM285.955 375.645L276.978 370.667C277.511 369.601 278.133 368.623 278.667 367.645L287.555 372.801C287.111 373.689 286.489 374.667 285.955 375.645ZM705.689 368.001C705.067 367.023 704.533 366.134 703.911 365.156L712.622 359.734C713.244 360.712 713.867 361.689 714.489 362.756L705.689 368.001ZM294.667 361.245L286.044 355.645C286.667 354.667 287.289 353.689 288 352.712L296.533 358.489C295.911 359.378 295.289 360.356 294.667 361.245ZM304.355 347.467L296.178 341.245C296.889 340.356 297.6 339.378 298.311 338.489L306.4 344.801C305.689 345.689 304.978 346.578 304.355 347.467ZM686.311 340.534C685.6 339.645 684.889 338.845 684.178 337.956L692.089 331.378C692.8 332.267 693.6 333.156 694.311 334.045L686.311 340.534ZM675.289 327.912C674.489 327.112 673.778 326.312 672.978 325.512L680.444 318.401C681.244 319.201 682.044 320.089 682.844 320.978L675.289 327.912ZM326.4 322.134L319.111 314.845C319.911 314.045 320.8 313.156 321.6 312.356L328.8 319.734C327.911 320.534 327.111 321.334 326.4 322.134ZM663.467 316.001C662.667 315.201 661.778 314.489 660.978 313.689L667.911 306.045C668.8 306.845 669.6 307.645 670.489 308.445L663.467 316.001ZM338.578 310.667L331.822 302.934C332.711 302.134 333.6 301.423 334.489 300.623L341.155 308.445C340.355 309.245 339.467 309.956 338.578 310.667ZM650.755 304.978C649.867 304.267 648.978 303.556 648.178 302.845L654.578 294.756C655.467 295.467 656.444 296.178 657.333 296.978L650.755 304.978ZM351.644 300.089L345.422 291.912C346.311 291.201 347.289 290.489 348.178 289.778L354.311 298.045C353.422 298.756 352.533 299.378 351.644 300.089ZM365.333 290.401L359.644 281.778C360.622 281.156 361.6 280.534 362.578 279.912L368.089 288.623C367.2 289.156 366.311 289.778 365.333 290.401ZM623.289 285.689C622.311 285.067 621.333 284.534 620.355 284.001L625.6 275.112C626.578 275.734 627.644 276.267 628.622 276.889L623.289 285.689ZM608.622 277.423C607.644 276.889 606.667 276.445 605.6 275.912L610.133 266.667C611.2 267.201 612.267 267.734 613.244 268.267L608.622 277.423ZM394.578 273.956L390.133 264.623C391.2 264.089 392.267 263.645 393.333 263.112L397.6 272.445C396.622 272.978 395.555 273.512 394.578 273.956ZM593.422 270.312C592.355 269.867 591.378 269.423 590.311 268.978L594.222 259.467C595.289 259.912 596.355 260.356 597.511 260.801L593.422 270.312ZM409.955 267.289L406.222 257.778C407.289 257.334 408.355 256.978 409.511 256.534L413.155 266.134C412 266.489 411.022 266.934 409.955 267.289ZM577.689 264.178C576.622 263.823 575.556 263.467 574.489 263.112L577.778 253.334C578.933 253.689 580 254.045 581.067 254.489L577.689 264.178ZM425.778 261.778L422.667 251.912C423.822 251.556 424.889 251.201 426.044 250.845L428.978 260.712C427.911 261.067 426.844 261.423 425.778 261.778ZM441.955 257.334L439.555 247.289C440.711 247.023 441.867 246.756 442.933 246.489L445.155 256.534C444.178 256.801 443.111 257.067 441.955 257.334ZM545.333 255.378C544.267 255.201 543.111 254.934 542.044 254.756L543.911 244.623C545.067 244.801 546.222 245.067 547.378 245.245L545.333 255.378ZM528.711 252.712C527.644 252.534 526.489 252.445 525.422 252.356L526.578 242.134C527.733 242.223 528.889 242.401 530.044 242.578L528.711 252.712ZM475.111 251.823L474.133 241.601C475.289 241.512 476.444 241.423 477.6 241.334L478.4 251.556C477.333 251.645 476.178 251.734 475.111 251.823ZM512 251.201C510.844 251.112 509.778 251.112 508.622 251.023L509.067 240.712C510.222 240.801 511.378 240.801 512.533 240.889L512 251.201ZM491.822 250.845L491.555 240.534C492.711 240.534 493.867 240.445 495.022 240.445L495.111 250.756C494.133 250.845 492.978 250.845 491.822 250.845Z" fill="#D8CEE2"/>
<path d="M497.867 870.133C289.778 870.133 121.067 701.422 121.067 493.333C121.067 285.244 289.778 116.533 497.867 116.533" stroke="#AEE7F4" stroke-width="2.2806" stroke-miterlimit="10"/>
<path d="M498.222 115.556V148" stroke="#AEE7F4" stroke-width="1.3378" stroke-miterlimit="10"/>
<path d="M498.133 838.667V871.111" stroke="#AEE7F4" stroke-width="1.3378" stroke-miterlimit="10"/>
<path d="M497.867 193.422C664.178 193.422 799.022 328.266 799.022 494.577C799.022 660.889 664.178 795.733 497.867 795.733" stroke="#FFDEEB" stroke-width="2.2806" stroke-miterlimit="10"/>
<path d="M498.133 192.355V224.8" stroke="#FFDEEB" stroke-width="1.3378" stroke-miterlimit="10"/>
<path d="M498.133 764.355V796.8" stroke="#FFDEEB" stroke-width="1.3378" stroke-miterlimit="10"/>
<path d="M526.264 814.888C528.184 814.888 529.68 815.44 530.752 816.544C531.824 817.648 532.36 819.248 532.36 821.344V831.832H530.608V821.392C530.608 819.76 530.192 818.536 529.36 817.72C528.544 816.888 527.424 816.472 526 816.472C524.496 816.472 523.32 816.912 522.472 817.792C521.624 818.656 521.2 819.984 521.2 821.776V831.832H519.448V821.392C519.448 819.76 519.048 818.536 518.248 817.72C517.448 816.888 516.336 816.472 514.912 816.472C513.392 816.472 512.2 816.912 511.336 817.792C510.488 818.656 510.064 819.984 510.064 821.776V831.832H508.288V815.032H509.992V817.84C510.456 816.88 511.144 816.152 512.056 815.656C512.968 815.144 514.048 814.888 515.296 814.888C516.608 814.888 517.728 815.168 518.656 815.728C519.6 816.272 520.28 817.04 520.696 818.032C521.176 817.008 521.896 816.232 522.856 815.704C523.832 815.16 524.968 814.888 526.264 814.888ZM541.182 816.568V830.296H544.59V831.832H536.022V830.296H539.43V816.568H536.022V815.032H544.59V816.568H541.182ZM555.782 814.888C557.798 814.888 559.374 815.488 560.51 816.688C561.662 817.888 562.238 819.6 562.238 821.824V831.832H560.462V821.872C560.462 820.096 560.022 818.752 559.142 817.84C558.262 816.928 557.03 816.472 555.446 816.472C553.782 816.472 552.486 816.96 551.558 817.936C550.63 818.896 550.166 820.344 550.166 822.28V831.832H548.39V815.032H550.094V817.864C551.166 815.88 553.062 814.888 555.782 814.888Z" fill="#FFDEEB"/>
<path d="M525.438 847.52C527.87 847.52 529.638 847.96 530.742 848.84C531.862 849.704 532.422 850.92 532.422 852.488C532.422 853.464 532.19 854.336 531.726 855.104C531.278 855.872 530.598 856.48 529.686 856.928C528.774 857.36 527.654 857.576 526.326 857.576C525.126 857.576 523.982 857.384 522.894 857C521.822 856.6 520.958 856.072 520.302 855.416L521.142 854.048C521.702 854.624 522.438 855.096 523.35 855.464C524.262 855.816 525.246 855.992 526.302 855.992C527.694 855.992 528.766 855.68 529.518 855.056C530.286 854.432 530.67 853.6 530.67 852.56C530.67 851.408 530.238 850.536 529.374 849.944C528.526 849.352 527.086 849.056 525.054 849.056H521.478L522.342 840.632H531.534V842.168H523.854L523.278 847.52H525.438ZM545.971 855.896V857.432H534.187V856.208L541.171 849.368C542.051 848.504 542.643 847.76 542.947 847.136C543.267 846.496 543.427 845.856 543.427 845.216C543.427 844.224 543.083 843.456 542.395 842.912C541.723 842.352 540.755 842.072 539.491 842.072C537.523 842.072 535.995 842.696 534.907 843.944L533.683 842.888C534.339 842.12 535.171 841.528 536.179 841.112C537.203 840.696 538.355 840.488 539.635 840.488C541.347 840.488 542.699 840.896 543.691 841.712C544.699 842.512 545.203 843.616 545.203 845.024C545.203 845.888 545.011 846.72 544.627 847.52C544.243 848.32 543.515 849.24 542.443 850.28L536.731 855.896H545.971Z" fill="#FFDEEB"/>
<path d="M532.178 801.067V784.89" stroke="#FFDEEB" stroke-width="2" stroke-miterlimit="10"/>
<path d="M263.156 97.9814L259.316 92.5814C258.884 92.6294 258.436 92.6534 257.972 92.6534H253.46V97.9814H251.684V81.1814H257.972C260.116 81.1814 261.796 81.6934 263.012 82.7174C264.228 83.7414 264.836 85.1494 264.836 86.9414C264.836 88.2534 264.5 89.3654 263.828 90.2774C263.172 91.1734 262.228 91.8214 260.996 92.2214L265.1 97.9814H263.156ZM257.924 91.1414C259.588 91.1414 260.86 90.7734 261.74 90.0374C262.62 89.3014 263.06 88.2694 263.06 86.9414C263.06 85.5814 262.62 84.5414 261.74 83.8214C260.86 83.0854 259.588 82.7174 257.924 82.7174H253.46V91.1414H257.924ZM274.068 96.5894C274.852 96.5894 275.572 96.4534 276.228 96.1814C276.9 95.8934 277.468 95.4774 277.932 94.9334L278.892 96.0374C278.332 96.7094 277.636 97.2214 276.804 97.5734C275.972 97.9254 275.052 98.1014 274.044 98.1014C272.748 98.1014 271.596 97.8294 270.588 97.2854C269.58 96.7254 268.796 95.9574 268.236 94.9814C267.676 94.0054 267.396 92.9014 267.396 91.6694C267.396 90.4374 267.66 89.3334 268.188 88.3574C268.732 87.3814 269.476 86.6214 270.42 86.0774C271.364 85.5334 272.436 85.2614 273.636 85.2614C274.756 85.2614 275.764 85.5174 276.66 86.0294C277.572 86.5414 278.292 87.2534 278.82 88.1654C279.364 89.0774 279.652 90.1174 279.684 91.2854L269.316 93.3014C269.636 94.3254 270.212 95.1334 271.044 95.7254C271.892 96.3014 272.9 96.5894 274.068 96.5894ZM273.636 86.7254C272.756 86.7254 271.964 86.9334 271.26 87.3494C270.572 87.7494 270.028 88.3174 269.628 89.0534C269.244 89.7734 269.052 90.6054 269.052 91.5494C269.052 91.7894 269.06 91.9654 269.076 92.0774L277.98 90.3494C277.788 89.2934 277.3 88.4294 276.516 87.7574C275.732 87.0694 274.772 86.7254 273.636 86.7254ZM286.536 98.1014C285.512 98.1014 284.528 97.9574 283.584 97.6694C282.656 97.3654 281.928 96.9894 281.4 96.5414L282.168 95.1974C282.696 95.6134 283.36 95.9574 284.16 96.2294C284.96 96.4854 285.792 96.6134 286.656 96.6134C287.808 96.6134 288.656 96.4374 289.2 96.0854C289.76 95.7174 290.04 95.2054 290.04 94.5494C290.04 94.0854 289.888 93.7254 289.584 93.4694C289.28 93.1974 288.896 92.9974 288.432 92.8694C287.968 92.7254 287.352 92.5894 286.584 92.4614C285.56 92.2694 284.736 92.0774 284.112 91.8854C283.488 91.6774 282.952 91.3334 282.504 90.8534C282.072 90.3734 281.856 89.7094 281.856 88.8614C281.856 87.8054 282.296 86.9414 283.176 86.2694C284.056 85.5974 285.28 85.2614 286.848 85.2614C287.664 85.2614 288.48 85.3734 289.296 85.5974C290.112 85.8054 290.784 86.0854 291.312 86.4374L290.568 87.8054C289.528 87.0854 288.288 86.7254 286.848 86.7254C285.76 86.7254 284.936 86.9174 284.376 87.3014C283.832 87.6854 283.56 88.1894 283.56 88.8134C283.56 89.2934 283.712 89.6774 284.016 89.9654C284.336 90.2534 284.728 90.4694 285.192 90.6134C285.656 90.7414 286.296 90.8774 287.112 91.0214C288.12 91.2134 288.928 91.4054 289.536 91.5974C290.144 91.7894 290.664 92.1174 291.096 92.5814C291.528 93.0454 291.744 93.6854 291.744 94.5014C291.744 95.6054 291.28 96.4854 290.352 97.1414C289.44 97.7814 288.168 98.1014 286.536 98.1014ZM301.399 85.2614C302.583 85.2614 303.655 85.5334 304.615 86.0774C305.575 86.6054 306.327 87.3574 306.871 88.3334C307.415 89.3094 307.687 90.4214 307.687 91.6694C307.687 92.9334 307.415 94.0534 306.871 95.0294C306.327 96.0054 305.575 96.7654 304.615 97.3094C303.671 97.8374 302.599 98.1014 301.399 98.1014C300.375 98.1014 299.447 97.8934 298.615 97.4774C297.799 97.0454 297.127 96.4214 296.599 95.6054V102.637H294.895V85.3574H296.527V87.8534C297.039 87.0214 297.711 86.3814 298.543 85.9334C299.391 85.4854 300.343 85.2614 301.399 85.2614ZM301.279 96.5894C302.159 96.5894 302.959 96.3894 303.679 95.9894C304.399 95.5734 304.959 94.9894 305.359 94.2374C305.775 93.4854 305.983 92.6294 305.983 91.6694C305.983 90.7094 305.775 89.8614 305.359 89.1254C304.959 88.3734 304.399 87.7894 303.679 87.3734C302.959 86.9574 302.159 86.7494 301.279 86.7494C300.383 86.7494 299.575 86.9574 298.855 87.3734C298.151 87.7894 297.591 88.3734 297.175 89.1254C296.775 89.8614 296.575 90.7094 296.575 91.6694C296.575 92.6294 296.775 93.4854 297.175 94.2374C297.591 94.9894 298.151 95.5734 298.855 95.9894C299.575 96.3894 300.383 96.5894 301.279 96.5894ZM311.16 85.3574H312.864V97.9814H311.16V85.3574ZM312.024 82.5974C311.672 82.5974 311.376 82.4774 311.136 82.2374C310.896 81.9974 310.776 81.7094 310.776 81.3734C310.776 81.0534 310.896 80.7734 311.136 80.5334C311.376 80.2934 311.672 80.1734 312.024 80.1734C312.376 80.1734 312.672 80.2934 312.912 80.5334C313.152 80.7574 313.272 81.0294 313.272 81.3494C313.272 81.7014 313.152 81.9974 312.912 82.2374C312.672 82.4774 312.376 82.5974 312.024 82.5974ZM319.238 87.8294C319.638 86.9814 320.23 86.3414 321.014 85.9094C321.814 85.4774 322.798 85.2614 323.966 85.2614V86.9174L323.558 86.8934C322.23 86.8934 321.19 87.3014 320.438 88.1174C319.686 88.9334 319.31 90.0774 319.31 91.5494V97.9814H317.606V85.3574H319.238V87.8294ZM338.454 85.3574V97.9814H336.822V95.4854C336.31 96.3334 335.63 96.9814 334.782 97.4294C333.95 97.8774 333.006 98.1014 331.95 98.1014C330.766 98.1014 329.694 97.8294 328.734 97.2854C327.774 96.7414 327.022 95.9814 326.478 95.0054C325.934 94.0294 325.662 92.9174 325.662 91.6694C325.662 90.4214 325.934 89.3094 326.478 88.3334C327.022 87.3574 327.774 86.6054 328.734 86.0774C329.694 85.5334 330.766 85.2614 331.95 85.2614C332.974 85.2614 333.894 85.4774 334.71 85.9094C335.542 86.3254 336.222 86.9414 336.75 87.7574V85.3574H338.454ZM332.094 96.5894C332.974 96.5894 333.766 96.3894 334.47 95.9894C335.19 95.5734 335.75 94.9894 336.15 94.2374C336.566 93.4854 336.774 92.6294 336.774 91.6694C336.774 90.7094 336.566 89.8534 336.15 89.1014C335.75 88.3494 335.19 87.7734 334.47 87.3734C333.766 86.9574 332.974 86.7494 332.094 86.7494C331.198 86.7494 330.39 86.9574 329.67 87.3734C328.966 87.7734 328.406 88.3494 327.99 89.1014C327.59 89.8534 327.39 90.7094 327.39 91.6694C327.39 92.6294 327.59 93.4854 327.99 94.2374C328.406 94.9894 328.966 95.5734 329.67 95.9894C330.39 96.3894 331.198 96.5894 332.094 96.5894ZM349.415 97.2134C349.095 97.5014 348.703 97.7254 348.239 97.8854C347.775 98.0294 347.287 98.1014 346.775 98.1014C345.591 98.1014 344.679 97.7814 344.039 97.1414C343.399 96.5014 343.079 95.5974 343.079 94.4294V82.5974H344.783V85.3574H348.599V86.7974H344.783V94.3334C344.783 95.0854 344.967 95.6614 345.335 96.0614C345.703 96.4454 346.239 96.6374 346.943 96.6374C347.711 96.6374 348.335 96.4214 348.815 95.9894L349.415 97.2134ZM357.219 98.1014C356.003 98.1014 354.907 97.8294 353.931 97.2854C352.955 96.7254 352.187 95.9574 351.627 94.9814C351.067 94.0054 350.787 92.9014 350.787 91.6694C350.787 90.4374 351.067 89.3334 351.627 88.3574C352.187 87.3814 352.955 86.6214 353.931 86.0774C354.907 85.5334 356.003 85.2614 357.219 85.2614C358.435 85.2614 359.531 85.5334 360.507 86.0774C361.483 86.6214 362.243 87.3814 362.787 88.3574C363.347 89.3334 363.627 90.4374 363.627 91.6694C363.627 92.9014 363.347 94.0054 362.787 94.9814C362.243 95.9574 361.483 96.7254 360.507 97.2854C359.531 97.8294 358.435 98.1014 357.219 98.1014ZM357.219 96.5894C358.115 96.5894 358.915 96.3894 359.619 95.9894C360.339 95.5734 360.899 94.9894 361.299 94.2374C361.699 93.4854 361.899 92.6294 361.899 91.6694C361.899 90.7094 361.699 89.8534 361.299 89.1014C360.899 88.3494 360.339 87.7734 359.619 87.3734C358.915 86.9574 358.115 86.7494 357.219 86.7494C356.323 86.7494 355.515 86.9574 354.795 87.3734C354.091 87.7734 353.531 88.3494 353.115 89.1014C352.715 89.8534 352.515 90.7094 352.515 91.6694C352.515 92.6294 352.715 93.4854 353.115 94.2374C353.531 94.9894 354.091 95.5734 354.795 95.9894C355.515 96.3894 356.323 96.5894 357.219 96.5894ZM368.738 87.8294C369.138 86.9814 369.73 86.3414 370.514 85.9094C371.314 85.4774 372.298 85.2614 373.466 85.2614V86.9174L373.058 86.8934C371.73 86.8934 370.69 87.3014 369.938 88.1174C369.186 88.9334 368.81 90.0774 368.81 91.5494V97.9814H367.106V85.3574H368.738V87.8294ZM388.114 85.3574V96.4454C388.114 98.5894 387.626 100.173 386.65 101.197C385.674 102.237 384.202 102.757 382.234 102.757C381.13 102.757 380.082 102.581 379.09 102.229C378.114 101.893 377.322 101.421 376.714 100.813L377.578 99.5174C378.122 100.061 378.794 100.485 379.594 100.789C380.394 101.093 381.25 101.245 382.162 101.245C383.618 101.245 384.69 100.869 385.378 100.117C386.066 99.3814 386.41 98.2294 386.41 96.6614V95.1974C385.962 95.9334 385.346 96.5014 384.562 96.9014C383.794 97.3014 382.922 97.5014 381.946 97.5014C380.298 97.5014 378.994 97.0454 378.034 96.1334C377.09 95.2054 376.618 93.8534 376.618 92.0774V85.3574H378.322V91.9094C378.322 93.2374 378.65 94.2454 379.306 94.9334C379.962 95.6214 380.898 95.9654 382.114 95.9654C383.442 95.9654 384.49 95.5654 385.258 94.7654C386.026 93.9494 386.41 92.8214 386.41 91.3814V85.3574H388.114ZM411 97.9814L407.16 92.5814C406.728 92.6294 406.28 92.6534 405.816 92.6534H401.304V97.9814H399.528V81.1814H405.816C407.96 81.1814 409.64 81.6934 410.856 82.7174C412.072 83.7414 412.68 85.1494 412.68 86.9414C412.68 88.2534 412.344 89.3654 411.672 90.2774C411.016 91.1734 410.072 91.8214 408.84 92.2214L412.944 97.9814H411ZM405.768 91.1414C407.432 91.1414 408.704 90.7734 409.584 90.0374C410.464 89.3014 410.904 88.2694 410.904 86.9414C410.904 85.5814 410.464 84.5414 409.584 83.8214C408.704 83.0854 407.432 82.7174 405.768 82.7174H401.304V91.1414H405.768ZM428.032 85.3574V97.9814H426.4V95.4854C425.888 96.3334 425.208 96.9814 424.36 97.4294C423.528 97.8774 422.584 98.1014 421.528 98.1014C420.344 98.1014 419.272 97.8294 418.312 97.2854C417.352 96.7414 416.6 95.9814 416.056 95.0054C415.512 94.0294 415.24 92.9174 415.24 91.6694C415.24 90.4214 415.512 89.3094 416.056 88.3334C416.6 87.3574 417.352 86.6054 418.312 86.0774C419.272 85.5334 420.344 85.2614 421.528 85.2614C422.552 85.2614 423.472 85.4774 424.288 85.9094C425.12 86.3254 425.8 86.9414 426.328 87.7574V85.3574H428.032ZM421.672 96.5894C422.552 96.5894 423.344 96.3894 424.048 95.9894C424.768 95.5734 425.328 94.9894 425.728 94.2374C426.144 93.4854 426.352 92.6294 426.352 91.6694C426.352 90.7094 426.144 89.8534 425.728 89.1014C425.328 88.3494 424.768 87.7734 424.048 87.3734C423.344 86.9574 422.552 86.7494 421.672 86.7494C420.776 86.7494 419.968 86.9574 419.248 87.3734C418.544 87.7734 417.984 88.3494 417.568 89.1014C417.168 89.8534 416.968 90.7094 416.968 91.6694C416.968 92.6294 417.168 93.4854 417.568 94.2374C417.984 94.9894 418.544 95.5734 419.248 95.9894C419.968 96.3894 420.776 96.5894 421.672 96.5894ZM438.993 97.2134C438.673 97.5014 438.281 97.7254 437.817 97.8854C437.353 98.0294 436.865 98.1014 436.353 98.1014C435.169 98.1014 434.257 97.7814 433.617 97.1414C432.977 96.5014 432.657 95.5974 432.657 94.4294V82.5974H434.361V85.3574H438.177V86.7974H434.361V94.3334C434.361 95.0854 434.545 95.6614 434.913 96.0614C435.281 96.4454 435.817 96.6374 436.521 96.6374C437.289 96.6374 437.913 96.4214 438.393 95.9894L438.993 97.2134ZM447.037 96.5894C447.821 96.5894 448.541 96.4534 449.197 96.1814C449.869 95.8934 450.437 95.4774 450.901 94.9334L451.861 96.0374C451.301 96.7094 450.605 97.2214 449.773 97.5734C448.941 97.9254 448.021 98.1014 447.013 98.1014C445.717 98.1014 444.565 97.8294 443.557 97.2854C442.549 96.7254 441.765 95.9574 441.205 94.9814C440.645 94.0054 440.365 92.9014 440.365 91.6694C440.365 90.4374 440.629 89.3334 441.157 88.3574C441.701 87.3814 442.445 86.6214 443.389 86.0774C444.333 85.5334 445.405 85.2614 446.605 85.2614C447.725 85.2614 448.733 85.5174 449.629 86.0294C450.541 86.5414 451.261 87.2534 451.789 88.1654C452.333 89.0774 452.621 90.1174 452.653 91.2854L442.285 93.3014C442.605 94.3254 443.181 95.1334 444.013 95.7254C444.861 96.3014 445.869 96.5894 447.037 96.5894ZM446.605 86.7254C445.725 86.7254 444.933 86.9334 444.229 87.3494C443.541 87.7494 442.997 88.3174 442.597 89.0534C442.213 89.7734 442.021 90.6054 442.021 91.5494C442.021 91.7894 442.029 91.9654 442.045 92.0774L450.949 90.3494C450.757 89.2934 450.269 88.4294 449.485 87.7574C448.701 87.0694 447.741 86.7254 446.605 86.7254ZM456.289 87.8774C455.937 87.8774 455.633 87.7494 455.377 87.4934C455.137 87.2374 455.017 86.9254 455.017 86.5574C455.017 86.1894 455.137 85.8854 455.377 85.6454C455.633 85.3894 455.937 85.2614 456.289 85.2614C456.641 85.2614 456.945 85.3894 457.201 85.6454C457.457 85.8854 457.585 86.1894 457.585 86.5574C457.585 86.9254 457.457 87.2374 457.201 87.4934C456.945 87.7494 456.641 87.8774 456.289 87.8774ZM456.289 98.1014C455.937 98.1014 455.633 97.9734 455.377 97.7174C455.137 97.4614 455.017 97.1494 455.017 96.7814C455.017 96.4134 455.137 96.1094 455.377 95.8694C455.633 95.6134 455.937 95.4854 456.289 95.4854C456.641 95.4854 456.945 95.6134 457.201 95.8694C457.457 96.1094 457.585 96.4134 457.585 96.7814C457.585 97.1494 457.457 97.4614 457.201 97.7174C456.945 97.9734 456.641 98.1014 456.289 98.1014ZM472.48 98.1254C471.232 98.1254 470.032 97.9254 468.88 97.5254C467.744 97.1254 466.864 96.5974 466.24 95.9414L466.936 94.5734C467.544 95.1814 468.352 95.6774 469.36 96.0614C470.368 96.4294 471.408 96.6134 472.48 96.6134C473.984 96.6134 475.112 96.3414 475.864 95.7974C476.616 95.2374 476.992 94.5174 476.992 93.6374C476.992 92.9654 476.784 92.4294 476.368 92.0294C475.968 91.6294 475.472 91.3254 474.88 91.1174C474.288 90.8934 473.464 90.6534 472.408 90.3974C471.144 90.0774 470.136 89.7734 469.384 89.4854C468.632 89.1814 467.984 88.7254 467.44 88.1174C466.912 87.5094 466.648 86.6854 466.648 85.6454C466.648 84.7974 466.872 84.0294 467.32 83.3414C467.768 82.6374 468.456 82.0774 469.384 81.6614C470.312 81.2454 471.464 81.0374 472.84 81.0374C473.8 81.0374 474.736 81.1734 475.648 81.4454C476.576 81.7014 477.376 82.0614 478.048 82.5254L477.448 83.9414C476.744 83.4774 475.992 83.1334 475.192 82.9094C474.392 82.6694 473.608 82.5494 472.84 82.5494C471.368 82.5494 470.256 82.8374 469.504 83.4134C468.768 83.9734 468.4 84.7014 468.4 85.5974C468.4 86.2694 468.6 86.8134 469 87.2294C469.416 87.6294 469.928 87.9414 470.536 88.1654C471.16 88.3734 471.992 88.6054 473.032 88.8614C474.264 89.1654 475.256 89.4694 476.008 89.7734C476.776 90.0614 477.424 90.5094 477.952 91.1174C478.48 91.7094 478.744 92.5174 478.744 93.5414C478.744 94.3894 478.512 95.1654 478.048 95.8694C477.6 96.5574 476.904 97.1094 475.96 97.5254C475.016 97.9254 473.856 98.1254 472.48 98.1254ZM485.806 98.1014C484.67 98.1014 483.79 97.7814 483.166 97.1414C482.558 96.5014 482.254 95.6134 482.254 94.4774V80.1734H483.958V94.3334C483.958 95.0854 484.134 95.6614 484.486 96.0614C484.838 96.4454 485.366 96.6374 486.07 96.6374C486.518 96.6374 486.902 96.5654 487.222 96.4214L487.342 97.8374C486.846 98.0134 486.334 98.1014 485.806 98.1014ZM494.826 96.5894C495.61 96.5894 496.33 96.4534 496.986 96.1814C497.658 95.8934 498.226 95.4774 498.69 94.9334L499.65 96.0374C499.09 96.7094 498.394 97.2214 497.562 97.5734C496.73 97.9254 495.81 98.1014 494.802 98.1014C493.506 98.1014 492.354 97.8294 491.346 97.2854C490.338 96.7254 489.554 95.9574 488.994 94.9814C488.434 94.0054 488.154 92.9014 488.154 91.6694C488.154 90.4374 488.418 89.3334 488.946 88.3574C489.49 87.3814 490.234 86.6214 491.178 86.0774C492.122 85.5334 493.194 85.2614 494.394 85.2614C495.514 85.2614 496.522 85.5174 497.418 86.0294C498.33 86.5414 499.05 87.2534 499.578 88.1654C500.122 89.0774 500.41 90.1174 500.442 91.2854L490.074 93.3014C490.394 94.3254 490.97 95.1334 491.802 95.7254C492.65 96.3014 493.658 96.5894 494.826 96.5894ZM494.394 86.7254C493.514 86.7254 492.722 86.9334 492.018 87.3494C491.33 87.7494 490.786 88.3174 490.386 89.0534C490.002 89.7734 489.81 90.6054 489.81 91.5494C489.81 91.7894 489.818 91.9654 489.834 92.0774L498.738 90.3494C498.546 89.2934 498.058 88.4294 497.274 87.7574C496.49 87.0694 495.53 86.7254 494.394 86.7254ZM509.31 96.5894C510.094 96.5894 510.814 96.4534 511.47 96.1814C512.142 95.8934 512.71 95.4774 513.174 94.9334L514.134 96.0374C513.574 96.7094 512.878 97.2214 512.046 97.5734C511.214 97.9254 510.294 98.1014 509.286 98.1014C507.99 98.1014 506.838 97.8294 505.83 97.2854C504.822 96.7254 504.038 95.9574 503.478 94.9814C502.918 94.0054 502.638 92.9014 502.638 91.6694C502.638 90.4374 502.902 89.3334 503.43 88.3574C503.974 87.3814 504.718 86.6214 505.662 86.0774C506.606 85.5334 507.678 85.2614 508.878 85.2614C509.998 85.2614 511.006 85.5174 511.902 86.0294C512.814 86.5414 513.534 87.2534 514.062 88.1654C514.606 89.0774 514.894 90.1174 514.926 91.2854L504.558 93.3014C504.878 94.3254 505.454 95.1334 506.286 95.7254C507.134 96.3014 508.142 96.5894 509.31 96.5894ZM508.878 86.7254C507.998 86.7254 507.206 86.9334 506.502 87.3494C505.814 87.7494 505.27 88.3174 504.87 89.0534C504.486 89.7734 504.294 90.6054 504.294 91.5494C504.294 91.7894 504.302 91.9654 504.318 92.0774L513.222 90.3494C513.03 89.2934 512.542 88.4294 511.758 87.7574C510.974 87.0694 510.014 86.7254 508.878 86.7254ZM524.899 85.2614C526.083 85.2614 527.155 85.5334 528.115 86.0774C529.075 86.6054 529.827 87.3574 530.371 88.3334C530.915 89.3094 531.187 90.4214 531.187 91.6694C531.187 92.9334 530.915 94.0534 530.371 95.0294C529.827 96.0054 529.075 96.7654 528.115 97.3094C527.171 97.8374 526.099 98.1014 524.899 98.1014C523.875 98.1014 522.947 97.8934 522.115 97.4774C521.299 97.0454 520.627 96.4214 520.099 95.6054V102.637H518.395V85.3574H520.027V87.8534C520.539 87.0214 521.211 86.3814 522.043 85.9334C522.891 85.4854 523.843 85.2614 524.899 85.2614ZM524.779 96.5894C525.659 96.5894 526.459 96.3894 527.179 95.9894C527.899 95.5734 528.459 94.9894 528.859 94.2374C529.275 93.4854 529.483 92.6294 529.483 91.6694C529.483 90.7094 529.275 89.8614 528.859 89.1254C528.459 88.3734 527.899 87.7894 527.179 87.3734C526.459 86.9574 525.659 86.7494 524.779 86.7494C523.883 86.7494 523.075 86.9574 522.355 87.3734C521.651 87.7894 521.091 88.3734 520.675 89.1254C520.275 89.8614 520.075 90.7094 520.075 91.6694C520.075 92.6294 520.275 93.4854 520.675 94.2374C521.091 94.9894 521.651 95.5734 522.355 95.9894C523.075 96.3894 523.883 96.5894 524.779 96.5894Z" fill="#AEE7F4"/>
<path d="M512.521 164.904V181.704H510.769V173.952H500.257V181.704H498.481V164.904H500.257V172.392H510.769V164.904H512.521ZM523.044 180.312C523.828 180.312 524.548 180.176 525.204 179.904C525.876 179.616 526.444 179.2 526.908 178.656L527.868 179.76C527.308 180.432 526.612 180.944 525.78 181.296C524.948 181.648 524.028 181.824 523.02 181.824C521.724 181.824 520.572 181.552 519.564 181.008C518.556 180.448 517.772 179.68 517.212 178.704C516.652 177.728 516.372 176.624 516.372 175.392C516.372 174.16 516.636 173.056 517.164 172.08C517.708 171.104 518.452 170.344 519.396 169.8C520.34 169.256 521.412 168.984 522.612 168.984C523.732 168.984 524.74 169.24 525.636 169.752C526.548 170.264 527.268 170.976 527.796 171.888C528.34 172.8 528.628 173.84 528.66 175.008L518.292 177.024C518.612 178.048 519.188 178.856 520.02 179.448C520.868 180.024 521.876 180.312 523.044 180.312ZM522.612 170.448C521.732 170.448 520.94 170.656 520.236 171.072C519.548 171.472 519.004 172.04 518.604 172.776C518.22 173.496 518.028 174.328 518.028 175.272C518.028 175.512 518.036 175.688 518.052 175.8L526.956 174.072C526.764 173.016 526.276 172.152 525.492 171.48C524.708 170.792 523.748 170.448 522.612 170.448ZM543.649 169.08V181.704H542.017V179.208C541.505 180.056 540.825 180.704 539.977 181.152C539.145 181.6 538.201 181.824 537.145 181.824C535.961 181.824 534.889 181.552 533.929 181.008C532.969 180.464 532.217 179.704 531.673 178.728C531.129 177.752 530.857 176.64 530.857 175.392C530.857 174.144 531.129 173.032 531.673 172.056C532.217 171.08 532.969 170.328 533.929 169.8C534.889 169.256 535.961 168.984 537.145 168.984C538.169 168.984 539.089 169.2 539.905 169.632C540.737 170.048 541.417 170.664 541.945 171.48V169.08H543.649ZM537.289 180.312C538.169 180.312 538.961 180.112 539.665 179.712C540.385 179.296 540.945 178.712 541.345 177.96C541.761 177.208 541.969 176.352 541.969 175.392C541.969 174.432 541.761 173.576 541.345 172.824C540.945 172.072 540.385 171.496 539.665 171.096C538.961 170.68 538.169 170.472 537.289 170.472C536.393 170.472 535.585 170.68 534.865 171.096C534.161 171.496 533.601 172.072 533.185 172.824C532.785 173.576 532.585 174.432 532.585 175.392C532.585 176.352 532.785 177.208 533.185 177.96C533.601 178.712 534.161 179.296 534.865 179.712C535.585 180.112 536.393 180.312 537.289 180.312ZM550.026 171.552C550.426 170.704 551.018 170.064 551.802 169.632C552.602 169.2 553.586 168.984 554.754 168.984V170.64L554.346 170.616C553.018 170.616 551.978 171.024 551.226 171.84C550.474 172.656 550.098 173.8 550.098 175.272V181.704H548.394V169.08H550.026V171.552ZM564.056 180.936C563.736 181.224 563.344 181.448 562.88 181.608C562.416 181.752 561.928 181.824 561.416 181.824C560.232 181.824 559.32 181.504 558.68 180.864C558.04 180.224 557.72 179.32 557.72 178.152V166.32H559.424V169.08H563.24V170.52H559.424V178.056C559.424 178.808 559.608 179.384 559.976 179.784C560.344 180.168 560.88 180.36 561.584 180.36C562.352 180.36 562.976 180.144 563.456 179.712L564.056 180.936ZM585.257 181.704L581.417 176.304C580.985 176.352 580.537 176.376 580.073 176.376H575.561V181.704H573.785V164.904H580.073C582.217 164.904 583.897 165.416 585.113 166.44C586.329 167.464 586.937 168.872 586.937 170.664C586.937 171.976 586.601 173.088 585.929 174C585.273 174.896 584.329 175.544 583.097 175.944L587.201 181.704H585.257ZM580.025 174.864C581.689 174.864 582.961 174.496 583.841 173.76C584.721 173.024 585.161 171.992 585.161 170.664C585.161 169.304 584.721 168.264 583.841 167.544C582.961 166.808 581.689 166.44 580.025 166.44H575.561V174.864H580.025ZM602.289 169.08V181.704H600.657V179.208C600.145 180.056 599.465 180.704 598.617 181.152C597.785 181.6 596.841 181.824 595.785 181.824C594.601 181.824 593.529 181.552 592.569 181.008C591.609 180.464 590.857 179.704 590.313 178.728C589.769 177.752 589.497 176.64 589.497 175.392C589.497 174.144 589.769 173.032 590.313 172.056C590.857 171.08 591.609 170.328 592.569 169.8C593.529 169.256 594.601 168.984 595.785 168.984C596.809 168.984 597.729 169.2 598.545 169.632C599.377 170.048 600.057 170.664 600.585 171.48V169.08H602.289ZM595.929 180.312C596.809 180.312 597.601 180.112 598.305 179.712C599.025 179.296 599.585 178.712 599.985 177.96C600.401 177.208 600.609 176.352 600.609 175.392C600.609 174.432 600.401 173.576 599.985 172.824C599.585 172.072 599.025 171.496 598.305 171.096C597.601 170.68 596.809 170.472 595.929 170.472C595.033 170.472 594.225 170.68 593.505 171.096C592.801 171.496 592.241 172.072 591.825 172.824C591.425 173.576 591.225 174.432 591.225 175.392C591.225 176.352 591.425 177.208 591.825 177.96C592.241 178.712 592.801 179.296 593.505 179.712C594.225 180.112 595.033 180.312 595.929 180.312ZM613.251 180.936C612.931 181.224 612.539 181.448 612.075 181.608C611.611 181.752 611.123 181.824 610.611 181.824C609.427 181.824 608.515 181.504 607.875 180.864C607.235 180.224 606.915 179.32 606.915 178.152V166.32H608.619V169.08H612.435V170.52H608.619V178.056C608.619 178.808 608.803 179.384 609.171 179.784C609.539 180.168 610.075 180.36 610.779 180.36C611.547 180.36 612.171 180.144 612.651 179.712L613.251 180.936ZM621.294 180.312C622.078 180.312 622.798 180.176 623.454 179.904C624.126 179.616 624.694 179.2 625.158 178.656L626.118 179.76C625.558 180.432 624.862 180.944 624.03 181.296C623.198 181.648 622.278 181.824 621.27 181.824C619.974 181.824 618.822 181.552 617.814 181.008C616.806 180.448 616.022 179.68 615.462 178.704C614.902 177.728 614.622 176.624 614.622 175.392C614.622 174.16 614.886 173.056 615.414 172.08C615.958 171.104 616.702 170.344 617.646 169.8C618.59 169.256 619.662 168.984 620.862 168.984C621.982 168.984 622.99 169.24 623.886 169.752C624.798 170.264 625.518 170.976 626.046 171.888C626.59 172.8 626.878 173.84 626.91 175.008L616.542 177.024C616.862 178.048 617.438 178.856 618.27 179.448C619.118 180.024 620.126 180.312 621.294 180.312ZM620.862 170.448C619.982 170.448 619.19 170.656 618.486 171.072C617.798 171.472 617.254 172.04 616.854 172.776C616.47 173.496 616.278 174.328 616.278 175.272C616.278 175.512 616.286 175.688 616.302 175.8L625.206 174.072C625.014 173.016 624.526 172.152 623.742 171.48C622.958 170.792 621.998 170.448 620.862 170.448ZM630.547 171.6C630.195 171.6 629.891 171.472 629.635 171.216C629.395 170.96 629.275 170.648 629.275 170.28C629.275 169.912 629.395 169.608 629.635 169.368C629.891 169.112 630.195 168.984 630.547 168.984C630.899 168.984 631.203 169.112 631.459 169.368C631.715 169.608 631.843 169.912 631.843 170.28C631.843 170.648 631.715 170.96 631.459 171.216C631.203 171.472 630.899 171.6 630.547 171.6ZM630.547 181.824C630.195 181.824 629.891 181.696 629.635 181.44C629.395 181.184 629.275 180.872 629.275 180.504C629.275 180.136 629.395 179.832 629.635 179.592C629.891 179.336 630.195 179.208 630.547 179.208C630.899 179.208 631.203 179.336 631.459 179.592C631.715 179.832 631.843 180.136 631.843 180.504C631.843 180.872 631.715 181.184 631.459 181.44C631.203 181.696 630.899 181.824 630.547 181.824ZM646.738 181.848C645.49 181.848 644.29 181.648 643.138 181.248C642.002 180.848 641.122 180.32 640.498 179.664L641.194 178.296C641.802 178.904 642.61 179.4 643.618 179.784C644.626 180.152 645.666 180.336 646.738 180.336C648.242 180.336 649.37 180.064 650.122 179.52C650.874 178.96 651.25 178.24 651.25 177.36C651.25 176.688 651.042 176.152 650.626 175.752C650.226 175.352 649.73 175.048 649.138 174.84C648.546 174.616 647.722 174.376 646.666 174.12C645.402 173.8 644.394 173.496 643.642 173.208C642.89 172.904 642.242 172.448 641.698 171.84C641.17 171.232 640.906 170.408 640.906 169.368C640.906 168.52 641.13 167.752 641.578 167.064C642.026 166.36 642.714 165.8 643.642 165.384C644.57 164.968 645.722 164.76 647.098 164.76C648.058 164.76 648.994 164.896 649.906 165.168C650.834 165.424 651.634 165.784 652.306 166.248L651.706 167.664C651.002 167.2 650.25 166.856 649.45 166.632C648.65 166.392 647.866 166.272 647.098 166.272C645.626 166.272 644.514 166.56 643.762 167.136C643.026 167.696 642.658 168.424 642.658 169.32C642.658 169.992 642.858 170.536 643.258 170.952C643.674 171.352 644.186 171.664 644.794 171.888C645.418 172.096 646.25 172.328 647.29 172.584C648.522 172.888 649.514 173.192 650.266 173.496C651.034 173.784 651.682 174.232 652.21 174.84C652.738 175.432 653.002 176.24 653.002 177.264C653.002 178.112 652.77 178.888 652.306 179.592C651.858 180.28 651.162 180.832 650.218 181.248C649.274 181.648 648.114 181.848 646.738 181.848ZM660.063 181.824C658.927 181.824 658.047 181.504 657.423 180.864C656.815 180.224 656.511 179.336 656.511 178.2V163.896H658.215V178.056C658.215 178.808 658.391 179.384 658.743 179.784C659.095 180.168 659.623 180.36 660.327 180.36C660.775 180.36 661.159 180.288 661.479 180.144L661.599 181.56C661.103 181.736 660.591 181.824 660.063 181.824ZM669.083 180.312C669.867 180.312 670.587 180.176 671.243 179.904C671.915 179.616 672.483 179.2 672.947 178.656L673.907 179.76C673.347 180.432 672.651 180.944 671.819 181.296C670.987 181.648 670.067 181.824 669.059 181.824C667.763 181.824 666.611 181.552 665.603 181.008C664.595 180.448 663.811 179.68 663.251 178.704C662.691 177.728 662.411 176.624 662.411 175.392C662.411 174.16 662.675 173.056 663.203 172.08C663.747 171.104 664.491 170.344 665.435 169.8C666.379 169.256 667.451 168.984 668.651 168.984C669.771 168.984 670.779 169.24 671.675 169.752C672.587 170.264 673.307 170.976 673.835 171.888C674.379 172.8 674.667 173.84 674.699 175.008L664.331 177.024C664.651 178.048 665.227 178.856 666.059 179.448C666.907 180.024 667.915 180.312 669.083 180.312ZM668.651 170.448C667.771 170.448 666.979 170.656 666.275 171.072C665.587 171.472 665.043 172.04 664.643 172.776C664.259 173.496 664.067 174.328 664.067 175.272C664.067 175.512 664.075 175.688 664.091 175.8L672.995 174.072C672.803 173.016 672.315 172.152 671.531 171.48C670.747 170.792 669.787 170.448 668.651 170.448ZM683.568 180.312C684.352 180.312 685.072 180.176 685.728 179.904C686.4 179.616 686.968 179.2 687.432 178.656L688.392 179.76C687.832 180.432 687.136 180.944 686.304 181.296C685.472 181.648 684.552 181.824 683.544 181.824C682.248 181.824 681.096 181.552 680.088 181.008C679.08 180.448 678.296 179.68 677.736 178.704C677.176 177.728 676.896 176.624 676.896 175.392C676.896 174.16 677.16 173.056 677.688 172.08C678.232 171.104 678.976 170.344 679.92 169.8C680.864 169.256 681.936 168.984 683.136 168.984C684.256 168.984 685.264 169.24 686.16 169.752C687.072 170.264 687.792 170.976 688.32 171.888C688.864 172.8 689.152 173.84 689.184 175.008L678.816 177.024C679.136 178.048 679.712 178.856 680.544 179.448C681.392 180.024 682.4 180.312 683.568 180.312ZM683.136 170.448C682.256 170.448 681.464 170.656 680.76 171.072C680.072 171.472 679.528 172.04 679.128 172.776C678.744 173.496 678.552 174.328 678.552 175.272C678.552 175.512 678.56 175.688 678.576 175.8L687.48 174.072C687.288 173.016 686.8 172.152 686.016 171.48C685.232 170.792 684.272 170.448 683.136 170.448ZM699.156 168.984C700.34 168.984 701.412 169.256 702.372 169.8C703.332 170.328 704.084 171.08 704.628 172.056C705.172 173.032 705.444 174.144 705.444 175.392C705.444 176.656 705.172 177.776 704.628 178.752C704.084 179.728 703.332 180.488 702.372 181.032C701.428 181.56 700.356 181.824 699.156 181.824C698.132 181.824 697.204 181.616 696.372 181.2C695.556 180.768 694.884 180.144 694.356 179.328V186.36H692.652V169.08H694.284V171.576C694.796 170.744 695.468 170.104 696.3 169.656C697.148 169.208 698.1 168.984 699.156 168.984ZM699.036 180.312C699.916 180.312 700.716 180.112 701.436 179.712C702.156 179.296 702.716 178.712 703.116 177.96C703.532 177.208 703.74 176.352 703.74 175.392C703.74 174.432 703.532 173.584 703.116 172.848C702.716 172.096 702.156 171.512 701.436 171.096C700.716 170.68 699.916 170.472 699.036 170.472C698.14 170.472 697.332 170.68 696.612 171.096C695.908 171.512 695.348 172.096 694.932 172.848C694.532 173.584 694.332 174.432 694.332 175.392C694.332 176.352 694.532 177.208 694.932 177.96C695.348 178.712 695.908 179.296 696.612 179.712C697.332 180.112 698.14 180.312 699.036 180.312Z" fill="#FFDEEB"/>
<path d="M285.001 833.628C286.921 833.628 288.417 834.18 289.489 835.284C290.561 836.388 291.097 837.988 291.097 840.084V850.572H289.345V840.132C289.345 838.5 288.929 837.276 288.097 836.46C287.281 835.628 286.161 835.212 284.737 835.212C283.233 835.212 282.057 835.652 281.209 836.532C280.361 837.396 279.937 838.724 279.937 840.516V850.572H278.185V840.132C278.185 838.5 277.785 837.276 276.985 836.46C276.185 835.628 275.073 835.212 273.649 835.212C272.129 835.212 270.937 835.652 270.073 836.532C269.225 837.396 268.801 838.724 268.801 840.516V850.572H267.025V833.772H268.729V836.58C269.193 835.62 269.881 834.892 270.793 834.396C271.705 833.884 272.785 833.628 274.033 833.628C275.345 833.628 276.465 833.908 277.393 834.468C278.337 835.012 279.017 835.78 279.433 836.772C279.913 835.748 280.633 834.972 281.593 834.444C282.569 833.9 283.705 833.628 285.001 833.628ZM303.303 833.628C305.479 833.628 307.191 834.268 308.439 835.548C309.703 836.812 310.335 838.644 310.335 841.044V850.572H308.583V845.628H298.023V850.572H296.295V841.044C296.295 838.644 296.919 836.812 298.167 835.548C299.431 834.268 301.143 833.628 303.303 833.628ZM308.583 844.092V840.876C308.583 839.004 308.119 837.596 307.191 836.652C306.263 835.692 304.967 835.212 303.303 835.212C301.639 835.212 300.343 835.692 299.415 836.652C298.487 837.596 298.023 839.004 298.023 840.876V844.092H308.583ZM325.96 850.572L320.536 843.18L315.136 850.572H313.096L319.48 841.932L313.504 833.772H315.544L320.608 840.636L325.648 833.772H327.568L321.616 841.884L328.024 850.572H325.96Z" fill="#AEE7F4"/>
<path d="M280.593 859.372V876.172H278.865V860.908H274.905V859.372H280.593ZM289.025 866.26C291.457 866.26 293.225 866.7 294.329 867.58C295.449 868.444 296.009 869.66 296.009 871.228C296.009 872.204 295.777 873.076 295.313 873.844C294.865 874.612 294.185 875.22 293.273 875.668C292.361 876.1 291.241 876.316 289.913 876.316C288.713 876.316 287.569 876.124 286.481 875.74C285.409 875.34 284.545 874.812 283.889 874.156L284.729 872.788C285.289 873.364 286.025 873.836 286.937 874.204C287.849 874.556 288.833 874.732 289.889 874.732C291.281 874.732 292.353 874.42 293.105 873.796C293.873 873.172 294.257 872.34 294.257 871.3C294.257 870.148 293.825 869.276 292.961 868.684C292.113 868.092 290.673 867.796 288.641 867.796H285.065L285.929 859.372H295.121V860.908H287.441L286.865 866.26H289.025ZM299.499 876.292C299.147 876.292 298.843 876.164 298.587 875.908C298.347 875.652 298.227 875.34 298.227 874.972C298.227 874.604 298.347 874.3 298.587 874.06C298.843 873.804 299.147 873.676 299.499 873.676C299.851 873.676 300.155 873.804 300.411 874.06C300.667 874.3 300.795 874.604 300.795 874.972C300.795 875.34 300.667 875.652 300.411 875.908C300.155 876.164 299.851 876.292 299.499 876.292ZM307.705 866.26C310.137 866.26 311.905 866.7 313.009 867.58C314.129 868.444 314.689 869.66 314.689 871.228C314.689 872.204 314.457 873.076 313.993 873.844C313.545 874.612 312.865 875.22 311.953 875.668C311.041 876.1 309.921 876.316 308.593 876.316C307.393 876.316 306.249 876.124 305.161 875.74C304.089 875.34 303.225 874.812 302.569 874.156L303.409 872.788C303.969 873.364 304.705 873.836 305.617 874.204C306.529 874.556 307.513 874.732 308.569 874.732C309.961 874.732 311.033 874.42 311.785 873.796C312.553 873.172 312.937 872.34 312.937 871.3C312.937 870.148 312.505 869.276 311.641 868.684C310.793 868.092 309.353 867.796 307.321 867.796H303.745L304.609 859.372H313.801V860.908H306.121L305.545 866.26H307.705Z" fill="#AEE7F4"/>
<path d="M299.911 805.156V821.423" stroke="#AEE7F4" stroke-width="2.2806" stroke-miterlimit="10"/>
<path d="M139.597 246.282C141.517 246.282 143.013 246.834 144.085 247.938C145.158 249.042 145.694 250.642 145.694 252.738V263.226H143.941V252.786C143.941 251.154 143.525 249.93 142.693 249.114C141.877 248.282 140.757 247.866 139.333 247.866C137.829 247.866 136.653 248.306 135.805 249.186C134.957 250.05 134.533 251.378 134.533 253.17V263.226H132.781V252.786C132.781 251.154 132.381 249.93 131.581 249.114C130.781 248.282 129.669 247.866 128.245 247.866C126.725 247.866 125.533 248.306 124.669 249.186C123.821 250.05 123.397 251.378 123.397 253.17V263.226H121.621V246.426H123.325V249.234C123.789 248.274 124.477 247.546 125.389 247.05C126.301 246.538 127.381 246.282 128.629 246.282C129.941 246.282 131.061 246.562 131.989 247.122C132.933 247.666 133.613 248.434 134.029 249.426C134.509 248.402 135.229 247.626 136.189 247.098C137.165 246.554 138.301 246.282 139.597 246.282ZM154.516 247.962V261.69H157.924V263.226H149.356V261.69H152.764V247.962H149.356V246.426H157.924V247.962H154.516ZM169.115 246.282C171.131 246.282 172.707 246.882 173.843 248.082C174.995 249.282 175.571 250.994 175.571 253.218V263.226H173.795V253.266C173.795 251.49 173.355 250.146 172.475 249.234C171.595 248.322 170.363 247.866 168.779 247.866C167.115 247.866 165.819 248.354 164.891 249.33C163.963 250.29 163.499 251.738 163.499 253.674V263.226H161.723V246.426H163.427V249.258C164.499 247.274 166.395 246.282 169.115 246.282Z" fill="#AEE7F4"/>
<path d="M130.923 272.025V288.825H129.195V273.561H125.235V272.025H130.923ZM141.635 288.969C140.339 288.969 139.179 288.625 138.155 287.937C137.147 287.249 136.355 286.265 135.779 284.985C135.219 283.689 134.939 282.169 134.939 280.425C134.939 278.681 135.219 277.169 135.779 275.889C136.355 274.593 137.147 273.601 138.155 272.913C139.179 272.225 140.339 271.881 141.635 271.881C142.931 271.881 144.083 272.225 145.091 272.913C146.115 273.601 146.915 274.593 147.491 275.889C148.067 277.169 148.355 278.681 148.355 280.425C148.355 282.169 148.067 283.689 147.491 284.985C146.915 286.265 146.115 287.249 145.091 287.937C144.083 288.625 142.931 288.969 141.635 288.969ZM141.635 287.385C142.611 287.385 143.467 287.113 144.203 286.569C144.955 286.025 145.539 285.233 145.955 284.193C146.371 283.153 146.579 281.897 146.579 280.425C146.579 278.953 146.371 277.697 145.955 276.657C145.539 275.617 144.955 274.825 144.203 274.281C143.467 273.737 142.611 273.465 141.635 273.465C140.659 273.465 139.795 273.737 139.043 274.281C138.307 274.825 137.731 275.617 137.315 276.657C136.899 277.697 136.691 278.953 136.691 280.425C136.691 281.897 136.899 283.153 137.315 284.193C137.731 285.233 138.307 286.025 139.043 286.569C139.795 287.113 140.659 287.385 141.635 287.385ZM151.868 288.945C151.516 288.945 151.212 288.817 150.956 288.561C150.716 288.305 150.596 287.993 150.596 287.625C150.596 287.257 150.716 286.953 150.956 286.713C151.212 286.457 151.516 286.329 151.868 286.329C152.22 286.329 152.524 286.457 152.78 286.713C153.036 286.953 153.164 287.257 153.164 287.625C153.164 287.993 153.036 288.305 152.78 288.561C152.524 288.817 152.22 288.945 151.868 288.945ZM162.096 288.969C160.8 288.969 159.64 288.625 158.616 287.937C157.608 287.249 156.816 286.265 156.24 284.985C155.68 283.689 155.4 282.169 155.4 280.425C155.4 278.681 155.68 277.169 156.24 275.889C156.816 274.593 157.608 273.601 158.616 272.913C159.64 272.225 160.8 271.881 162.096 271.881C163.392 271.881 164.544 272.225 165.552 272.913C166.576 273.601 167.376 274.593 167.952 275.889C168.528 277.169 168.816 278.681 168.816 280.425C168.816 282.169 168.528 283.689 167.952 284.985C167.376 286.265 166.576 287.249 165.552 287.937C164.544 288.625 163.392 288.969 162.096 288.969ZM162.096 287.385C163.072 287.385 163.928 287.113 164.664 286.569C165.416 286.025 166 285.233 166.416 284.193C166.832 283.153 167.04 281.897 167.04 280.425C167.04 278.953 166.832 277.697 166.416 276.657C166 275.617 165.416 274.825 164.664 274.281C163.928 273.737 163.072 273.465 162.096 273.465C161.12 273.465 160.256 273.737 159.504 274.281C158.768 274.825 158.192 275.617 157.776 276.657C157.36 277.697 157.152 278.953 157.152 280.425C157.152 281.897 157.36 283.153 157.776 284.193C158.192 285.233 158.768 286.025 159.504 286.569C160.256 287.113 161.12 287.385 162.096 287.385Z" fill="#AEE7F4"/>
<path d="M190.044 263.378H206.311" stroke="#AEE7F4" stroke-width="2.2806" stroke-miterlimit="10"/>
<path d="M797.589 319.514C799.509 319.514 801.005 320.066 802.077 321.17C803.149 322.274 803.685 323.874 803.685 325.97V336.458H801.933V326.018C801.933 324.386 801.517 323.162 800.685 322.346C799.869 321.514 798.749 321.098 797.325 321.098C795.821 321.098 794.645 321.538 793.797 322.418C792.949 323.282 792.525 324.61 792.525 326.402V336.458H790.773V326.018C790.773 324.386 790.373 323.162 789.573 322.346C788.773 321.514 787.661 321.098 786.237 321.098C784.717 321.098 783.525 321.538 782.661 322.418C781.813 323.282 781.389 324.61 781.389 326.402V336.458H779.613V319.658H781.317V322.466C781.781 321.506 782.469 320.778 783.381 320.282C784.293 319.77 785.373 319.514 786.621 319.514C787.933 319.514 789.053 319.794 789.981 320.354C790.925 320.898 791.605 321.666 792.021 322.658C792.501 321.634 793.221 320.858 794.181 320.33C795.157 319.786 796.293 319.514 797.589 319.514ZM815.891 319.514C818.067 319.514 819.779 320.154 821.027 321.434C822.291 322.698 822.923 324.53 822.923 326.93V336.458H821.171V331.514H810.611V336.458H808.883V326.93C808.883 324.53 809.507 322.698 810.755 321.434C812.019 320.154 813.731 319.514 815.891 319.514ZM821.171 329.978V326.762C821.171 324.89 820.707 323.482 819.779 322.538C818.851 321.578 817.555 321.098 815.891 321.098C814.227 321.098 812.931 321.578 812.003 322.538C811.075 323.482 810.611 324.89 810.611 326.762V329.978H821.171ZM838.547 336.458L833.123 329.066L827.723 336.458H825.683L832.067 327.818L826.091 319.658H828.131L833.195 326.522L838.235 319.658H840.155L834.203 327.77L840.611 336.458H838.547Z" fill="#FFDEEB"/>
<path d="M803.482 353.25C804.538 353.602 805.346 354.13 805.906 354.834C806.482 355.538 806.77 356.386 806.77 357.378C806.77 358.354 806.506 359.21 805.978 359.946C805.45 360.666 804.69 361.226 803.698 361.626C802.722 362.01 801.57 362.202 800.242 362.202C798.226 362.202 796.642 361.77 795.49 360.906C794.338 360.042 793.762 358.866 793.762 357.378C793.762 356.37 794.034 355.522 794.578 354.834C795.138 354.13 795.946 353.602 797.002 353.25C796.138 352.914 795.482 352.434 795.034 351.81C794.586 351.17 794.362 350.418 794.362 349.554C794.362 348.194 794.89 347.114 795.946 346.314C797.018 345.514 798.45 345.114 800.242 345.114C801.426 345.114 802.458 345.298 803.338 345.666C804.234 346.018 804.93 346.53 805.426 347.202C805.922 347.874 806.17 348.658 806.17 349.554C806.17 350.418 805.938 351.17 805.474 351.81C805.01 352.434 804.346 352.914 803.482 353.25ZM796.09 349.602C796.09 350.53 796.458 351.266 797.194 351.81C797.93 352.354 798.946 352.626 800.242 352.626C801.538 352.626 802.554 352.354 803.29 351.81C804.042 351.266 804.418 350.538 804.418 349.626C804.418 348.682 804.034 347.938 803.266 347.394C802.514 346.85 801.506 346.578 800.242 346.578C798.962 346.578 797.946 346.85 797.194 347.394C796.458 347.938 796.09 348.674 796.09 349.602ZM800.242 360.738C801.73 360.738 802.89 360.434 803.722 359.826C804.57 359.218 804.994 358.394 804.994 357.354C804.994 356.314 804.57 355.498 803.722 354.906C802.89 354.298 801.73 353.994 800.242 353.994C798.77 353.994 797.61 354.298 796.762 354.906C795.93 355.498 795.514 356.314 795.514 357.354C795.514 358.41 795.93 359.242 796.762 359.85C797.594 360.442 798.754 360.738 800.242 360.738ZM813.579 352.146C816.011 352.146 817.779 352.586 818.883 353.466C820.003 354.33 820.563 355.546 820.563 357.114C820.563 358.09 820.331 358.962 819.867 359.73C819.419 360.498 818.739 361.106 817.827 361.554C816.915 361.986 815.795 362.202 814.467 362.202C813.267 362.202 812.123 362.01 811.035 361.626C809.963 361.226 809.099 360.698 808.443 360.042L809.283 358.674C809.843 359.25 810.579 359.722 811.491 360.09C812.403 360.442 813.387 360.618 814.443 360.618C815.835 360.618 816.907 360.306 817.659 359.682C818.427 359.058 818.811 358.226 818.811 357.186C818.811 356.034 818.379 355.162 817.515 354.57C816.667 353.978 815.227 353.682 813.195 353.682H809.619L810.483 345.258H819.675V346.794H811.995L811.419 352.146H813.579Z" fill="#FFDEEB"/>
<path d="M754.667 323.556H738.4" stroke="#FFDEEB" stroke-width="2.2806" stroke-miterlimit="10"/>
<path d="M732.02 333.325L725.887 325.036L692.23 349.938L698.363 358.227L732.02 333.325Z" fill="#FFDEEB"/>
<path d="M522.208 749.047L531.388 747.953L529.527 732.33L520.347 733.424L522.208 749.047Z" fill="#FFDEEB"/>
<path d="M617.393 744.233L625.603 739.984L607.505 705.013L599.295 709.262L617.393 744.233Z" fill="#FFDEEB"/>
<path d="M686.727 681.017L693.028 674.253L673.386 655.956L667.085 662.72L686.727 681.017Z" fill="#FFDEEB"/>
<path d="M734.071 603.15L737.476 594.556L718.799 587.157L715.395 595.752L734.071 603.15Z" fill="#FFDEEB"/>
<path d="M772.212 518.339L772.742 509.109L736.267 507.017L735.737 516.247L772.212 518.339Z" fill="#FFDEEB"/>
<path d="M756.461 425.642L753.413 416.538L726.86 425.428L729.908 434.532L756.461 425.642Z" fill="#FFDEEB"/>
<path d="M569.65 242.503L559.808 240.086L555.208 258.819L565.049 261.236L569.65 242.503Z" fill="#FFDEEB"/>
<path d="M652.403 278.356L645.148 273.533L631.616 293.891L638.87 298.713L652.403 278.356Z" fill="#FFDEEB"/>
<path d="M434.389 762.776L446.455 764.989L453.222 728.093L441.156 725.88L434.389 762.776Z" fill="#AEE7F4"/>
<path d="M327.33 751.085L337.623 757.758L376.066 698.461L365.773 691.788L327.33 751.085Z" fill="#AEE7F4"/>
<path d="M269.042 665.85L276.049 674.926L312.916 646.462L305.908 637.386L269.042 665.85Z" fill="#AEE7F4"/>
<path d="M214.924 580.415L218.267 591.012L272.946 573.76L269.602 563.163L214.924 580.415Z" fill="#AEE7F4"/>
<path d="M220.628 480.421L220.214 491.347L258.143 492.783L258.557 481.858L220.628 480.421Z" fill="#AEE7F4"/>
<path d="M251.914 389.397L247.458 400.826L274.705 411.451L279.161 400.022L251.914 389.397Z" fill="#AEE7F4"/>
<path d="M311.238 319.1L304.118 326.923L316.083 337.812L323.203 329.989L311.238 319.1Z" fill="#AEE7F4"/>
<path d="M375.765 259.803L366.99 264.87L378.634 285.038L387.409 279.972L375.765 259.803Z" fill="#AEE7F4"/>
<path d="M458.699 218.894L448.71 220.602L454.701 255.649L464.69 253.941L458.699 218.894Z" fill="#AEE7F4"/>
</svg>
