<svg width="960" height="960" viewBox="0 0 960 960" fill="none" xmlns="http://www.w3.org/2000/svg">
<path d="M464.178 253.334L454.311 255.023L451.467 238.311L461.333 236.623L464.178 253.334ZM519.111 729.511L528.178 728.445L530.045 743.823L520.978 744.889L519.111 729.511ZM597.511 705.689L605.6 701.511L615.111 719.823L607.022 724L597.511 705.689ZM664.889 659.2L671.111 652.534L689.867 669.956L683.644 676.623L664.889 659.2ZM733.156 513.6L733.689 504.445L763.911 506.223L763.378 515.378L733.156 513.6ZM727.022 431.556L724.267 423.378L744.445 416.623L747.2 424.8L727.022 431.556ZM636.889 297.334L629.689 292.534L641.422 274.845L648.622 279.645L636.889 297.334ZM497.156 742.4C496 742.4 494.845 742.4 493.689 742.4L493.867 732.178C494.933 732.178 496.089 732.178 497.245 732.178V742.4H497.156ZM506.578 742.223L506.222 732C507.289 732 508.444 731.911 509.511 731.823L510.045 742.045C508.889 742.134 507.733 742.223 506.578 742.223ZM479.822 741.778C478.667 741.689 477.511 741.6 476.356 741.511L477.156 731.289C478.222 731.378 479.378 731.467 480.445 731.556L479.822 741.778ZM462.489 740C461.333 739.823 460.178 739.645 459.022 739.467L460.622 729.334C461.689 729.511 462.845 729.689 463.911 729.778L462.489 740ZM541.156 738.578L539.378 728.534C540.445 728.356 541.6 728.178 542.667 727.911L544.622 737.956C543.467 738.134 542.311 738.311 541.156 738.578ZM558.222 734.934L555.733 724.978C556.8 724.711 557.867 724.445 558.933 724.178L561.6 734.045C560.445 734.311 559.378 734.667 558.222 734.934ZM428.445 732.889C427.289 732.534 426.222 732.267 425.067 731.911L428 722.134C429.067 722.489 430.133 722.756 431.2 723.111L428.445 732.889ZM574.933 730.134L571.733 720.445C572.8 720.089 573.867 719.734 574.933 719.378L578.222 729.067C577.156 729.334 576 729.689 574.933 730.134ZM411.822 727.467C410.756 727.111 409.6 726.667 408.533 726.223L412.178 716.623C413.245 716.978 414.311 717.423 415.289 717.778L411.822 727.467ZM591.289 724.178L587.467 714.667C588.533 714.223 589.511 713.867 590.489 713.423L594.489 722.845C593.422 723.289 592.356 723.734 591.289 724.178ZM395.644 720.978C394.578 720.534 393.511 720 392.444 719.556L396.711 710.223C397.689 710.667 398.756 711.111 399.733 711.556L395.644 720.978ZM380 713.334C378.933 712.8 377.956 712.267 376.889 711.645L381.778 702.667C382.756 703.2 383.733 703.734 384.711 704.267L380 713.334ZM622.489 708.889L617.333 700C618.311 699.467 619.289 698.845 620.178 698.311L625.422 707.111C624.444 707.734 623.467 708.356 622.489 708.889ZM637.245 699.734L631.556 691.289C632.445 690.667 633.422 690.045 634.311 689.423L640.178 697.867C639.111 698.4 638.133 699.023 637.245 699.734ZM350.4 695.023C349.422 694.311 348.533 693.689 347.556 692.978L353.6 684.711C354.489 685.334 355.378 686.045 356.267 686.667L350.4 695.023ZM651.289 689.511L644.978 681.423C645.867 680.711 646.756 680.089 647.556 679.378L653.956 687.378C653.156 688.089 652.178 688.8 651.289 689.511ZM336.622 684.356C335.733 683.645 334.845 682.845 333.956 682.134L340.622 674.4C341.511 675.111 342.311 675.823 343.2 676.534L336.622 684.356ZM664.622 678.4L657.778 670.756C658.578 670.045 659.467 669.245 660.267 668.534L667.2 676.089C666.4 676.8 665.511 677.6 664.622 678.4ZM323.644 672.711C322.844 671.911 321.956 671.111 321.156 670.311L328.356 663.023C329.156 663.823 329.956 664.534 330.756 665.334L323.644 672.711ZM311.467 660.267C310.667 659.378 309.867 658.578 309.156 657.689L316.8 650.934C317.511 651.734 318.311 652.623 319.022 653.423L311.467 660.267ZM688.889 653.423L681.067 646.756C681.778 645.867 682.489 645.067 683.2 644.178L691.111 650.667C690.4 651.645 689.689 652.534 688.889 653.423ZM699.733 639.823L691.467 633.778C692.089 632.889 692.8 632 693.422 631.111L701.778 637.067C701.067 637.956 700.444 638.845 699.733 639.823ZM289.867 633.067C289.244 632.089 288.533 631.2 287.911 630.223L296.444 624.534C297.067 625.423 297.689 626.4 298.311 627.289L289.867 633.067ZM709.6 625.423L700.978 619.911C701.6 618.934 702.133 618.045 702.756 617.067L711.467 622.4C710.845 623.467 710.222 624.445 709.6 625.423ZM280.533 618.4C279.911 617.423 279.378 616.445 278.756 615.378L287.644 610.311C288.178 611.289 288.711 612.267 289.333 613.156L280.533 618.4ZM718.4 610.4L709.422 605.511C709.956 604.534 710.489 603.556 711.022 602.578L720.089 607.289C719.467 608.356 718.933 609.334 718.4 610.4ZM272.178 603.2C271.645 602.134 271.111 601.156 270.667 600.089L279.911 595.645C280.356 596.623 280.889 597.689 281.422 598.667L272.178 603.2ZM264.978 587.378C264.533 586.311 264.089 585.245 263.644 584.178L273.156 580.356C273.6 581.423 273.956 582.4 274.4 583.467L264.978 587.378ZM732.8 578.667L723.2 575.111C723.556 574.045 724 572.978 724.356 572L733.956 575.467C733.6 576.534 733.245 577.6 732.8 578.667ZM738.4 562.134L728.622 559.2C728.978 558.134 729.244 557.067 729.511 556L739.378 558.756C739.022 559.911 738.667 560.978 738.4 562.134ZM253.867 554.4C253.6 553.245 253.333 552.178 252.978 551.023L262.933 548.534C263.2 549.6 263.467 550.667 263.733 551.823L253.867 554.4ZM742.667 545.245L732.711 543.023C732.978 541.956 733.156 540.889 733.422 539.734L743.467 541.778C743.2 543.023 742.933 544.178 742.667 545.245ZM250.044 537.423C249.867 536.267 249.6 535.111 249.422 533.956L259.467 532.178C259.645 533.245 259.822 534.4 260.089 535.467L250.044 537.423ZM745.867 528.178L735.733 526.667C735.911 525.6 736.089 524.445 736.178 523.378L746.311 524.711C746.222 525.867 746.044 527.023 745.867 528.178ZM247.467 520.178C247.289 519.023 247.2 517.867 247.111 516.711L257.333 515.645C257.422 516.711 257.6 517.867 257.689 518.934L247.467 520.178ZM246.044 502.845C245.956 501.689 245.956 500.534 245.867 499.378L256.089 499.023C256.089 500.178 256.178 501.245 256.267 502.4L246.044 502.845ZM748.622 493.511L738.4 493.423V490.134L748.622 490.045V493.511ZM737.956 476.711C737.867 475.556 737.778 474.489 737.778 473.334L748 472.623C748.089 473.778 748.178 474.934 748.267 476.089L737.956 476.711ZM256.978 469.067L246.756 468.178C246.844 467.023 246.933 465.867 247.111 464.711L257.333 465.778C257.156 466.845 257.067 467.911 256.978 469.067ZM736.445 460.089C736.267 459.023 736.178 457.867 736 456.8L746.133 455.378C746.311 456.534 746.489 457.689 746.578 458.845L736.445 460.089ZM259.022 452.445L248.889 450.845C249.067 449.689 249.245 448.534 249.511 447.378L259.556 449.156C259.378 450.223 259.2 451.378 259.022 452.445ZM733.689 443.556C733.511 442.489 733.244 441.423 732.978 440.267L743.022 438.134C743.289 439.289 743.467 440.445 743.733 441.511L733.689 443.556ZM262.311 436.089L252.356 433.778C252.622 432.623 252.889 431.556 253.156 430.4L263.111 432.889C262.756 433.956 262.489 435.023 262.311 436.089ZM266.667 420L256.889 416.978C257.244 415.823 257.6 414.756 257.956 413.6L267.733 416.711C267.289 417.867 266.933 418.934 266.667 420ZM724.889 411.378C724.533 410.311 724.178 409.245 723.733 408.267L733.333 404.711C733.689 405.778 734.133 406.934 734.489 408L724.889 411.378ZM718.844 395.911C718.4 394.934 717.956 393.867 717.511 392.889L726.844 388.711C727.289 389.778 727.733 390.845 728.267 391.911L718.844 395.911ZM278.667 388.8L269.422 384.445C269.956 383.378 270.4 382.311 270.933 381.334L280.089 385.778C279.644 386.756 279.2 387.734 278.667 388.8ZM711.733 380.8C711.2 379.823 710.667 378.845 710.222 377.867L719.289 373.067C719.822 374.045 720.356 375.111 720.889 376.178L711.733 380.8ZM286.311 373.867L277.333 368.889C277.867 367.911 278.489 366.845 279.022 365.867L287.911 370.934C287.467 372 286.844 372.889 286.311 373.867ZM703.556 366.311C703.022 365.334 702.4 364.445 701.778 363.467L710.489 358.045C711.111 359.023 711.733 360 712.356 360.978L703.556 366.311ZM295.022 359.556L286.4 353.956C287.022 352.978 287.645 352 288.356 351.023L296.8 356.711C296.178 357.778 295.556 358.667 295.022 359.556ZM304.622 345.956L296.444 339.823C297.156 338.934 297.867 337.956 298.578 337.067L306.667 343.378C305.956 344.178 305.245 345.067 304.622 345.956ZM684.356 339.023C683.645 338.134 682.933 337.334 682.222 336.445L690.045 329.867C690.756 330.756 691.556 331.645 692.267 332.534L684.356 339.023ZM673.422 326.4C672.622 325.6 671.911 324.8 671.111 324L678.489 316.889C679.289 317.689 680.089 318.578 680.889 319.378L673.422 326.4ZM326.489 320.711L319.289 313.511C320.089 312.711 320.889 311.911 321.778 311.023L328.889 318.311C328.089 319.111 327.289 319.911 326.489 320.711ZM661.6 314.667C660.8 313.867 660 313.156 659.111 312.445L665.956 304.889C666.844 305.689 667.644 306.489 668.533 307.2L661.6 314.667ZM338.667 309.334L331.911 301.6C332.8 300.8 333.689 300.089 334.578 299.289L341.245 307.111C340.356 307.823 339.467 308.534 338.667 309.334ZM648.978 303.645C648.089 302.934 647.289 302.223 646.4 301.6L652.711 293.6C653.6 294.311 654.489 295.023 655.467 295.823L648.978 303.645ZM351.644 298.756L345.422 290.578C346.311 289.867 347.289 289.156 348.178 288.534L354.222 296.8C353.422 297.423 352.533 298.134 351.644 298.756ZM365.245 289.156L359.644 280.623C360.622 280 361.6 279.378 362.578 278.756L368.089 287.378C367.111 287.911 366.133 288.534 365.245 289.156ZM621.689 284.445C620.711 283.911 619.733 283.289 618.844 282.756L624 273.956C624.978 274.578 626.045 275.111 627.022 275.734L621.689 284.445ZM607.111 276.267C606.133 275.734 605.156 275.289 604.089 274.756L608.622 265.6C609.689 266.134 610.667 266.667 611.733 267.2L607.111 276.267ZM394.311 272.8L389.956 263.556C391.022 263.023 392.089 262.578 393.067 262.134L397.333 271.467C396.267 271.911 395.289 272.356 394.311 272.8ZM591.911 269.156C590.845 268.711 589.867 268.267 588.8 267.823L592.711 258.4C593.778 258.845 594.845 259.289 595.911 259.734L591.911 269.156ZM409.6 266.223L405.867 256.711C406.933 256.267 408 255.911 409.156 255.467L412.711 265.067C411.644 265.423 410.578 265.778 409.6 266.223ZM576.356 263.111C575.289 262.756 574.222 262.4 573.156 262.045L576.356 252.356C577.422 252.711 578.578 253.067 579.644 253.511L576.356 263.111ZM425.333 260.711L422.311 250.934C423.378 250.578 424.533 250.223 425.6 249.956L428.533 259.734C427.467 260 426.4 260.356 425.333 260.711ZM441.422 256.267L439.022 246.311C440.178 246.045 441.245 245.778 442.4 245.511L444.622 255.467C443.556 255.734 442.489 256 441.422 256.267ZM544.178 254.311C543.111 254.134 541.956 253.867 540.889 253.689L542.756 243.645C543.911 243.823 545.067 244.089 546.222 244.267L544.178 254.311ZM527.644 251.645C526.578 251.467 525.422 251.378 524.356 251.289L525.511 241.156C526.667 241.245 527.822 241.423 528.978 241.6L527.644 251.645ZM474.311 250.845L473.333 240.623C474.489 240.534 475.645 240.445 476.8 240.356L477.6 250.578C476.533 250.667 475.467 250.756 474.311 250.845ZM511.022 250.134C509.956 250.045 508.8 250.045 507.733 249.956L508.178 239.734C509.333 239.823 510.489 239.823 511.644 239.911L511.022 250.134ZM491.022 249.867L490.756 239.645C491.911 239.645 493.067 239.556 494.222 239.556L494.311 249.778C493.244 249.778 492.089 249.778 491.022 249.867Z" fill="#D8CEE2"/>
<path d="M496.978 865.423C290.133 865.423 122.4 697.689 122.4 490.845C122.4 284 290.133 116.267 496.978 116.267" stroke="#AEE7F4" stroke-width="2.2672" stroke-miterlimit="10"/>
<path d="M497.333 115.289V147.556" stroke="#AEE7F4" stroke-width="1.3299" stroke-miterlimit="10"/>
<path d="M497.244 834.222V866.489" stroke="#AEE7F4" stroke-width="1.3299" stroke-miterlimit="10"/>
<path d="M496.978 192.711C662.311 192.711 796.444 326.756 796.444 492.178C796.444 657.6 662.4 791.645 496.978 791.645" stroke="#FFDEEB" stroke-width="2.2672" stroke-miterlimit="10"/>
<path d="M497.245 191.733V224" stroke="#FFDEEB" stroke-width="1.3299" stroke-miterlimit="10"/>
<path d="M497.245 760.356V792.534" stroke="#FFDEEB" stroke-width="1.3299" stroke-miterlimit="10"/>
<path d="M721.743 727.058C723.663 727.058 725.159 727.61 726.231 728.714C727.303 729.818 727.839 731.418 727.839 733.514V744.002H726.087V733.562C726.087 731.93 725.671 730.706 724.839 729.89C724.023 729.058 722.903 728.642 721.479 728.642C719.975 728.642 718.799 729.082 717.951 729.962C717.103 730.826 716.679 732.154 716.679 733.946V744.002H714.927V733.562C714.927 731.93 714.527 730.706 713.727 729.89C712.927 729.058 711.815 728.642 710.391 728.642C708.871 728.642 707.679 729.082 706.815 729.962C705.967 730.826 705.543 732.154 705.543 733.946V744.002H703.767V727.202H705.471V730.01C705.935 729.05 706.623 728.322 707.535 727.826C708.447 727.314 709.527 727.058 710.775 727.058C712.087 727.058 713.207 727.338 714.135 727.898C715.079 728.442 715.759 729.21 716.175 730.202C716.655 729.178 717.375 728.402 718.335 727.874C719.311 727.33 720.447 727.058 721.743 727.058ZM740.045 727.058C742.221 727.058 743.933 727.698 745.181 728.978C746.445 730.242 747.077 732.074 747.077 734.474V744.002H745.325V739.058H734.765V744.002H733.037V734.474C733.037 732.074 733.661 730.242 734.909 728.978C736.173 727.698 737.885 727.058 740.045 727.058ZM745.325 737.522V734.306C745.325 732.434 744.861 731.026 743.933 730.082C743.005 729.122 741.709 728.642 740.045 728.642C738.381 728.642 737.085 729.122 736.157 730.082C735.229 731.026 734.765 732.434 734.765 734.306V737.522H745.325ZM762.702 744.002L757.278 736.61L751.878 744.002H749.838L756.222 735.362L750.246 727.202H752.286L757.35 734.066L762.39 727.202H764.31L758.358 735.314L764.766 744.002H762.702Z" fill="#FFDEEB"/>
<path d="M730.402 752.802V754.026L723.37 769.602H721.498L728.41 754.338H719.77V757.482H718.066V752.802H730.402ZM736.649 759.69C739.081 759.69 740.849 760.13 741.953 761.01C743.073 761.874 743.633 763.09 743.633 764.658C743.633 765.634 743.401 766.506 742.937 767.274C742.489 768.042 741.809 768.65 740.897 769.098C739.985 769.53 738.865 769.746 737.537 769.746C736.337 769.746 735.193 769.554 734.105 769.17C733.033 768.77 732.169 768.242 731.513 767.586L732.353 766.218C732.913 766.794 733.649 767.266 734.561 767.634C735.473 767.986 736.457 768.162 737.513 768.162C738.905 768.162 739.977 767.85 740.729 767.226C741.497 766.602 741.881 765.77 741.881 764.73C741.881 763.578 741.449 762.706 740.585 762.114C739.737 761.522 738.297 761.226 736.265 761.226H732.689L733.553 752.802H742.745V754.338H735.065L734.489 759.69H736.649Z" fill="#FFDEEB"/>
<path d="M712.889 707.645V691.467" stroke="#FFDEEB" stroke-width="2.2672" stroke-miterlimit="10"/>
<path d="M262.99 97.875L259.15 92.475C258.718 92.523 258.27 92.547 257.806 92.547H253.294V97.875H251.518V81.075H257.806C259.95 81.075 261.63 81.587 262.846 82.611C264.062 83.635 264.67 85.043 264.67 86.835C264.67 88.147 264.334 89.259 263.662 90.171C263.006 91.067 262.062 91.715 260.83 92.115L264.934 97.875H262.99ZM257.758 91.035C259.422 91.035 260.694 90.667 261.574 89.931C262.454 89.195 262.894 88.163 262.894 86.835C262.894 85.475 262.454 84.435 261.574 83.715C260.694 82.979 259.422 82.611 257.758 82.611H253.294V91.035H257.758ZM273.902 96.483C274.686 96.483 275.406 96.347 276.062 96.075C276.734 95.787 277.302 95.371 277.766 94.827L278.726 95.931C278.166 96.603 277.47 97.115 276.638 97.467C275.806 97.819 274.886 97.995 273.878 97.995C272.582 97.995 271.43 97.723 270.422 97.179C269.414 96.619 268.63 95.851 268.07 94.875C267.51 93.899 267.23 92.795 267.23 91.563C267.23 90.331 267.494 89.227 268.022 88.251C268.566 87.275 269.31 86.515 270.254 85.971C271.198 85.427 272.27 85.155 273.47 85.155C274.59 85.155 275.598 85.411 276.494 85.923C277.406 86.435 278.126 87.147 278.654 88.059C279.198 88.971 279.486 90.011 279.518 91.179L269.15 93.195C269.47 94.219 270.046 95.027 270.878 95.619C271.726 96.195 272.734 96.483 273.902 96.483ZM273.47 86.619C272.59 86.619 271.798 86.827 271.094 87.243C270.406 87.643 269.862 88.211 269.462 88.947C269.078 89.667 268.886 90.499 268.886 91.443C268.886 91.683 268.894 91.859 268.91 91.971L277.814 90.243C277.622 89.187 277.134 88.323 276.35 87.651C275.566 86.963 274.606 86.619 273.47 86.619ZM286.37 97.995C285.346 97.995 284.362 97.851 283.418 97.563C282.49 97.259 281.762 96.883 281.234 96.435L282.002 95.091C282.53 95.507 283.194 95.851 283.994 96.123C284.794 96.379 285.626 96.507 286.49 96.507C287.642 96.507 288.49 96.331 289.034 95.979C289.594 95.611 289.874 95.099 289.874 94.443C289.874 93.979 289.722 93.619 289.418 93.363C289.114 93.091 288.73 92.891 288.266 92.763C287.802 92.619 287.186 92.483 286.418 92.355C285.394 92.163 284.57 91.971 283.946 91.779C283.322 91.571 282.786 91.227 282.338 90.747C281.906 90.267 281.69 89.603 281.69 88.755C281.69 87.699 282.13 86.835 283.01 86.163C283.89 85.491 285.114 85.155 286.682 85.155C287.498 85.155 288.314 85.267 289.13 85.491C289.946 85.699 290.618 85.979 291.146 86.331L290.402 87.699C289.362 86.979 288.122 86.619 286.682 86.619C285.594 86.619 284.77 86.811 284.21 87.195C283.666 87.579 283.394 88.083 283.394 88.707C283.394 89.187 283.546 89.571 283.85 89.859C284.17 90.147 284.562 90.363 285.026 90.507C285.49 90.635 286.13 90.771 286.946 90.915C287.954 91.107 288.762 91.299 289.37 91.491C289.978 91.683 290.498 92.011 290.93 92.475C291.362 92.939 291.578 93.579 291.578 94.395C291.578 95.499 291.114 96.379 290.186 97.035C289.274 97.675 288.002 97.995 286.37 97.995ZM301.232 85.155C302.416 85.155 303.488 85.427 304.448 85.971C305.408 86.499 306.16 87.251 306.704 88.227C307.248 89.203 307.52 90.315 307.52 91.563C307.52 92.827 307.248 93.947 306.704 94.923C306.16 95.899 305.408 96.659 304.448 97.203C303.504 97.731 302.432 97.995 301.232 97.995C300.208 97.995 299.28 97.787 298.448 97.371C297.632 96.939 296.96 96.315 296.432 95.499V102.531H294.728V85.251H296.36V87.747C296.872 86.915 297.544 86.275 298.376 85.827C299.224 85.379 300.176 85.155 301.232 85.155ZM301.112 96.483C301.992 96.483 302.792 96.283 303.512 95.883C304.232 95.467 304.792 94.883 305.192 94.131C305.608 93.379 305.816 92.523 305.816 91.563C305.816 90.603 305.608 89.755 305.192 89.019C304.792 88.267 304.232 87.683 303.512 87.267C302.792 86.851 301.992 86.643 301.112 86.643C300.216 86.643 299.408 86.851 298.688 87.267C297.984 87.683 297.424 88.267 297.008 89.019C296.608 89.755 296.408 90.603 296.408 91.563C296.408 92.523 296.608 93.379 297.008 94.131C297.424 94.883 297.984 95.467 298.688 95.883C299.408 96.283 300.216 96.483 301.112 96.483ZM310.994 85.251H312.698V97.875H310.994V85.251ZM311.858 82.491C311.506 82.491 311.21 82.371 310.97 82.131C310.73 81.891 310.61 81.603 310.61 81.267C310.61 80.947 310.73 80.667 310.97 80.427C311.21 80.187 311.506 80.067 311.858 80.067C312.21 80.067 312.506 80.187 312.746 80.427C312.986 80.651 313.106 80.923 313.106 81.243C313.106 81.595 312.986 81.891 312.746 82.131C312.506 82.371 312.21 82.491 311.858 82.491ZM319.071 87.723C319.471 86.875 320.063 86.235 320.847 85.803C321.647 85.371 322.631 85.155 323.799 85.155V86.811L323.391 86.787C322.063 86.787 321.023 87.195 320.271 88.011C319.519 88.827 319.143 89.971 319.143 91.443V97.875H317.439V85.251H319.071V87.723ZM338.287 85.251V97.875H336.655V95.379C336.143 96.227 335.463 96.875 334.615 97.323C333.783 97.771 332.839 97.995 331.783 97.995C330.599 97.995 329.527 97.723 328.567 97.179C327.607 96.635 326.855 95.875 326.311 94.899C325.767 93.923 325.495 92.811 325.495 91.563C325.495 90.315 325.767 89.203 326.311 88.227C326.855 87.251 327.607 86.499 328.567 85.971C329.527 85.427 330.599 85.155 331.783 85.155C332.807 85.155 333.727 85.371 334.543 85.803C335.375 86.219 336.055 86.835 336.583 87.651V85.251H338.287ZM331.927 96.483C332.807 96.483 333.599 96.283 334.303 95.883C335.023 95.467 335.583 94.883 335.983 94.131C336.399 93.379 336.607 92.523 336.607 91.563C336.607 90.603 336.399 89.747 335.983 88.995C335.583 88.243 335.023 87.667 334.303 87.267C333.599 86.851 332.807 86.643 331.927 86.643C331.031 86.643 330.223 86.851 329.503 87.267C328.799 87.667 328.239 88.243 327.823 88.995C327.423 89.747 327.223 90.603 327.223 91.563C327.223 92.523 327.423 93.379 327.823 94.131C328.239 94.883 328.799 95.467 329.503 95.883C330.223 96.283 331.031 96.483 331.927 96.483ZM349.249 97.107C348.929 97.395 348.537 97.619 348.073 97.779C347.609 97.923 347.121 97.995 346.609 97.995C345.425 97.995 344.513 97.675 343.873 97.035C343.233 96.395 342.913 95.491 342.913 94.323V82.491H344.617V85.251H348.433V86.691H344.617V94.227C344.617 94.979 344.801 95.555 345.169 95.955C345.537 96.339 346.073 96.531 346.777 96.531C347.545 96.531 348.169 96.315 348.649 95.883L349.249 97.107ZM357.052 97.995C355.836 97.995 354.74 97.723 353.764 97.179C352.788 96.619 352.02 95.851 351.46 94.875C350.9 93.899 350.62 92.795 350.62 91.563C350.62 90.331 350.9 89.227 351.46 88.251C352.02 87.275 352.788 86.515 353.764 85.971C354.74 85.427 355.836 85.155 357.052 85.155C358.268 85.155 359.364 85.427 360.34 85.971C361.316 86.515 362.076 87.275 362.62 88.251C363.18 89.227 363.46 90.331 363.46 91.563C363.46 92.795 363.18 93.899 362.62 94.875C362.076 95.851 361.316 96.619 360.34 97.179C359.364 97.723 358.268 97.995 357.052 97.995ZM357.052 96.483C357.948 96.483 358.748 96.283 359.452 95.883C360.172 95.467 360.732 94.883 361.132 94.131C361.532 93.379 361.732 92.523 361.732 91.563C361.732 90.603 361.532 89.747 361.132 88.995C360.732 88.243 360.172 87.667 359.452 87.267C358.748 86.851 357.948 86.643 357.052 86.643C356.156 86.643 355.348 86.851 354.628 87.267C353.924 87.667 353.364 88.243 352.948 88.995C352.548 89.747 352.348 90.603 352.348 91.563C352.348 92.523 352.548 93.379 352.948 94.131C353.364 94.883 353.924 95.467 354.628 95.883C355.348 96.283 356.156 96.483 357.052 96.483ZM368.571 87.723C368.971 86.875 369.563 86.235 370.347 85.803C371.147 85.371 372.131 85.155 373.299 85.155V86.811L372.891 86.787C371.563 86.787 370.523 87.195 369.771 88.011C369.019 88.827 368.643 89.971 368.643 91.443V97.875H366.939V85.251H368.571V87.723ZM387.948 85.251V96.339C387.948 98.483 387.46 100.067 386.484 101.091C385.508 102.131 384.036 102.651 382.068 102.651C380.964 102.651 379.916 102.475 378.924 102.123C377.948 101.787 377.156 101.315 376.548 100.707L377.412 99.411C377.956 99.955 378.628 100.379 379.428 100.683C380.228 100.987 381.084 101.139 381.996 101.139C383.452 101.139 384.524 100.763 385.212 100.011C385.9 99.275 386.244 98.123 386.244 96.555V95.091C385.796 95.827 385.18 96.395 384.396 96.795C383.628 97.195 382.756 97.395 381.78 97.395C380.132 97.395 378.828 96.939 377.868 96.027C376.924 95.099 376.452 93.747 376.452 91.971V85.251H378.156V91.803C378.156 93.131 378.484 94.139 379.14 94.827C379.796 95.515 380.732 95.859 381.948 95.859C383.276 95.859 384.324 95.459 385.092 94.659C385.86 93.843 386.244 92.715 386.244 91.275V85.251H387.948ZM410.834 97.875L406.994 92.475C406.562 92.523 406.114 92.547 405.65 92.547H401.138V97.875H399.362V81.075H405.65C407.794 81.075 409.474 81.587 410.69 82.611C411.906 83.635 412.514 85.043 412.514 86.835C412.514 88.147 412.178 89.259 411.506 90.171C410.85 91.067 409.906 91.715 408.674 92.115L412.778 97.875H410.834ZM405.602 91.035C407.266 91.035 408.538 90.667 409.418 89.931C410.298 89.195 410.738 88.163 410.738 86.835C410.738 85.475 410.298 84.435 409.418 83.715C408.538 82.979 407.266 82.611 405.602 82.611H401.138V91.035H405.602ZM427.866 85.251V97.875H426.234V95.379C425.722 96.227 425.042 96.875 424.194 97.323C423.362 97.771 422.418 97.995 421.362 97.995C420.178 97.995 419.106 97.723 418.146 97.179C417.186 96.635 416.434 95.875 415.89 94.899C415.346 93.923 415.074 92.811 415.074 91.563C415.074 90.315 415.346 89.203 415.89 88.227C416.434 87.251 417.186 86.499 418.146 85.971C419.106 85.427 420.178 85.155 421.362 85.155C422.386 85.155 423.306 85.371 424.122 85.803C424.954 86.219 425.634 86.835 426.162 87.651V85.251H427.866ZM421.506 96.483C422.386 96.483 423.178 96.283 423.882 95.883C424.602 95.467 425.162 94.883 425.562 94.131C425.978 93.379 426.186 92.523 426.186 91.563C426.186 90.603 425.978 89.747 425.562 88.995C425.162 88.243 424.602 87.667 423.882 87.267C423.178 86.851 422.386 86.643 421.506 86.643C420.61 86.643 419.802 86.851 419.082 87.267C418.378 87.667 417.818 88.243 417.402 88.995C417.002 89.747 416.802 90.603 416.802 91.563C416.802 92.523 417.002 93.379 417.402 94.131C417.818 94.883 418.378 95.467 419.082 95.883C419.802 96.283 420.61 96.483 421.506 96.483ZM438.827 97.107C438.507 97.395 438.115 97.619 437.651 97.779C437.187 97.923 436.699 97.995 436.187 97.995C435.003 97.995 434.091 97.675 433.451 97.035C432.811 96.395 432.491 95.491 432.491 94.323V82.491H434.195V85.251H438.011V86.691H434.195V94.227C434.195 94.979 434.379 95.555 434.747 95.955C435.115 96.339 435.651 96.531 436.355 96.531C437.123 96.531 437.747 96.315 438.227 95.883L438.827 97.107ZM446.871 96.483C447.655 96.483 448.375 96.347 449.031 96.075C449.703 95.787 450.271 95.371 450.735 94.827L451.695 95.931C451.135 96.603 450.439 97.115 449.607 97.467C448.775 97.819 447.855 97.995 446.847 97.995C445.551 97.995 444.399 97.723 443.391 97.179C442.383 96.619 441.599 95.851 441.039 94.875C440.479 93.899 440.199 92.795 440.199 91.563C440.199 90.331 440.463 89.227 440.991 88.251C441.535 87.275 442.279 86.515 443.223 85.971C444.167 85.427 445.239 85.155 446.439 85.155C447.559 85.155 448.567 85.411 449.463 85.923C450.375 86.435 451.095 87.147 451.623 88.059C452.167 88.971 452.455 90.011 452.487 91.179L442.119 93.195C442.439 94.219 443.015 95.027 443.847 95.619C444.695 96.195 445.703 96.483 446.871 96.483ZM446.439 86.619C445.559 86.619 444.767 86.827 444.063 87.243C443.375 87.643 442.831 88.211 442.431 88.947C442.047 89.667 441.855 90.499 441.855 91.443C441.855 91.683 441.863 91.859 441.879 91.971L450.783 90.243C450.591 89.187 450.103 88.323 449.319 87.651C448.535 86.963 447.575 86.619 446.439 86.619ZM456.123 87.771C455.771 87.771 455.467 87.643 455.211 87.387C454.971 87.131 454.851 86.819 454.851 86.451C454.851 86.083 454.971 85.779 455.211 85.539C455.467 85.283 455.771 85.155 456.123 85.155C456.475 85.155 456.779 85.283 457.035 85.539C457.291 85.779 457.419 86.083 457.419 86.451C457.419 86.819 457.291 87.131 457.035 87.387C456.779 87.643 456.475 87.771 456.123 87.771ZM456.123 97.995C455.771 97.995 455.467 97.867 455.211 97.611C454.971 97.355 454.851 97.043 454.851 96.675C454.851 96.307 454.971 96.003 455.211 95.763C455.467 95.507 455.771 95.379 456.123 95.379C456.475 95.379 456.779 95.507 457.035 95.763C457.291 96.003 457.419 96.307 457.419 96.675C457.419 97.043 457.291 97.355 457.035 97.611C456.779 97.867 456.475 97.995 456.123 97.995ZM472.314 98.019C471.066 98.019 469.866 97.819 468.714 97.419C467.578 97.019 466.698 96.491 466.074 95.835L466.77 94.467C467.378 95.075 468.186 95.571 469.194 95.955C470.202 96.323 471.242 96.507 472.314 96.507C473.818 96.507 474.946 96.235 475.698 95.691C476.45 95.131 476.826 94.411 476.826 93.531C476.826 92.859 476.618 92.323 476.202 91.923C475.802 91.523 475.306 91.219 474.714 91.011C474.122 90.787 473.298 90.547 472.242 90.291C470.978 89.971 469.97 89.667 469.218 89.379C468.466 89.075 467.818 88.619 467.274 88.011C466.746 87.403 466.482 86.579 466.482 85.539C466.482 84.691 466.706 83.923 467.154 83.235C467.602 82.531 468.29 81.971 469.218 81.555C470.146 81.139 471.298 80.931 472.674 80.931C473.634 80.931 474.57 81.067 475.482 81.339C476.41 81.595 477.21 81.955 477.882 82.419L477.282 83.835C476.578 83.371 475.826 83.027 475.026 82.803C474.226 82.563 473.442 82.443 472.674 82.443C471.202 82.443 470.09 82.731 469.338 83.307C468.602 83.867 468.234 84.595 468.234 85.491C468.234 86.163 468.434 86.707 468.834 87.123C469.25 87.523 469.762 87.835 470.37 88.059C470.994 88.267 471.826 88.499 472.866 88.755C474.098 89.059 475.09 89.363 475.842 89.667C476.61 89.955 477.258 90.403 477.786 91.011C478.314 91.603 478.578 92.411 478.578 93.435C478.578 94.283 478.346 95.059 477.882 95.763C477.434 96.451 476.738 97.003 475.794 97.419C474.85 97.819 473.69 98.019 472.314 98.019ZM485.64 97.995C484.504 97.995 483.624 97.675 483 97.035C482.392 96.395 482.088 95.507 482.088 94.371V80.067H483.792V94.227C483.792 94.979 483.968 95.555 484.32 95.955C484.672 96.339 485.2 96.531 485.904 96.531C486.352 96.531 486.736 96.459 487.056 96.315L487.176 97.731C486.68 97.907 486.168 97.995 485.64 97.995ZM494.66 96.483C495.444 96.483 496.164 96.347 496.82 96.075C497.492 95.787 498.06 95.371 498.524 94.827L499.484 95.931C498.924 96.603 498.228 97.115 497.396 97.467C496.564 97.819 495.644 97.995 494.636 97.995C493.34 97.995 492.188 97.723 491.18 97.179C490.172 96.619 489.388 95.851 488.828 94.875C488.268 93.899 487.988 92.795 487.988 91.563C487.988 90.331 488.252 89.227 488.78 88.251C489.324 87.275 490.068 86.515 491.012 85.971C491.956 85.427 493.028 85.155 494.228 85.155C495.348 85.155 496.356 85.411 497.252 85.923C498.164 86.435 498.884 87.147 499.412 88.059C499.956 88.971 500.244 90.011 500.276 91.179L489.908 93.195C490.228 94.219 490.804 95.027 491.636 95.619C492.484 96.195 493.492 96.483 494.66 96.483ZM494.228 86.619C493.348 86.619 492.556 86.827 491.852 87.243C491.164 87.643 490.62 88.211 490.22 88.947C489.836 89.667 489.644 90.499 489.644 91.443C489.644 91.683 489.652 91.859 489.668 91.971L498.572 90.243C498.38 89.187 497.892 88.323 497.108 87.651C496.324 86.963 495.364 86.619 494.228 86.619ZM509.144 96.483C509.928 96.483 510.648 96.347 511.304 96.075C511.976 95.787 512.544 95.371 513.008 94.827L513.968 95.931C513.408 96.603 512.712 97.115 511.88 97.467C511.048 97.819 510.128 97.995 509.12 97.995C507.824 97.995 506.672 97.723 505.664 97.179C504.656 96.619 503.872 95.851 503.312 94.875C502.752 93.899 502.472 92.795 502.472 91.563C502.472 90.331 502.736 89.227 503.264 88.251C503.808 87.275 504.552 86.515 505.496 85.971C506.44 85.427 507.512 85.155 508.712 85.155C509.832 85.155 510.84 85.411 511.736 85.923C512.648 86.435 513.368 87.147 513.896 88.059C514.44 88.971 514.728 90.011 514.76 91.179L504.392 93.195C504.712 94.219 505.288 95.027 506.12 95.619C506.968 96.195 507.976 96.483 509.144 96.483ZM508.712 86.619C507.832 86.619 507.04 86.827 506.336 87.243C505.648 87.643 505.104 88.211 504.704 88.947C504.32 89.667 504.128 90.499 504.128 91.443C504.128 91.683 504.136 91.859 504.152 91.971L513.056 90.243C512.864 89.187 512.376 88.323 511.592 87.651C510.808 86.963 509.848 86.619 508.712 86.619ZM524.732 85.155C525.916 85.155 526.988 85.427 527.948 85.971C528.908 86.499 529.66 87.251 530.204 88.227C530.748 89.203 531.02 90.315 531.02 91.563C531.02 92.827 530.748 93.947 530.204 94.923C529.66 95.899 528.908 96.659 527.948 97.203C527.004 97.731 525.932 97.995 524.732 97.995C523.708 97.995 522.78 97.787 521.948 97.371C521.132 96.939 520.46 96.315 519.932 95.499V102.531H518.228V85.251H519.86V87.747C520.372 86.915 521.044 86.275 521.876 85.827C522.724 85.379 523.676 85.155 524.732 85.155ZM524.612 96.483C525.492 96.483 526.292 96.283 527.012 95.883C527.732 95.467 528.292 94.883 528.692 94.131C529.108 93.379 529.316 92.523 529.316 91.563C529.316 90.603 529.108 89.755 528.692 89.019C528.292 88.267 527.732 87.683 527.012 87.267C526.292 86.851 525.492 86.643 524.612 86.643C523.716 86.643 522.908 86.851 522.188 87.267C521.484 87.683 520.924 88.267 520.508 89.019C520.108 89.755 519.908 90.603 519.908 91.563C519.908 92.523 520.108 93.379 520.508 94.131C520.924 94.883 521.484 95.467 522.188 95.883C522.908 96.283 523.716 96.483 524.612 96.483Z" fill="#AEE7F4"/>
<path d="M511.095 164.307V181.107H509.343V173.355H498.831V181.107H497.055V164.307H498.831V171.795H509.343V164.307H511.095ZM521.619 179.715C522.403 179.715 523.123 179.579 523.779 179.307C524.451 179.019 525.019 178.603 525.483 178.059L526.443 179.163C525.883 179.835 525.187 180.347 524.355 180.699C523.523 181.051 522.603 181.227 521.595 181.227C520.299 181.227 519.147 180.955 518.139 180.411C517.131 179.851 516.347 179.083 515.787 178.107C515.227 177.131 514.947 176.027 514.947 174.795C514.947 173.563 515.211 172.459 515.739 171.483C516.283 170.507 517.027 169.747 517.971 169.203C518.915 168.659 519.987 168.387 521.187 168.387C522.307 168.387 523.315 168.643 524.211 169.155C525.123 169.667 525.843 170.379 526.371 171.291C526.915 172.203 527.203 173.243 527.235 174.411L516.867 176.427C517.187 177.451 517.763 178.259 518.595 178.851C519.443 179.427 520.451 179.715 521.619 179.715ZM521.187 169.851C520.307 169.851 519.515 170.059 518.811 170.475C518.123 170.875 517.579 171.443 517.179 172.179C516.795 172.899 516.603 173.731 516.603 174.675C516.603 174.915 516.611 175.091 516.627 175.203L525.531 173.475C525.339 172.419 524.851 171.555 524.067 170.883C523.283 170.195 522.323 169.851 521.187 169.851ZM542.223 168.483V181.107H540.591V178.611C540.079 179.459 539.399 180.107 538.551 180.555C537.719 181.003 536.775 181.227 535.719 181.227C534.535 181.227 533.463 180.955 532.503 180.411C531.543 179.867 530.791 179.107 530.247 178.131C529.703 177.155 529.431 176.043 529.431 174.795C529.431 173.547 529.703 172.435 530.247 171.459C530.791 170.483 531.543 169.731 532.503 169.203C533.463 168.659 534.535 168.387 535.719 168.387C536.743 168.387 537.663 168.603 538.479 169.035C539.311 169.451 539.991 170.067 540.519 170.883V168.483H542.223ZM535.863 179.715C536.743 179.715 537.535 179.515 538.239 179.115C538.959 178.699 539.519 178.115 539.919 177.363C540.335 176.611 540.543 175.755 540.543 174.795C540.543 173.835 540.335 172.979 539.919 172.227C539.519 171.475 538.959 170.899 538.239 170.499C537.535 170.083 536.743 169.875 535.863 169.875C534.967 169.875 534.159 170.083 533.439 170.499C532.735 170.899 532.175 171.475 531.759 172.227C531.359 172.979 531.159 173.835 531.159 174.795C531.159 175.755 531.359 176.611 531.759 177.363C532.175 178.115 532.735 178.699 533.439 179.115C534.159 179.515 534.967 179.715 535.863 179.715ZM548.601 170.955C549.001 170.107 549.593 169.467 550.377 169.035C551.177 168.603 552.161 168.387 553.329 168.387V170.043L552.921 170.019C551.593 170.019 550.553 170.427 549.801 171.243C549.049 172.059 548.673 173.203 548.673 174.675V181.107H546.969V168.483H548.601V170.955ZM562.63 180.339C562.31 180.627 561.918 180.851 561.454 181.011C560.99 181.155 560.502 181.227 559.99 181.227C558.806 181.227 557.894 180.907 557.254 180.267C556.614 179.627 556.294 178.723 556.294 177.555V165.723H557.998V168.483H561.814V169.923H557.998V177.459C557.998 178.211 558.182 178.787 558.55 179.187C558.918 179.571 559.454 179.763 560.158 179.763C560.926 179.763 561.55 179.547 562.03 179.115L562.63 180.339ZM583.832 181.107L579.992 175.707C579.56 175.755 579.112 175.779 578.648 175.779H574.136V181.107H572.36V164.307H578.648C580.792 164.307 582.472 164.819 583.688 165.843C584.904 166.867 585.512 168.275 585.512 170.067C585.512 171.379 585.176 172.491 584.504 173.403C583.848 174.299 582.904 174.947 581.672 175.347L585.776 181.107H583.832ZM578.6 174.267C580.264 174.267 581.536 173.899 582.416 173.163C583.296 172.427 583.736 171.395 583.736 170.067C583.736 168.707 583.296 167.667 582.416 166.947C581.536 166.211 580.264 165.843 578.6 165.843H574.136V174.267H578.6ZM600.864 168.483V181.107H599.232V178.611C598.72 179.459 598.04 180.107 597.192 180.555C596.36 181.003 595.416 181.227 594.36 181.227C593.176 181.227 592.104 180.955 591.144 180.411C590.184 179.867 589.432 179.107 588.888 178.131C588.344 177.155 588.072 176.043 588.072 174.795C588.072 173.547 588.344 172.435 588.888 171.459C589.432 170.483 590.184 169.731 591.144 169.203C592.104 168.659 593.176 168.387 594.36 168.387C595.384 168.387 596.304 168.603 597.12 169.035C597.952 169.451 598.632 170.067 599.16 170.883V168.483H600.864ZM594.504 179.715C595.384 179.715 596.176 179.515 596.88 179.115C597.6 178.699 598.16 178.115 598.56 177.363C598.976 176.611 599.184 175.755 599.184 174.795C599.184 173.835 598.976 172.979 598.56 172.227C598.16 171.475 597.6 170.899 596.88 170.499C596.176 170.083 595.384 169.875 594.504 169.875C593.608 169.875 592.8 170.083 592.08 170.499C591.376 170.899 590.816 171.475 590.4 172.227C590 172.979 589.8 173.835 589.8 174.795C589.8 175.755 590 176.611 590.4 177.363C590.816 178.115 591.376 178.699 592.08 179.115C592.8 179.515 593.608 179.715 594.504 179.715ZM611.826 180.339C611.506 180.627 611.114 180.851 610.65 181.011C610.186 181.155 609.698 181.227 609.186 181.227C608.002 181.227 607.09 180.907 606.45 180.267C605.81 179.627 605.49 178.723 605.49 177.555V165.723H607.194V168.483H611.01V169.923H607.194V177.459C607.194 178.211 607.378 178.787 607.746 179.187C608.114 179.571 608.65 179.763 609.354 179.763C610.122 179.763 610.746 179.547 611.226 179.115L611.826 180.339ZM619.869 179.715C620.653 179.715 621.373 179.579 622.029 179.307C622.701 179.019 623.269 178.603 623.733 178.059L624.693 179.163C624.133 179.835 623.437 180.347 622.605 180.699C621.773 181.051 620.853 181.227 619.845 181.227C618.549 181.227 617.397 180.955 616.389 180.411C615.381 179.851 614.597 179.083 614.037 178.107C613.477 177.131 613.197 176.027 613.197 174.795C613.197 173.563 613.461 172.459 613.989 171.483C614.533 170.507 615.277 169.747 616.221 169.203C617.165 168.659 618.237 168.387 619.437 168.387C620.557 168.387 621.565 168.643 622.461 169.155C623.373 169.667 624.093 170.379 624.621 171.291C625.165 172.203 625.453 173.243 625.485 174.411L615.117 176.427C615.437 177.451 616.013 178.259 616.845 178.851C617.693 179.427 618.701 179.715 619.869 179.715ZM619.437 169.851C618.557 169.851 617.765 170.059 617.061 170.475C616.373 170.875 615.829 171.443 615.429 172.179C615.045 172.899 614.853 173.731 614.853 174.675C614.853 174.915 614.861 175.091 614.877 175.203L623.781 173.475C623.589 172.419 623.101 171.555 622.317 170.883C621.533 170.195 620.573 169.851 619.437 169.851ZM629.121 171.003C628.769 171.003 628.465 170.875 628.209 170.619C627.969 170.363 627.849 170.051 627.849 169.683C627.849 169.315 627.969 169.011 628.209 168.771C628.465 168.515 628.769 168.387 629.121 168.387C629.473 168.387 629.777 168.515 630.033 168.771C630.289 169.011 630.417 169.315 630.417 169.683C630.417 170.051 630.289 170.363 630.033 170.619C629.777 170.875 629.473 171.003 629.121 171.003ZM629.121 181.227C628.769 181.227 628.465 181.099 628.209 180.843C627.969 180.587 627.849 180.275 627.849 179.907C627.849 179.539 627.969 179.235 628.209 178.995C628.465 178.739 628.769 178.611 629.121 178.611C629.473 178.611 629.777 178.739 630.033 178.995C630.289 179.235 630.417 179.539 630.417 179.907C630.417 180.275 630.289 180.587 630.033 180.843C629.777 181.099 629.473 181.227 629.121 181.227ZM645.312 181.251C644.064 181.251 642.864 181.051 641.712 180.651C640.576 180.251 639.696 179.723 639.072 179.067L639.768 177.699C640.376 178.307 641.184 178.803 642.192 179.187C643.2 179.555 644.24 179.739 645.312 179.739C646.816 179.739 647.944 179.467 648.696 178.923C649.448 178.363 649.824 177.643 649.824 176.763C649.824 176.091 649.616 175.555 649.2 175.155C648.8 174.755 648.304 174.451 647.712 174.243C647.12 174.019 646.296 173.779 645.24 173.523C643.976 173.203 642.968 172.899 642.216 172.611C641.464 172.307 640.816 171.851 640.272 171.243C639.744 170.635 639.48 169.811 639.48 168.771C639.48 167.923 639.704 167.155 640.152 166.467C640.6 165.763 641.288 165.203 642.216 164.787C643.144 164.371 644.296 164.163 645.672 164.163C646.632 164.163 647.568 164.299 648.48 164.571C649.408 164.827 650.208 165.187 650.88 165.651L650.28 167.067C649.576 166.603 648.824 166.259 648.024 166.035C647.224 165.795 646.44 165.675 645.672 165.675C644.2 165.675 643.088 165.963 642.336 166.539C641.6 167.099 641.232 167.827 641.232 168.723C641.232 169.395 641.432 169.939 641.832 170.355C642.248 170.755 642.76 171.067 643.368 171.291C643.992 171.499 644.824 171.731 645.864 171.987C647.096 172.291 648.088 172.595 648.84 172.899C649.608 173.187 650.256 173.635 650.784 174.243C651.312 174.835 651.576 175.643 651.576 176.667C651.576 177.515 651.344 178.291 650.88 178.995C650.432 179.683 649.736 180.235 648.792 180.651C647.848 181.051 646.688 181.251 645.312 181.251ZM658.638 181.227C657.502 181.227 656.622 180.907 655.998 180.267C655.39 179.627 655.086 178.739 655.086 177.603V163.299H656.79V177.459C656.79 178.211 656.966 178.787 657.318 179.187C657.67 179.571 658.198 179.763 658.902 179.763C659.35 179.763 659.734 179.691 660.054 179.547L660.174 180.963C659.678 181.139 659.166 181.227 658.638 181.227ZM667.658 179.715C668.442 179.715 669.162 179.579 669.818 179.307C670.49 179.019 671.058 178.603 671.522 178.059L672.482 179.163C671.922 179.835 671.226 180.347 670.394 180.699C669.562 181.051 668.642 181.227 667.634 181.227C666.338 181.227 665.186 180.955 664.178 180.411C663.17 179.851 662.386 179.083 661.826 178.107C661.266 177.131 660.986 176.027 660.986 174.795C660.986 173.563 661.25 172.459 661.778 171.483C662.322 170.507 663.066 169.747 664.01 169.203C664.954 168.659 666.026 168.387 667.226 168.387C668.346 168.387 669.354 168.643 670.25 169.155C671.162 169.667 671.882 170.379 672.41 171.291C672.954 172.203 673.242 173.243 673.274 174.411L662.906 176.427C663.226 177.451 663.802 178.259 664.634 178.851C665.482 179.427 666.49 179.715 667.658 179.715ZM667.226 169.851C666.346 169.851 665.554 170.059 664.85 170.475C664.162 170.875 663.618 171.443 663.218 172.179C662.834 172.899 662.642 173.731 662.642 174.675C662.642 174.915 662.65 175.091 662.666 175.203L671.57 173.475C671.378 172.419 670.89 171.555 670.106 170.883C669.322 170.195 668.362 169.851 667.226 169.851ZM682.142 179.715C682.926 179.715 683.646 179.579 684.302 179.307C684.974 179.019 685.542 178.603 686.006 178.059L686.966 179.163C686.406 179.835 685.71 180.347 684.878 180.699C684.046 181.051 683.126 181.227 682.118 181.227C680.822 181.227 679.67 180.955 678.662 180.411C677.654 179.851 676.87 179.083 676.31 178.107C675.75 177.131 675.47 176.027 675.47 174.795C675.47 173.563 675.734 172.459 676.262 171.483C676.806 170.507 677.55 169.747 678.494 169.203C679.438 168.659 680.51 168.387 681.71 168.387C682.83 168.387 683.838 168.643 684.734 169.155C685.646 169.667 686.366 170.379 686.894 171.291C687.438 172.203 687.726 173.243 687.758 174.411L677.39 176.427C677.71 177.451 678.286 178.259 679.118 178.851C679.966 179.427 680.974 179.715 682.142 179.715ZM681.71 169.851C680.83 169.851 680.038 170.059 679.334 170.475C678.646 170.875 678.102 171.443 677.702 172.179C677.318 172.899 677.126 173.731 677.126 174.675C677.126 174.915 677.134 175.091 677.15 175.203L686.054 173.475C685.862 172.419 685.374 171.555 684.59 170.883C683.806 170.195 682.846 169.851 681.71 169.851ZM697.731 168.387C698.915 168.387 699.987 168.659 700.947 169.203C701.907 169.731 702.659 170.483 703.203 171.459C703.747 172.435 704.019 173.547 704.019 174.795C704.019 176.059 703.747 177.179 703.203 178.155C702.659 179.131 701.907 179.891 700.947 180.435C700.003 180.963 698.931 181.227 697.731 181.227C696.707 181.227 695.779 181.019 694.947 180.603C694.131 180.171 693.459 179.547 692.931 178.731V185.763H691.227V168.483H692.859V170.979C693.371 170.147 694.043 169.507 694.875 169.059C695.723 168.611 696.675 168.387 697.731 168.387ZM697.611 179.715C698.491 179.715 699.291 179.515 700.011 179.115C700.731 178.699 701.291 178.115 701.691 177.363C702.107 176.611 702.315 175.755 702.315 174.795C702.315 173.835 702.107 172.987 701.691 172.251C701.291 171.499 700.731 170.915 700.011 170.499C699.291 170.083 698.491 169.875 697.611 169.875C696.715 169.875 695.907 170.083 695.187 170.499C694.483 170.915 693.923 171.499 693.507 172.251C693.107 172.987 692.907 173.835 692.907 174.795C692.907 175.755 693.107 176.611 693.507 177.363C693.923 178.115 694.483 178.699 695.187 179.115C695.907 179.515 696.715 179.715 697.611 179.715Z" fill="#FFDEEB"/>
<path d="M130.442 697.077C132.362 697.077 133.858 697.629 134.93 698.733C136.002 699.837 136.538 701.437 136.538 703.533V714.021H134.786V703.581C134.786 701.949 134.37 700.725 133.538 699.909C132.722 699.077 131.602 698.661 130.178 698.661C128.674 698.661 127.498 699.101 126.65 699.981C125.802 700.845 125.378 702.173 125.378 703.965V714.021H123.626V703.581C123.626 701.949 123.226 700.725 122.426 699.909C121.626 699.077 120.514 698.661 119.09 698.661C117.57 698.661 116.378 699.101 115.514 699.981C114.666 700.845 114.242 702.173 114.242 703.965V714.021H112.466V697.221H114.17V700.029C114.634 699.069 115.322 698.341 116.234 697.845C117.146 697.333 118.226 697.077 119.474 697.077C120.786 697.077 121.906 697.357 122.834 697.917C123.778 698.461 124.458 699.229 124.874 700.221C125.354 699.197 126.074 698.421 127.034 697.893C128.01 697.349 129.146 697.077 130.442 697.077ZM148.744 697.077C150.92 697.077 152.632 697.717 153.88 698.997C155.144 700.261 155.776 702.093 155.776 704.493V714.021H154.024V709.077H143.464V714.021H141.736V704.493C141.736 702.093 142.36 700.261 143.608 698.997C144.872 697.717 146.584 697.077 148.744 697.077ZM154.024 707.541V704.325C154.024 702.453 153.56 701.045 152.632 700.101C151.704 699.141 150.408 698.661 148.744 698.661C147.08 698.661 145.784 699.141 144.856 700.101C143.928 701.045 143.464 702.453 143.464 704.325V707.541H154.024ZM171.4 714.021L165.976 706.629L160.576 714.021H158.536L164.92 705.381L158.944 697.221H160.984L166.048 704.085L171.088 697.221H173.008L167.056 705.333L173.464 714.021H171.4Z" fill="#AEE7F4"/>
<path d="M124.789 722.821V739.621H123.061V724.357H119.101V722.821H124.789ZM140.661 722.821V724.045L133.629 739.621H131.757L138.669 724.357H130.029V727.501H128.325V722.821H140.661ZM142.968 739.741C142.616 739.741 142.312 739.613 142.056 739.357C141.816 739.101 141.696 738.789 141.696 738.421C141.696 738.053 141.816 737.749 142.056 737.509C142.312 737.253 142.616 737.125 142.968 737.125C143.32 737.125 143.624 737.253 143.88 737.509C144.136 737.749 144.264 738.053 144.264 738.421C144.264 738.789 144.136 739.101 143.88 739.357C143.624 739.613 143.32 739.741 142.968 739.741ZM153.196 739.765C151.9 739.765 150.74 739.421 149.716 738.733C148.708 738.045 147.916 737.061 147.34 735.781C146.78 734.485 146.5 732.965 146.5 731.221C146.5 729.477 146.78 727.965 147.34 726.685C147.916 725.389 148.708 724.397 149.716 723.709C150.74 723.021 151.9 722.677 153.196 722.677C154.492 722.677 155.644 723.021 156.652 723.709C157.676 724.397 158.476 725.389 159.052 726.685C159.628 727.965 159.916 729.477 159.916 731.221C159.916 732.965 159.628 734.485 159.052 735.781C158.476 737.061 157.676 738.045 156.652 738.733C155.644 739.421 154.492 739.765 153.196 739.765ZM153.196 738.181C154.172 738.181 155.028 737.909 155.764 737.365C156.516 736.821 157.1 736.029 157.516 734.989C157.932 733.949 158.14 732.693 158.14 731.221C158.14 729.749 157.932 728.493 157.516 727.453C157.1 726.413 156.516 725.621 155.764 725.077C155.028 724.533 154.172 724.261 153.196 724.261C152.22 724.261 151.356 724.533 150.604 725.077C149.868 725.621 149.292 726.413 148.876 727.453C148.46 728.493 148.252 729.749 148.252 731.221C148.252 732.693 148.46 733.949 148.876 734.989C149.292 736.029 149.868 736.821 150.604 737.365C151.356 737.909 152.22 738.181 153.196 738.181Z" fill="#AEE7F4"/>
<path d="M177.867 702.578H193.956" stroke="#AEE7F4" stroke-width="2.2672" stroke-miterlimit="10"/>
<path d="M144.212 235.978C146.132 235.978 147.628 236.53 148.7 237.634C149.772 238.738 150.308 240.338 150.308 242.434V252.922H148.556V242.482C148.556 240.85 148.14 239.626 147.308 238.81C146.492 237.978 145.372 237.562 143.948 237.562C142.444 237.562 141.268 238.002 140.42 238.882C139.572 239.746 139.148 241.074 139.148 242.866V252.922H137.396V242.482C137.396 240.85 136.996 239.626 136.196 238.81C135.396 237.978 134.284 237.562 132.86 237.562C131.34 237.562 130.148 238.002 129.284 238.882C128.436 239.746 128.012 241.074 128.012 242.866V252.922H126.236V236.122H127.94V238.93C128.404 237.97 129.092 237.242 130.004 236.746C130.916 236.234 131.996 235.978 133.244 235.978C134.556 235.978 135.676 236.258 136.604 236.818C137.548 237.362 138.228 238.13 138.644 239.122C139.124 238.098 139.844 237.322 140.804 236.794C141.78 236.25 142.916 235.978 144.212 235.978ZM159.13 237.658V251.386H162.538V252.922H153.97V251.386H157.378V237.658H153.97V236.122H162.538V237.658H159.13ZM173.729 235.978C175.745 235.978 177.321 236.578 178.457 237.778C179.609 238.978 180.185 240.69 180.185 242.914V252.922H178.409V242.962C178.409 241.186 177.969 239.842 177.089 238.93C176.209 238.018 174.977 237.562 173.393 237.562C171.729 237.562 170.433 238.05 169.505 239.026C168.577 239.986 168.113 241.434 168.113 243.37V252.922H166.337V236.122H168.041V238.954C169.113 236.97 171.009 235.978 173.729 235.978Z" fill="#AEE7F4"/>
<path d="M135.537 261.722V278.522H133.809V263.258H129.849V261.722H135.537ZM153.833 274.106H150.473V278.522H148.745V274.106H139.265V272.858L148.169 261.722H150.089L141.497 272.57H148.793V268.682H150.473V272.57H153.833V274.106ZM157.185 278.642C156.833 278.642 156.529 278.514 156.273 278.258C156.033 278.002 155.913 277.69 155.913 277.322C155.913 276.954 156.033 276.65 156.273 276.41C156.529 276.154 156.833 276.026 157.185 276.026C157.537 276.026 157.841 276.154 158.097 276.41C158.353 276.65 158.481 276.954 158.481 277.322C158.481 277.69 158.353 278.002 158.097 278.258C157.841 278.514 157.537 278.642 157.185 278.642ZM167.413 278.666C166.117 278.666 164.957 278.322 163.933 277.634C162.925 276.946 162.133 275.962 161.557 274.682C160.997 273.386 160.717 271.866 160.717 270.122C160.717 268.378 160.997 266.866 161.557 265.586C162.133 264.29 162.925 263.298 163.933 262.61C164.957 261.922 166.117 261.578 167.413 261.578C168.709 261.578 169.861 261.922 170.869 262.61C171.893 263.298 172.693 264.29 173.269 265.586C173.845 266.866 174.133 268.378 174.133 270.122C174.133 271.866 173.845 273.386 173.269 274.682C172.693 275.962 171.893 276.946 170.869 277.634C169.861 278.322 168.709 278.666 167.413 278.666ZM167.413 277.082C168.389 277.082 169.245 276.81 169.981 276.266C170.733 275.722 171.317 274.93 171.733 273.89C172.149 272.85 172.357 271.594 172.357 270.122C172.357 268.65 172.149 267.394 171.733 266.354C171.317 265.314 170.733 264.522 169.981 263.978C169.245 263.434 168.389 263.162 167.413 263.162C166.437 263.162 165.573 263.434 164.821 263.978C164.085 264.522 163.509 265.314 163.093 266.354C162.677 267.394 162.469 268.65 162.469 270.122C162.469 271.594 162.677 272.85 163.093 273.89C163.509 274.93 164.085 275.722 164.821 276.266C165.573 276.81 166.437 277.082 167.413 277.082Z" fill="#AEE7F4"/>
<path d="M203.467 265.689H187.378" stroke="#AEE7F4" stroke-width="2.2672" stroke-miterlimit="10"/>
<path d="M798.582 307.879C800.502 307.879 801.998 308.431 803.07 309.535C804.142 310.639 804.678 312.239 804.678 314.335V324.823H802.926V314.383C802.926 312.751 802.51 311.527 801.678 310.711C800.862 309.879 799.742 309.463 798.318 309.463C796.814 309.463 795.638 309.903 794.79 310.783C793.942 311.647 793.518 312.975 793.518 314.767V324.823H791.766V314.383C791.766 312.751 791.366 311.527 790.566 310.711C789.766 309.879 788.654 309.463 787.23 309.463C785.71 309.463 784.518 309.903 783.654 310.783C782.806 311.647 782.382 312.975 782.382 314.767V324.823H780.606V308.023H782.31V310.831C782.774 309.871 783.462 309.143 784.374 308.647C785.286 308.135 786.366 307.879 787.614 307.879C788.926 307.879 790.046 308.159 790.974 308.719C791.918 309.263 792.598 310.031 793.014 311.023C793.494 309.999 794.214 309.223 795.174 308.695C796.15 308.151 797.286 307.879 798.582 307.879ZM813.5 309.559V323.287H816.908V324.823H808.34V323.287H811.748V309.559H808.34V308.023H816.908V309.559H813.5ZM828.099 307.879C830.115 307.879 831.691 308.479 832.827 309.679C833.979 310.879 834.555 312.591 834.555 314.815V324.823H832.779V314.863C832.779 313.087 832.339 311.743 831.459 310.831C830.579 309.919 829.347 309.463 827.763 309.463C826.099 309.463 824.803 309.951 823.875 310.927C822.947 311.887 822.483 313.335 822.483 315.271V324.823H820.707V308.023H822.411V310.855C823.483 308.871 825.379 307.879 828.099 307.879Z" fill="#FFDEEB"/>
<path d="M797.845 340.511C800.277 340.511 802.045 340.951 803.149 341.831C804.269 342.695 804.829 343.911 804.829 345.479C804.829 346.455 804.597 347.327 804.133 348.095C803.685 348.863 803.005 349.471 802.093 349.919C801.181 350.351 800.061 350.567 798.733 350.567C797.533 350.567 796.389 350.375 795.301 349.991C794.229 349.591 793.365 349.063 792.709 348.407L793.549 347.039C794.109 347.615 794.845 348.087 795.757 348.455C796.669 348.807 797.653 348.983 798.709 348.983C800.101 348.983 801.173 348.671 801.925 348.047C802.693 347.423 803.077 346.591 803.077 345.551C803.077 344.399 802.645 343.527 801.781 342.935C800.933 342.343 799.493 342.047 797.461 342.047H793.885L794.749 333.623H803.941V335.159H796.261L795.685 340.511H797.845ZM811.321 340.511C813.753 340.511 815.521 340.951 816.625 341.831C817.745 342.695 818.305 343.911 818.305 345.479C818.305 346.455 818.073 347.327 817.609 348.095C817.161 348.863 816.481 349.471 815.569 349.919C814.657 350.351 813.537 350.567 812.209 350.567C811.009 350.567 809.865 350.375 808.777 349.991C807.705 349.591 806.841 349.063 806.185 348.407L807.025 347.039C807.585 347.615 808.321 348.087 809.233 348.455C810.145 348.807 811.129 348.983 812.185 348.983C813.577 348.983 814.649 348.671 815.401 348.047C816.169 347.423 816.553 346.591 816.553 345.551C816.553 344.399 816.121 343.527 815.257 342.935C814.409 342.343 812.969 342.047 810.937 342.047H807.361L808.225 333.623H817.417V335.159H809.737L809.161 340.511H811.321Z" fill="#FFDEEB"/>
<path d="M749.6 320.089H733.511" stroke="#FFDEEB" stroke-width="2.2672" stroke-miterlimit="10"/>
<path d="M709.051 347.11L702.971 338.893L690.18 348.357L696.26 356.574L709.051 347.11Z" fill="#FFDEEB"/>
<path d="M521.226 744.907L530.318 743.824L528.488 728.465L519.397 729.548L521.226 744.907Z" fill="#FFDEEB"/>
<path d="M607.368 723.932L615.499 719.724L606.021 701.41L597.89 705.617L607.368 723.932Z" fill="#FFDEEB"/>
<path d="M699.951 691.532L706.192 684.833L671.46 652.479L665.22 659.178L699.951 691.532Z" fill="#FFDEEB"/>
<path d="M736.457 602.035L739.829 593.523L713.632 583.146L710.26 591.658L736.457 602.035Z" fill="#FFDEEB"/>
<path d="M763.021 515.286L763.545 506.146L733.993 504.45L733.468 513.591L763.021 515.286Z" fill="#FFDEEB"/>
<path d="M747.553 424.842L744.815 416.666L724.669 423.411L727.406 431.587L747.553 424.842Z" fill="#FFDEEB"/>
<path d="M568.678 240.019L558.923 237.623L554.004 257.651L563.759 260.047L568.678 240.019Z" fill="#FFDEEB"/>
<path d="M655.09 270.369L647.909 265.596L629.997 292.542L637.178 297.315L655.09 270.369Z" fill="#FFDEEB"/>
<path d="M432.057 768.991L444.035 771.188L452.663 724.15L440.684 721.953L432.057 768.991Z" fill="#AEE7F4"/>
<path d="M345.897 718.779L356.115 725.403L375.941 694.823L365.723 688.198L345.897 718.779Z" fill="#AEE7F4"/>
<path d="M251.154 676.648L258.107 685.653L313.196 643.121L306.243 634.115L251.154 676.648Z" fill="#AEE7F4"/>
<path d="M237.081 570.711L240.398 581.223L273.375 570.819L270.058 560.307L237.081 570.711Z" fill="#AEE7F4"/>
<path d="M230.554 478.351L230.14 489.277L258.653 490.357L259.067 479.431L230.554 478.351Z" fill="#AEE7F4"/>
<path d="M258.955 390.027L254.53 401.374L275.235 409.447L279.659 398.101L258.955 390.027Z" fill="#AEE7F4"/>
<path d="M311.383 317.632L302.588 327.296L314.619 338.245L323.414 328.581L311.383 317.632Z" fill="#AEE7F4"/>
<path d="M374.868 257.621L366.17 262.643L378.437 283.889L387.135 278.867L374.868 257.621Z" fill="#AEE7F4"/>
<path d="M458.914 223.489L449.014 225.182L454.046 254.621L463.947 252.929L458.914 223.489Z" fill="#AEE7F4"/>
</svg>
