<svg width="960" height="960" viewBox="0 0 960 960" fill="none" xmlns="http://www.w3.org/2000/svg">
<path d="M664.711 659.911L670.933 653.244L689.689 670.666L683.466 677.333L664.711 659.911ZM726.933 431.911L724.177 423.733L744.355 416.977L747.111 425.155L726.933 431.911ZM496.8 743.2C495.644 743.2 494.489 743.2 493.333 743.2L493.511 732.977C494.666 732.977 495.733 732.977 496.889 732.977V743.2H496.8ZM506.311 743.022L505.955 732.8C507.111 732.8 508.177 732.711 509.333 732.622L509.866 742.844C508.622 742.933 507.466 742.933 506.311 743.022ZM479.466 742.577C478.311 742.489 477.155 742.4 476 742.311L476.8 732.088C477.866 732.177 479.022 732.266 480.177 732.355L479.466 742.577ZM462.133 740.8C460.977 740.622 459.822 740.444 458.666 740.266L460.266 730.133C461.333 730.311 462.489 730.489 463.555 730.577L462.133 740.8ZM540.889 739.289L539.111 729.155C540.177 728.977 541.333 728.8 542.4 728.533L544.355 738.577C543.2 738.844 542.044 739.111 540.889 739.289ZM557.955 735.644L555.466 725.689C556.533 725.422 557.6 725.155 558.666 724.888L561.333 734.755C560.177 735.111 559.111 735.377 557.955 735.644ZM428 733.6C426.844 733.244 425.777 732.977 424.622 732.622L427.555 722.844C428.622 723.2 429.689 723.466 430.755 723.822L428 733.6ZM574.666 730.844L571.466 721.066C572.533 720.711 573.6 720.355 574.666 720L577.955 729.689C576.889 730.133 575.822 730.489 574.666 730.844ZM411.377 728.266C410.311 727.911 409.155 727.466 408.089 727.022L411.733 717.422C412.8 717.777 413.866 718.222 414.844 718.577L411.377 728.266ZM591.022 724.888L587.2 715.377C588.266 714.933 589.244 714.577 590.222 714.133L594.222 723.555C593.155 724 592.089 724.444 591.022 724.888ZM395.2 721.689C394.133 721.244 393.066 720.711 392 720.266L396.266 710.933C397.244 711.377 398.311 711.822 399.289 712.355L395.2 721.689ZM379.466 714.133C378.4 713.6 377.422 713.066 376.355 712.444L381.244 703.466C382.222 704 383.2 704.533 384.177 705.066L379.466 714.133ZM622.311 709.6L617.155 700.711C618.133 700.177 619.111 699.555 620 699.022L625.244 707.822C624.266 708.444 623.289 709.066 622.311 709.6ZM637.066 700.444L631.377 691.911C632.266 691.289 633.244 690.666 634.133 690.044L640 698.488C638.933 699.111 638.044 699.733 637.066 700.444ZM349.866 695.733C348.889 695.022 348 694.4 347.022 693.689L353.155 685.422C354.044 686.044 354.933 686.755 355.822 687.377L349.866 695.733ZM651.111 690.222L644.8 682.133C645.689 681.422 646.577 680.8 647.377 680.088L653.777 688.088C652.977 688.8 652.089 689.511 651.111 690.222ZM336.089 685.066C335.2 684.355 334.311 683.555 333.422 682.844L340.089 675.022C340.977 675.733 341.777 676.444 342.666 677.155L336.089 685.066ZM664.533 679.022L657.689 671.377C658.489 670.666 659.377 669.866 660.177 669.155L667.111 676.711C666.222 677.511 665.333 678.311 664.533 679.022ZM323.111 673.422C322.311 672.622 321.422 671.822 320.622 671.022L327.822 663.733C328.622 664.533 329.422 665.244 330.222 666.044L323.111 673.422ZM310.933 660.977C310.133 660.088 309.333 659.288 308.622 658.4L316.266 651.555C316.977 652.355 317.777 653.244 318.489 654.044L310.933 660.977ZM688.8 654.133L680.977 647.466C681.689 646.577 682.4 645.777 683.111 644.888L691.022 651.377C690.311 652.355 689.6 653.244 688.8 654.133ZM699.644 640.444L691.377 634.4C692 633.511 692.711 632.622 693.333 631.733L701.689 637.689C700.977 638.577 700.355 639.466 699.644 640.444ZM289.244 633.689C288.622 632.711 287.911 631.733 287.289 630.844L295.822 625.155C296.444 626.044 297.066 627.022 297.689 627.911L289.244 633.689ZM709.511 626.044L700.889 620.533C701.511 619.555 702.044 618.666 702.666 617.689L711.377 623.111C710.755 624.088 710.133 625.066 709.511 626.044ZM279.911 619.022C279.289 618.044 278.755 616.977 278.133 616L287.022 610.933C287.555 611.911 288.089 612.888 288.711 613.777L279.911 619.022ZM718.311 611.022L709.333 606.133C709.866 605.155 710.4 604.177 710.933 603.2L720 608C719.377 608.977 718.844 609.955 718.311 611.022ZM271.555 603.733C271.022 602.666 270.489 601.688 270.044 600.622L279.289 596.177C279.733 597.155 280.266 598.222 280.8 599.2L271.555 603.733ZM264.355 587.911C263.911 586.844 263.466 585.777 263.022 584.711L272.533 580.888C272.977 581.955 273.333 582.933 273.777 584L264.355 587.911ZM732.8 579.288L723.2 575.733C723.555 574.666 724 573.6 724.355 572.533L734.044 576C733.6 577.066 733.155 578.133 732.8 579.288ZM738.311 562.666L728.444 559.733C728.8 558.666 729.066 557.6 729.333 556.533L739.2 559.288C738.933 560.444 738.666 561.6 738.311 562.666ZM253.244 554.933C252.977 553.777 252.711 552.711 252.355 551.555L262.311 549.066C262.577 550.133 262.844 551.2 263.111 552.355L253.244 554.933ZM742.666 545.777L732.622 543.555C732.889 542.488 733.066 541.333 733.333 540.266L743.377 542.311C743.111 543.555 742.933 544.711 742.666 545.777ZM249.422 537.955C249.244 536.8 248.977 535.644 248.8 534.488L258.933 532.711C259.111 533.777 259.289 534.933 259.555 536L249.422 537.955ZM745.777 528.711L735.644 527.2C735.822 526.133 736 524.977 736.089 523.911L746.222 525.244C746.133 526.4 745.955 527.555 745.777 528.711ZM246.844 520.711C246.666 519.555 246.577 518.4 246.489 517.244L256.711 516.177C256.8 517.244 256.977 518.4 257.066 519.466L246.844 520.711ZM245.422 503.377C245.333 502.222 245.333 501.066 245.244 499.911L255.466 499.555C255.466 500.711 255.555 501.777 255.644 502.933L245.422 503.377ZM748.533 493.955L738.311 493.866V490.488L748.533 490.4V493.955ZM737.866 477.155C737.777 476 737.689 474.933 737.689 473.777L747.911 473.066C748 474.222 748.089 475.377 748.177 476.533L737.866 477.155ZM256.355 469.511L246.133 468.622C246.222 467.466 246.311 466.311 246.489 465.155L256.711 466.222C256.533 467.288 256.444 468.355 256.355 469.511ZM736.355 460.533C736.177 459.466 736.089 458.311 735.911 457.244L746.044 455.822C746.222 456.977 746.4 458.133 746.489 459.288L736.355 460.533ZM258.4 452.888L248.266 451.288C248.444 450.133 248.622 448.977 248.889 447.822L259.022 449.6C258.844 450.666 258.577 451.822 258.4 452.888ZM733.6 444C733.422 442.933 733.155 441.777 732.889 440.711L742.933 438.577C743.2 439.733 743.377 440.888 743.644 441.955L733.6 444ZM261.689 436.533L251.733 434.222C252 433.066 252.266 431.911 252.533 430.844L262.489 433.333C262.222 434.311 261.955 435.377 261.689 436.533ZM266.044 420.355L256.266 417.333C256.622 416.177 256.977 415.111 257.333 413.955L267.111 417.066C266.666 418.222 266.4 419.288 266.044 420.355ZM724.8 411.822C724.444 410.755 724.089 409.688 723.644 408.711L733.244 405.155C733.6 406.222 734.044 407.377 734.4 408.444L724.8 411.822ZM718.755 396.266C718.311 395.2 717.866 394.222 717.422 393.244L726.755 389.066C727.2 390.133 727.733 391.2 728.177 392.266L718.755 396.266ZM278.133 389.155L268.889 384.8C269.422 383.733 269.866 382.666 270.4 381.6L279.644 386.133C279.111 387.111 278.577 388.088 278.133 389.155ZM711.644 381.155C711.111 380.177 710.577 379.2 710.133 378.222L719.2 373.422C719.733 374.488 720.266 375.466 720.8 376.533L711.644 381.155ZM285.777 374.222L276.8 369.244C277.333 368.266 277.955 367.2 278.489 366.222L287.377 371.377C286.844 372.266 286.311 373.244 285.777 374.222ZM703.466 366.577C702.933 365.6 702.311 364.711 701.689 363.733L710.4 358.311C711.022 359.288 711.644 360.266 712.266 361.244L703.466 366.577ZM294.4 359.911L285.777 354.311C286.4 353.333 287.022 352.355 287.733 351.377L296.266 357.066C295.644 358.044 295.022 359.022 294.4 359.911ZM304 346.222L295.822 340C296.533 339.111 297.244 338.133 297.955 337.244L306.044 343.555C305.333 344.444 304.711 345.333 304 346.222ZM684.266 339.288C683.555 338.4 682.844 337.6 682.133 336.711L689.955 330.133C690.666 331.022 691.466 331.911 692.177 332.8L684.266 339.288ZM673.244 326.755C672.444 325.955 671.733 325.155 670.933 324.355L678.311 317.244C679.111 318.044 679.911 318.933 680.711 319.733L673.244 326.755ZM325.955 320.977L318.666 313.777C319.466 312.977 320.266 312.177 321.155 311.288L328.266 318.666C327.555 319.466 326.755 320.177 325.955 320.977ZM661.422 314.933C660.622 314.133 659.822 313.422 658.933 312.622L665.866 305.066C666.755 305.866 667.555 306.666 668.444 307.377L661.422 314.933ZM338.133 309.6L331.377 301.866C332.266 301.066 333.155 300.355 334.044 299.555L340.711 307.377C339.822 308.088 339.022 308.8 338.133 309.6ZM648.8 303.911C647.911 303.2 647.022 302.488 646.222 301.866L652.533 293.777C653.422 294.488 654.4 295.2 655.289 296L648.8 303.911ZM351.111 299.022L344.889 290.844C345.777 290.133 346.755 289.422 347.644 288.8L353.689 297.066C352.889 297.688 352 298.311 351.111 299.022ZM364.711 289.422L359.111 280.888C360.089 280.266 361.066 279.644 362.044 279.022L367.555 287.644C366.577 288.177 365.689 288.8 364.711 289.422ZM621.511 284.711C620.533 284.177 619.555 283.555 618.666 283.022L623.822 274.222C624.8 274.844 625.866 275.377 626.844 276L621.511 284.711ZM606.844 276.533C605.866 276 604.889 275.555 603.822 275.022L608.355 265.866C609.422 266.4 610.4 266.933 611.466 267.466L606.844 276.533ZM393.866 273.066L389.511 263.822C390.577 263.288 391.644 262.844 392.622 262.4L396.889 271.733C395.822 272.088 394.844 272.533 393.866 273.066ZM591.733 269.422C590.666 268.977 589.689 268.533 588.622 268.088L592.533 258.577C593.6 259.022 594.666 259.466 595.733 259.911L591.733 269.422ZM409.155 266.4L405.422 256.888C406.489 256.444 407.555 256.088 408.711 255.644L412.266 265.244C411.2 265.6 410.222 266.044 409.155 266.4ZM576.089 263.288C575.022 262.933 573.955 262.577 572.889 262.222L576.089 252.533C577.155 252.888 578.311 253.244 579.377 253.688L576.089 263.288ZM424.889 260.888L421.866 251.111C422.933 250.755 424.089 250.4 425.244 250.133L428.177 259.911C427.022 260.266 425.955 260.533 424.889 260.888ZM441.066 256.444L438.666 246.488C439.822 246.222 440.889 245.955 442.044 245.688L444.266 255.644C443.2 256 442.133 256.177 441.066 256.444ZM543.822 254.577C542.755 254.4 541.6 254.133 540.533 253.955L542.4 243.911C543.555 244.088 544.711 244.355 545.866 244.533L543.822 254.577ZM527.377 251.911C526.311 251.733 525.155 251.644 524.089 251.555L525.244 241.333C526.4 241.422 527.555 241.6 528.711 241.777L527.377 251.911ZM473.955 251.022L472.977 240.8C474.133 240.711 475.289 240.622 476.444 240.533L477.244 250.755C476.177 250.844 475.111 250.933 473.955 251.022ZM510.755 250.311C509.689 250.222 508.533 250.222 507.377 250.133L507.822 239.911C508.977 240 510.133 240 511.289 240.088L510.755 250.311ZM490.666 250.044L490.4 239.822C491.555 239.822 492.711 239.733 493.866 239.733L493.955 249.955C492.889 249.955 491.822 250.044 490.666 250.044Z" fill="#D8CEE2"/>
<path d="M496.622 866.398C289.511 866.398 121.6 698.486 121.6 491.375C121.6 284.264 289.511 116.353 496.622 116.353" stroke="#AEE7F4" stroke-width="2.2698" stroke-miterlimit="10"/>
<path d="M496.978 115.378V147.645" stroke="#AEE7F4" stroke-width="1.3314" stroke-miterlimit="10"/>
<path d="M496.889 835.111V867.377" stroke="#AEE7F4" stroke-width="1.3314" stroke-miterlimit="10"/>
<path d="M496.622 192.891C662.222 192.891 796.355 327.113 796.355 492.624C796.355 658.135 662.133 792.357 496.622 792.357" stroke="#FFDEEB" stroke-width="2.2698" stroke-miterlimit="10"/>
<path d="M496.889 191.822V224.177" stroke="#FFDEEB" stroke-width="1.3314" stroke-miterlimit="10"/>
<path d="M496.889 761.067V793.423" stroke="#FFDEEB" stroke-width="1.3314" stroke-miterlimit="10"/>
<path d="M615.115 783.858C617.035 783.858 618.531 784.41 619.603 785.514C620.675 786.618 621.211 788.218 621.211 790.314V800.802H619.459V790.362C619.459 788.73 619.043 787.506 618.211 786.69C617.395 785.858 616.275 785.442 614.851 785.442C613.347 785.442 612.171 785.882 611.323 786.762C610.475 787.626 610.051 788.954 610.051 790.746V800.802H608.299V790.362C608.299 788.73 607.899 787.506 607.099 786.69C606.299 785.858 605.187 785.442 603.763 785.442C602.243 785.442 601.051 785.882 600.187 786.762C599.339 787.626 598.915 788.954 598.915 790.746V800.802H597.139V784.002H598.843V786.81C599.307 785.85 599.995 785.122 600.907 784.626C601.819 784.114 602.899 783.858 604.147 783.858C605.459 783.858 606.579 784.138 607.507 784.698C608.451 785.242 609.131 786.01 609.547 787.002C610.027 785.978 610.747 785.202 611.707 784.674C612.683 784.13 613.819 783.858 615.115 783.858ZM630.033 785.538V799.266H633.441V800.802H624.873V799.266H628.281V785.538H624.873V784.002H633.441V785.538H630.033ZM644.633 783.858C646.649 783.858 648.225 784.458 649.361 785.658C650.513 786.858 651.089 788.57 651.089 790.794V800.802H649.313V790.842C649.313 789.066 648.873 787.722 647.993 786.81C647.113 785.898 645.881 785.442 644.297 785.442C642.633 785.442 641.337 785.93 640.409 786.906C639.481 787.866 639.017 789.314 639.017 791.25V800.802H637.241V784.002H638.945V786.834C640.017 784.85 641.913 783.858 644.633 783.858Z" fill="#FFDEEB"/>
<path d="M613.312 816.488C615.744 816.488 617.512 816.928 618.616 817.808C619.736 818.672 620.296 819.888 620.296 821.456C620.296 822.432 620.064 823.304 619.6 824.072C619.152 824.84 618.472 825.448 617.56 825.896C616.648 826.328 615.528 826.544 614.2 826.544C613 826.544 611.856 826.352 610.768 825.968C609.696 825.568 608.832 825.04 608.176 824.384L609.016 823.016C609.576 823.592 610.312 824.064 611.224 824.432C612.136 824.784 613.12 824.96 614.176 824.96C615.568 824.96 616.64 824.648 617.392 824.024C618.16 823.4 618.544 822.568 618.544 821.528C618.544 820.376 618.112 819.504 617.248 818.912C616.4 818.32 614.96 818.024 612.928 818.024H609.352L610.216 809.6H619.408V811.136H611.728L611.152 816.488H613.312ZM636.769 821.984H633.409V826.4H631.681V821.984H622.201V820.736L631.105 809.6H633.025L624.433 820.448H631.729V816.56H633.409V820.448H636.769V821.984Z" fill="#FFDEEB"/>
<path d="M621.067 772.891V756.802" stroke="#FFDEEB" stroke-width="2.2698" stroke-miterlimit="10"/>
<path d="M262.513 97.897L258.673 92.497C258.241 92.545 257.793 92.569 257.329 92.569H252.817V97.897H251.041V81.097H257.329C259.473 81.097 261.153 81.609 262.369 82.633C263.585 83.657 264.193 85.065 264.193 86.857C264.193 88.169 263.857 89.281 263.185 90.193C262.529 91.089 261.585 91.737 260.353 92.137L264.457 97.897H262.513ZM257.281 91.057C258.945 91.057 260.217 90.689 261.097 89.953C261.977 89.217 262.417 88.185 262.417 86.857C262.417 85.497 261.977 84.457 261.097 83.737C260.217 83.001 258.945 82.633 257.281 82.633H252.817V91.057H257.281ZM273.425 96.505C274.209 96.505 274.929 96.369 275.585 96.097C276.257 95.809 276.825 95.393 277.289 94.849L278.249 95.953C277.689 96.625 276.993 97.137 276.161 97.489C275.329 97.841 274.409 98.017 273.401 98.017C272.105 98.017 270.953 97.745 269.945 97.201C268.937 96.641 268.153 95.873 267.593 94.897C267.033 93.921 266.753 92.817 266.753 91.585C266.753 90.353 267.017 89.249 267.545 88.273C268.089 87.297 268.833 86.537 269.777 85.993C270.721 85.449 271.793 85.177 272.993 85.177C274.113 85.177 275.121 85.433 276.017 85.945C276.929 86.457 277.649 87.169 278.177 88.081C278.721 88.993 279.009 90.033 279.041 91.201L268.673 93.217C268.993 94.241 269.569 95.049 270.401 95.641C271.249 96.217 272.257 96.505 273.425 96.505ZM272.993 86.641C272.113 86.641 271.321 86.849 270.617 87.265C269.929 87.665 269.385 88.233 268.985 88.969C268.601 89.689 268.409 90.521 268.409 91.465C268.409 91.705 268.417 91.881 268.433 91.993L277.337 90.265C277.145 89.209 276.657 88.345 275.873 87.673C275.089 86.985 274.129 86.641 272.993 86.641ZM285.893 98.017C284.869 98.017 283.885 97.873 282.941 97.585C282.013 97.281 281.285 96.905 280.757 96.457L281.525 95.113C282.053 95.529 282.717 95.873 283.517 96.145C284.317 96.401 285.149 96.529 286.013 96.529C287.165 96.529 288.013 96.353 288.557 96.001C289.117 95.633 289.397 95.121 289.397 94.465C289.397 94.001 289.245 93.641 288.941 93.385C288.637 93.113 288.253 92.913 287.789 92.785C287.325 92.641 286.709 92.505 285.941 92.377C284.917 92.185 284.093 91.993 283.469 91.801C282.845 91.593 282.309 91.249 281.861 90.769C281.429 90.289 281.213 89.625 281.213 88.777C281.213 87.721 281.653 86.857 282.533 86.185C283.413 85.513 284.637 85.177 286.205 85.177C287.021 85.177 287.837 85.289 288.653 85.513C289.469 85.721 290.141 86.001 290.669 86.353L289.925 87.721C288.885 87.001 287.645 86.641 286.205 86.641C285.117 86.641 284.293 86.833 283.733 87.217C283.189 87.601 282.917 88.105 282.917 88.729C282.917 89.209 283.069 89.593 283.373 89.881C283.693 90.169 284.085 90.385 284.549 90.529C285.013 90.657 285.653 90.793 286.469 90.937C287.477 91.129 288.285 91.321 288.893 91.513C289.501 91.705 290.021 92.033 290.453 92.497C290.885 92.961 291.101 93.601 291.101 94.417C291.101 95.521 290.637 96.401 289.709 97.057C288.797 97.697 287.525 98.017 285.893 98.017ZM300.755 85.177C301.939 85.177 303.011 85.449 303.971 85.993C304.931 86.521 305.683 87.273 306.227 88.249C306.771 89.225 307.043 90.337 307.043 91.585C307.043 92.849 306.771 93.969 306.227 94.945C305.683 95.921 304.931 96.681 303.971 97.225C303.027 97.753 301.955 98.017 300.755 98.017C299.731 98.017 298.803 97.809 297.971 97.393C297.155 96.961 296.483 96.337 295.955 95.521V102.553H294.251V85.273H295.883V87.769C296.395 86.937 297.067 86.297 297.899 85.849C298.747 85.401 299.699 85.177 300.755 85.177ZM300.635 96.505C301.515 96.505 302.315 96.305 303.035 95.905C303.755 95.489 304.315 94.905 304.715 94.153C305.131 93.401 305.339 92.545 305.339 91.585C305.339 90.625 305.131 89.777 304.715 89.041C304.315 88.289 303.755 87.705 303.035 87.289C302.315 86.873 301.515 86.665 300.635 86.665C299.739 86.665 298.931 86.873 298.211 87.289C297.507 87.705 296.947 88.289 296.531 89.041C296.131 89.777 295.931 90.625 295.931 91.585C295.931 92.545 296.131 93.401 296.531 94.153C296.947 94.905 297.507 95.489 298.211 95.905C298.931 96.305 299.739 96.505 300.635 96.505ZM310.517 85.273H312.221V97.897H310.517V85.273ZM311.381 82.513C311.029 82.513 310.733 82.393 310.493 82.153C310.253 81.913 310.133 81.625 310.133 81.289C310.133 80.969 310.253 80.689 310.493 80.449C310.733 80.209 311.029 80.089 311.381 80.089C311.733 80.089 312.029 80.209 312.269 80.449C312.509 80.673 312.629 80.945 312.629 81.265C312.629 81.617 312.509 81.913 312.269 82.153C312.029 82.393 311.733 82.513 311.381 82.513ZM318.594 87.745C318.994 86.897 319.586 86.257 320.37 85.825C321.17 85.393 322.154 85.177 323.322 85.177V86.833L322.914 86.809C321.586 86.809 320.546 87.217 319.794 88.033C319.042 88.849 318.666 89.993 318.666 91.465V97.897H316.962V85.273H318.594V87.745ZM337.81 85.273V97.897H336.178V95.401C335.666 96.249 334.986 96.897 334.138 97.345C333.306 97.793 332.362 98.017 331.306 98.017C330.122 98.017 329.05 97.745 328.09 97.201C327.13 96.657 326.378 95.897 325.834 94.921C325.29 93.945 325.018 92.833 325.018 91.585C325.018 90.337 325.29 89.225 325.834 88.249C326.378 87.273 327.13 86.521 328.09 85.993C329.05 85.449 330.122 85.177 331.306 85.177C332.33 85.177 333.25 85.393 334.066 85.825C334.898 86.241 335.578 86.857 336.106 87.673V85.273H337.81ZM331.45 96.505C332.33 96.505 333.122 96.305 333.826 95.905C334.546 95.489 335.106 94.905 335.506 94.153C335.922 93.401 336.13 92.545 336.13 91.585C336.13 90.625 335.922 89.769 335.506 89.017C335.106 88.265 334.546 87.689 333.826 87.289C333.122 86.873 332.33 86.665 331.45 86.665C330.554 86.665 329.746 86.873 329.026 87.289C328.322 87.689 327.762 88.265 327.346 89.017C326.946 89.769 326.746 90.625 326.746 91.585C326.746 92.545 326.946 93.401 327.346 94.153C327.762 94.905 328.322 95.489 329.026 95.905C329.746 96.305 330.554 96.505 331.45 96.505ZM348.772 97.129C348.452 97.417 348.06 97.641 347.596 97.801C347.132 97.945 346.644 98.017 346.132 98.017C344.948 98.017 344.036 97.697 343.396 97.057C342.756 96.417 342.436 95.513 342.436 94.345V82.513H344.14V85.273H347.956V86.713H344.14V94.249C344.14 95.001 344.324 95.577 344.692 95.977C345.06 96.361 345.596 96.553 346.3 96.553C347.068 96.553 347.692 96.337 348.172 95.905L348.772 97.129ZM356.575 98.017C355.359 98.017 354.263 97.745 353.287 97.201C352.311 96.641 351.543 95.873 350.983 94.897C350.423 93.921 350.143 92.817 350.143 91.585C350.143 90.353 350.423 89.249 350.983 88.273C351.543 87.297 352.311 86.537 353.287 85.993C354.263 85.449 355.359 85.177 356.575 85.177C357.791 85.177 358.887 85.449 359.863 85.993C360.839 86.537 361.599 87.297 362.143 88.273C362.703 89.249 362.983 90.353 362.983 91.585C362.983 92.817 362.703 93.921 362.143 94.897C361.599 95.873 360.839 96.641 359.863 97.201C358.887 97.745 357.791 98.017 356.575 98.017ZM356.575 96.505C357.471 96.505 358.271 96.305 358.975 95.905C359.695 95.489 360.255 94.905 360.655 94.153C361.055 93.401 361.255 92.545 361.255 91.585C361.255 90.625 361.055 89.769 360.655 89.017C360.255 88.265 359.695 87.689 358.975 87.289C358.271 86.873 357.471 86.665 356.575 86.665C355.679 86.665 354.871 86.873 354.151 87.289C353.447 87.689 352.887 88.265 352.471 89.017C352.071 89.769 351.871 90.625 351.871 91.585C351.871 92.545 352.071 93.401 352.471 94.153C352.887 94.905 353.447 95.489 354.151 95.905C354.871 96.305 355.679 96.505 356.575 96.505ZM368.094 87.745C368.494 86.897 369.086 86.257 369.87 85.825C370.67 85.393 371.654 85.177 372.822 85.177V86.833L372.414 86.809C371.086 86.809 370.046 87.217 369.294 88.033C368.542 88.849 368.166 89.993 368.166 91.465V97.897H366.462V85.273H368.094V87.745ZM387.471 85.273V96.361C387.471 98.505 386.983 100.089 386.007 101.113C385.031 102.153 383.559 102.673 381.591 102.673C380.487 102.673 379.439 102.497 378.447 102.145C377.471 101.809 376.679 101.337 376.071 100.729L376.935 99.433C377.479 99.977 378.151 100.401 378.951 100.705C379.751 101.009 380.607 101.161 381.519 101.161C382.975 101.161 384.047 100.785 384.735 100.033C385.423 99.297 385.767 98.145 385.767 96.577V95.113C385.319 95.849 384.703 96.417 383.919 96.817C383.151 97.217 382.279 97.417 381.303 97.417C379.655 97.417 378.351 96.961 377.391 96.049C376.447 95.121 375.975 93.769 375.975 91.993V85.273H377.679V91.825C377.679 93.153 378.007 94.161 378.663 94.849C379.319 95.537 380.255 95.881 381.471 95.881C382.799 95.881 383.847 95.481 384.615 94.681C385.383 93.865 385.767 92.737 385.767 91.297V85.273H387.471ZM410.357 97.897L406.517 92.497C406.085 92.545 405.637 92.569 405.173 92.569H400.661V97.897H398.885V81.097H405.173C407.317 81.097 408.997 81.609 410.213 82.633C411.429 83.657 412.037 85.065 412.037 86.857C412.037 88.169 411.701 89.281 411.029 90.193C410.373 91.089 409.429 91.737 408.197 92.137L412.301 97.897H410.357ZM405.125 91.057C406.789 91.057 408.061 90.689 408.941 89.953C409.821 89.217 410.261 88.185 410.261 86.857C410.261 85.497 409.821 84.457 408.941 83.737C408.061 83.001 406.789 82.633 405.125 82.633H400.661V91.057H405.125ZM427.389 85.273V97.897H425.757V95.401C425.245 96.249 424.565 96.897 423.717 97.345C422.885 97.793 421.941 98.017 420.885 98.017C419.701 98.017 418.629 97.745 417.669 97.201C416.709 96.657 415.957 95.897 415.413 94.921C414.869 93.945 414.597 92.833 414.597 91.585C414.597 90.337 414.869 89.225 415.413 88.249C415.957 87.273 416.709 86.521 417.669 85.993C418.629 85.449 419.701 85.177 420.885 85.177C421.909 85.177 422.829 85.393 423.645 85.825C424.477 86.241 425.157 86.857 425.685 87.673V85.273H427.389ZM421.029 96.505C421.909 96.505 422.701 96.305 423.405 95.905C424.125 95.489 424.685 94.905 425.085 94.153C425.501 93.401 425.709 92.545 425.709 91.585C425.709 90.625 425.501 89.769 425.085 89.017C424.685 88.265 424.125 87.689 423.405 87.289C422.701 86.873 421.909 86.665 421.029 86.665C420.133 86.665 419.325 86.873 418.605 87.289C417.901 87.689 417.341 88.265 416.925 89.017C416.525 89.769 416.325 90.625 416.325 91.585C416.325 92.545 416.525 93.401 416.925 94.153C417.341 94.905 417.901 95.489 418.605 95.905C419.325 96.305 420.133 96.505 421.029 96.505ZM438.35 97.129C438.03 97.417 437.638 97.641 437.174 97.801C436.71 97.945 436.222 98.017 435.71 98.017C434.526 98.017 433.614 97.697 432.974 97.057C432.334 96.417 432.014 95.513 432.014 94.345V82.513H433.718V85.273H437.534V86.713H433.718V94.249C433.718 95.001 433.902 95.577 434.27 95.977C434.638 96.361 435.174 96.553 435.878 96.553C436.646 96.553 437.27 96.337 437.75 95.905L438.35 97.129ZM446.394 96.505C447.178 96.505 447.898 96.369 448.554 96.097C449.226 95.809 449.794 95.393 450.258 94.849L451.218 95.953C450.658 96.625 449.962 97.137 449.13 97.489C448.298 97.841 447.378 98.017 446.37 98.017C445.074 98.017 443.922 97.745 442.914 97.201C441.906 96.641 441.122 95.873 440.562 94.897C440.002 93.921 439.722 92.817 439.722 91.585C439.722 90.353 439.986 89.249 440.514 88.273C441.058 87.297 441.802 86.537 442.746 85.993C443.69 85.449 444.762 85.177 445.962 85.177C447.082 85.177 448.09 85.433 448.986 85.945C449.898 86.457 450.618 87.169 451.146 88.081C451.69 88.993 451.978 90.033 452.01 91.201L441.642 93.217C441.962 94.241 442.538 95.049 443.37 95.641C444.218 96.217 445.226 96.505 446.394 96.505ZM445.962 86.641C445.082 86.641 444.29 86.849 443.586 87.265C442.898 87.665 442.354 88.233 441.954 88.969C441.57 89.689 441.378 90.521 441.378 91.465C441.378 91.705 441.386 91.881 441.402 91.993L450.306 90.265C450.114 89.209 449.626 88.345 448.842 87.673C448.058 86.985 447.098 86.641 445.962 86.641ZM455.646 87.793C455.294 87.793 454.99 87.665 454.734 87.409C454.494 87.153 454.374 86.841 454.374 86.473C454.374 86.105 454.494 85.801 454.734 85.561C454.99 85.305 455.294 85.177 455.646 85.177C455.998 85.177 456.302 85.305 456.558 85.561C456.814 85.801 456.942 86.105 456.942 86.473C456.942 86.841 456.814 87.153 456.558 87.409C456.302 87.665 455.998 87.793 455.646 87.793ZM455.646 98.017C455.294 98.017 454.99 97.889 454.734 97.633C454.494 97.377 454.374 97.065 454.374 96.697C454.374 96.329 454.494 96.025 454.734 95.785C454.99 95.529 455.294 95.401 455.646 95.401C455.998 95.401 456.302 95.529 456.558 95.785C456.814 96.025 456.942 96.329 456.942 96.697C456.942 97.065 456.814 97.377 456.558 97.633C456.302 97.889 455.998 98.017 455.646 98.017ZM471.837 98.041C470.589 98.041 469.389 97.841 468.237 97.441C467.101 97.041 466.221 96.513 465.597 95.857L466.293 94.489C466.901 95.097 467.709 95.593 468.717 95.977C469.725 96.345 470.765 96.529 471.837 96.529C473.341 96.529 474.469 96.257 475.221 95.713C475.973 95.153 476.349 94.433 476.349 93.553C476.349 92.881 476.141 92.345 475.725 91.945C475.325 91.545 474.829 91.241 474.237 91.033C473.645 90.809 472.821 90.569 471.765 90.313C470.501 89.993 469.493 89.689 468.741 89.401C467.989 89.097 467.341 88.641 466.797 88.033C466.269 87.425 466.005 86.601 466.005 85.561C466.005 84.713 466.229 83.945 466.677 83.257C467.125 82.553 467.813 81.993 468.741 81.577C469.669 81.161 470.821 80.953 472.197 80.953C473.157 80.953 474.093 81.089 475.005 81.361C475.933 81.617 476.733 81.977 477.405 82.441L476.805 83.857C476.101 83.393 475.349 83.049 474.549 82.825C473.749 82.585 472.965 82.465 472.197 82.465C470.725 82.465 469.613 82.753 468.861 83.329C468.125 83.889 467.757 84.617 467.757 85.513C467.757 86.185 467.957 86.729 468.357 87.145C468.773 87.545 469.285 87.857 469.893 88.081C470.517 88.289 471.349 88.521 472.389 88.777C473.621 89.081 474.613 89.385 475.365 89.689C476.133 89.977 476.781 90.425 477.309 91.033C477.837 91.625 478.101 92.433 478.101 93.457C478.101 94.305 477.869 95.081 477.405 95.785C476.957 96.473 476.261 97.025 475.317 97.441C474.373 97.841 473.213 98.041 471.837 98.041ZM485.163 98.017C484.027 98.017 483.147 97.697 482.523 97.057C481.915 96.417 481.611 95.529 481.611 94.393V80.089H483.315V94.249C483.315 95.001 483.491 95.577 483.843 95.977C484.195 96.361 484.723 96.553 485.427 96.553C485.875 96.553 486.259 96.481 486.579 96.337L486.699 97.753C486.203 97.929 485.691 98.017 485.163 98.017ZM494.183 96.505C494.967 96.505 495.687 96.369 496.343 96.097C497.015 95.809 497.583 95.393 498.047 94.849L499.007 95.953C498.447 96.625 497.751 97.137 496.919 97.489C496.087 97.841 495.167 98.017 494.159 98.017C492.863 98.017 491.711 97.745 490.703 97.201C489.695 96.641 488.911 95.873 488.351 94.897C487.791 93.921 487.511 92.817 487.511 91.585C487.511 90.353 487.775 89.249 488.303 88.273C488.847 87.297 489.591 86.537 490.535 85.993C491.479 85.449 492.551 85.177 493.751 85.177C494.871 85.177 495.879 85.433 496.775 85.945C497.687 86.457 498.407 87.169 498.935 88.081C499.479 88.993 499.767 90.033 499.799 91.201L489.431 93.217C489.751 94.241 490.327 95.049 491.159 95.641C492.007 96.217 493.015 96.505 494.183 96.505ZM493.751 86.641C492.871 86.641 492.079 86.849 491.375 87.265C490.687 87.665 490.143 88.233 489.743 88.969C489.359 89.689 489.167 90.521 489.167 91.465C489.167 91.705 489.175 91.881 489.191 91.993L498.095 90.265C497.903 89.209 497.415 88.345 496.631 87.673C495.847 86.985 494.887 86.641 493.751 86.641ZM508.667 96.505C509.451 96.505 510.171 96.369 510.827 96.097C511.499 95.809 512.067 95.393 512.531 94.849L513.491 95.953C512.931 96.625 512.235 97.137 511.403 97.489C510.571 97.841 509.651 98.017 508.643 98.017C507.347 98.017 506.195 97.745 505.187 97.201C504.179 96.641 503.395 95.873 502.835 94.897C502.275 93.921 501.995 92.817 501.995 91.585C501.995 90.353 502.259 89.249 502.787 88.273C503.331 87.297 504.075 86.537 505.019 85.993C505.963 85.449 507.035 85.177 508.235 85.177C509.355 85.177 510.363 85.433 511.259 85.945C512.171 86.457 512.891 87.169 513.419 88.081C513.963 88.993 514.251 90.033 514.283 91.201L503.915 93.217C504.235 94.241 504.811 95.049 505.643 95.641C506.491 96.217 507.499 96.505 508.667 96.505ZM508.235 86.641C507.355 86.641 506.563 86.849 505.859 87.265C505.171 87.665 504.627 88.233 504.227 88.969C503.843 89.689 503.651 90.521 503.651 91.465C503.651 91.705 503.659 91.881 503.675 91.993L512.579 90.265C512.387 89.209 511.899 88.345 511.115 87.673C510.331 86.985 509.371 86.641 508.235 86.641ZM524.255 85.177C525.439 85.177 526.511 85.449 527.471 85.993C528.431 86.521 529.183 87.273 529.727 88.249C530.271 89.225 530.543 90.337 530.543 91.585C530.543 92.849 530.271 93.969 529.727 94.945C529.183 95.921 528.431 96.681 527.471 97.225C526.527 97.753 525.455 98.017 524.255 98.017C523.231 98.017 522.303 97.809 521.471 97.393C520.655 96.961 519.983 96.337 519.455 95.521V102.553H517.751V85.273H519.383V87.769C519.895 86.937 520.567 86.297 521.399 85.849C522.247 85.401 523.199 85.177 524.255 85.177ZM524.135 96.505C525.015 96.505 525.815 96.305 526.535 95.905C527.255 95.489 527.815 94.905 528.215 94.153C528.631 93.401 528.839 92.545 528.839 91.585C528.839 90.625 528.631 89.777 528.215 89.041C527.815 88.289 527.255 87.705 526.535 87.289C525.815 86.873 525.015 86.665 524.135 86.665C523.239 86.665 522.431 86.873 521.711 87.289C521.007 87.705 520.447 88.289 520.031 89.041C519.631 89.777 519.431 90.625 519.431 91.585C519.431 92.545 519.631 93.401 520.031 94.153C520.447 94.905 521.007 95.489 521.711 95.905C522.431 96.305 523.239 96.505 524.135 96.505Z" fill="#AEE7F4"/>
<path d="M510.863 164.422V181.222H509.111V173.47H498.599V181.222H496.823V164.422H498.599V171.91H509.111V164.422H510.863ZM521.387 179.83C522.171 179.83 522.891 179.694 523.547 179.422C524.219 179.134 524.787 178.718 525.251 178.174L526.211 179.278C525.651 179.95 524.955 180.462 524.123 180.814C523.291 181.166 522.371 181.342 521.363 181.342C520.067 181.342 518.915 181.07 517.907 180.526C516.899 179.966 516.115 179.198 515.555 178.222C514.995 177.246 514.715 176.142 514.715 174.91C514.715 173.678 514.979 172.574 515.507 171.598C516.051 170.622 516.795 169.862 517.739 169.318C518.683 168.774 519.755 168.502 520.955 168.502C522.075 168.502 523.083 168.758 523.979 169.27C524.891 169.782 525.611 170.494 526.139 171.406C526.683 172.318 526.971 173.358 527.003 174.526L516.635 176.542C516.955 177.566 517.531 178.374 518.363 178.966C519.211 179.542 520.219 179.83 521.387 179.83ZM520.955 169.966C520.075 169.966 519.283 170.174 518.579 170.59C517.891 170.99 517.347 171.558 516.947 172.294C516.563 173.014 516.371 173.846 516.371 174.79C516.371 175.03 516.379 175.206 516.395 175.318L525.299 173.59C525.107 172.534 524.619 171.67 523.835 170.998C523.051 170.31 522.091 169.966 520.955 169.966ZM541.991 168.598V181.222H540.359V178.726C539.847 179.574 539.167 180.222 538.319 180.67C537.487 181.118 536.543 181.342 535.487 181.342C534.303 181.342 533.231 181.07 532.271 180.526C531.311 179.982 530.559 179.222 530.015 178.246C529.471 177.27 529.199 176.158 529.199 174.91C529.199 173.662 529.471 172.55 530.015 171.574C530.559 170.598 531.311 169.846 532.271 169.318C533.231 168.774 534.303 168.502 535.487 168.502C536.511 168.502 537.431 168.718 538.247 169.15C539.079 169.566 539.759 170.182 540.287 170.998V168.598H541.991ZM535.631 179.83C536.511 179.83 537.303 179.63 538.007 179.23C538.727 178.814 539.287 178.23 539.687 177.478C540.103 176.726 540.311 175.87 540.311 174.91C540.311 173.95 540.103 173.094 539.687 172.342C539.287 171.59 538.727 171.014 538.007 170.614C537.303 170.198 536.511 169.99 535.631 169.99C534.735 169.99 533.927 170.198 533.207 170.614C532.503 171.014 531.943 171.59 531.527 172.342C531.127 173.094 530.927 173.95 530.927 174.91C530.927 175.87 531.127 176.726 531.527 177.478C531.943 178.23 532.503 178.814 533.207 179.23C533.927 179.63 534.735 179.83 535.631 179.83ZM548.369 171.07C548.769 170.222 549.361 169.582 550.145 169.15C550.945 168.718 551.929 168.502 553.097 168.502V170.158L552.689 170.134C551.361 170.134 550.321 170.542 549.569 171.358C548.817 172.174 548.441 173.318 548.441 174.79V181.222H546.737V168.598H548.369V171.07ZM562.398 180.454C562.078 180.742 561.686 180.966 561.222 181.126C560.758 181.27 560.27 181.342 559.758 181.342C558.574 181.342 557.662 181.022 557.022 180.382C556.382 179.742 556.062 178.838 556.062 177.67V165.838H557.766V168.598H561.582V170.038H557.766V177.574C557.766 178.326 557.95 178.902 558.318 179.302C558.686 179.686 559.222 179.878 559.926 179.878C560.694 179.878 561.318 179.662 561.798 179.23L562.398 180.454ZM583.6 181.222L579.76 175.822C579.328 175.87 578.88 175.894 578.416 175.894H573.904V181.222H572.128V164.422H578.416C580.56 164.422 582.24 164.934 583.456 165.958C584.672 166.982 585.28 168.39 585.28 170.182C585.28 171.494 584.944 172.606 584.272 173.518C583.616 174.414 582.672 175.062 581.44 175.462L585.544 181.222H583.6ZM578.368 174.382C580.032 174.382 581.304 174.014 582.184 173.278C583.064 172.542 583.504 171.51 583.504 170.182C583.504 168.822 583.064 167.782 582.184 167.062C581.304 166.326 580.032 165.958 578.368 165.958H573.904V174.382H578.368ZM600.632 168.598V181.222H599V178.726C598.488 179.574 597.808 180.222 596.96 180.67C596.128 181.118 595.184 181.342 594.128 181.342C592.944 181.342 591.872 181.07 590.912 180.526C589.952 179.982 589.2 179.222 588.656 178.246C588.112 177.27 587.84 176.158 587.84 174.91C587.84 173.662 588.112 172.55 588.656 171.574C589.2 170.598 589.952 169.846 590.912 169.318C591.872 168.774 592.944 168.502 594.128 168.502C595.152 168.502 596.072 168.718 596.888 169.15C597.72 169.566 598.4 170.182 598.928 170.998V168.598H600.632ZM594.272 179.83C595.152 179.83 595.944 179.63 596.648 179.23C597.368 178.814 597.928 178.23 598.328 177.478C598.744 176.726 598.952 175.87 598.952 174.91C598.952 173.95 598.744 173.094 598.328 172.342C597.928 171.59 597.368 171.014 596.648 170.614C595.944 170.198 595.152 169.99 594.272 169.99C593.376 169.99 592.568 170.198 591.848 170.614C591.144 171.014 590.584 171.59 590.168 172.342C589.768 173.094 589.568 173.95 589.568 174.91C589.568 175.87 589.768 176.726 590.168 177.478C590.584 178.23 591.144 178.814 591.848 179.23C592.568 179.63 593.376 179.83 594.272 179.83ZM611.593 180.454C611.273 180.742 610.881 180.966 610.417 181.126C609.953 181.27 609.465 181.342 608.953 181.342C607.769 181.342 606.857 181.022 606.217 180.382C605.577 179.742 605.257 178.838 605.257 177.67V165.838H606.961V168.598H610.777V170.038H606.961V177.574C606.961 178.326 607.145 178.902 607.513 179.302C607.881 179.686 608.417 179.878 609.121 179.878C609.889 179.878 610.513 179.662 610.993 179.23L611.593 180.454ZM619.637 179.83C620.421 179.83 621.141 179.694 621.797 179.422C622.469 179.134 623.037 178.718 623.501 178.174L624.461 179.278C623.901 179.95 623.205 180.462 622.373 180.814C621.541 181.166 620.621 181.342 619.613 181.342C618.317 181.342 617.165 181.07 616.157 180.526C615.149 179.966 614.365 179.198 613.805 178.222C613.245 177.246 612.965 176.142 612.965 174.91C612.965 173.678 613.229 172.574 613.757 171.598C614.301 170.622 615.045 169.862 615.989 169.318C616.933 168.774 618.005 168.502 619.205 168.502C620.325 168.502 621.333 168.758 622.229 169.27C623.141 169.782 623.861 170.494 624.389 171.406C624.933 172.318 625.221 173.358 625.253 174.526L614.885 176.542C615.205 177.566 615.781 178.374 616.613 178.966C617.461 179.542 618.469 179.83 619.637 179.83ZM619.205 169.966C618.325 169.966 617.533 170.174 616.829 170.59C616.141 170.99 615.597 171.558 615.197 172.294C614.813 173.014 614.621 173.846 614.621 174.79C614.621 175.03 614.629 175.206 614.645 175.318L623.549 173.59C623.357 172.534 622.869 171.67 622.085 170.998C621.301 170.31 620.341 169.966 619.205 169.966ZM628.889 171.118C628.537 171.118 628.233 170.99 627.977 170.734C627.737 170.478 627.617 170.166 627.617 169.798C627.617 169.43 627.737 169.126 627.977 168.886C628.233 168.63 628.537 168.502 628.889 168.502C629.241 168.502 629.545 168.63 629.801 168.886C630.057 169.126 630.185 169.43 630.185 169.798C630.185 170.166 630.057 170.478 629.801 170.734C629.545 170.99 629.241 171.118 628.889 171.118ZM628.889 181.342C628.537 181.342 628.233 181.214 627.977 180.958C627.737 180.702 627.617 180.39 627.617 180.022C627.617 179.654 627.737 179.35 627.977 179.11C628.233 178.854 628.537 178.726 628.889 178.726C629.241 178.726 629.545 178.854 629.801 179.11C630.057 179.35 630.185 179.654 630.185 180.022C630.185 180.39 630.057 180.702 629.801 180.958C629.545 181.214 629.241 181.342 628.889 181.342ZM645.08 181.366C643.832 181.366 642.632 181.166 641.48 180.766C640.344 180.366 639.464 179.838 638.84 179.182L639.536 177.814C640.144 178.422 640.952 178.918 641.96 179.302C642.968 179.67 644.008 179.854 645.08 179.854C646.584 179.854 647.712 179.582 648.464 179.038C649.216 178.478 649.592 177.758 649.592 176.878C649.592 176.206 649.384 175.67 648.968 175.27C648.568 174.87 648.072 174.566 647.48 174.358C646.888 174.134 646.064 173.894 645.008 173.638C643.744 173.318 642.736 173.014 641.984 172.726C641.232 172.422 640.584 171.966 640.04 171.358C639.512 170.75 639.248 169.926 639.248 168.886C639.248 168.038 639.472 167.27 639.92 166.582C640.368 165.878 641.056 165.318 641.984 164.902C642.912 164.486 644.064 164.278 645.44 164.278C646.4 164.278 647.336 164.414 648.248 164.686C649.176 164.942 649.976 165.302 650.648 165.766L650.048 167.182C649.344 166.718 648.592 166.374 647.792 166.15C646.992 165.91 646.208 165.79 645.44 165.79C643.968 165.79 642.856 166.078 642.104 166.654C641.368 167.214 641 167.942 641 168.838C641 169.51 641.2 170.054 641.6 170.47C642.016 170.87 642.528 171.182 643.136 171.406C643.76 171.614 644.592 171.846 645.632 172.102C646.864 172.406 647.856 172.71 648.608 173.014C649.376 173.302 650.024 173.75 650.552 174.358C651.08 174.95 651.344 175.758 651.344 176.782C651.344 177.63 651.112 178.406 650.648 179.11C650.2 179.798 649.504 180.35 648.56 180.766C647.616 181.166 646.456 181.366 645.08 181.366ZM658.406 181.342C657.27 181.342 656.39 181.022 655.766 180.382C655.158 179.742 654.854 178.854 654.854 177.718V163.414H656.558V177.574C656.558 178.326 656.734 178.902 657.086 179.302C657.438 179.686 657.966 179.878 658.67 179.878C659.118 179.878 659.502 179.806 659.822 179.662L659.942 181.078C659.446 181.254 658.934 181.342 658.406 181.342ZM667.426 179.83C668.21 179.83 668.93 179.694 669.586 179.422C670.258 179.134 670.826 178.718 671.29 178.174L672.25 179.278C671.69 179.95 670.994 180.462 670.162 180.814C669.33 181.166 668.41 181.342 667.402 181.342C666.106 181.342 664.954 181.07 663.946 180.526C662.938 179.966 662.154 179.198 661.594 178.222C661.034 177.246 660.754 176.142 660.754 174.91C660.754 173.678 661.018 172.574 661.546 171.598C662.09 170.622 662.834 169.862 663.778 169.318C664.722 168.774 665.794 168.502 666.994 168.502C668.114 168.502 669.122 168.758 670.018 169.27C670.93 169.782 671.65 170.494 672.178 171.406C672.722 172.318 673.01 173.358 673.042 174.526L662.674 176.542C662.994 177.566 663.57 178.374 664.402 178.966C665.25 179.542 666.258 179.83 667.426 179.83ZM666.994 169.966C666.114 169.966 665.322 170.174 664.618 170.59C663.93 170.99 663.386 171.558 662.986 172.294C662.602 173.014 662.41 173.846 662.41 174.79C662.41 175.03 662.418 175.206 662.434 175.318L671.338 173.59C671.146 172.534 670.658 171.67 669.874 170.998C669.09 170.31 668.13 169.966 666.994 169.966ZM681.91 179.83C682.694 179.83 683.414 179.694 684.07 179.422C684.742 179.134 685.31 178.718 685.774 178.174L686.734 179.278C686.174 179.95 685.478 180.462 684.646 180.814C683.814 181.166 682.894 181.342 681.886 181.342C680.59 181.342 679.438 181.07 678.43 180.526C677.422 179.966 676.638 179.198 676.078 178.222C675.518 177.246 675.238 176.142 675.238 174.91C675.238 173.678 675.502 172.574 676.03 171.598C676.574 170.622 677.318 169.862 678.262 169.318C679.206 168.774 680.278 168.502 681.478 168.502C682.598 168.502 683.606 168.758 684.502 169.27C685.414 169.782 686.134 170.494 686.662 171.406C687.206 172.318 687.494 173.358 687.526 174.526L677.158 176.542C677.478 177.566 678.054 178.374 678.886 178.966C679.734 179.542 680.742 179.83 681.91 179.83ZM681.478 169.966C680.598 169.966 679.806 170.174 679.102 170.59C678.414 170.99 677.87 171.558 677.47 172.294C677.086 173.014 676.894 173.846 676.894 174.79C676.894 175.03 676.902 175.206 676.918 175.318L685.822 173.59C685.63 172.534 685.142 171.67 684.358 170.998C683.574 170.31 682.614 169.966 681.478 169.966ZM697.498 168.502C698.682 168.502 699.754 168.774 700.714 169.318C701.674 169.846 702.426 170.598 702.97 171.574C703.514 172.55 703.786 173.662 703.786 174.91C703.786 176.174 703.514 177.294 702.97 178.27C702.426 179.246 701.674 180.006 700.714 180.55C699.77 181.078 698.698 181.342 697.498 181.342C696.474 181.342 695.546 181.134 694.714 180.718C693.898 180.286 693.226 179.662 692.698 178.846V185.878H690.994V168.598H692.626V171.094C693.138 170.262 693.81 169.622 694.642 169.174C695.49 168.726 696.442 168.502 697.498 168.502ZM697.378 179.83C698.258 179.83 699.058 179.63 699.778 179.23C700.498 178.814 701.058 178.23 701.458 177.478C701.874 176.726 702.082 175.87 702.082 174.91C702.082 173.95 701.874 173.102 701.458 172.366C701.058 171.614 700.498 171.03 699.778 170.614C699.058 170.198 698.258 169.99 697.378 169.99C696.482 169.99 695.674 170.198 694.954 170.614C694.25 171.03 693.69 171.614 693.274 172.366C692.874 173.102 692.674 173.95 692.674 174.91C692.674 175.87 692.874 176.726 693.274 177.478C693.69 178.23 694.25 178.814 694.954 179.23C695.674 179.63 696.482 179.83 697.378 179.83Z" fill="#FFDEEB"/>
<path d="M149.867 228.712C151.787 228.712 153.283 229.264 154.355 230.368C155.427 231.472 155.963 233.072 155.963 235.168V245.656H154.211V235.216C154.211 233.584 153.795 232.36 152.963 231.544C152.147 230.712 151.027 230.296 149.603 230.296C148.099 230.296 146.923 230.736 146.075 231.616C145.227 232.48 144.803 233.808 144.803 235.6V245.656H143.051V235.216C143.051 233.584 142.651 232.36 141.851 231.544C141.051 230.712 139.939 230.296 138.515 230.296C136.995 230.296 135.803 230.736 134.939 231.616C134.091 232.48 133.667 233.808 133.667 235.6V245.656H131.891V228.856H133.595V231.664C134.059 230.704 134.747 229.976 135.659 229.48C136.571 228.968 137.651 228.712 138.899 228.712C140.211 228.712 141.331 228.992 142.259 229.552C143.203 230.096 143.883 230.864 144.299 231.856C144.779 230.832 145.499 230.056 146.459 229.528C147.435 228.984 148.571 228.712 149.867 228.712ZM168.169 228.712C170.345 228.712 172.057 229.352 173.305 230.632C174.569 231.896 175.201 233.728 175.201 236.128V245.656H173.449V240.712H162.889V245.656H161.161V236.128C161.161 233.728 161.785 231.896 163.033 230.632C164.297 229.352 166.009 228.712 168.169 228.712ZM173.449 239.176V235.96C173.449 234.088 172.985 232.68 172.057 231.736C171.129 230.776 169.833 230.296 168.169 230.296C166.505 230.296 165.209 230.776 164.281 231.736C163.353 232.68 162.889 234.088 162.889 235.96V239.176H173.449ZM190.825 245.656L185.401 238.264L180.001 245.656H177.961L184.345 237.016L178.369 228.856H180.409L185.473 235.72L190.513 228.856H192.433L186.481 236.968L192.889 245.656H190.825Z" fill="#AEE7F4"/>
<path d="M144.748 254.459V271.259H143.02V255.995H139.06V254.459H144.748ZM158.388 262.451C159.444 262.803 160.252 263.331 160.812 264.035C161.388 264.739 161.676 265.587 161.676 266.579C161.676 267.555 161.412 268.411 160.884 269.147C160.356 269.867 159.596 270.427 158.604 270.827C157.628 271.211 156.476 271.403 155.148 271.403C153.132 271.403 151.548 270.971 150.396 270.107C149.244 269.243 148.668 268.067 148.668 266.579C148.668 265.571 148.94 264.723 149.484 264.035C150.044 263.331 150.852 262.803 151.908 262.451C151.044 262.115 150.388 261.635 149.94 261.011C149.492 260.371 149.268 259.619 149.268 258.755C149.268 257.395 149.796 256.315 150.852 255.515C151.924 254.715 153.356 254.315 155.148 254.315C156.332 254.315 157.364 254.499 158.244 254.867C159.14 255.219 159.836 255.731 160.332 256.403C160.828 257.075 161.076 257.859 161.076 258.755C161.076 259.619 160.844 260.371 160.38 261.011C159.916 261.635 159.252 262.115 158.388 262.451ZM150.996 258.803C150.996 259.731 151.364 260.467 152.1 261.011C152.836 261.555 153.852 261.827 155.148 261.827C156.444 261.827 157.46 261.555 158.196 261.011C158.948 260.467 159.324 259.739 159.324 258.827C159.324 257.883 158.94 257.139 158.172 256.595C157.42 256.051 156.412 255.779 155.148 255.779C153.868 255.779 152.852 256.051 152.1 256.595C151.364 257.139 150.996 257.875 150.996 258.803ZM155.148 269.939C156.636 269.939 157.796 269.635 158.628 269.027C159.476 268.419 159.9 267.595 159.9 266.555C159.9 265.515 159.476 264.699 158.628 264.107C157.796 263.499 156.636 263.195 155.148 263.195C153.676 263.195 152.516 263.499 151.668 264.107C150.836 264.699 150.42 265.515 150.42 266.555C150.42 267.611 150.836 268.443 151.668 269.051C152.5 269.643 153.66 269.939 155.148 269.939ZM165.599 271.379C165.247 271.379 164.943 271.251 164.687 270.995C164.447 270.739 164.327 270.427 164.327 270.059C164.327 269.691 164.447 269.387 164.687 269.147C164.943 268.891 165.247 268.763 165.599 268.763C165.951 268.763 166.255 268.891 166.511 269.147C166.767 269.387 166.895 269.691 166.895 270.059C166.895 270.427 166.767 270.739 166.511 270.995C166.255 271.251 165.951 271.379 165.599 271.379ZM173.805 261.347C176.237 261.347 178.005 261.787 179.109 262.667C180.229 263.531 180.789 264.747 180.789 266.315C180.789 267.291 180.557 268.163 180.093 268.931C179.645 269.699 178.965 270.307 178.053 270.755C177.141 271.187 176.021 271.403 174.693 271.403C173.493 271.403 172.349 271.211 171.261 270.827C170.189 270.427 169.325 269.899 168.669 269.243L169.509 267.875C170.069 268.451 170.805 268.923 171.717 269.291C172.629 269.643 173.613 269.819 174.669 269.819C176.061 269.819 177.133 269.507 177.885 268.883C178.653 268.259 179.037 267.427 179.037 266.387C179.037 265.235 178.605 264.363 177.741 263.771C176.893 263.179 175.453 262.883 173.421 262.883H169.845L170.709 254.459H179.901V255.995H172.221L171.645 261.347H173.805Z" fill="#AEE7F4"/>
<path d="M201.422 249.333H217.511" stroke="#AEE7F4" stroke-width="2.2698" stroke-miterlimit="10"/>
<path d="M446.718 137.184C448.638 137.184 450.134 137.736 451.206 138.84C452.278 139.944 452.814 141.544 452.814 143.64V154.128H451.062V143.688C451.062 142.056 450.646 140.832 449.814 140.016C448.998 139.184 447.878 138.768 446.454 138.768C444.95 138.768 443.774 139.208 442.926 140.088C442.078 140.952 441.654 142.28 441.654 144.072V154.128H439.902V143.688C439.902 142.056 439.502 140.832 438.702 140.016C437.902 139.184 436.79 138.768 435.366 138.768C433.846 138.768 432.654 139.208 431.79 140.088C430.942 140.952 430.518 142.28 430.518 144.072V154.128H428.742V137.328H430.446V140.136C430.91 139.176 431.598 138.448 432.51 137.952C433.422 137.44 434.502 137.184 435.75 137.184C437.062 137.184 438.182 137.464 439.11 138.024C440.054 138.568 440.734 139.336 441.15 140.328C441.63 139.304 442.35 138.528 443.31 138C444.286 137.456 445.422 137.184 446.718 137.184ZM461.636 138.864V152.592H465.044V154.128H456.476V152.592H459.884V138.864H456.476V137.328H465.044V138.864H461.636ZM476.235 137.184C478.251 137.184 479.827 137.784 480.963 138.984C482.115 140.184 482.691 141.896 482.691 144.12V154.128H480.915V144.168C480.915 142.392 480.475 141.048 479.595 140.136C478.715 139.224 477.483 138.768 475.899 138.768C474.235 138.768 472.939 139.256 472.011 140.232C471.083 141.192 470.619 142.64 470.619 144.576V154.128H468.843V137.328H470.547V140.16C471.619 138.176 473.515 137.184 476.235 137.184Z" fill="#AEE7F4"/>
<path d="M439.021 162.927V179.727H437.293V164.463H433.333V162.927H439.021ZM457.317 175.311H453.957V179.727H452.229V175.311H442.749V174.063L451.653 162.927H453.573L444.981 173.775H452.277V169.887H453.957V173.775H457.317V175.311ZM460.669 179.847C460.317 179.847 460.013 179.719 459.757 179.463C459.517 179.207 459.397 178.895 459.397 178.527C459.397 178.159 459.517 177.855 459.757 177.615C460.013 177.359 460.317 177.231 460.669 177.231C461.021 177.231 461.325 177.359 461.581 177.615C461.837 177.855 461.965 178.159 461.965 178.527C461.965 178.895 461.837 179.207 461.581 179.463C461.325 179.719 461.021 179.847 460.669 179.847ZM468.875 169.815C471.307 169.815 473.075 170.255 474.179 171.135C475.299 171.999 475.859 173.215 475.859 174.783C475.859 175.759 475.627 176.631 475.163 177.399C474.715 178.167 474.035 178.775 473.123 179.223C472.211 179.655 471.091 179.871 469.763 179.871C468.563 179.871 467.419 179.679 466.331 179.295C465.259 178.895 464.395 178.367 463.739 177.711L464.579 176.343C465.139 176.919 465.875 177.391 466.787 177.759C467.699 178.111 468.683 178.287 469.739 178.287C471.131 178.287 472.203 177.975 472.955 177.351C473.723 176.727 474.107 175.895 474.107 174.855C474.107 173.703 473.675 172.831 472.811 172.239C471.963 171.647 470.523 171.351 468.491 171.351H464.915L465.779 162.927H474.971V164.463H467.291L466.715 169.815H468.875Z" fill="#AEE7F4"/>
<path d="M457.6 111.112V127.29" stroke="#AEE7F4" stroke-width="2.2698" stroke-miterlimit="10"/>
<path d="M832.898 503.18C834.818 503.18 836.314 503.732 837.386 504.836C838.458 505.94 838.994 507.54 838.994 509.636V520.124H837.242V509.684C837.242 508.052 836.826 506.828 835.994 506.012C835.178 505.18 834.058 504.764 832.634 504.764C831.13 504.764 829.954 505.204 829.106 506.084C828.258 506.948 827.834 508.276 827.834 510.068V520.124H826.082V509.684C826.082 508.052 825.682 506.828 824.882 506.012C824.082 505.18 822.97 504.764 821.546 504.764C820.026 504.764 818.834 505.204 817.97 506.084C817.122 506.948 816.698 508.276 816.698 510.068V520.124H814.922V503.324H816.626V506.132C817.09 505.172 817.778 504.444 818.69 503.948C819.602 503.436 820.682 503.18 821.93 503.18C823.242 503.18 824.362 503.46 825.29 504.02C826.234 504.564 826.914 505.332 827.33 506.324C827.81 505.3 828.53 504.524 829.49 503.996C830.466 503.452 831.602 503.18 832.898 503.18ZM851.2 503.18C853.376 503.18 855.088 503.82 856.336 505.1C857.6 506.364 858.232 508.196 858.232 510.596V520.124H856.48V515.18H845.92V520.124H844.192V510.596C844.192 508.196 844.816 506.364 846.064 505.1C847.328 503.82 849.04 503.18 851.2 503.18ZM856.48 513.644V510.428C856.48 508.556 856.016 507.148 855.088 506.204C854.16 505.244 852.864 504.764 851.2 504.764C849.536 504.764 848.24 505.244 847.312 506.204C846.384 507.148 845.92 508.556 845.92 510.428V513.644H856.48ZM873.856 520.124L868.432 512.732L863.032 520.124H860.992L867.376 511.484L861.4 503.324H863.44L868.504 510.188L873.544 503.324H875.464L869.512 511.436L875.92 520.124H873.856Z" fill="#FFDEEB"/>
<path d="M836.038 535.666C837.142 535.666 838.118 535.874 838.966 536.29C839.83 536.706 840.502 537.298 840.982 538.066C841.462 538.818 841.702 539.698 841.702 540.706C841.702 541.73 841.454 542.634 840.958 543.418C840.462 544.202 839.774 544.81 838.894 545.242C838.03 545.658 837.054 545.866 835.966 545.866C833.742 545.866 832.038 545.138 830.854 543.682C829.67 542.21 829.078 540.138 829.078 537.466C829.078 535.594 829.398 534.01 830.038 532.714C830.678 531.418 831.574 530.442 832.726 529.786C833.878 529.114 835.222 528.778 836.758 528.778C838.422 528.778 839.75 529.082 840.742 529.69L840.046 531.082C839.246 530.554 838.158 530.29 836.782 530.29C834.926 530.29 833.47 530.882 832.414 532.066C831.358 533.234 830.83 534.938 830.83 537.178C830.83 537.578 830.854 538.034 830.902 538.546C831.318 537.634 831.982 536.93 832.894 536.434C833.806 535.922 834.854 535.666 836.038 535.666ZM835.894 544.402C837.11 544.402 838.094 544.074 838.846 543.418C839.614 542.746 839.998 541.858 839.998 540.754C839.998 539.65 839.614 538.77 838.846 538.114C838.094 537.458 837.07 537.13 835.774 537.13C834.926 537.13 834.174 537.29 833.518 537.61C832.878 537.93 832.374 538.37 832.006 538.93C831.638 539.49 831.454 540.114 831.454 540.802C831.454 541.442 831.622 542.034 831.958 542.578C832.31 543.122 832.822 543.562 833.494 543.898C834.166 544.234 834.966 544.402 835.894 544.402ZM848.935 528.778C851.159 528.778 852.863 529.514 854.047 530.986C855.231 532.442 855.823 534.506 855.823 537.178C855.823 539.05 855.503 540.634 854.863 541.93C854.223 543.226 853.327 544.21 852.175 544.882C851.023 545.538 849.679 545.866 848.143 545.866C846.479 545.866 845.151 545.562 844.159 544.954L844.855 543.562C845.655 544.09 846.743 544.354 848.119 544.354C849.975 544.354 851.431 543.77 852.487 542.602C853.543 541.418 854.071 539.706 854.071 537.466C854.071 537.05 854.047 536.594 853.999 536.098C853.583 537.01 852.919 537.722 852.007 538.234C851.095 538.73 850.047 538.978 848.863 538.978C847.759 538.978 846.775 538.77 845.911 538.354C845.063 537.938 844.399 537.354 843.919 536.602C843.439 535.834 843.199 534.946 843.199 533.938C843.199 532.914 843.447 532.01 843.943 531.226C844.439 530.442 845.119 529.842 845.983 529.426C846.863 528.994 847.847 528.778 848.935 528.778ZM849.127 537.514C849.975 537.514 850.719 537.354 851.359 537.034C852.015 536.714 852.527 536.274 852.895 535.714C853.263 535.154 853.447 534.53 853.447 533.842C853.447 533.202 853.271 532.61 852.919 532.066C852.583 531.522 852.079 531.082 851.407 530.746C850.735 530.41 849.935 530.242 849.007 530.242C847.791 530.242 846.799 530.578 846.031 531.25C845.279 531.906 844.903 532.786 844.903 533.89C844.903 534.994 845.279 535.874 846.031 536.53C846.799 537.186 847.831 537.514 849.127 537.514Z" fill="#FFDEEB"/>
<path d="M802.666 512.62H786.489" stroke="#FFDEEB" stroke-width="2.2698" stroke-miterlimit="10"/>
<path d="M710.478 346.201L704.398 337.983L689.963 348.663L696.043 356.881L710.478 346.201Z" fill="#FFDEEB"/>
<path d="M521.975 754.261L531.067 753.178L528.217 729.258L519.126 730.341L521.975 754.261Z" fill="#FFDEEB"/>
<path d="M605.605 721.682L613.736 717.474L605.81 702.159L597.679 706.367L605.605 721.682Z" fill="#FFDEEB"/>
<path d="M684.661 678.169L690.901 671.47L671.324 653.234L665.084 659.933L684.661 678.169Z" fill="#FFDEEB"/>
<path d="M731.689 600.567L735.061 592.055L716.55 584.721L713.178 593.233L731.689 600.567Z" fill="#FFDEEB"/>
<path d="M779.074 516.708L779.598 507.567L733.893 504.945L733.369 514.086L779.074 516.708Z" fill="#FFDEEB"/>
<path d="M757.539 422.799L754.519 413.78L724.51 423.827L727.53 432.846L757.539 422.799Z" fill="#FFDEEB"/>
<path d="M568.048 241.683L558.293 239.288L553.714 257.935L563.469 260.33L568.048 241.683Z" fill="#FFDEEB"/>
<path d="M650.454 277.346L643.274 272.573L629.84 292.783L637.02 297.556L650.454 277.346Z" fill="#FFDEEB"/>
<path d="M435.436 748.769L447.414 750.966L452.192 724.911L440.214 722.714L435.436 748.769Z" fill="#AEE7F4"/>
<path d="M346.361 718.03L356.579 724.655L375.438 695.566L365.22 688.941L346.361 718.03Z" fill="#AEE7F4"/>
<path d="M270.848 661.644L277.801 670.65L312.627 643.761L305.674 634.756L270.848 661.644Z" fill="#AEE7F4"/>
<path d="M229.192 573.607L232.508 584.119L272.776 571.414L269.459 560.902L229.192 573.607Z" fill="#AEE7F4"/>
<path d="M229.759 478.838L229.345 489.764L258.036 490.851L258.45 479.925L229.759 478.838Z" fill="#AEE7F4"/>
<path d="M242.184 384.18L237.759 395.526L274.53 409.865L278.955 398.519L242.184 384.18Z" fill="#AEE7F4"/>
<path d="M281.151 290.935L274.091 298.692L315.772 336.625L322.832 328.868L281.151 290.935Z" fill="#AEE7F4"/>
<path d="M375.12 259.02L366.422 264.042L378.022 284.133L386.72 279.111L375.12 259.02Z" fill="#AEE7F4"/>
<path d="M461.082 238.673L451.181 240.366L453.653 254.823L463.553 253.13L461.082 238.673Z" fill="#AEE7F4"/>
</svg>
