<svg width="960" height="960" viewBox="0 0 960 960" fill="none" xmlns="http://www.w3.org/2000/svg">
<path d="M729.156 433.511L726.4 425.244L746.667 418.489L749.422 426.756L729.156 433.511ZM497.867 746.311C496.711 746.311 495.556 746.311 494.4 746.311L494.578 736C495.733 736 496.8 736 497.956 736V746.311H497.867ZM507.378 746.133L507.022 735.822C508.178 735.822 509.244 735.733 510.4 735.644L510.933 745.956C509.689 746.044 508.533 746.044 507.378 746.133ZM480.356 745.689C479.2 745.6 478.044 745.511 476.889 745.422L477.778 735.2C478.933 735.289 480 735.378 481.156 735.467L480.356 745.689ZM463.022 743.911C461.867 743.733 460.711 743.555 459.556 743.378L461.156 733.244C462.222 733.422 463.378 733.6 464.444 733.689L463.022 743.911ZM542.133 742.4L540.356 732.267C541.422 732.089 542.578 731.911 543.644 731.644L545.6 741.778C544.445 741.956 543.289 742.222 542.133 742.4ZM559.289 738.755L556.8 728.8C557.867 728.533 558.933 728.267 560.089 728L562.756 737.956C561.6 738.133 560.444 738.489 559.289 738.755ZM428.711 736.711C427.556 736.355 426.489 736.089 425.333 735.733L428.267 725.867C429.333 726.222 430.4 726.489 431.467 726.844L428.711 736.711ZM576.178 733.867L572.978 724.089C574.044 723.733 575.111 723.378 576.178 723.022L579.467 732.8C578.311 733.156 577.244 733.511 576.178 733.867ZM412 731.289C410.933 730.933 409.778 730.489 408.711 730.044L412.356 720.444C413.422 720.8 414.489 721.244 415.556 721.6L412 731.289ZM592.533 727.911L588.711 718.4C589.778 717.956 590.756 717.6 591.822 717.155L595.822 726.667C594.667 727.022 593.6 727.467 592.533 727.911ZM395.733 724.711C394.667 724.267 393.6 723.733 392.533 723.289L396.8 713.956C397.778 714.4 398.844 714.844 399.822 715.378L395.733 724.711ZM380 717.067C378.933 716.533 377.956 716 376.889 715.378L381.867 706.311C382.844 706.844 383.822 707.378 384.8 707.911L380 717.067ZM623.911 712.622L618.756 703.733C619.733 703.2 620.711 702.578 621.689 702.044L626.933 710.933C625.956 711.378 624.978 712 623.911 712.622ZM638.756 703.289L632.978 694.755C633.867 694.133 634.844 693.511 635.733 692.889L641.6 701.333C640.711 702.044 639.733 702.667 638.756 703.289ZM350.222 698.578C349.244 697.867 348.356 697.244 347.378 696.533L353.511 688.267C354.4 688.978 355.289 689.6 356.267 690.222L350.222 698.578ZM652.978 693.067L646.667 684.978C647.556 684.267 648.444 683.555 649.333 682.933L655.733 690.933C654.756 691.644 653.867 692.356 652.978 693.067ZM336.356 687.822C335.467 687.111 334.578 686.311 333.689 685.6L340.356 677.778C341.244 678.489 342.044 679.2 342.933 679.911L336.356 687.822ZM666.4 681.867L659.556 674.222C660.356 673.511 661.245 672.711 662.045 672L668.978 679.556C668.089 680.267 667.289 681.067 666.4 681.867ZM323.289 676.178C322.4 675.378 321.6 674.578 320.8 673.778L328 666.4C328.8 667.2 329.6 668 330.4 668.711L323.289 676.178ZM311.022 663.644C310.222 662.755 309.422 661.956 308.711 661.067L316.444 654.222C317.156 655.022 317.956 655.911 318.667 656.711L311.022 663.644ZM690.844 656.8L683.022 650.133C683.733 649.244 684.445 648.444 685.156 647.556L693.067 654.133C692.356 655.022 691.556 655.911 690.844 656.8ZM701.689 643.022L693.422 636.889C694.044 636 694.756 635.111 695.378 634.133L703.733 640.089C703.022 641.155 702.4 642.133 701.689 643.022ZM289.333 636.267C288.711 635.289 288 634.311 287.378 633.333L295.911 627.644C296.533 628.533 297.156 629.511 297.778 630.4L289.333 636.267ZM711.556 628.622L702.844 623.111C703.467 622.133 704 621.244 704.622 620.267L713.422 625.689C712.8 626.578 712.178 627.556 711.556 628.622ZM279.911 621.511C279.289 620.533 278.756 619.467 278.133 618.489L287.111 613.333C287.644 614.311 288.267 615.289 288.8 616.267L279.911 621.511ZM720.444 613.422L711.378 608.533C711.911 607.555 712.444 606.578 712.978 605.511L722.133 610.311C721.6 611.378 721.067 612.444 720.444 613.422ZM271.556 606.222C271.022 605.156 270.489 604.178 270.044 603.111L279.289 598.578C279.733 599.556 280.267 600.622 280.8 601.6L271.556 606.222ZM264.267 590.311C263.822 589.244 263.378 588.178 262.933 587.111L272.533 583.289C272.978 584.356 273.333 585.333 273.778 586.4L264.267 590.311ZM735.022 581.511L725.333 577.956C725.689 576.889 726.133 575.822 726.489 574.755L736.178 578.222C735.822 579.378 735.378 580.444 735.022 581.511ZM740.533 564.889L730.667 561.956C731.022 560.889 731.289 559.822 731.556 558.755L741.511 561.511C741.244 562.667 740.889 563.822 740.533 564.889ZM253.067 557.155C252.8 556 252.444 554.933 252.178 553.778L262.133 551.289C262.4 552.356 262.667 553.511 262.933 554.578L253.067 557.155ZM744.978 547.911L734.933 545.689C735.2 544.622 735.378 543.467 735.644 542.4L745.689 544.444C745.422 545.689 745.156 546.844 744.978 547.911ZM249.244 540.089C249.067 538.933 248.8 537.778 248.622 536.622L258.756 534.844C258.933 535.911 259.111 537.067 259.378 538.133L249.244 540.089ZM748.089 530.755L737.867 529.244C738.044 528.178 738.222 527.022 738.311 525.956L748.533 527.289C748.444 528.444 748.267 529.6 748.089 530.755ZM246.578 522.755C246.4 521.6 246.311 520.444 246.222 519.289L256.444 518.222C256.533 519.378 256.711 520.444 256.8 521.6L246.578 522.755ZM245.156 505.244C245.067 504.089 245.067 502.933 244.978 501.778L255.289 501.422C255.289 502.578 255.378 503.644 255.467 504.8L245.156 505.244ZM750.844 495.822L740.533 495.733V492.356L750.844 492.267V495.822ZM740.178 478.933C740.089 477.778 740 476.711 740 475.556L750.311 474.844C750.4 476 750.489 477.155 750.578 478.311L740.178 478.933ZM256.178 471.2L245.956 470.222C246.044 469.067 246.133 467.911 246.311 466.755L256.533 467.822C256.444 468.978 256.267 470.133 256.178 471.2ZM738.578 462.222C738.4 461.067 738.311 460 738.133 458.933L748.356 457.511C748.533 458.667 748.711 459.822 748.8 460.978L738.578 462.222ZM258.311 454.578L248.178 452.978C248.356 451.822 248.533 450.667 248.8 449.511L258.933 451.289C258.667 452.356 258.489 453.422 258.311 454.578ZM735.911 445.6C735.733 444.533 735.467 443.378 735.2 442.311L745.244 440.178C745.511 441.333 745.689 442.489 745.956 443.644L735.911 445.6ZM261.511 438.044L251.467 435.733C251.733 434.578 252 433.422 252.267 432.355L262.222 434.844C262.044 435.911 261.778 436.978 261.511 438.044ZM265.956 421.867L256.089 418.844C256.444 417.689 256.8 416.622 257.156 415.467L266.933 418.667C266.578 419.733 266.311 420.8 265.956 421.867ZM727.022 413.244C726.667 412.178 726.311 411.111 725.867 410.044L735.556 406.489C736 407.555 736.356 408.711 736.711 409.778L727.022 413.244ZM720.889 397.6C720.444 396.533 720 395.555 719.556 394.489L728.978 390.311C729.422 391.378 729.956 392.444 730.4 393.511L720.889 397.6ZM278.044 390.489L268.711 386.133C269.244 385.067 269.689 384 270.222 382.933L279.467 387.467C279.022 388.444 278.578 389.511 278.044 390.489ZM713.778 382.489C713.244 381.511 712.711 380.533 712.178 379.556L721.244 374.667C721.778 375.733 722.311 376.711 722.844 377.778L713.778 382.489ZM285.778 375.556L276.8 370.578C277.333 369.511 277.956 368.533 278.489 367.556L287.378 372.711C286.844 373.6 286.311 374.578 285.778 375.556ZM705.6 367.822C704.978 366.844 704.445 365.956 703.822 364.978L712.533 359.556C713.156 360.533 713.778 361.511 714.4 362.578L705.6 367.822ZM294.489 361.155L285.867 355.556C286.489 354.578 287.111 353.6 287.822 352.622L296.356 358.4C295.644 359.289 295.022 360.178 294.489 361.155ZM304.089 347.378L295.911 341.155C296.622 340.267 297.333 339.289 298.044 338.4L306.222 344.711C305.511 345.6 304.8 346.489 304.089 347.378ZM686.222 340.444C685.511 339.556 684.8 338.756 684.089 337.867L692 331.289C692.711 332.178 693.511 333.067 694.222 333.956L686.222 340.444ZM675.2 327.733C674.4 326.933 673.689 326.133 672.889 325.333L680.356 318.222C681.156 319.022 681.956 319.911 682.756 320.8L675.2 327.733ZM326.133 322.044L318.844 314.756C319.644 313.956 320.533 313.067 321.333 312.267L328.533 319.644C327.733 320.444 326.933 321.244 326.133 322.044ZM663.289 315.911C662.489 315.111 661.6 314.4 660.8 313.6L667.733 305.956C668.622 306.756 669.422 307.555 670.311 308.355L663.289 315.911ZM338.4 310.489L331.644 302.756C332.533 301.956 333.422 301.244 334.311 300.444L340.978 308.267C340.089 309.067 339.289 309.778 338.4 310.489ZM650.667 304.889C649.778 304.178 648.889 303.467 648.089 302.756L654.489 294.667C655.378 295.378 656.356 296.089 657.244 296.889L650.667 304.889ZM351.467 299.911L345.244 291.733C346.133 291.022 347.111 290.311 348.089 289.6L354.222 297.867C353.244 298.578 352.356 299.289 351.467 299.911ZM365.156 290.222L359.467 281.6C360.444 280.978 361.422 280.356 362.4 279.733L367.911 288.444C367.022 288.978 366.044 289.6 365.156 290.222ZM623.111 285.511C622.133 284.889 621.156 284.355 620.178 283.822L625.422 274.933C626.4 275.555 627.467 276.089 628.444 276.711L623.111 285.511ZM608.444 277.333C607.467 276.8 606.489 276.355 605.422 275.822L609.956 266.578C611.022 267.111 612.089 267.644 613.067 268.178L608.444 277.333ZM394.4 273.778L389.956 264.444C391.022 263.911 392.089 263.467 393.156 262.933L397.422 272.267C396.356 272.889 395.378 273.333 394.4 273.778ZM593.244 270.133C592.178 269.689 591.2 269.244 590.133 268.8L594.045 259.289C595.111 259.733 596.178 260.178 597.333 260.622L593.244 270.133ZM409.778 267.2L406.044 257.6C407.111 257.155 408.178 256.8 409.333 256.355L412.978 265.956C411.822 266.4 410.844 266.756 409.778 267.2ZM577.6 264.089C576.533 263.733 575.467 263.378 574.4 263.022L577.689 253.244C578.844 253.6 579.911 253.956 580.978 254.4L577.6 264.089ZM425.6 261.6L422.489 251.733C423.644 251.378 424.711 251.022 425.867 250.667L428.8 260.533C427.733 260.978 426.667 261.244 425.6 261.6ZM441.778 257.155L439.378 247.111C440.533 246.844 441.689 246.578 442.756 246.311L444.978 256.355C444 256.622 442.933 256.889 441.778 257.155ZM545.156 255.2C544.089 255.022 542.933 254.755 541.867 254.578L543.733 244.444C544.889 244.622 546.044 244.889 547.2 245.067L545.156 255.2ZM528.533 252.533C527.467 252.356 526.311 252.267 525.244 252.178L526.4 241.956C527.556 242.044 528.711 242.222 529.867 242.4L528.533 252.533ZM474.933 251.733L473.956 241.511C475.111 241.422 476.267 241.333 477.422 241.244L478.222 251.467C477.156 251.467 476 251.556 474.933 251.733ZM511.822 251.022C510.667 250.933 509.6 250.933 508.444 250.844L508.889 240.533C510.044 240.622 511.2 240.622 512.356 240.711L511.822 251.022ZM491.733 250.667L491.467 240.355C492.622 240.355 493.778 240.267 494.933 240.267L495.022 250.578C493.956 250.667 492.8 250.667 491.733 250.667Z" fill="#D8CEE2"/>
<path d="M497.689 870.132C289.511 870.132 120.8 701.421 120.8 493.243C120.8 285.066 289.511 116.354 497.689 116.354" stroke="#AEE7F4" stroke-width="2.2812" stroke-miterlimit="10"/>
<path d="M498.045 115.377V147.733" stroke="#AEE7F4" stroke-width="1.3381" stroke-miterlimit="10"/>
<path d="M497.956 838.666V871.11" stroke="#AEE7F4" stroke-width="1.3381" stroke-miterlimit="10"/>
<path d="M497.689 193.244C664.089 193.244 798.933 328.089 798.933 494.489C798.933 660.889 664.089 795.733 497.689 795.733" stroke="#FFDEEB" stroke-width="2.2812" stroke-miterlimit="10"/>
<path d="M497.955 192.178V224.622" stroke="#FFDEEB" stroke-width="1.3381" stroke-miterlimit="10"/>
<path d="M497.955 764.355V796.8" stroke="#FFDEEB" stroke-width="1.3381" stroke-miterlimit="10"/>
<path d="M773.814 694.448C775.734 694.448 777.23 695 778.302 696.104C779.374 697.208 779.91 698.808 779.91 700.904V711.392H778.158V700.952C778.158 699.32 777.742 698.096 776.91 697.28C776.094 696.448 774.974 696.032 773.55 696.032C772.046 696.032 770.87 696.472 770.022 697.352C769.174 698.216 768.75 699.544 768.75 701.336V711.392H766.998V700.952C766.998 699.32 766.598 698.096 765.798 697.28C764.998 696.448 763.886 696.032 762.462 696.032C760.942 696.032 759.75 696.472 758.886 697.352C758.038 698.216 757.614 699.544 757.614 701.336V711.392H755.838V694.592H757.542V697.4C758.006 696.44 758.694 695.712 759.606 695.216C760.518 694.704 761.598 694.448 762.846 694.448C764.158 694.448 765.278 694.728 766.206 695.288C767.15 695.832 767.83 696.6 768.246 697.592C768.726 696.568 769.446 695.792 770.406 695.264C771.382 694.72 772.518 694.448 773.814 694.448ZM788.732 696.128V709.856H792.14V711.392H783.572V709.856H786.98V696.128H783.572V694.592H792.14V696.128H788.732ZM803.331 694.448C805.347 694.448 806.923 695.048 808.059 696.248C809.211 697.448 809.787 699.16 809.787 701.384V711.392H808.011V701.432C808.011 699.656 807.571 698.312 806.691 697.4C805.811 696.488 804.579 696.032 802.995 696.032C801.331 696.032 800.035 696.52 799.107 697.496C798.179 698.456 797.715 699.904 797.715 701.84V711.392H795.939V694.592H797.643V697.424C798.715 695.44 800.611 694.448 803.331 694.448Z" fill="#FFDEEB"/>
<path d="M775.21 727.079C777.642 727.079 779.41 727.519 780.514 728.399C781.634 729.263 782.194 730.479 782.194 732.047C782.194 733.023 781.962 733.895 781.498 734.663C781.05 735.431 780.37 736.039 779.458 736.487C778.546 736.919 777.426 737.135 776.098 737.135C774.898 737.135 773.754 736.943 772.666 736.559C771.594 736.159 770.73 735.631 770.074 734.975L770.914 733.607C771.474 734.183 772.21 734.655 773.122 735.023C774.034 735.375 775.018 735.551 776.074 735.551C777.466 735.551 778.538 735.239 779.29 734.615C780.058 733.991 780.442 733.159 780.442 732.119C780.442 730.967 780.01 730.095 779.146 729.503C778.298 728.911 776.858 728.615 774.826 728.615H771.25L772.114 720.191H781.306V721.727H773.626L773.05 727.079H775.21ZM789.044 720.191V736.991H787.316V721.727H783.356V720.191H789.044Z" fill="#FFDEEB"/>
<path d="M712.978 696.089H729.156" stroke="#FFDEEB" stroke-width="2.2812" stroke-miterlimit="10"/>
<path d="M262.955 97.7832L259.115 92.3832C258.683 92.4312 258.235 92.4552 257.771 92.4552H253.259V97.7832H251.483V80.9832H257.771C259.915 80.9832 261.595 81.4952 262.811 82.5192C264.027 83.5432 264.635 84.9512 264.635 86.7432C264.635 88.0552 264.299 89.1672 263.627 90.0792C262.971 90.9752 262.027 91.6232 260.795 92.0232L264.899 97.7832H262.955ZM257.723 90.9432C259.387 90.9432 260.659 90.5752 261.539 89.8392C262.419 89.1032 262.859 88.0712 262.859 86.7432C262.859 85.3832 262.419 84.3432 261.539 83.6232C260.659 82.8872 259.387 82.5192 257.723 82.5192H253.259V90.9432H257.723ZM273.866 96.3912C274.65 96.3912 275.37 96.2552 276.026 95.9832C276.698 95.6952 277.266 95.2792 277.73 94.7352L278.69 95.8392C278.13 96.5112 277.434 97.0232 276.602 97.3752C275.77 97.7272 274.85 97.9032 273.842 97.9032C272.546 97.9032 271.394 97.6312 270.386 97.0872C269.378 96.5272 268.594 95.7592 268.034 94.7832C267.474 93.8072 267.194 92.7032 267.194 91.4712C267.194 90.2392 267.458 89.1352 267.986 88.1592C268.53 87.1832 269.274 86.4232 270.218 85.8792C271.162 85.3352 272.234 85.0632 273.434 85.0632C274.554 85.0632 275.562 85.3192 276.458 85.8312C277.37 86.3432 278.09 87.0552 278.618 87.9672C279.162 88.8792 279.45 89.9192 279.482 91.0872L269.114 93.1032C269.434 94.1272 270.01 94.9352 270.842 95.5272C271.69 96.1032 272.698 96.3912 273.866 96.3912ZM273.434 86.5272C272.554 86.5272 271.762 86.7352 271.058 87.1512C270.37 87.5512 269.826 88.1192 269.426 88.8552C269.042 89.5752 268.85 90.4072 268.85 91.3512C268.85 91.5912 268.858 91.7672 268.874 91.8792L277.778 90.1512C277.586 89.0952 277.098 88.2312 276.314 87.5592C275.53 86.8712 274.57 86.5272 273.434 86.5272ZM286.335 97.9032C285.311 97.9032 284.327 97.7592 283.383 97.4712C282.455 97.1672 281.727 96.7912 281.199 96.3432L281.967 94.9992C282.495 95.4152 283.159 95.7592 283.959 96.0312C284.759 96.2872 285.591 96.4152 286.455 96.4152C287.607 96.4152 288.455 96.2392 288.999 95.8872C289.559 95.5192 289.839 95.0072 289.839 94.3512C289.839 93.8872 289.687 93.5272 289.383 93.2712C289.079 92.9992 288.695 92.7992 288.231 92.6712C287.767 92.5272 287.151 92.3912 286.383 92.2632C285.359 92.0712 284.535 91.8792 283.911 91.6872C283.287 91.4792 282.751 91.1352 282.303 90.6552C281.871 90.1752 281.655 89.5112 281.655 88.6632C281.655 87.6072 282.095 86.7432 282.975 86.0712C283.855 85.3992 285.079 85.0632 286.647 85.0632C287.463 85.0632 288.279 85.1752 289.095 85.3992C289.911 85.6072 290.583 85.8872 291.111 86.2392L290.367 87.6072C289.327 86.8872 288.087 86.5272 286.647 86.5272C285.559 86.5272 284.735 86.7192 284.175 87.1032C283.631 87.4872 283.359 87.9912 283.359 88.6152C283.359 89.0952 283.511 89.4792 283.815 89.7672C284.135 90.0552 284.527 90.2712 284.991 90.4152C285.455 90.5432 286.095 90.6792 286.911 90.8232C287.919 91.0152 288.727 91.2072 289.335 91.3992C289.943 91.5912 290.463 91.9192 290.895 92.3832C291.327 92.8472 291.543 93.4872 291.543 94.3032C291.543 95.4072 291.079 96.2872 290.151 96.9432C289.239 97.5832 287.967 97.9032 286.335 97.9032ZM301.197 85.0632C302.381 85.0632 303.453 85.3352 304.413 85.8792C305.373 86.4072 306.125 87.1592 306.669 88.1352C307.213 89.1112 307.485 90.2232 307.485 91.4712C307.485 92.7352 307.213 93.8552 306.669 94.8312C306.125 95.8072 305.373 96.5672 304.413 97.1112C303.469 97.6392 302.397 97.9032 301.197 97.9032C300.173 97.9032 299.245 97.6952 298.413 97.2792C297.597 96.8472 296.925 96.2232 296.397 95.4072V102.439H294.693V85.1592H296.325V87.6552C296.837 86.8232 297.509 86.1832 298.341 85.7352C299.189 85.2872 300.141 85.0632 301.197 85.0632ZM301.077 96.3912C301.957 96.3912 302.757 96.1912 303.477 95.7912C304.197 95.3752 304.757 94.7912 305.157 94.0392C305.573 93.2872 305.781 92.4312 305.781 91.4712C305.781 90.5112 305.573 89.6632 305.157 88.9272C304.757 88.1752 304.197 87.5912 303.477 87.1752C302.757 86.7592 301.957 86.5512 301.077 86.5512C300.181 86.5512 299.373 86.7592 298.653 87.1752C297.949 87.5912 297.389 88.1752 296.973 88.9272C296.573 89.6632 296.373 90.5112 296.373 91.4712C296.373 92.4312 296.573 93.2872 296.973 94.0392C297.389 94.7912 297.949 95.3752 298.653 95.7912C299.373 96.1912 300.181 96.3912 301.077 96.3912ZM310.959 85.1592H312.663V97.7832H310.959V85.1592ZM311.823 82.3992C311.471 82.3992 311.175 82.2792 310.935 82.0392C310.695 81.7992 310.575 81.5112 310.575 81.1752C310.575 80.8552 310.695 80.5752 310.935 80.3352C311.175 80.0952 311.471 79.9752 311.823 79.9752C312.175 79.9752 312.471 80.0952 312.711 80.3352C312.951 80.5592 313.071 80.8312 313.071 81.1512C313.071 81.5032 312.951 81.7992 312.711 82.0392C312.471 82.2792 312.175 82.3992 311.823 82.3992ZM319.036 87.6312C319.436 86.7832 320.028 86.1432 320.812 85.7112C321.612 85.2792 322.596 85.0632 323.764 85.0632V86.7192L323.356 86.6952C322.028 86.6952 320.988 87.1032 320.236 87.9192C319.484 88.7352 319.108 89.8792 319.108 91.3512V97.7832H317.404V85.1592H319.036V87.6312ZM338.252 85.1592V97.7832H336.62V95.2872C336.108 96.1352 335.428 96.7832 334.58 97.2312C333.748 97.6792 332.804 97.9032 331.748 97.9032C330.564 97.9032 329.492 97.6312 328.532 97.0872C327.572 96.5432 326.82 95.7832 326.276 94.8072C325.732 93.8312 325.46 92.7192 325.46 91.4712C325.46 90.2232 325.732 89.1112 326.276 88.1352C326.82 87.1592 327.572 86.4072 328.532 85.8792C329.492 85.3352 330.564 85.0632 331.748 85.0632C332.772 85.0632 333.692 85.2792 334.508 85.7112C335.34 86.1272 336.02 86.7432 336.548 87.5592V85.1592H338.252ZM331.892 96.3912C332.772 96.3912 333.564 96.1912 334.268 95.7912C334.988 95.3752 335.548 94.7912 335.948 94.0392C336.364 93.2872 336.572 92.4312 336.572 91.4712C336.572 90.5112 336.364 89.6552 335.948 88.9032C335.548 88.1512 334.988 87.5752 334.268 87.1752C333.564 86.7592 332.772 86.5512 331.892 86.5512C330.996 86.5512 330.188 86.7592 329.468 87.1752C328.764 87.5752 328.204 88.1512 327.788 88.9032C327.388 89.6552 327.188 90.5112 327.188 91.4712C327.188 92.4312 327.388 93.2872 327.788 94.0392C328.204 94.7912 328.764 95.3752 329.468 95.7912C330.188 96.1912 330.996 96.3912 331.892 96.3912ZM349.214 97.0152C348.894 97.3032 348.502 97.5272 348.038 97.6872C347.574 97.8312 347.086 97.9032 346.574 97.9032C345.39 97.9032 344.478 97.5832 343.838 96.9432C343.198 96.3032 342.878 95.3992 342.878 94.2312V82.3992H344.582V85.1592H348.398V86.5992H344.582V94.1352C344.582 94.8872 344.766 95.4632 345.134 95.8632C345.502 96.2472 346.038 96.4392 346.742 96.4392C347.51 96.4392 348.134 96.2232 348.614 95.7912L349.214 97.0152ZM357.017 97.9032C355.801 97.9032 354.705 97.6312 353.729 97.0872C352.753 96.5272 351.985 95.7592 351.425 94.7832C350.865 93.8072 350.585 92.7032 350.585 91.4712C350.585 90.2392 350.865 89.1352 351.425 88.1592C351.985 87.1832 352.753 86.4232 353.729 85.8792C354.705 85.3352 355.801 85.0632 357.017 85.0632C358.233 85.0632 359.329 85.3352 360.305 85.8792C361.281 86.4232 362.041 87.1832 362.585 88.1592C363.145 89.1352 363.425 90.2392 363.425 91.4712C363.425 92.7032 363.145 93.8072 362.585 94.7832C362.041 95.7592 361.281 96.5272 360.305 97.0872C359.329 97.6312 358.233 97.9032 357.017 97.9032ZM357.017 96.3912C357.913 96.3912 358.713 96.1912 359.417 95.7912C360.137 95.3752 360.697 94.7912 361.097 94.0392C361.497 93.2872 361.697 92.4312 361.697 91.4712C361.697 90.5112 361.497 89.6552 361.097 88.9032C360.697 88.1512 360.137 87.5752 359.417 87.1752C358.713 86.7592 357.913 86.5512 357.017 86.5512C356.121 86.5512 355.313 86.7592 354.593 87.1752C353.889 87.5752 353.329 88.1512 352.913 88.9032C352.513 89.6552 352.313 90.5112 352.313 91.4712C352.313 92.4312 352.513 93.2872 352.913 94.0392C353.329 94.7912 353.889 95.3752 354.593 95.7912C355.313 96.1912 356.121 96.3912 357.017 96.3912ZM368.536 87.6312C368.936 86.7832 369.528 86.1432 370.312 85.7112C371.112 85.2792 372.096 85.0632 373.264 85.0632V86.7192L372.856 86.6952C371.528 86.6952 370.488 87.1032 369.736 87.9192C368.984 88.7352 368.608 89.8792 368.608 91.3512V97.7832H366.904V85.1592H368.536V87.6312ZM387.913 85.1592V96.2472C387.913 98.3912 387.425 99.9752 386.449 100.999C385.473 102.039 384.001 102.559 382.033 102.559C380.929 102.559 379.881 102.383 378.889 102.031C377.913 101.695 377.121 101.223 376.513 100.615L377.377 99.3192C377.921 99.8632 378.593 100.287 379.393 100.591C380.193 100.895 381.049 101.047 381.961 101.047C383.417 101.047 384.489 100.671 385.177 99.9192C385.865 99.1832 386.209 98.0312 386.209 96.4632V94.9992C385.761 95.7352 385.145 96.3032 384.361 96.7032C383.593 97.1032 382.721 97.3032 381.745 97.3032C380.097 97.3032 378.793 96.8472 377.833 95.9352C376.889 95.0072 376.417 93.6552 376.417 91.8792V85.1592H378.121V91.7112C378.121 93.0392 378.449 94.0472 379.105 94.7352C379.761 95.4232 380.697 95.7672 381.913 95.7672C383.241 95.7672 384.289 95.3672 385.057 94.5672C385.825 93.7512 386.209 92.6232 386.209 91.1832V85.1592H387.913ZM410.798 97.7832L406.958 92.3832C406.526 92.4312 406.078 92.4552 405.614 92.4552H401.102V97.7832H399.326V80.9832H405.614C407.758 80.9832 409.438 81.4952 410.654 82.5192C411.87 83.5432 412.478 84.9512 412.478 86.7432C412.478 88.0552 412.142 89.1672 411.47 90.0792C410.814 90.9752 409.87 91.6232 408.638 92.0232L412.742 97.7832H410.798ZM405.566 90.9432C407.23 90.9432 408.502 90.5752 409.382 89.8392C410.262 89.1032 410.702 88.0712 410.702 86.7432C410.702 85.3832 410.262 84.3432 409.382 83.6232C408.502 82.8872 407.23 82.5192 405.566 82.5192H401.102V90.9432H405.566ZM427.83 85.1592V97.7832H426.198V95.2872C425.686 96.1352 425.006 96.7832 424.158 97.2312C423.326 97.6792 422.382 97.9032 421.326 97.9032C420.142 97.9032 419.07 97.6312 418.11 97.0872C417.15 96.5432 416.398 95.7832 415.854 94.8072C415.31 93.8312 415.038 92.7192 415.038 91.4712C415.038 90.2232 415.31 89.1112 415.854 88.1352C416.398 87.1592 417.15 86.4072 418.11 85.8792C419.07 85.3352 420.142 85.0632 421.326 85.0632C422.35 85.0632 423.27 85.2792 424.086 85.7112C424.918 86.1272 425.598 86.7432 426.126 87.5592V85.1592H427.83ZM421.47 96.3912C422.35 96.3912 423.142 96.1912 423.846 95.7912C424.566 95.3752 425.126 94.7912 425.526 94.0392C425.942 93.2872 426.15 92.4312 426.15 91.4712C426.15 90.5112 425.942 89.6552 425.526 88.9032C425.126 88.1512 424.566 87.5752 423.846 87.1752C423.142 86.7592 422.35 86.5512 421.47 86.5512C420.574 86.5512 419.766 86.7592 419.046 87.1752C418.342 87.5752 417.782 88.1512 417.366 88.9032C416.966 89.6552 416.766 90.5112 416.766 91.4712C416.766 92.4312 416.966 93.2872 417.366 94.0392C417.782 94.7912 418.342 95.3752 419.046 95.7912C419.766 96.1912 420.574 96.3912 421.47 96.3912ZM438.792 97.0152C438.472 97.3032 438.08 97.5272 437.616 97.6872C437.152 97.8312 436.664 97.9032 436.152 97.9032C434.968 97.9032 434.056 97.5832 433.416 96.9432C432.776 96.3032 432.456 95.3992 432.456 94.2312V82.3992H434.16V85.1592H437.976V86.5992H434.16V94.1352C434.16 94.8872 434.344 95.4632 434.712 95.8632C435.08 96.2472 435.616 96.4392 436.32 96.4392C437.088 96.4392 437.712 96.2232 438.192 95.7912L438.792 97.0152ZM446.835 96.3912C447.619 96.3912 448.339 96.2552 448.995 95.9832C449.667 95.6952 450.235 95.2792 450.699 94.7352L451.659 95.8392C451.099 96.5112 450.403 97.0232 449.571 97.3752C448.739 97.7272 447.819 97.9032 446.811 97.9032C445.515 97.9032 444.363 97.6312 443.355 97.0872C442.347 96.5272 441.563 95.7592 441.003 94.7832C440.443 93.8072 440.163 92.7032 440.163 91.4712C440.163 90.2392 440.427 89.1352 440.955 88.1592C441.499 87.1832 442.243 86.4232 443.187 85.8792C444.131 85.3352 445.203 85.0632 446.403 85.0632C447.523 85.0632 448.531 85.3192 449.427 85.8312C450.339 86.3432 451.059 87.0552 451.587 87.9672C452.131 88.8792 452.419 89.9192 452.451 91.0872L442.083 93.1032C442.403 94.1272 442.979 94.9352 443.811 95.5272C444.659 96.1032 445.667 96.3912 446.835 96.3912ZM446.403 86.5272C445.523 86.5272 444.731 86.7352 444.027 87.1512C443.339 87.5512 442.795 88.1192 442.395 88.8552C442.011 89.5752 441.819 90.4072 441.819 91.3512C441.819 91.5912 441.827 91.7672 441.843 91.8792L450.747 90.1512C450.555 89.0952 450.067 88.2312 449.283 87.5592C448.499 86.8712 447.539 86.5272 446.403 86.5272ZM456.087 87.6792C455.735 87.6792 455.431 87.5512 455.175 87.2952C454.935 87.0392 454.815 86.7272 454.815 86.3592C454.815 85.9912 454.935 85.6872 455.175 85.4472C455.431 85.1912 455.735 85.0632 456.087 85.0632C456.439 85.0632 456.743 85.1912 456.999 85.4472C457.255 85.6872 457.383 85.9912 457.383 86.3592C457.383 86.7272 457.255 87.0392 456.999 87.2952C456.743 87.5512 456.439 87.6792 456.087 87.6792ZM456.087 97.9032C455.735 97.9032 455.431 97.7752 455.175 97.5192C454.935 97.2632 454.815 96.9512 454.815 96.5832C454.815 96.2152 454.935 95.9112 455.175 95.6712C455.431 95.4152 455.735 95.2872 456.087 95.2872C456.439 95.2872 456.743 95.4152 456.999 95.6712C457.255 95.9112 457.383 96.2152 457.383 96.5832C457.383 96.9512 457.255 97.2632 456.999 97.5192C456.743 97.7752 456.439 97.9032 456.087 97.9032ZM472.279 97.9272C471.031 97.9272 469.831 97.7272 468.679 97.3272C467.543 96.9272 466.663 96.3992 466.039 95.7432L466.735 94.3752C467.343 94.9832 468.151 95.4792 469.159 95.8632C470.167 96.2312 471.207 96.4152 472.279 96.4152C473.783 96.4152 474.911 96.1432 475.663 95.5992C476.415 95.0392 476.791 94.3192 476.791 93.4392C476.791 92.7672 476.583 92.2312 476.167 91.8312C475.767 91.4312 475.271 91.1272 474.679 90.9192C474.087 90.6952 473.263 90.4552 472.207 90.1992C470.943 89.8792 469.935 89.5752 469.183 89.2872C468.431 88.9832 467.783 88.5272 467.239 87.9192C466.711 87.3112 466.447 86.4872 466.447 85.4472C466.447 84.5992 466.671 83.8312 467.119 83.1432C467.567 82.4392 468.255 81.8792 469.183 81.4632C470.111 81.0472 471.263 80.8392 472.639 80.8392C473.599 80.8392 474.535 80.9752 475.447 81.2472C476.375 81.5032 477.175 81.8632 477.847 82.3272L477.247 83.7432C476.543 83.2792 475.791 82.9352 474.991 82.7112C474.191 82.4712 473.407 82.3512 472.639 82.3512C471.167 82.3512 470.055 82.6392 469.303 83.2152C468.567 83.7752 468.199 84.5032 468.199 85.3992C468.199 86.0712 468.399 86.6152 468.799 87.0312C469.215 87.4312 469.727 87.7432 470.335 87.9672C470.959 88.1752 471.791 88.4072 472.831 88.6632C474.063 88.9672 475.055 89.2712 475.807 89.5752C476.575 89.8632 477.223 90.3112 477.751 90.9192C478.279 91.5112 478.543 92.3192 478.543 93.3432C478.543 94.1912 478.311 94.9672 477.847 95.6712C477.399 96.3592 476.703 96.9112 475.759 97.3272C474.815 97.7272 473.655 97.9272 472.279 97.9272ZM485.604 97.9032C484.468 97.9032 483.588 97.5832 482.964 96.9432C482.356 96.3032 482.052 95.4152 482.052 94.2792V79.9752H483.756V94.1352C483.756 94.8872 483.932 95.4632 484.284 95.8632C484.636 96.2472 485.164 96.4392 485.868 96.4392C486.316 96.4392 486.7 96.3672 487.02 96.2232L487.14 97.6392C486.644 97.8152 486.132 97.9032 485.604 97.9032ZM494.624 96.3912C495.408 96.3912 496.128 96.2552 496.784 95.9832C497.456 95.6952 498.024 95.2792 498.488 94.7352L499.448 95.8392C498.888 96.5112 498.192 97.0232 497.36 97.3752C496.528 97.7272 495.608 97.9032 494.6 97.9032C493.304 97.9032 492.152 97.6312 491.144 97.0872C490.136 96.5272 489.352 95.7592 488.792 94.7832C488.232 93.8072 487.952 92.7032 487.952 91.4712C487.952 90.2392 488.216 89.1352 488.744 88.1592C489.288 87.1832 490.032 86.4232 490.976 85.8792C491.92 85.3352 492.992 85.0632 494.192 85.0632C495.312 85.0632 496.32 85.3192 497.216 85.8312C498.128 86.3432 498.848 87.0552 499.376 87.9672C499.92 88.8792 500.208 89.9192 500.24 91.0872L489.872 93.1032C490.192 94.1272 490.768 94.9352 491.6 95.5272C492.448 96.1032 493.456 96.3912 494.624 96.3912ZM494.192 86.5272C493.312 86.5272 492.52 86.7352 491.816 87.1512C491.128 87.5512 490.584 88.1192 490.184 88.8552C489.8 89.5752 489.608 90.4072 489.608 91.3512C489.608 91.5912 489.616 91.7672 489.632 91.8792L498.536 90.1512C498.344 89.0952 497.856 88.2312 497.072 87.5592C496.288 86.8712 495.328 86.5272 494.192 86.5272ZM509.109 96.3912C509.893 96.3912 510.613 96.2552 511.269 95.9832C511.941 95.6952 512.509 95.2792 512.973 94.7352L513.933 95.8392C513.373 96.5112 512.677 97.0232 511.845 97.3752C511.013 97.7272 510.093 97.9032 509.085 97.9032C507.789 97.9032 506.637 97.6312 505.629 97.0872C504.621 96.5272 503.837 95.7592 503.277 94.7832C502.717 93.8072 502.437 92.7032 502.437 91.4712C502.437 90.2392 502.701 89.1352 503.229 88.1592C503.773 87.1832 504.517 86.4232 505.461 85.8792C506.405 85.3352 507.477 85.0632 508.677 85.0632C509.797 85.0632 510.805 85.3192 511.701 85.8312C512.613 86.3432 513.333 87.0552 513.861 87.9672C514.405 88.8792 514.693 89.9192 514.725 91.0872L504.357 93.1032C504.677 94.1272 505.253 94.9352 506.085 95.5272C506.933 96.1032 507.941 96.3912 509.109 96.3912ZM508.677 86.5272C507.797 86.5272 507.005 86.7352 506.301 87.1512C505.613 87.5512 505.069 88.1192 504.669 88.8552C504.285 89.5752 504.093 90.4072 504.093 91.3512C504.093 91.5912 504.101 91.7672 504.117 91.8792L513.021 90.1512C512.829 89.0952 512.341 88.2312 511.557 87.5592C510.773 86.8712 509.813 86.5272 508.677 86.5272ZM524.697 85.0632C525.881 85.0632 526.953 85.3352 527.913 85.8792C528.873 86.4072 529.625 87.1592 530.169 88.1352C530.713 89.1112 530.985 90.2232 530.985 91.4712C530.985 92.7352 530.713 93.8552 530.169 94.8312C529.625 95.8072 528.873 96.5672 527.913 97.1112C526.969 97.6392 525.897 97.9032 524.697 97.9032C523.673 97.9032 522.745 97.6952 521.913 97.2792C521.097 96.8472 520.425 96.2232 519.897 95.4072V102.439H518.193V85.1592H519.825V87.6552C520.337 86.8232 521.009 86.1832 521.841 85.7352C522.689 85.2872 523.641 85.0632 524.697 85.0632ZM524.577 96.3912C525.457 96.3912 526.257 96.1912 526.977 95.7912C527.697 95.3752 528.257 94.7912 528.657 94.0392C529.073 93.2872 529.281 92.4312 529.281 91.4712C529.281 90.5112 529.073 89.6632 528.657 88.9272C528.257 88.1752 527.697 87.5912 526.977 87.1752C526.257 86.7592 525.457 86.5512 524.577 86.5512C523.681 86.5512 522.873 86.7592 522.153 87.1752C521.449 87.5912 520.889 88.1752 520.473 88.9272C520.073 89.6632 519.873 90.5112 519.873 91.4712C519.873 92.4312 520.073 93.2872 520.473 94.0392C520.889 94.7912 521.449 95.3752 522.153 95.7912C522.873 96.1912 523.681 96.3912 524.577 96.3912Z" fill="#AEE7F4"/>
<path d="M512.372 164.727V181.527H510.62V173.775H500.108V181.527H498.332V164.727H500.108V172.215H510.62V164.727H512.372ZM522.896 180.135C523.68 180.135 524.4 179.999 525.056 179.727C525.728 179.439 526.296 179.023 526.76 178.479L527.72 179.583C527.16 180.255 526.464 180.767 525.632 181.119C524.8 181.471 523.88 181.647 522.872 181.647C521.576 181.647 520.424 181.375 519.416 180.831C518.408 180.271 517.624 179.503 517.064 178.527C516.504 177.551 516.224 176.447 516.224 175.215C516.224 173.983 516.488 172.879 517.016 171.903C517.56 170.927 518.304 170.167 519.248 169.623C520.192 169.079 521.264 168.807 522.464 168.807C523.584 168.807 524.592 169.063 525.488 169.575C526.4 170.087 527.12 170.799 527.648 171.711C528.192 172.623 528.48 173.663 528.512 174.831L518.144 176.847C518.464 177.871 519.04 178.679 519.872 179.271C520.72 179.847 521.728 180.135 522.896 180.135ZM522.464 170.271C521.584 170.271 520.792 170.479 520.088 170.895C519.4 171.295 518.856 171.863 518.456 172.599C518.072 173.319 517.88 174.151 517.88 175.095C517.88 175.335 517.888 175.511 517.904 175.623L526.808 173.895C526.616 172.839 526.128 171.975 525.344 171.303C524.56 170.615 523.6 170.271 522.464 170.271ZM543.5 168.903V181.527H541.868V179.031C541.356 179.879 540.676 180.527 539.828 180.975C538.996 181.423 538.052 181.647 536.996 181.647C535.812 181.647 534.74 181.375 533.78 180.831C532.82 180.287 532.068 179.527 531.524 178.551C530.98 177.575 530.708 176.463 530.708 175.215C530.708 173.967 530.98 172.855 531.524 171.879C532.068 170.903 532.82 170.151 533.78 169.623C534.74 169.079 535.812 168.807 536.996 168.807C538.02 168.807 538.94 169.023 539.756 169.455C540.588 169.871 541.268 170.487 541.796 171.303V168.903H543.5ZM537.14 180.135C538.02 180.135 538.812 179.935 539.516 179.535C540.236 179.119 540.796 178.535 541.196 177.783C541.612 177.031 541.82 176.175 541.82 175.215C541.82 174.255 541.612 173.399 541.196 172.647C540.796 171.895 540.236 171.319 539.516 170.919C538.812 170.503 538.02 170.295 537.14 170.295C536.244 170.295 535.436 170.503 534.716 170.919C534.012 171.319 533.452 171.895 533.036 172.647C532.636 173.399 532.436 174.255 532.436 175.215C532.436 176.175 532.636 177.031 533.036 177.783C533.452 178.535 534.012 179.119 534.716 179.535C535.436 179.935 536.244 180.135 537.14 180.135ZM549.878 171.375C550.278 170.527 550.87 169.887 551.654 169.455C552.454 169.023 553.438 168.807 554.606 168.807V170.463L554.198 170.439C552.87 170.439 551.83 170.847 551.078 171.663C550.326 172.479 549.95 173.623 549.95 175.095V181.527H548.246V168.903H549.878V171.375ZM563.907 180.759C563.587 181.047 563.195 181.271 562.731 181.431C562.267 181.575 561.779 181.647 561.267 181.647C560.083 181.647 559.171 181.327 558.531 180.687C557.891 180.047 557.571 179.143 557.571 177.975V166.143H559.275V168.903H563.091V170.343H559.275V177.879C559.275 178.631 559.459 179.207 559.827 179.607C560.195 179.991 560.731 180.183 561.435 180.183C562.203 180.183 562.827 179.967 563.307 179.535L563.907 180.759ZM585.109 181.527L581.269 176.127C580.837 176.175 580.389 176.199 579.925 176.199H575.413V181.527H573.637V164.727H579.925C582.069 164.727 583.749 165.239 584.965 166.263C586.181 167.287 586.789 168.695 586.789 170.487C586.789 171.799 586.453 172.911 585.781 173.823C585.125 174.719 584.181 175.367 582.949 175.767L587.053 181.527H585.109ZM579.877 174.687C581.541 174.687 582.813 174.319 583.693 173.583C584.573 172.847 585.013 171.815 585.013 170.487C585.013 169.127 584.573 168.087 583.693 167.367C582.813 166.631 581.541 166.263 579.877 166.263H575.413V174.687H579.877ZM602.141 168.903V181.527H600.509V179.031C599.997 179.879 599.317 180.527 598.469 180.975C597.637 181.423 596.693 181.647 595.637 181.647C594.453 181.647 593.381 181.375 592.421 180.831C591.461 180.287 590.709 179.527 590.165 178.551C589.621 177.575 589.349 176.463 589.349 175.215C589.349 173.967 589.621 172.855 590.165 171.879C590.709 170.903 591.461 170.151 592.421 169.623C593.381 169.079 594.453 168.807 595.637 168.807C596.661 168.807 597.581 169.023 598.397 169.455C599.229 169.871 599.909 170.487 600.437 171.303V168.903H602.141ZM595.781 180.135C596.661 180.135 597.453 179.935 598.157 179.535C598.877 179.119 599.437 178.535 599.837 177.783C600.253 177.031 600.461 176.175 600.461 175.215C600.461 174.255 600.253 173.399 599.837 172.647C599.437 171.895 598.877 171.319 598.157 170.919C597.453 170.503 596.661 170.295 595.781 170.295C594.885 170.295 594.077 170.503 593.357 170.919C592.653 171.319 592.093 171.895 591.677 172.647C591.277 173.399 591.077 174.255 591.077 175.215C591.077 176.175 591.277 177.031 591.677 177.783C592.093 178.535 592.653 179.119 593.357 179.535C594.077 179.935 594.885 180.135 595.781 180.135ZM613.102 180.759C612.782 181.047 612.39 181.271 611.926 181.431C611.462 181.575 610.974 181.647 610.462 181.647C609.278 181.647 608.366 181.327 607.726 180.687C607.086 180.047 606.766 179.143 606.766 177.975V166.143H608.47V168.903H612.286V170.343H608.47V177.879C608.47 178.631 608.654 179.207 609.022 179.607C609.39 179.991 609.926 180.183 610.63 180.183C611.398 180.183 612.022 179.967 612.502 179.535L613.102 180.759ZM621.146 180.135C621.93 180.135 622.65 179.999 623.306 179.727C623.978 179.439 624.546 179.023 625.01 178.479L625.97 179.583C625.41 180.255 624.714 180.767 623.882 181.119C623.05 181.471 622.13 181.647 621.122 181.647C619.826 181.647 618.674 181.375 617.666 180.831C616.658 180.271 615.874 179.503 615.314 178.527C614.754 177.551 614.474 176.447 614.474 175.215C614.474 173.983 614.738 172.879 615.266 171.903C615.81 170.927 616.554 170.167 617.498 169.623C618.442 169.079 619.514 168.807 620.714 168.807C621.834 168.807 622.842 169.063 623.738 169.575C624.65 170.087 625.37 170.799 625.898 171.711C626.442 172.623 626.73 173.663 626.762 174.831L616.394 176.847C616.714 177.871 617.29 178.679 618.122 179.271C618.97 179.847 619.978 180.135 621.146 180.135ZM620.714 170.271C619.834 170.271 619.042 170.479 618.338 170.895C617.65 171.295 617.106 171.863 616.706 172.599C616.322 173.319 616.13 174.151 616.13 175.095C616.13 175.335 616.138 175.511 616.154 175.623L625.058 173.895C624.866 172.839 624.378 171.975 623.594 171.303C622.81 170.615 621.85 170.271 620.714 170.271ZM630.398 171.423C630.046 171.423 629.742 171.295 629.486 171.039C629.246 170.783 629.126 170.471 629.126 170.103C629.126 169.735 629.246 169.431 629.486 169.191C629.742 168.935 630.046 168.807 630.398 168.807C630.75 168.807 631.054 168.935 631.31 169.191C631.566 169.431 631.694 169.735 631.694 170.103C631.694 170.471 631.566 170.783 631.31 171.039C631.054 171.295 630.75 171.423 630.398 171.423ZM630.398 181.647C630.046 181.647 629.742 181.519 629.486 181.263C629.246 181.007 629.126 180.695 629.126 180.327C629.126 179.959 629.246 179.655 629.486 179.415C629.742 179.159 630.046 179.031 630.398 179.031C630.75 179.031 631.054 179.159 631.31 179.415C631.566 179.655 631.694 179.959 631.694 180.327C631.694 180.695 631.566 181.007 631.31 181.263C631.054 181.519 630.75 181.647 630.398 181.647ZM646.589 181.671C645.341 181.671 644.141 181.471 642.989 181.071C641.853 180.671 640.973 180.143 640.349 179.487L641.045 178.119C641.653 178.727 642.461 179.223 643.469 179.607C644.477 179.975 645.517 180.159 646.589 180.159C648.093 180.159 649.221 179.887 649.973 179.343C650.725 178.783 651.101 178.063 651.101 177.183C651.101 176.511 650.893 175.975 650.477 175.575C650.077 175.175 649.581 174.871 648.989 174.663C648.397 174.439 647.573 174.199 646.517 173.943C645.253 173.623 644.245 173.319 643.493 173.031C642.741 172.727 642.093 172.271 641.549 171.663C641.021 171.055 640.757 170.231 640.757 169.191C640.757 168.343 640.981 167.575 641.429 166.887C641.877 166.183 642.565 165.623 643.493 165.207C644.421 164.791 645.573 164.583 646.949 164.583C647.909 164.583 648.845 164.719 649.757 164.991C650.685 165.247 651.485 165.607 652.157 166.071L651.557 167.487C650.853 167.023 650.101 166.679 649.301 166.455C648.501 166.215 647.717 166.095 646.949 166.095C645.477 166.095 644.365 166.383 643.613 166.959C642.877 167.519 642.509 168.247 642.509 169.143C642.509 169.815 642.709 170.359 643.109 170.775C643.525 171.175 644.037 171.487 644.645 171.711C645.269 171.919 646.101 172.151 647.141 172.407C648.373 172.711 649.365 173.015 650.117 173.319C650.885 173.607 651.533 174.055 652.061 174.663C652.589 175.255 652.853 176.063 652.853 177.087C652.853 177.935 652.621 178.711 652.157 179.415C651.709 180.103 651.013 180.655 650.069 181.071C649.125 181.471 647.965 181.671 646.589 181.671ZM659.915 181.647C658.779 181.647 657.899 181.327 657.275 180.687C656.667 180.047 656.363 179.159 656.363 178.023V163.719H658.067V177.879C658.067 178.631 658.243 179.207 658.595 179.607C658.947 179.991 659.475 180.183 660.179 180.183C660.627 180.183 661.011 180.111 661.331 179.967L661.451 181.383C660.955 181.559 660.443 181.647 659.915 181.647ZM668.935 180.135C669.719 180.135 670.439 179.999 671.095 179.727C671.767 179.439 672.335 179.023 672.799 178.479L673.759 179.583C673.199 180.255 672.503 180.767 671.671 181.119C670.839 181.471 669.919 181.647 668.911 181.647C667.615 181.647 666.463 181.375 665.455 180.831C664.447 180.271 663.663 179.503 663.103 178.527C662.543 177.551 662.263 176.447 662.263 175.215C662.263 173.983 662.527 172.879 663.055 171.903C663.599 170.927 664.343 170.167 665.287 169.623C666.231 169.079 667.303 168.807 668.503 168.807C669.623 168.807 670.631 169.063 671.527 169.575C672.439 170.087 673.159 170.799 673.687 171.711C674.231 172.623 674.519 173.663 674.551 174.831L664.183 176.847C664.503 177.871 665.079 178.679 665.911 179.271C666.759 179.847 667.767 180.135 668.935 180.135ZM668.503 170.271C667.623 170.271 666.831 170.479 666.127 170.895C665.439 171.295 664.895 171.863 664.495 172.599C664.111 173.319 663.919 174.151 663.919 175.095C663.919 175.335 663.927 175.511 663.943 175.623L672.847 173.895C672.655 172.839 672.167 171.975 671.383 171.303C670.599 170.615 669.639 170.271 668.503 170.271ZM683.419 180.135C684.203 180.135 684.923 179.999 685.579 179.727C686.251 179.439 686.819 179.023 687.283 178.479L688.243 179.583C687.683 180.255 686.987 180.767 686.155 181.119C685.323 181.471 684.403 181.647 683.395 181.647C682.099 181.647 680.947 181.375 679.939 180.831C678.931 180.271 678.147 179.503 677.587 178.527C677.027 177.551 676.747 176.447 676.747 175.215C676.747 173.983 677.011 172.879 677.539 171.903C678.083 170.927 678.827 170.167 679.771 169.623C680.715 169.079 681.787 168.807 682.987 168.807C684.107 168.807 685.115 169.063 686.011 169.575C686.923 170.087 687.643 170.799 688.171 171.711C688.715 172.623 689.003 173.663 689.035 174.831L678.667 176.847C678.987 177.871 679.563 178.679 680.395 179.271C681.243 179.847 682.251 180.135 683.419 180.135ZM682.987 170.271C682.107 170.271 681.315 170.479 680.611 170.895C679.923 171.295 679.379 171.863 678.979 172.599C678.595 173.319 678.403 174.151 678.403 175.095C678.403 175.335 678.411 175.511 678.427 175.623L687.331 173.895C687.139 172.839 686.651 171.975 685.867 171.303C685.083 170.615 684.123 170.271 682.987 170.271ZM699.008 168.807C700.192 168.807 701.264 169.079 702.224 169.623C703.184 170.151 703.936 170.903 704.48 171.879C705.024 172.855 705.296 173.967 705.296 175.215C705.296 176.479 705.024 177.599 704.48 178.575C703.936 179.551 703.184 180.311 702.224 180.855C701.28 181.383 700.208 181.647 699.008 181.647C697.984 181.647 697.056 181.439 696.224 181.023C695.408 180.591 694.736 179.967 694.208 179.151V186.183H692.504V168.903H694.136V171.399C694.648 170.567 695.32 169.927 696.152 169.479C697 169.031 697.952 168.807 699.008 168.807ZM698.888 180.135C699.768 180.135 700.568 179.935 701.288 179.535C702.008 179.119 702.568 178.535 702.968 177.783C703.384 177.031 703.592 176.175 703.592 175.215C703.592 174.255 703.384 173.407 702.968 172.671C702.568 171.919 702.008 171.335 701.288 170.919C700.568 170.503 699.768 170.295 698.888 170.295C697.992 170.295 697.184 170.503 696.464 170.919C695.76 171.335 695.2 171.919 694.784 172.671C694.384 173.407 694.184 174.255 694.184 175.215C694.184 176.175 694.384 177.031 694.784 177.783C695.2 178.535 695.76 179.119 696.464 179.535C697.184 179.935 697.992 180.135 698.888 180.135Z" fill="#FFDEEB"/>
<path d="M62.6378 466.522C64.5578 466.522 66.0538 467.074 67.1258 468.178C68.1978 469.282 68.7338 470.882 68.7338 472.978V483.466H66.9818V473.026C66.9818 471.394 66.5658 470.17 65.7338 469.354C64.9178 468.522 63.7978 468.106 62.3738 468.106C60.8698 468.106 59.6938 468.546 58.8458 469.426C57.9978 470.29 57.5738 471.618 57.5738 473.41V483.466H55.8218V473.026C55.8218 471.394 55.4218 470.17 54.6218 469.354C53.8218 468.522 52.7098 468.106 51.2858 468.106C49.7658 468.106 48.5738 468.546 47.7098 469.426C46.8618 470.29 46.4378 471.618 46.4378 473.41V483.466H44.6618V466.666H46.3658V469.474C46.8298 468.514 47.5178 467.786 48.4298 467.29C49.3418 466.778 50.4218 466.522 51.6698 466.522C52.9818 466.522 54.1018 466.802 55.0298 467.362C55.9738 467.906 56.6538 468.674 57.0698 469.666C57.5498 468.642 58.2698 467.866 59.2298 467.338C60.2058 466.794 61.3418 466.522 62.6378 466.522ZM77.5558 468.202V481.93H80.9638V483.466H72.3958V481.93H75.8038V468.202H72.3958V466.666H80.9638V468.202H77.5558ZM92.1553 466.522C94.1713 466.522 95.7473 467.122 96.8833 468.322C98.0353 469.522 98.6113 471.234 98.6113 473.458V483.466H96.8353V473.506C96.8353 471.73 96.3953 470.386 95.5153 469.474C94.6353 468.562 93.4033 468.106 91.8193 468.106C90.1553 468.106 88.8593 468.594 87.9313 469.57C87.0033 470.53 86.5393 471.978 86.5393 473.914V483.466H84.7633V466.666H86.4673V469.498C87.5393 467.514 89.4353 466.522 92.1553 466.522Z" fill="#AEE7F4"/>
<path d="M53.9631 492.265V509.065H52.2351V493.801H48.2751V492.265H53.9631ZM72.259 504.649H68.899V509.065H67.171V504.649H57.691V503.401L66.595 492.265H68.515L59.923 503.113H67.219V499.225H68.899V503.113H72.259V504.649ZM75.6109 509.185C75.2589 509.185 74.9549 509.057 74.6989 508.801C74.4589 508.545 74.3389 508.233 74.3389 507.865C74.3389 507.497 74.4589 507.193 74.6989 506.953C74.9549 506.697 75.2589 506.569 75.6109 506.569C75.9629 506.569 76.2669 506.697 76.5229 506.953C76.7789 507.193 76.9069 507.497 76.9069 507.865C76.9069 508.233 76.7789 508.545 76.5229 508.801C76.2669 509.057 75.9629 509.185 75.6109 509.185ZM85.839 509.209C84.543 509.209 83.383 508.865 82.359 508.177C81.351 507.489 80.559 506.505 79.983 505.225C79.423 503.929 79.143 502.409 79.143 500.665C79.143 498.921 79.423 497.409 79.983 496.129C80.559 494.833 81.351 493.841 82.359 493.153C83.383 492.465 84.543 492.121 85.839 492.121C87.135 492.121 88.287 492.465 89.295 493.153C90.319 493.841 91.119 494.833 91.695 496.129C92.271 497.409 92.559 498.921 92.559 500.665C92.559 502.409 92.271 503.929 91.695 505.225C91.119 506.505 90.319 507.489 89.295 508.177C88.287 508.865 87.135 509.209 85.839 509.209ZM85.839 507.625C86.815 507.625 87.671 507.353 88.407 506.809C89.159 506.265 89.743 505.473 90.159 504.433C90.575 503.393 90.783 502.137 90.783 500.665C90.783 499.193 90.575 497.937 90.159 496.897C89.743 495.857 89.159 495.065 88.407 494.521C87.671 493.977 86.815 493.705 85.839 493.705C84.863 493.705 83.999 493.977 83.247 494.521C82.511 495.065 81.935 495.857 81.519 496.897C81.103 497.937 80.895 499.193 80.895 500.665C80.895 502.137 81.103 503.393 81.519 504.433C81.935 505.473 82.511 506.265 83.247 506.809C83.999 507.353 84.863 507.625 85.839 507.625Z" fill="#AEE7F4"/>
<path d="M112.089 487.199H128.356" stroke="#AEE7F4" stroke-width="2.2812" stroke-miterlimit="10"/>
<path d="M279.065 837.167C280.985 837.167 282.481 837.719 283.553 838.823C284.625 839.927 285.161 841.527 285.161 843.623V854.111H283.409V843.671C283.409 842.039 282.993 840.815 282.161 839.999C281.345 839.167 280.225 838.751 278.801 838.751C277.297 838.751 276.121 839.191 275.273 840.071C274.425 840.935 274.001 842.263 274.001 844.055V854.111H272.249V843.671C272.249 842.039 271.849 840.815 271.049 839.999C270.249 839.167 269.137 838.751 267.713 838.751C266.193 838.751 265.001 839.191 264.137 840.071C263.289 840.935 262.865 842.263 262.865 844.055V854.111H261.089V837.311H262.793V840.119C263.257 839.159 263.945 838.431 264.857 837.935C265.769 837.423 266.849 837.167 268.097 837.167C269.409 837.167 270.529 837.447 271.457 838.007C272.401 838.551 273.081 839.319 273.497 840.311C273.977 839.287 274.697 838.511 275.657 837.983C276.633 837.439 277.769 837.167 279.065 837.167ZM297.367 837.167C299.543 837.167 301.255 837.807 302.503 839.087C303.767 840.351 304.399 842.183 304.399 844.583V854.111H302.647V849.167H292.087V854.111H290.359V844.583C290.359 842.183 290.983 840.351 292.231 839.087C293.495 837.807 295.207 837.167 297.367 837.167ZM302.647 847.631V844.415C302.647 842.543 302.183 841.135 301.255 840.191C300.327 839.231 299.031 838.751 297.367 838.751C295.703 838.751 294.407 839.231 293.479 840.191C292.551 841.135 292.087 842.543 292.087 844.415V847.631H302.647ZM320.023 854.111L314.599 846.719L309.199 854.111H307.159L313.543 845.471L307.567 837.311H309.607L314.671 844.175L319.711 837.311H321.631L315.679 845.423L322.087 854.111H320.023Z" fill="#AEE7F4"/>
<path d="M274.213 862.911V879.711H272.485V864.447H268.525V862.911H274.213ZM283.46 862.767C285.684 862.767 287.388 863.503 288.572 864.975C289.756 866.431 290.348 868.495 290.348 871.167C290.348 873.039 290.028 874.623 289.388 875.919C288.748 877.215 287.852 878.199 286.7 878.871C285.548 879.527 284.204 879.855 282.668 879.855C281.004 879.855 279.676 879.551 278.684 878.943L279.38 877.551C280.18 878.079 281.268 878.343 282.644 878.343C284.5 878.343 285.956 877.759 287.012 876.591C288.068 875.407 288.596 873.695 288.596 871.455C288.596 871.039 288.572 870.583 288.524 870.087C288.108 870.999 287.444 871.711 286.532 872.223C285.62 872.719 284.572 872.967 283.388 872.967C282.284 872.967 281.3 872.759 280.436 872.343C279.588 871.927 278.924 871.343 278.444 870.591C277.964 869.823 277.724 868.935 277.724 867.927C277.724 866.903 277.972 865.999 278.468 865.215C278.964 864.431 279.644 863.831 280.508 863.415C281.388 862.983 282.372 862.767 283.46 862.767ZM283.652 871.503C284.5 871.503 285.244 871.343 285.884 871.023C286.54 870.703 287.052 870.263 287.42 869.703C287.788 869.143 287.972 868.519 287.972 867.831C287.972 867.191 287.796 866.599 287.444 866.055C287.108 865.511 286.604 865.071 285.932 864.735C285.26 864.399 284.46 864.231 283.532 864.231C282.316 864.231 281.324 864.567 280.556 865.239C279.804 865.895 279.428 866.775 279.428 867.879C279.428 868.983 279.804 869.863 280.556 870.519C281.324 871.175 282.356 871.503 283.652 871.503ZM293.892 879.831C293.54 879.831 293.236 879.703 292.98 879.447C292.74 879.191 292.62 878.879 292.62 878.511C292.62 878.143 292.74 877.839 292.98 877.599C293.236 877.343 293.54 877.215 293.892 877.215C294.244 877.215 294.548 877.343 294.804 877.599C295.06 877.839 295.188 878.143 295.188 878.511C295.188 878.879 295.06 879.191 294.804 879.447C294.548 879.703 294.244 879.831 293.892 879.831ZM302.098 869.799C304.53 869.799 306.298 870.239 307.402 871.119C308.522 871.983 309.082 873.199 309.082 874.767C309.082 875.743 308.85 876.615 308.386 877.383C307.938 878.151 307.258 878.759 306.346 879.207C305.434 879.639 304.314 879.855 302.986 879.855C301.786 879.855 300.642 879.663 299.554 879.279C298.482 878.879 297.618 878.351 296.962 877.695L297.802 876.327C298.362 876.903 299.098 877.375 300.01 877.743C300.922 878.095 301.906 878.271 302.962 878.271C304.354 878.271 305.426 877.959 306.178 877.335C306.946 876.711 307.33 875.879 307.33 874.839C307.33 873.687 306.898 872.815 306.034 872.223C305.186 871.631 303.746 871.335 301.714 871.335H298.138L299.002 862.911H308.194V864.447H300.514L299.938 869.799H302.098Z" fill="#AEE7F4"/>
<path d="M299.378 821.512V805.334" stroke="#AEE7F4" stroke-width="2.2812" stroke-miterlimit="10"/>
<path d="M839.052 412.194C840.972 412.194 842.468 412.746 843.54 413.85C844.612 414.954 845.148 416.554 845.148 418.65V429.138H843.396V418.698C843.396 417.066 842.98 415.842 842.148 415.026C841.332 414.194 840.212 413.778 838.788 413.778C837.284 413.778 836.108 414.218 835.26 415.098C834.412 415.962 833.988 417.29 833.988 419.082V429.138H832.236V418.698C832.236 417.066 831.836 415.842 831.036 415.026C830.236 414.194 829.124 413.778 827.7 413.778C826.18 413.778 824.988 414.218 824.124 415.098C823.276 415.962 822.852 417.29 822.852 419.082V429.138H821.076V412.338H822.78V415.146C823.244 414.186 823.932 413.458 824.844 412.962C825.756 412.45 826.836 412.194 828.084 412.194C829.396 412.194 830.516 412.474 831.444 413.034C832.388 413.578 833.068 414.346 833.484 415.338C833.964 414.314 834.684 413.538 835.644 413.01C836.62 412.466 837.756 412.194 839.052 412.194ZM857.354 412.194C859.53 412.194 861.242 412.834 862.49 414.114C863.754 415.378 864.386 417.21 864.386 419.61V429.138H862.634V424.194H852.074V429.138H850.346V419.61C850.346 417.21 850.97 415.378 852.218 414.114C853.482 412.834 855.194 412.194 857.354 412.194ZM862.634 422.658V419.442C862.634 417.57 862.17 416.162 861.242 415.218C860.314 414.258 859.018 413.778 857.354 413.778C855.69 413.778 854.394 414.258 853.466 415.218C852.538 416.162 852.074 417.57 852.074 419.442V422.658H862.634ZM880.011 429.138L874.587 421.746L869.187 429.138H867.147L873.531 420.498L867.555 412.338H869.595L874.659 419.202L879.699 412.338H881.619L875.667 420.45L882.075 429.138H880.011Z" fill="#FFDEEB"/>
<path d="M849.933 437.937V439.161L842.901 454.737H841.029L847.941 439.473H839.301V442.617H837.597V437.937H849.933ZM857.1 437.937V454.737H855.372V439.473H851.412V437.937H857.1Z" fill="#FFDEEB"/>
<path d="M796.089 416.267H779.822" stroke="#FFDEEB" stroke-width="2.2812" stroke-miterlimit="10"/>
<path d="M721.216 340.522L715.347 332.59L692.052 349.826L697.921 357.758L721.216 340.522Z" fill="#FFDEEB"/>
<path d="M523.506 760.582L532.686 759.488L529.447 732.302L520.267 733.396L523.506 760.582Z" fill="#FFDEEB"/>
<path d="M609.06 728.347L617.27 724.099L607.424 705.074L599.214 709.322L609.06 728.347Z" fill="#FFDEEB"/>
<path d="M680.931 675.717L687.232 668.953L673.249 655.927L666.948 662.691L680.931 675.717Z" fill="#FFDEEB"/>
<path d="M745.319 607.595L748.724 599L718.725 587.116L715.321 595.711L745.319 607.595Z" fill="#FFDEEB"/>
<path d="M763.437 517.746L763.967 508.517L736.189 506.923L735.659 516.153L763.437 517.746Z" fill="#FFDEEB"/>
<path d="M769.372 421.16L766.324 412.057L726.706 425.321L729.754 434.425L769.372 421.16Z" fill="#FFDEEB"/>
<path d="M570.867 236.81L561.025 234.394L555.068 258.652L564.91 261.069L570.867 236.81Z" fill="#FFDEEB"/>
<path d="M649.682 282.161L642.427 277.339L631.552 293.699L638.806 298.521L649.682 282.161Z" fill="#FFDEEB"/>
<path d="M434.206 762.711L446.272 764.924L453.055 727.94L440.989 725.728L434.206 762.711Z" fill="#AEE7F4"/>
<path d="M327.042 751.29L337.334 757.963L375.922 698.443L365.629 691.77L327.042 751.29Z" fill="#AEE7F4"/>
<path d="M275.428 660.734L282.435 669.81L312.758 646.398L305.751 637.322L275.428 660.734Z" fill="#AEE7F4"/>
<path d="M241.89 571.728L245.234 582.324L272.7 573.658L269.357 563.062L241.89 571.728Z" fill="#AEE7F4"/>
<path d="M241.133 481.115L240.719 492.041L257.863 492.69L258.276 481.765L241.133 481.115Z" fill="#AEE7F4"/>
<path d="M242.008 385.5L237.551 396.929L274.488 411.332L278.944 399.903L242.008 385.5Z" fill="#AEE7F4"/>
<path d="M296.686 305.913L289.566 313.736L315.863 337.669L322.983 329.845L296.686 305.913Z" fill="#AEE7F4"/>
<path d="M372.589 254.518L363.814 259.585L378.436 284.911L387.212 279.844L372.589 254.518Z" fill="#AEE7F4"/>
<path d="M457.332 212.231L445.679 214.223L452.794 255.841L464.447 253.849L457.332 212.231Z" fill="#AEE7F4"/>
</svg>
