<svg width="1080" height="1080" viewBox="0 0 1080 1080" fill="none" xmlns="http://www.w3.org/2000/svg">
<path d="M522.6 285.4L511.4 287.3L508.2 268.5L519.4 266.6L522.6 285.4ZM584.7 823.1L595 821.9L597.1 839.2L586.8 840.4L584.7 823.1ZM749.2 743.7L756.2 736.1L777.3 755.8L770.3 763.4L749.2 743.7ZM819.4 486.6L816.3 477.4L839.1 469.8L842.2 479L819.4 486.6ZM559.9 837.6C558.6 837.6 557.3 837.6 556 837.6L556.2 826C557.5 826 558.7 826 560 826V837.6H559.9ZM570.5 837.4L570.1 825.9C571.4 825.9 572.6 825.8 573.9 825.7L574.5 837.2C573.2 837.3 571.9 837.3 570.5 837.4ZM540.3 836.9C539 836.8 537.7 836.7 536.4 836.6L537.3 825.1C538.6 825.2 539.8 825.3 541.1 825.4L540.3 836.9ZM520.7 834.9C519.4 834.7 518.1 834.5 516.8 834.3L518.6 822.9C519.8 823.1 521.1 823.3 522.3 823.4L520.7 834.9ZM609.6 833.2L607.6 821.8C608.8 821.6 610.1 821.4 611.3 821.1L613.5 832.4C612.2 832.8 610.9 833 609.6 833.2ZM628.8 829.1L626 817.9C627.2 817.6 628.4 817.3 629.7 817L632.7 828.2C631.4 828.5 630.1 828.8 628.8 829.1ZM482.3 826.8C481 826.4 479.8 826.1 478.5 825.7L481.8 814.6C483 815 484.2 815.3 485.4 815.7L482.3 826.8ZM647.7 823.7L644.1 812.7C645.3 812.3 646.5 811.9 647.7 811.5L651.4 822.4C650.2 822.9 648.9 823.3 647.7 823.7ZM463.6 820.7C462.4 820.3 461.1 819.8 459.9 819.3L464 808.5C465.2 808.9 466.4 809.4 467.5 809.8L463.6 820.7ZM666.1 817L661.8 806.3C663 805.8 664.1 805.4 665.3 804.9L669.8 815.5C668.5 816 667.3 816.5 666.1 817ZM445.3 813.4C444.1 812.9 442.9 812.3 441.7 811.8L446.5 801.3C447.6 801.8 448.8 802.3 449.9 802.9L445.3 813.4ZM427.6 804.8C426.4 804.2 425.3 803.6 424.1 802.9L429.6 792.8C430.7 793.4 431.8 794 432.9 794.6L427.6 804.8ZM701.4 799.8L695.6 789.8C696.7 789.2 697.8 788.5 698.8 787.9L704.7 797.8C703.6 798.4 702.5 799.1 701.4 799.8ZM718 789.4L711.5 779.8C712.5 779.1 713.6 778.4 714.6 777.7L721.2 787.2C720.2 787.9 719.1 788.6 718 789.4ZM394.2 784.1C393.1 783.3 392.1 782.6 391 781.8L397.9 772.5C398.9 773.3 399.9 774 401 774.7L394.2 784.1ZM733.9 777.9L726.8 768.8C727.8 768 728.8 767.3 729.8 766.5L737 775.5C736 776.2 734.9 777 733.9 777.9ZM378.6 772C377.6 771.2 376.6 770.3 375.6 769.5L383.1 760.7C384.1 761.5 385 762.3 386 763.1L378.6 772ZM749 765.3L741.3 756.7C742.2 755.9 743.2 755 744.1 754.2L751.9 762.7C750.9 763.5 750 764.4 749 765.3ZM364 758.9C363.1 758 362.1 757.1 361.2 756.2L369.3 748C370.2 748.9 371.1 749.8 372 750.6L364 758.9ZM350.2 744.9C349.3 743.9 348.4 743 347.6 742L356.2 734.3C357 735.2 357.9 736.2 358.7 737.1L350.2 744.9ZM776.4 737.1L767.6 729.6C768.4 728.6 769.2 727.7 770 726.7L778.9 734.1C778.1 735.1 777.2 736.1 776.4 737.1ZM788.6 721.7L779.3 714.8C780 713.8 780.8 712.8 781.5 711.7L790.9 718.4C790.1 719.6 789.4 720.7 788.6 721.7ZM325.8 714.2C325.1 713.1 324.3 712 323.6 711L333.2 704.6C333.9 705.6 334.6 706.7 335.3 707.7L325.8 714.2ZM799.7 705.5L789.9 699.3C790.6 698.2 791.2 697.2 791.9 696.1L801.7 702.2C801.1 703.3 800.4 704.4 799.7 705.5ZM315.3 697.6C314.6 696.5 314 695.3 313.3 694.2L323.3 688.5C323.9 689.6 324.6 690.7 325.2 691.8L315.3 697.6ZM809.7 688.5L799.5 683C800.1 681.9 800.7 680.8 801.3 679.7L811.5 685.1C810.9 686.2 810.3 687.4 809.7 688.5ZM305.9 680.4C305.3 679.2 304.7 678.1 304.2 676.9L314.6 671.9C315.1 673 315.7 674.2 316.3 675.3L305.9 680.4ZM297.7 662.5C297.2 661.3 296.7 660.1 296.2 658.9L306.9 654.6C307.4 655.8 307.8 656.9 308.3 658.1L297.7 662.5ZM826 652.7L815.2 648.7C815.6 647.5 816.1 646.3 816.5 645.1L827.4 649C826.9 650.3 826.4 651.5 826 652.7ZM832.2 634L821.1 630.7C821.5 629.5 821.8 628.3 822.1 627.1L833.2 630.2C832.9 631.5 832.6 632.8 832.2 634ZM285.2 625.3C284.9 624 284.5 622.8 284.2 621.5L295.4 618.7C295.7 619.9 296 621.1 296.3 622.4L285.2 625.3ZM837.1 615L825.8 612.5C826.1 611.3 826.3 610 826.6 608.8L837.9 611.1C837.7 612.5 837.4 613.7 837.1 615ZM280.9 606.2C280.7 604.9 280.4 603.6 280.2 602.3L291.6 600.3C291.8 601.5 292 602.8 292.3 604L280.9 606.2ZM840.7 595.7L829.3 594C829.5 592.8 829.7 591.5 829.8 590.3L841.3 591.8C841.1 593.1 840.9 594.4 840.7 595.7ZM277.9 586.7C277.7 585.4 277.6 584.1 277.5 582.8L289 581.6C289.1 582.8 289.3 584.1 289.4 585.3L277.9 586.7ZM276.3 567.1C276.2 565.8 276.2 564.5 276.1 563.2L287.6 562.8C287.6 564.1 287.7 565.3 287.8 566.6L276.3 567.1ZM843.8 556.5L832.2 556.4V552.6L843.8 552.5V556.5ZM831.8 537.6C831.7 536.3 831.6 535.1 831.6 533.8L843.1 533C843.2 534.3 843.3 535.6 843.4 536.9L831.8 537.6ZM288.7 528.9L277.2 527.9C277.3 526.6 277.4 525.3 277.6 524L289.1 525.2C288.9 526.4 288.8 527.7 288.7 528.9ZM830 518.8C829.8 517.6 829.7 516.3 829.5 515.1L840.9 513.5C841.1 514.8 841.3 516.1 841.4 517.4L830 518.8ZM291 510.2L279.6 508.4C279.8 507.1 280 505.8 280.3 504.5L291.7 506.5C291.5 507.7 291.2 509 291 510.2ZM827 500.2C826.8 499 826.5 497.7 826.2 496.5L837.5 494.1C837.8 495.4 838 496.7 838.3 498L827 500.2ZM294.7 491.7L283.4 489.1C283.7 487.8 284 486.5 284.3 485.3L295.5 488.1C295.3 489.3 295 490.5 294.7 491.7ZM299.6 473.5L288.6 470.1C289 468.8 289.4 467.6 289.8 466.3L300.8 469.9C300.4 471.1 300 472.3 299.6 473.5ZM817 463.9C816.6 462.7 816.2 461.5 815.7 460.3L826.5 456.3C827 457.5 827.4 458.8 827.8 460L817 463.9ZM810.2 446.4C809.7 445.2 809.2 444.1 808.7 443L819.3 438.3C819.8 439.5 820.4 440.7 820.9 441.9L810.2 446.4ZM313.2 438.3L302.7 433.4C303.3 432.2 303.8 431 304.4 429.8L314.8 434.9C314.3 436.1 313.8 437.2 313.2 438.3ZM802.1 429.3C801.5 428.2 800.9 427.1 800.4 426L810.6 420.6C811.2 421.8 811.8 422.9 812.4 424.1L802.1 429.3ZM321.9 421.5L311.8 415.9C312.4 414.8 313.1 413.6 313.7 412.5L323.7 418.3C323.1 419.3 322.5 420.4 321.9 421.5ZM792.9 412.9C792.3 411.8 791.6 410.8 790.9 409.7L800.7 403.6C801.4 404.7 802.1 405.8 802.8 406.9L792.9 412.9ZM331.6 405.4L321.9 399.1C322.6 398 323.3 396.9 324.1 395.8L333.7 402.3C333 403.3 332.3 404.3 331.6 405.4ZM342.5 389.9L333.3 382.9C334.1 381.9 334.9 380.8 335.7 379.8L344.8 386.9C344 387.9 343.2 388.9 342.5 389.9ZM771.2 382.1C770.4 381.1 769.6 380.2 768.8 379.2L777.7 371.8C778.5 372.8 779.4 373.8 780.2 374.8L771.2 382.1ZM758.9 367.9C758 367 757.2 366.1 756.3 365.2L764.6 357.2C765.5 358.1 766.4 359.1 767.3 360.1L758.9 367.9ZM367.2 361.5L359 353.3C359.9 352.4 360.9 351.5 361.8 350.5L369.9 358.8C369 359.7 368.1 360.6 367.2 361.5ZM745.5 354.6C744.6 353.7 743.7 352.9 742.7 352L750.5 343.4C751.5 344.3 752.4 345.2 753.4 346.1L745.5 354.6ZM380.9 348.6L373.3 339.9C374.3 339 375.3 338.2 376.3 337.3L383.8 346.1C382.8 347 381.9 347.8 380.9 348.6ZM731.3 342.2C730.3 341.4 729.3 340.6 728.4 339.8L735.6 330.7C736.6 331.5 737.7 332.3 738.7 333.2L731.3 342.2ZM395.5 336.7L388.5 327.5C389.5 326.7 390.6 325.9 391.6 325.1L398.5 334.4C397.6 335.2 396.5 335.9 395.5 336.7ZM410.9 325.8L404.6 316.1C405.7 315.4 406.8 314.7 407.9 314L414.1 323.7C413 324.5 412 325.1 410.9 325.8ZM700.5 320.5C699.4 319.8 698.3 319.2 697.3 318.6L703.1 308.6C704.2 309.3 705.4 309.9 706.5 310.6L700.5 320.5ZM684 311.3C682.9 310.7 681.8 310.2 680.6 309.6L685.7 299.2C686.9 299.8 688 300.4 689.2 301L684 311.3ZM443.7 307.4L438.8 297C440 296.4 441.2 295.9 442.4 295.3L447.2 305.8C446 306.3 444.9 306.9 443.7 307.4ZM666.9 303.3C665.7 302.8 664.6 302.3 663.4 301.8L667.8 291.1C669 291.6 670.2 292.1 671.4 292.6L666.9 303.3ZM461 300L456.8 289.2C458 288.7 459.2 288.3 460.5 287.8L464.6 298.6C463.4 299.1 462.2 299.5 461 300ZM649.3 296.4C648.1 296 646.9 295.6 645.7 295.2L649.4 284.2C650.7 284.6 651.9 285 653.1 285.5L649.3 296.4ZM478.8 293.7L475.3 282.7C476.6 282.3 477.8 281.9 479.1 281.6L482.4 292.7C481.2 293 480 293.3 478.8 293.7ZM497 288.7L494.3 277.5C495.6 277.2 496.9 276.9 498.1 276.6L500.6 287.9C499.4 288.1 498.2 288.4 497 288.7ZM612.9 286.6C611.7 286.4 610.4 286.1 609.2 285.9L611.3 274.5C612.6 274.7 613.9 275 615.2 275.2L612.9 286.6ZM594.3 283.5C593.1 283.3 591.8 283.2 590.6 283.1L591.9 271.6C593.2 271.7 594.5 271.9 595.8 272.1L594.3 283.5ZM534.1 282.6L533 271.1C534.3 271 535.6 270.9 536.9 270.8L537.8 282.3C536.6 282.4 535.4 282.5 534.1 282.6ZM575.6 281.8C574.3 281.7 573.1 281.7 571.8 281.6L572.3 270.1C573.6 270.2 574.9 270.2 576.2 270.3L575.6 281.8ZM552.9 281.5L552.6 269.9C553.9 269.9 555.2 269.8 556.5 269.8L556.6 281.4C555.5 281.4 554.2 281.4 552.9 281.5Z" fill="#D8CEE2"/>
<path d="M559.7 976.5C326.1 976.5 136.8 787.2 136.8 553.6C136.8 320 326.1 130.7 559.7 130.7" stroke="#AEE7F4" stroke-width="2.2753" stroke-miterlimit="10"/>
<path d="M560.1 129.6V166" stroke="#AEE7F4" stroke-width="1.3347" stroke-miterlimit="10"/>
<path d="M559.9 941.2V977.6" stroke="#AEE7F4" stroke-width="1.3347" stroke-miterlimit="10"/>
<path d="M559.7 217C746.4 217 897.8 368.4 897.8 555.1C897.8 741.8 746.4 893.2 559.7 893.2" stroke="#FFDEEB" stroke-width="2.2753" stroke-miterlimit="10"/>
<path d="M559.9 215.8V252.2" stroke="#FFDEEB" stroke-width="1.3347" stroke-miterlimit="10"/>
<path d="M559.9 857.8V894.2" stroke="#FFDEEB" stroke-width="1.3347" stroke-miterlimit="10"/>
<path d="M928.352 683.043C930.272 683.043 931.768 683.595 932.84 684.699C933.912 685.803 934.448 687.403 934.448 689.499V699.987H932.696V689.547C932.696 687.915 932.28 686.691 931.448 685.875C930.632 685.043 929.512 684.627 928.088 684.627C926.584 684.627 925.408 685.067 924.56 685.947C923.712 686.811 923.288 688.139 923.288 689.931V699.987H921.536V689.547C921.536 687.915 921.136 686.691 920.336 685.875C919.536 685.043 918.424 684.627 917 684.627C915.48 684.627 914.288 685.067 913.424 685.947C912.576 686.811 912.152 688.139 912.152 689.931V699.987H910.376V683.187H912.08V685.995C912.544 685.035 913.232 684.307 914.144 683.811C915.056 683.299 916.136 683.043 917.384 683.043C918.696 683.043 919.816 683.323 920.744 683.883C921.688 684.427 922.368 685.195 922.784 686.187C923.264 685.163 923.984 684.387 924.944 683.859C925.92 683.315 927.056 683.043 928.352 683.043ZM943.27 684.723V698.451H946.678V699.987H938.11V698.451H941.518V684.723H938.11V683.187H946.678V684.723H943.27ZM957.869 683.043C959.885 683.043 961.461 683.643 962.597 684.843C963.749 686.043 964.325 687.755 964.325 689.979V699.987H962.549V690.027C962.549 688.251 962.109 686.907 961.229 685.995C960.349 685.083 959.117 684.627 957.533 684.627C955.869 684.627 954.573 685.115 953.645 686.091C952.717 687.051 952.253 688.499 952.253 690.435V699.987H950.477V683.187H952.181V686.019C953.253 684.035 955.149 683.043 957.869 683.043Z" fill="#FFDEEB"/>
<path d="M931.804 718.875C934.236 718.875 936.004 719.315 937.108 720.195C938.228 721.059 938.788 722.275 938.788 723.843C938.788 724.819 938.556 725.691 938.092 726.459C937.644 727.227 936.964 727.835 936.052 728.283C935.14 728.715 934.02 728.931 932.692 728.931C931.492 728.931 930.348 728.739 929.26 728.355C928.188 727.955 927.324 727.427 926.668 726.771L927.508 725.403C928.068 725.979 928.804 726.451 929.716 726.819C930.628 727.171 931.612 727.347 932.668 727.347C934.06 727.347 935.132 727.035 935.884 726.411C936.652 725.787 937.036 724.955 937.036 723.915C937.036 722.763 936.604 721.891 935.74 721.299C934.892 720.707 933.452 720.411 931.42 720.411H927.844L928.708 711.987H937.9V713.523H930.22L929.644 718.875H931.804ZM945.637 711.987V728.787H943.909V713.523H939.949V711.987H945.637Z" fill="#FFDEEB"/>
<path d="M879.7 685.7H861.5" stroke="#FFDEEB" stroke-width="2.2753" stroke-miterlimit="10"/>
<path d="M294.174 107.004L290.334 101.604C289.902 101.652 289.454 101.676 288.99 101.676H284.478V107.004H282.702V90.2044H288.99C291.134 90.2044 292.814 90.7164 294.03 91.7404C295.246 92.7644 295.854 94.1724 295.854 95.9644C295.854 97.2764 295.518 98.3884 294.846 99.3004C294.19 100.196 293.246 100.844 292.014 101.244L296.118 107.004H294.174ZM288.942 100.164C290.606 100.164 291.878 99.7964 292.758 99.0604C293.638 98.3244 294.078 97.2924 294.078 95.9644C294.078 94.6044 293.638 93.5644 292.758 92.8444C291.878 92.1084 290.606 91.7404 288.942 91.7404H284.478V100.164H288.942ZM305.086 105.612C305.87 105.612 306.59 105.476 307.246 105.204C307.918 104.916 308.486 104.5 308.95 103.956L309.91 105.06C309.35 105.732 308.654 106.244 307.822 106.596C306.99 106.948 306.07 107.124 305.062 107.124C303.766 107.124 302.614 106.852 301.606 106.308C300.598 105.748 299.814 104.98 299.254 104.004C298.694 103.028 298.414 101.924 298.414 100.692C298.414 99.4604 298.678 98.3564 299.206 97.3804C299.75 96.4044 300.494 95.6444 301.438 95.1004C302.382 94.5564 303.454 94.2844 304.654 94.2844C305.774 94.2844 306.782 94.5404 307.678 95.0524C308.59 95.5644 309.31 96.2764 309.838 97.1884C310.382 98.1004 310.67 99.1404 310.702 100.308L300.334 102.324C300.654 103.348 301.23 104.156 302.062 104.748C302.91 105.324 303.918 105.612 305.086 105.612ZM304.654 95.7484C303.774 95.7484 302.982 95.9564 302.278 96.3724C301.59 96.7724 301.046 97.3404 300.646 98.0764C300.262 98.7964 300.07 99.6284 300.07 100.572C300.07 100.812 300.078 100.988 300.094 101.1L308.998 99.3724C308.806 98.3164 308.318 97.4524 307.534 96.7804C306.75 96.0924 305.79 95.7484 304.654 95.7484ZM317.554 107.124C316.53 107.124 315.546 106.98 314.602 106.692C313.674 106.388 312.946 106.012 312.418 105.564L313.186 104.22C313.714 104.636 314.378 104.98 315.178 105.252C315.978 105.508 316.81 105.636 317.674 105.636C318.826 105.636 319.674 105.46 320.218 105.108C320.778 104.74 321.058 104.228 321.058 103.572C321.058 103.108 320.906 102.748 320.602 102.492C320.298 102.22 319.914 102.02 319.45 101.892C318.986 101.748 318.37 101.612 317.602 101.484C316.578 101.292 315.754 101.1 315.13 100.908C314.506 100.7 313.97 100.356 313.522 99.8764C313.09 99.3964 312.874 98.7324 312.874 97.8844C312.874 96.8284 313.314 95.9644 314.194 95.2924C315.074 94.6204 316.298 94.2844 317.866 94.2844C318.682 94.2844 319.498 94.3964 320.314 94.6204C321.13 94.8284 321.802 95.1084 322.33 95.4604L321.586 96.8284C320.546 96.1084 319.306 95.7484 317.866 95.7484C316.778 95.7484 315.954 95.9404 315.394 96.3244C314.85 96.7084 314.578 97.2124 314.578 97.8364C314.578 98.3164 314.73 98.7004 315.034 98.9884C315.354 99.2764 315.746 99.4924 316.21 99.6364C316.674 99.7644 317.314 99.9004 318.13 100.044C319.138 100.236 319.946 100.428 320.554 100.62C321.162 100.812 321.682 101.14 322.114 101.604C322.546 102.068 322.762 102.708 322.762 103.524C322.762 104.628 322.298 105.508 321.37 106.164C320.458 106.804 319.186 107.124 317.554 107.124ZM332.416 94.2844C333.6 94.2844 334.672 94.5564 335.632 95.1004C336.592 95.6284 337.344 96.3804 337.888 97.3564C338.432 98.3324 338.704 99.4444 338.704 100.692C338.704 101.956 338.432 103.076 337.888 104.052C337.344 105.028 336.592 105.788 335.632 106.332C334.688 106.86 333.616 107.124 332.416 107.124C331.392 107.124 330.464 106.916 329.632 106.5C328.816 106.068 328.144 105.444 327.616 104.628V111.66H325.912V94.3804H327.544V96.8764C328.056 96.0444 328.728 95.4044 329.56 94.9564C330.408 94.5084 331.36 94.2844 332.416 94.2844ZM332.296 105.612C333.176 105.612 333.976 105.412 334.696 105.012C335.416 104.596 335.976 104.012 336.376 103.26C336.792 102.508 337 101.652 337 100.692C337 99.7324 336.792 98.8844 336.376 98.1484C335.976 97.3964 335.416 96.8124 334.696 96.3964C333.976 95.9804 333.176 95.7724 332.296 95.7724C331.4 95.7724 330.592 95.9804 329.872 96.3964C329.168 96.8124 328.608 97.3964 328.192 98.1484C327.792 98.8844 327.592 99.7324 327.592 100.692C327.592 101.652 327.792 102.508 328.192 103.26C328.608 104.012 329.168 104.596 329.872 105.012C330.592 105.412 331.4 105.612 332.296 105.612ZM342.178 94.3804H343.882V107.004H342.178V94.3804ZM343.042 91.6204C342.69 91.6204 342.394 91.5004 342.154 91.2604C341.914 91.0204 341.794 90.7324 341.794 90.3964C341.794 90.0764 341.914 89.7964 342.154 89.5564C342.394 89.3164 342.69 89.1964 343.042 89.1964C343.394 89.1964 343.69 89.3164 343.93 89.5564C344.17 89.7804 344.29 90.0524 344.29 90.3724C344.29 90.7244 344.17 91.0204 343.93 91.2604C343.69 91.5004 343.394 91.6204 343.042 91.6204ZM350.255 96.8524C350.655 96.0044 351.247 95.3644 352.031 94.9324C352.831 94.5004 353.815 94.2844 354.983 94.2844V95.9404L354.575 95.9164C353.247 95.9164 352.207 96.3244 351.455 97.1404C350.703 97.9564 350.327 99.1004 350.327 100.572V107.004H348.623V94.3804H350.255V96.8524ZM369.471 94.3804V107.004H367.839V104.508C367.327 105.356 366.647 106.004 365.799 106.452C364.967 106.9 364.023 107.124 362.967 107.124C361.783 107.124 360.711 106.852 359.751 106.308C358.791 105.764 358.039 105.004 357.495 104.028C356.951 103.052 356.679 101.94 356.679 100.692C356.679 99.4444 356.951 98.3324 357.495 97.3564C358.039 96.3804 358.791 95.6284 359.751 95.1004C360.711 94.5564 361.783 94.2844 362.967 94.2844C363.991 94.2844 364.911 94.5004 365.727 94.9324C366.559 95.3484 367.239 95.9644 367.767 96.7804V94.3804H369.471ZM363.111 105.612C363.991 105.612 364.783 105.412 365.487 105.012C366.207 104.596 366.767 104.012 367.167 103.26C367.583 102.508 367.791 101.652 367.791 100.692C367.791 99.7324 367.583 98.8764 367.167 98.1244C366.767 97.3724 366.207 96.7964 365.487 96.3964C364.783 95.9804 363.991 95.7724 363.111 95.7724C362.215 95.7724 361.407 95.9804 360.687 96.3964C359.983 96.7964 359.423 97.3724 359.007 98.1244C358.607 98.8764 358.407 99.7324 358.407 100.692C358.407 101.652 358.607 102.508 359.007 103.26C359.423 104.012 359.983 104.596 360.687 105.012C361.407 105.412 362.215 105.612 363.111 105.612ZM380.433 106.236C380.113 106.524 379.721 106.748 379.257 106.908C378.793 107.052 378.305 107.124 377.793 107.124C376.609 107.124 375.697 106.804 375.057 106.164C374.417 105.524 374.097 104.62 374.097 103.452V91.6204H375.801V94.3804H379.617V95.8204H375.801V103.356C375.801 104.108 375.985 104.684 376.353 105.084C376.721 105.468 377.257 105.66 377.961 105.66C378.729 105.66 379.353 105.444 379.833 105.012L380.433 106.236ZM388.236 107.124C387.02 107.124 385.924 106.852 384.948 106.308C383.972 105.748 383.204 104.98 382.644 104.004C382.084 103.028 381.804 101.924 381.804 100.692C381.804 99.4604 382.084 98.3564 382.644 97.3804C383.204 96.4044 383.972 95.6444 384.948 95.1004C385.924 94.5564 387.02 94.2844 388.236 94.2844C389.452 94.2844 390.548 94.5564 391.524 95.1004C392.5 95.6444 393.26 96.4044 393.804 97.3804C394.364 98.3564 394.644 99.4604 394.644 100.692C394.644 101.924 394.364 103.028 393.804 104.004C393.26 104.98 392.5 105.748 391.524 106.308C390.548 106.852 389.452 107.124 388.236 107.124ZM388.236 105.612C389.132 105.612 389.932 105.412 390.636 105.012C391.356 104.596 391.916 104.012 392.316 103.26C392.716 102.508 392.916 101.652 392.916 100.692C392.916 99.7324 392.716 98.8764 392.316 98.1244C391.916 97.3724 391.356 96.7964 390.636 96.3964C389.932 95.9804 389.132 95.7724 388.236 95.7724C387.34 95.7724 386.532 95.9804 385.812 96.3964C385.108 96.7964 384.548 97.3724 384.132 98.1244C383.732 98.8764 383.532 99.7324 383.532 100.692C383.532 101.652 383.732 102.508 384.132 103.26C384.548 104.012 385.108 104.596 385.812 105.012C386.532 105.412 387.34 105.612 388.236 105.612ZM399.755 96.8524C400.155 96.0044 400.747 95.3644 401.531 94.9324C402.331 94.5004 403.315 94.2844 404.483 94.2844V95.9404L404.075 95.9164C402.747 95.9164 401.707 96.3244 400.955 97.1404C400.203 97.9564 399.827 99.1004 399.827 100.572V107.004H398.123V94.3804H399.755V96.8524ZM419.132 94.3804V105.468C419.132 107.612 418.644 109.196 417.668 110.22C416.692 111.26 415.22 111.78 413.252 111.78C412.148 111.78 411.1 111.604 410.108 111.252C409.132 110.916 408.34 110.444 407.732 109.836L408.596 108.54C409.14 109.084 409.812 109.508 410.612 109.812C411.412 110.116 412.268 110.268 413.18 110.268C414.636 110.268 415.708 109.892 416.396 109.14C417.084 108.404 417.428 107.252 417.428 105.684V104.22C416.98 104.956 416.364 105.524 415.58 105.924C414.812 106.324 413.94 106.524 412.964 106.524C411.316 106.524 410.012 106.068 409.052 105.156C408.108 104.228 407.636 102.876 407.636 101.1V94.3804H409.34V100.932C409.34 102.26 409.668 103.268 410.324 103.956C410.98 104.644 411.916 104.988 413.132 104.988C414.46 104.988 415.508 104.588 416.276 103.788C417.044 102.972 417.428 101.844 417.428 100.404V94.3804H419.132ZM442.018 107.004L438.178 101.604C437.746 101.652 437.298 101.676 436.834 101.676H432.322V107.004H430.546V90.2044H436.834C438.978 90.2044 440.658 90.7164 441.874 91.7404C443.09 92.7644 443.698 94.1724 443.698 95.9644C443.698 97.2764 443.362 98.3884 442.69 99.3004C442.034 100.196 441.09 100.844 439.858 101.244L443.962 107.004H442.018ZM436.786 100.164C438.45 100.164 439.722 99.7964 440.602 99.0604C441.482 98.3244 441.922 97.2924 441.922 95.9644C441.922 94.6044 441.482 93.5644 440.602 92.8444C439.722 92.1084 438.45 91.7404 436.786 91.7404H432.322V100.164H436.786ZM459.049 94.3804V107.004H457.417V104.508C456.905 105.356 456.225 106.004 455.377 106.452C454.545 106.9 453.601 107.124 452.545 107.124C451.361 107.124 450.289 106.852 449.329 106.308C448.369 105.764 447.617 105.004 447.073 104.028C446.529 103.052 446.257 101.94 446.257 100.692C446.257 99.4444 446.529 98.3324 447.073 97.3564C447.617 96.3804 448.369 95.6284 449.329 95.1004C450.289 94.5564 451.361 94.2844 452.545 94.2844C453.569 94.2844 454.489 94.5004 455.305 94.9324C456.137 95.3484 456.817 95.9644 457.345 96.7804V94.3804H459.049ZM452.689 105.612C453.569 105.612 454.361 105.412 455.065 105.012C455.785 104.596 456.345 104.012 456.745 103.26C457.161 102.508 457.369 101.652 457.369 100.692C457.369 99.7324 457.161 98.8764 456.745 98.1244C456.345 97.3724 455.785 96.7964 455.065 96.3964C454.361 95.9804 453.569 95.7724 452.689 95.7724C451.793 95.7724 450.985 95.9804 450.265 96.3964C449.561 96.7964 449.001 97.3724 448.585 98.1244C448.185 98.8764 447.985 99.7324 447.985 100.692C447.985 101.652 448.185 102.508 448.585 103.26C449.001 104.012 449.561 104.596 450.265 105.012C450.985 105.412 451.793 105.612 452.689 105.612ZM470.011 106.236C469.691 106.524 469.299 106.748 468.835 106.908C468.371 107.052 467.883 107.124 467.371 107.124C466.187 107.124 465.275 106.804 464.635 106.164C463.995 105.524 463.675 104.62 463.675 103.452V91.6204H465.379V94.3804H469.195V95.8204H465.379V103.356C465.379 104.108 465.563 104.684 465.931 105.084C466.299 105.468 466.835 105.66 467.539 105.66C468.307 105.66 468.931 105.444 469.411 105.012L470.011 106.236ZM478.054 105.612C478.838 105.612 479.558 105.476 480.214 105.204C480.886 104.916 481.454 104.5 481.918 103.956L482.878 105.06C482.318 105.732 481.622 106.244 480.79 106.596C479.958 106.948 479.038 107.124 478.03 107.124C476.734 107.124 475.582 106.852 474.574 106.308C473.566 105.748 472.782 104.98 472.222 104.004C471.662 103.028 471.382 101.924 471.382 100.692C471.382 99.4604 471.646 98.3564 472.174 97.3804C472.718 96.4044 473.462 95.6444 474.406 95.1004C475.35 94.5564 476.422 94.2844 477.622 94.2844C478.742 94.2844 479.75 94.5404 480.646 95.0524C481.558 95.5644 482.278 96.2764 482.806 97.1884C483.35 98.1004 483.638 99.1404 483.67 100.308L473.302 102.324C473.622 103.348 474.198 104.156 475.03 104.748C475.878 105.324 476.886 105.612 478.054 105.612ZM477.622 95.7484C476.742 95.7484 475.95 95.9564 475.246 96.3724C474.558 96.7724 474.014 97.3404 473.614 98.0764C473.23 98.7964 473.038 99.6284 473.038 100.572C473.038 100.812 473.046 100.988 473.062 101.1L481.966 99.3724C481.774 98.3164 481.286 97.4524 480.502 96.7804C479.718 96.0924 478.758 95.7484 477.622 95.7484ZM487.307 96.9004C486.955 96.9004 486.651 96.7724 486.395 96.5164C486.155 96.2604 486.035 95.9484 486.035 95.5804C486.035 95.2124 486.155 94.9084 486.395 94.6684C486.651 94.4124 486.955 94.2844 487.307 94.2844C487.659 94.2844 487.963 94.4124 488.219 94.6684C488.475 94.9084 488.603 95.2124 488.603 95.5804C488.603 95.9484 488.475 96.2604 488.219 96.5164C487.963 96.7724 487.659 96.9004 487.307 96.9004ZM487.307 107.124C486.955 107.124 486.651 106.996 486.395 106.74C486.155 106.484 486.035 106.172 486.035 105.804C486.035 105.436 486.155 105.132 486.395 104.892C486.651 104.636 486.955 104.508 487.307 104.508C487.659 104.508 487.963 104.636 488.219 104.892C488.475 105.132 488.603 105.436 488.603 105.804C488.603 106.172 488.475 106.484 488.219 106.74C487.963 106.996 487.659 107.124 487.307 107.124ZM503.498 107.148C502.25 107.148 501.05 106.948 499.898 106.548C498.762 106.148 497.882 105.62 497.258 104.964L497.954 103.596C498.562 104.204 499.37 104.7 500.378 105.084C501.386 105.452 502.426 105.636 503.498 105.636C505.002 105.636 506.13 105.364 506.882 104.82C507.634 104.26 508.01 103.54 508.01 102.66C508.01 101.988 507.802 101.452 507.386 101.052C506.986 100.652 506.49 100.348 505.898 100.14C505.306 99.9164 504.482 99.6764 503.426 99.4204C502.162 99.1004 501.154 98.7964 500.402 98.5084C499.65 98.2044 499.002 97.7484 498.458 97.1404C497.93 96.5324 497.666 95.7084 497.666 94.6684C497.666 93.8204 497.89 93.0524 498.338 92.3644C498.786 91.6604 499.474 91.1004 500.402 90.6844C501.33 90.2684 502.482 90.0604 503.858 90.0604C504.818 90.0604 505.754 90.1964 506.666 90.4684C507.594 90.7244 508.394 91.0844 509.066 91.5484L508.466 92.9644C507.762 92.5004 507.01 92.1564 506.21 91.9324C505.41 91.6924 504.626 91.5724 503.858 91.5724C502.386 91.5724 501.274 91.8604 500.522 92.4364C499.786 92.9964 499.418 93.7244 499.418 94.6204C499.418 95.2924 499.618 95.8364 500.018 96.2524C500.434 96.6524 500.946 96.9644 501.554 97.1884C502.178 97.3964 503.01 97.6284 504.05 97.8844C505.282 98.1884 506.274 98.4924 507.026 98.7964C507.794 99.0844 508.442 99.5324 508.97 100.14C509.498 100.732 509.762 101.54 509.762 102.564C509.762 103.412 509.53 104.188 509.066 104.892C508.618 105.58 507.922 106.132 506.978 106.548C506.034 106.948 504.874 107.148 503.498 107.148ZM516.824 107.124C515.688 107.124 514.808 106.804 514.184 106.164C513.576 105.524 513.272 104.636 513.272 103.5V89.1964H514.976V103.356C514.976 104.108 515.152 104.684 515.504 105.084C515.856 105.468 516.384 105.66 517.088 105.66C517.536 105.66 517.92 105.588 518.24 105.444L518.36 106.86C517.864 107.036 517.352 107.124 516.824 107.124ZM525.843 105.612C526.627 105.612 527.347 105.476 528.003 105.204C528.675 104.916 529.243 104.5 529.707 103.956L530.667 105.06C530.107 105.732 529.411 106.244 528.579 106.596C527.747 106.948 526.827 107.124 525.819 107.124C524.523 107.124 523.371 106.852 522.363 106.308C521.355 105.748 520.571 104.98 520.011 104.004C519.451 103.028 519.171 101.924 519.171 100.692C519.171 99.4604 519.435 98.3564 519.963 97.3804C520.507 96.4044 521.251 95.6444 522.195 95.1004C523.139 94.5564 524.211 94.2844 525.411 94.2844C526.531 94.2844 527.539 94.5404 528.435 95.0524C529.347 95.5644 530.067 96.2764 530.595 97.1884C531.139 98.1004 531.427 99.1404 531.459 100.308L521.091 102.324C521.411 103.348 521.987 104.156 522.819 104.748C523.667 105.324 524.675 105.612 525.843 105.612ZM525.411 95.7484C524.531 95.7484 523.739 95.9564 523.035 96.3724C522.347 96.7724 521.803 97.3404 521.403 98.0764C521.019 98.7964 520.827 99.6284 520.827 100.572C520.827 100.812 520.835 100.988 520.851 101.1L529.755 99.3724C529.563 98.3164 529.075 97.4524 528.291 96.7804C527.507 96.0924 526.547 95.7484 525.411 95.7484ZM540.328 105.612C541.112 105.612 541.832 105.476 542.488 105.204C543.16 104.916 543.728 104.5 544.192 103.956L545.152 105.06C544.592 105.732 543.896 106.244 543.064 106.596C542.232 106.948 541.312 107.124 540.304 107.124C539.008 107.124 537.856 106.852 536.848 106.308C535.84 105.748 535.056 104.98 534.496 104.004C533.936 103.028 533.656 101.924 533.656 100.692C533.656 99.4604 533.92 98.3564 534.448 97.3804C534.992 96.4044 535.736 95.6444 536.68 95.1004C537.624 94.5564 538.696 94.2844 539.896 94.2844C541.016 94.2844 542.024 94.5404 542.92 95.0524C543.832 95.5644 544.552 96.2764 545.08 97.1884C545.624 98.1004 545.912 99.1404 545.944 100.308L535.576 102.324C535.896 103.348 536.472 104.156 537.304 104.748C538.152 105.324 539.16 105.612 540.328 105.612ZM539.896 95.7484C539.016 95.7484 538.224 95.9564 537.52 96.3724C536.832 96.7724 536.288 97.3404 535.888 98.0764C535.504 98.7964 535.312 99.6284 535.312 100.572C535.312 100.812 535.32 100.988 535.336 101.1L544.24 99.3724C544.048 98.3164 543.56 97.4524 542.776 96.7804C541.992 96.0924 541.032 95.7484 539.896 95.7484ZM555.916 94.2844C557.1 94.2844 558.172 94.5564 559.132 95.1004C560.092 95.6284 560.844 96.3804 561.388 97.3564C561.932 98.3324 562.204 99.4444 562.204 100.692C562.204 101.956 561.932 103.076 561.388 104.052C560.844 105.028 560.092 105.788 559.132 106.332C558.188 106.86 557.116 107.124 555.916 107.124C554.892 107.124 553.964 106.916 553.132 106.5C552.316 106.068 551.644 105.444 551.116 104.628V111.66H549.412V94.3804H551.044V96.8764C551.556 96.0444 552.228 95.4044 553.06 94.9564C553.908 94.5084 554.86 94.2844 555.916 94.2844ZM555.796 105.612C556.676 105.612 557.476 105.412 558.196 105.012C558.916 104.596 559.476 104.012 559.876 103.26C560.292 102.508 560.5 101.652 560.5 100.692C560.5 99.7324 560.292 98.8844 559.876 98.1484C559.476 97.3964 558.916 96.8124 558.196 96.3964C557.476 95.9804 556.676 95.7724 555.796 95.7724C554.9 95.7724 554.092 95.9804 553.372 96.3964C552.668 96.8124 552.108 97.3964 551.692 98.1484C551.292 98.8844 551.092 99.7324 551.092 100.692C551.092 101.652 551.292 102.508 551.692 103.26C552.108 104.012 552.668 104.596 553.372 105.012C554.092 105.412 554.9 105.612 555.796 105.612Z" fill="#AEE7F4"/>
<path d="M573.834 184.176V200.976H572.082V193.224H561.57V200.976H559.794V184.176H561.57V191.664H572.082V184.176H573.834ZM584.357 199.584C585.141 199.584 585.861 199.448 586.517 199.176C587.189 198.888 587.757 198.472 588.221 197.928L589.181 199.032C588.621 199.704 587.925 200.216 587.093 200.568C586.261 200.92 585.341 201.096 584.333 201.096C583.037 201.096 581.885 200.824 580.877 200.28C579.869 199.72 579.085 198.952 578.525 197.976C577.965 197 577.685 195.896 577.685 194.664C577.685 193.432 577.949 192.328 578.477 191.352C579.021 190.376 579.765 189.616 580.709 189.072C581.653 188.528 582.725 188.256 583.925 188.256C585.045 188.256 586.053 188.512 586.949 189.024C587.861 189.536 588.581 190.248 589.109 191.16C589.653 192.072 589.941 193.112 589.973 194.28L579.605 196.296C579.925 197.32 580.501 198.128 581.333 198.72C582.181 199.296 583.189 199.584 584.357 199.584ZM583.925 189.72C583.045 189.72 582.253 189.928 581.549 190.344C580.861 190.744 580.317 191.312 579.917 192.048C579.533 192.768 579.341 193.6 579.341 194.544C579.341 194.784 579.349 194.96 579.365 195.072L588.269 193.344C588.077 192.288 587.589 191.424 586.805 190.752C586.021 190.064 585.061 189.72 583.925 189.72ZM604.961 188.352V200.976H603.329V198.48C602.817 199.328 602.137 199.976 601.289 200.424C600.457 200.872 599.513 201.096 598.457 201.096C597.273 201.096 596.201 200.824 595.241 200.28C594.281 199.736 593.529 198.976 592.985 198C592.441 197.024 592.169 195.912 592.169 194.664C592.169 193.416 592.441 192.304 592.985 191.328C593.529 190.352 594.281 189.6 595.241 189.072C596.201 188.528 597.273 188.256 598.457 188.256C599.481 188.256 600.401 188.472 601.217 188.904C602.049 189.32 602.729 189.936 603.257 190.752V188.352H604.961ZM598.601 199.584C599.481 199.584 600.273 199.384 600.977 198.984C601.697 198.568 602.257 197.984 602.657 197.232C603.073 196.48 603.281 195.624 603.281 194.664C603.281 193.704 603.073 192.848 602.657 192.096C602.257 191.344 601.697 190.768 600.977 190.368C600.273 189.952 599.481 189.744 598.601 189.744C597.705 189.744 596.897 189.952 596.177 190.368C595.473 190.768 594.913 191.344 594.497 192.096C594.097 192.848 593.897 193.704 593.897 194.664C593.897 195.624 594.097 196.48 594.497 197.232C594.913 197.984 595.473 198.568 596.177 198.984C596.897 199.384 597.705 199.584 598.601 199.584ZM611.339 190.824C611.739 189.976 612.331 189.336 613.115 188.904C613.915 188.472 614.899 188.256 616.067 188.256V189.912L615.659 189.888C614.331 189.888 613.291 190.296 612.539 191.112C611.787 191.928 611.411 193.072 611.411 194.544V200.976H609.707V188.352H611.339V190.824ZM625.368 200.208C625.048 200.496 624.656 200.72 624.192 200.88C623.728 201.024 623.24 201.096 622.728 201.096C621.544 201.096 620.632 200.776 619.992 200.136C619.352 199.496 619.032 198.592 619.032 197.424V185.592H620.736V188.352H624.552V189.792H620.736V197.328C620.736 198.08 620.92 198.656 621.288 199.056C621.656 199.44 622.192 199.632 622.896 199.632C623.664 199.632 624.288 199.416 624.768 198.984L625.368 200.208ZM646.57 200.976L642.73 195.576C642.298 195.624 641.85 195.648 641.386 195.648H636.874V200.976H635.098V184.176H641.386C643.53 184.176 645.21 184.688 646.426 185.712C647.642 186.736 648.25 188.144 648.25 189.936C648.25 191.248 647.914 192.36 647.242 193.272C646.586 194.168 645.642 194.816 644.41 195.216L648.514 200.976H646.57ZM641.338 194.136C643.002 194.136 644.274 193.768 645.154 193.032C646.034 192.296 646.474 191.264 646.474 189.936C646.474 188.576 646.034 187.536 645.154 186.816C644.274 186.08 643.002 185.712 641.338 185.712H636.874V194.136H641.338ZM663.602 188.352V200.976H661.97V198.48C661.458 199.328 660.778 199.976 659.93 200.424C659.098 200.872 658.154 201.096 657.098 201.096C655.914 201.096 654.842 200.824 653.882 200.28C652.922 199.736 652.17 198.976 651.626 198C651.082 197.024 650.81 195.912 650.81 194.664C650.81 193.416 651.082 192.304 651.626 191.328C652.17 190.352 652.922 189.6 653.882 189.072C654.842 188.528 655.914 188.256 657.098 188.256C658.122 188.256 659.042 188.472 659.858 188.904C660.69 189.32 661.37 189.936 661.898 190.752V188.352H663.602ZM657.242 199.584C658.122 199.584 658.914 199.384 659.618 198.984C660.338 198.568 660.898 197.984 661.298 197.232C661.714 196.48 661.922 195.624 661.922 194.664C661.922 193.704 661.714 192.848 661.298 192.096C660.898 191.344 660.338 190.768 659.618 190.368C658.914 189.952 658.122 189.744 657.242 189.744C656.346 189.744 655.538 189.952 654.818 190.368C654.114 190.768 653.554 191.344 653.138 192.096C652.738 192.848 652.538 193.704 652.538 194.664C652.538 195.624 652.738 196.48 653.138 197.232C653.554 197.984 654.114 198.568 654.818 198.984C655.538 199.384 656.346 199.584 657.242 199.584ZM674.564 200.208C674.244 200.496 673.852 200.72 673.388 200.88C672.924 201.024 672.436 201.096 671.924 201.096C670.74 201.096 669.828 200.776 669.188 200.136C668.548 199.496 668.228 198.592 668.228 197.424V185.592H669.932V188.352H673.748V189.792H669.932V197.328C669.932 198.08 670.116 198.656 670.484 199.056C670.852 199.44 671.388 199.632 672.092 199.632C672.86 199.632 673.484 199.416 673.964 198.984L674.564 200.208ZM682.607 199.584C683.391 199.584 684.111 199.448 684.767 199.176C685.439 198.888 686.007 198.472 686.471 197.928L687.431 199.032C686.871 199.704 686.175 200.216 685.343 200.568C684.511 200.92 683.591 201.096 682.583 201.096C681.287 201.096 680.135 200.824 679.127 200.28C678.119 199.72 677.335 198.952 676.775 197.976C676.215 197 675.935 195.896 675.935 194.664C675.935 193.432 676.199 192.328 676.727 191.352C677.271 190.376 678.015 189.616 678.959 189.072C679.903 188.528 680.975 188.256 682.175 188.256C683.295 188.256 684.303 188.512 685.199 189.024C686.111 189.536 686.831 190.248 687.359 191.16C687.903 192.072 688.191 193.112 688.223 194.28L677.855 196.296C678.175 197.32 678.751 198.128 679.583 198.72C680.431 199.296 681.439 199.584 682.607 199.584ZM682.175 189.72C681.295 189.72 680.503 189.928 679.799 190.344C679.111 190.744 678.567 191.312 678.167 192.048C677.783 192.768 677.591 193.6 677.591 194.544C677.591 194.784 677.599 194.96 677.615 195.072L686.519 193.344C686.327 192.288 685.839 191.424 685.055 190.752C684.271 190.064 683.311 189.72 682.175 189.72ZM691.859 190.872C691.507 190.872 691.203 190.744 690.947 190.488C690.707 190.232 690.587 189.92 690.587 189.552C690.587 189.184 690.707 188.88 690.947 188.64C691.203 188.384 691.507 188.256 691.859 188.256C692.211 188.256 692.515 188.384 692.771 188.64C693.027 188.88 693.155 189.184 693.155 189.552C693.155 189.92 693.027 190.232 692.771 190.488C692.515 190.744 692.211 190.872 691.859 190.872ZM691.859 201.096C691.507 201.096 691.203 200.968 690.947 200.712C690.707 200.456 690.587 200.144 690.587 199.776C690.587 199.408 690.707 199.104 690.947 198.864C691.203 198.608 691.507 198.48 691.859 198.48C692.211 198.48 692.515 198.608 692.771 198.864C693.027 199.104 693.155 199.408 693.155 199.776C693.155 200.144 693.027 200.456 692.771 200.712C692.515 200.968 692.211 201.096 691.859 201.096ZM708.051 201.12C706.803 201.12 705.603 200.92 704.451 200.52C703.315 200.12 702.435 199.592 701.811 198.936L702.507 197.568C703.115 198.176 703.923 198.672 704.931 199.056C705.939 199.424 706.979 199.608 708.051 199.608C709.555 199.608 710.683 199.336 711.435 198.792C712.187 198.232 712.563 197.512 712.563 196.632C712.563 195.96 712.355 195.424 711.939 195.024C711.539 194.624 711.043 194.32 710.451 194.112C709.859 193.888 709.035 193.648 707.979 193.392C706.715 193.072 705.707 192.768 704.955 192.48C704.203 192.176 703.555 191.72 703.011 191.112C702.483 190.504 702.219 189.68 702.219 188.64C702.219 187.792 702.443 187.024 702.891 186.336C703.339 185.632 704.027 185.072 704.955 184.656C705.883 184.24 707.035 184.032 708.411 184.032C709.371 184.032 710.307 184.168 711.219 184.44C712.147 184.696 712.947 185.056 713.619 185.52L713.019 186.936C712.315 186.472 711.563 186.128 710.763 185.904C709.963 185.664 709.179 185.544 708.411 185.544C706.939 185.544 705.827 185.832 705.075 186.408C704.339 186.968 703.971 187.696 703.971 188.592C703.971 189.264 704.171 189.808 704.571 190.224C704.987 190.624 705.499 190.936 706.107 191.16C706.731 191.368 707.563 191.6 708.603 191.856C709.835 192.16 710.827 192.464 711.579 192.768C712.347 193.056 712.995 193.504 713.523 194.112C714.051 194.704 714.315 195.512 714.315 196.536C714.315 197.384 714.083 198.16 713.619 198.864C713.171 199.552 712.475 200.104 711.531 200.52C710.587 200.92 709.427 201.12 708.051 201.12ZM721.376 201.096C720.24 201.096 719.36 200.776 718.736 200.136C718.128 199.496 717.824 198.608 717.824 197.472V183.168H719.528V197.328C719.528 198.08 719.704 198.656 720.056 199.056C720.408 199.44 720.936 199.632 721.64 199.632C722.088 199.632 722.472 199.56 722.792 199.416L722.912 200.832C722.416 201.008 721.904 201.096 721.376 201.096ZM730.396 199.584C731.18 199.584 731.9 199.448 732.556 199.176C733.228 198.888 733.796 198.472 734.26 197.928L735.22 199.032C734.66 199.704 733.964 200.216 733.132 200.568C732.3 200.92 731.38 201.096 730.372 201.096C729.076 201.096 727.924 200.824 726.916 200.28C725.908 199.72 725.124 198.952 724.564 197.976C724.004 197 723.724 195.896 723.724 194.664C723.724 193.432 723.988 192.328 724.516 191.352C725.06 190.376 725.804 189.616 726.748 189.072C727.692 188.528 728.764 188.256 729.964 188.256C731.084 188.256 732.092 188.512 732.988 189.024C733.9 189.536 734.62 190.248 735.148 191.16C735.692 192.072 735.98 193.112 736.012 194.28L725.644 196.296C725.964 197.32 726.54 198.128 727.372 198.72C728.22 199.296 729.228 199.584 730.396 199.584ZM729.964 189.72C729.084 189.72 728.292 189.928 727.588 190.344C726.9 190.744 726.356 191.312 725.956 192.048C725.572 192.768 725.38 193.6 725.38 194.544C725.38 194.784 725.388 194.96 725.404 195.072L734.308 193.344C734.116 192.288 733.628 191.424 732.844 190.752C732.06 190.064 731.1 189.72 729.964 189.72ZM744.88 199.584C745.664 199.584 746.384 199.448 747.04 199.176C747.712 198.888 748.28 198.472 748.744 197.928L749.704 199.032C749.144 199.704 748.448 200.216 747.616 200.568C746.784 200.92 745.864 201.096 744.856 201.096C743.56 201.096 742.408 200.824 741.4 200.28C740.392 199.72 739.608 198.952 739.048 197.976C738.488 197 738.208 195.896 738.208 194.664C738.208 193.432 738.472 192.328 739 191.352C739.544 190.376 740.288 189.616 741.232 189.072C742.176 188.528 743.248 188.256 744.448 188.256C745.568 188.256 746.576 188.512 747.472 189.024C748.384 189.536 749.104 190.248 749.632 191.16C750.176 192.072 750.464 193.112 750.496 194.28L740.128 196.296C740.448 197.32 741.024 198.128 741.856 198.72C742.704 199.296 743.712 199.584 744.88 199.584ZM744.448 189.72C743.568 189.72 742.776 189.928 742.072 190.344C741.384 190.744 740.84 191.312 740.44 192.048C740.056 192.768 739.864 193.6 739.864 194.544C739.864 194.784 739.872 194.96 739.888 195.072L748.792 193.344C748.6 192.288 748.112 191.424 747.328 190.752C746.544 190.064 745.584 189.72 744.448 189.72ZM760.469 188.256C761.653 188.256 762.725 188.528 763.685 189.072C764.645 189.6 765.397 190.352 765.941 191.328C766.485 192.304 766.757 193.416 766.757 194.664C766.757 195.928 766.485 197.048 765.941 198.024C765.397 199 764.645 199.76 763.685 200.304C762.741 200.832 761.669 201.096 760.469 201.096C759.445 201.096 758.517 200.888 757.685 200.472C756.869 200.04 756.197 199.416 755.669 198.6V205.632H753.965V188.352H755.597V190.848C756.109 190.016 756.781 189.376 757.613 188.928C758.461 188.48 759.413 188.256 760.469 188.256ZM760.349 199.584C761.229 199.584 762.029 199.384 762.749 198.984C763.469 198.568 764.029 197.984 764.429 197.232C764.845 196.48 765.053 195.624 765.053 194.664C765.053 193.704 764.845 192.856 764.429 192.12C764.029 191.368 763.469 190.784 762.749 190.368C762.029 189.952 761.229 189.744 760.349 189.744C759.453 189.744 758.645 189.952 757.925 190.368C757.221 190.784 756.661 191.368 756.245 192.12C755.845 192.856 755.645 193.704 755.645 194.664C755.645 195.624 755.845 196.48 756.245 197.232C756.661 197.984 757.221 198.568 757.925 198.984C758.645 199.384 759.453 199.584 760.349 199.584Z" fill="#FFDEEB"/>
<path d="M143.286 785.712C145.206 785.712 146.702 786.264 147.774 787.368C148.846 788.472 149.382 790.072 149.382 792.168V802.656H147.63V792.216C147.63 790.584 147.214 789.36 146.382 788.544C145.566 787.712 144.446 787.296 143.022 787.296C141.518 787.296 140.342 787.736 139.494 788.616C138.646 789.48 138.222 790.808 138.222 792.6V802.656H136.47V792.216C136.47 790.584 136.07 789.36 135.27 788.544C134.47 787.712 133.358 787.296 131.934 787.296C130.414 787.296 129.222 787.736 128.358 788.616C127.51 789.48 127.086 790.808 127.086 792.6V802.656H125.31V785.856H127.014V788.664C127.478 787.704 128.166 786.976 129.078 786.48C129.99 785.968 131.07 785.712 132.318 785.712C133.63 785.712 134.75 785.992 135.678 786.552C136.622 787.096 137.302 787.864 137.718 788.856C138.198 787.832 138.918 787.056 139.878 786.528C140.854 785.984 141.99 785.712 143.286 785.712ZM161.588 785.712C163.764 785.712 165.476 786.352 166.724 787.632C167.988 788.896 168.62 790.728 168.62 793.128V802.656H166.868V797.712H156.308V802.656H154.58V793.128C154.58 790.728 155.204 788.896 156.452 787.632C157.716 786.352 159.428 785.712 161.588 785.712ZM166.868 796.176V792.96C166.868 791.088 166.404 789.68 165.476 788.736C164.548 787.776 163.252 787.296 161.588 787.296C159.924 787.296 158.628 787.776 157.7 788.736C156.772 789.68 156.308 791.088 156.308 792.96V796.176H166.868ZM184.244 802.656L178.82 795.264L173.42 802.656H171.38L177.764 794.016L171.788 785.856H173.828L178.892 792.72L183.932 785.856H185.852L179.9 793.968L186.308 802.656H184.244Z" fill="#AEE7F4"/>
<path d="M139.678 814.656V831.456H137.95V816.192H133.99V814.656H139.678ZM148.926 814.512C151.15 814.512 152.854 815.248 154.038 816.72C155.222 818.176 155.814 820.24 155.814 822.912C155.814 824.784 155.494 826.368 154.854 827.664C154.214 828.96 153.318 829.944 152.166 830.616C151.014 831.272 149.67 831.6 148.134 831.6C146.47 831.6 145.142 831.296 144.15 830.688L144.846 829.296C145.646 829.824 146.734 830.088 148.11 830.088C149.966 830.088 151.422 829.504 152.478 828.336C153.534 827.152 154.062 825.44 154.062 823.2C154.062 822.784 154.038 822.328 153.99 821.832C153.574 822.744 152.91 823.456 151.998 823.968C151.086 824.464 150.038 824.712 148.854 824.712C147.75 824.712 146.766 824.504 145.902 824.088C145.054 823.672 144.39 823.088 143.91 822.336C143.43 821.568 143.19 820.68 143.19 819.672C143.19 818.648 143.438 817.744 143.934 816.96C144.43 816.176 145.11 815.576 145.974 815.16C146.854 814.728 147.838 814.512 148.926 814.512ZM149.118 823.248C149.966 823.248 150.71 823.088 151.35 822.768C152.006 822.448 152.518 822.008 152.886 821.448C153.254 820.888 153.438 820.264 153.438 819.576C153.438 818.936 153.262 818.344 152.91 817.8C152.574 817.256 152.07 816.816 151.398 816.48C150.726 816.144 149.926 815.976 148.998 815.976C147.782 815.976 146.79 816.312 146.022 816.984C145.27 817.64 144.894 818.52 144.894 819.624C144.894 820.728 145.27 821.608 146.022 822.264C146.79 822.92 147.822 823.248 149.118 823.248ZM159.357 831.576C159.005 831.576 158.701 831.448 158.445 831.192C158.205 830.936 158.085 830.624 158.085 830.256C158.085 829.888 158.205 829.584 158.445 829.344C158.701 829.088 159.005 828.96 159.357 828.96C159.709 828.96 160.013 829.088 160.269 829.344C160.525 829.584 160.653 829.888 160.653 830.256C160.653 830.624 160.525 830.936 160.269 831.192C160.013 831.448 159.709 831.576 159.357 831.576ZM167.563 821.544C169.995 821.544 171.763 821.984 172.867 822.864C173.987 823.728 174.547 824.944 174.547 826.512C174.547 827.488 174.315 828.36 173.851 829.128C173.403 829.896 172.723 830.504 171.811 830.952C170.899 831.384 169.779 831.6 168.451 831.6C167.251 831.6 166.107 831.408 165.019 831.024C163.947 830.624 163.083 830.096 162.427 829.44L163.267 828.072C163.827 828.648 164.563 829.12 165.475 829.488C166.387 829.84 167.371 830.016 168.427 830.016C169.819 830.016 170.891 829.704 171.643 829.08C172.411 828.456 172.795 827.624 172.795 826.584C172.795 825.432 172.363 824.56 171.499 823.968C170.651 823.376 169.211 823.08 167.179 823.08H163.603L164.467 814.656H173.659V816.192H165.979L165.403 821.544H167.563Z" fill="#AEE7F4"/>
<path d="M199.4 792.6H217.6" stroke="#AEE7F4" stroke-width="2.2753" stroke-miterlimit="10"/>
<path d="M75.5825 517.888C77.5025 517.888 78.9985 518.44 80.0705 519.544C81.1425 520.648 81.6785 522.248 81.6785 524.344V534.832H79.9265V524.392C79.9265 522.76 79.5105 521.536 78.6785 520.72C77.8625 519.888 76.7425 519.472 75.3185 519.472C73.8145 519.472 72.6385 519.912 71.7905 520.792C70.9425 521.656 70.5185 522.984 70.5185 524.776V534.832H68.7665V524.392C68.7665 522.76 68.3665 521.536 67.5665 520.72C66.7665 519.888 65.6545 519.472 64.2305 519.472C62.7105 519.472 61.5185 519.912 60.6545 520.792C59.8065 521.656 59.3825 522.984 59.3825 524.776V534.832H57.6065V518.032H59.3105V520.84C59.7745 519.88 60.4625 519.152 61.3745 518.656C62.2865 518.144 63.3665 517.888 64.6145 517.888C65.9265 517.888 67.0465 518.168 67.9745 518.728C68.9185 519.272 69.5985 520.04 70.0145 521.032C70.4945 520.008 71.2145 519.232 72.1745 518.704C73.1505 518.16 74.2865 517.888 75.5825 517.888ZM90.5005 519.568V533.296H93.9085V534.832H85.3405V533.296H88.7485V519.568H85.3405V518.032H93.9085V519.568H90.5005ZM105.1 517.888C107.116 517.888 108.692 518.488 109.828 519.688C110.98 520.888 111.556 522.6 111.556 524.824V534.832H109.78V524.872C109.78 523.096 109.34 521.752 108.46 520.84C107.58 519.928 106.348 519.472 104.764 519.472C103.1 519.472 101.804 519.96 100.876 520.936C99.948 521.896 99.484 523.344 99.484 525.28V534.832H97.708V518.032H99.412V520.864C100.484 518.88 102.38 517.888 105.1 517.888Z" fill="#AEE7F4"/>
<path d="M67.6745 546.832V563.632H65.9465V548.368H61.9865V546.832H67.6745ZM85.9704 559.216H82.6104V563.632H80.8824V559.216H71.4024V557.968L80.3064 546.832H82.2264L73.6344 557.68H80.9304V553.792H82.6104V557.68H85.9704V559.216ZM89.3223 563.752C88.9703 563.752 88.6663 563.624 88.4103 563.368C88.1703 563.112 88.0503 562.8 88.0503 562.432C88.0503 562.064 88.1703 561.76 88.4103 561.52C88.6663 561.264 88.9703 561.136 89.3223 561.136C89.6743 561.136 89.9783 561.264 90.2343 561.52C90.4903 561.76 90.6183 562.064 90.6183 562.432C90.6183 562.8 90.4903 563.112 90.2343 563.368C89.9783 563.624 89.6743 563.752 89.3223 563.752ZM99.5504 563.776C98.2544 563.776 97.0944 563.432 96.0704 562.744C95.0624 562.056 94.2704 561.072 93.6944 559.792C93.1344 558.496 92.8544 556.976 92.8544 555.232C92.8544 553.488 93.1344 551.976 93.6944 550.696C94.2704 549.4 95.0624 548.408 96.0704 547.72C97.0944 547.032 98.2544 546.688 99.5504 546.688C100.846 546.688 101.998 547.032 103.006 547.72C104.03 548.408 104.83 549.4 105.406 550.696C105.982 551.976 106.27 553.488 106.27 555.232C106.27 556.976 105.982 558.496 105.406 559.792C104.83 561.072 104.03 562.056 103.006 562.744C101.998 563.432 100.846 563.776 99.5504 563.776ZM99.5504 562.192C100.526 562.192 101.382 561.92 102.118 561.376C102.87 560.832 103.454 560.04 103.87 559C104.286 557.96 104.494 556.704 104.494 555.232C104.494 553.76 104.286 552.504 103.87 551.464C103.454 550.424 102.87 549.632 102.118 549.088C101.382 548.544 100.526 548.272 99.5504 548.272C98.5744 548.272 97.7104 548.544 96.9584 549.088C96.2224 549.632 95.6464 550.424 95.2304 551.464C94.8144 552.504 94.6064 553.76 94.6064 555.232C94.6064 556.704 94.8144 557.96 95.2304 559C95.6464 560.04 96.2224 560.832 96.9584 561.376C97.7104 561.92 98.5744 562.192 99.5504 562.192Z" fill="#AEE7F4"/>
<path d="M127.8 541H146.1" stroke="#AEE7F4" stroke-width="2.2753" stroke-miterlimit="10"/>
<path d="M783.118 222.972C785.038 222.972 786.534 223.524 787.606 224.628C788.678 225.732 789.214 227.332 789.214 229.428V239.916H787.462V229.476C787.462 227.844 787.046 226.62 786.214 225.804C785.398 224.972 784.278 224.556 782.854 224.556C781.35 224.556 780.174 224.996 779.326 225.876C778.478 226.74 778.054 228.068 778.054 229.86V239.916H776.302V229.476C776.302 227.844 775.902 226.62 775.102 225.804C774.302 224.972 773.19 224.556 771.766 224.556C770.246 224.556 769.054 224.996 768.19 225.876C767.342 226.74 766.918 228.068 766.918 229.86V239.916H765.142V223.116H766.846V225.924C767.31 224.964 767.998 224.236 768.91 223.74C769.822 223.228 770.902 222.972 772.15 222.972C773.462 222.972 774.582 223.252 775.51 223.812C776.454 224.356 777.134 225.124 777.55 226.116C778.03 225.092 778.75 224.316 779.71 223.788C780.686 223.244 781.822 222.972 783.118 222.972ZM801.42 222.972C803.596 222.972 805.308 223.612 806.556 224.892C807.82 226.156 808.452 227.988 808.452 230.388V239.916H806.7V234.972H796.14V239.916H794.412V230.388C794.412 227.988 795.036 226.156 796.284 224.892C797.548 223.612 799.26 222.972 801.42 222.972ZM806.7 233.436V230.22C806.7 228.348 806.236 226.94 805.308 225.996C804.38 225.036 803.084 224.556 801.42 224.556C799.756 224.556 798.46 225.036 797.532 225.996C796.604 226.94 796.14 228.348 796.14 230.22V233.436H806.7ZM824.077 239.916L818.653 232.524L813.253 239.916H811.213L817.597 231.276L811.621 223.116H813.661L818.725 229.98L823.765 223.116H825.685L819.733 231.228L826.141 239.916H824.077Z" fill="#FFDEEB"/>
<path d="M796.31 251.916V253.14L789.278 268.716H787.406L794.318 253.452H785.678V256.596H783.974V251.916H796.31ZM803.477 251.916V268.716H801.749V253.452H797.789V251.916H803.477Z" fill="#FFDEEB"/>
<path d="M748.4 265V283.2" stroke="#FFDEEB" stroke-width="2.2753" stroke-miterlimit="10"/>
<path d="M810.737 382.617L803.897 373.372L777.77 392.703L784.61 401.948L810.737 382.617Z" fill="#FFDEEB"/>
<path d="M587.067 840.433L597.295 839.215L595.237 821.936L585.009 823.155L587.067 840.433Z" fill="#FFDEEB"/>
<path d="M685.186 818.307L694.334 813.573L682.798 791.282L673.65 796.016L685.186 818.307Z" fill="#FFDEEB"/>
<path d="M771.737 764.215L778.757 756.679L756.66 736.094L749.64 743.631L771.737 764.215Z" fill="#FFDEEB"/>
<path d="M820.484 675.045L824.278 665.469L807.636 658.877L803.842 668.453L820.484 675.045Z" fill="#FFDEEB"/>
<path d="M853.24 580.757L853.83 570.474L827.273 568.95L826.683 579.234L853.24 580.757Z" fill="#FFDEEB"/>
<path d="M857.044 475.265L853.647 465.118L816.758 477.469L820.155 487.615L857.044 475.265Z" fill="#FFDEEB"/>
<path d="M641.683 266.196L630.708 263.501L624.126 290.306L635.1 293.001L641.683 266.196Z" fill="#FFDEEB"/>
<path d="M742.199 298.575L734.121 293.205L709.818 329.765L717.896 335.135L742.199 298.575Z" fill="#FFDEEB"/>
<path d="M490.529 845.178L504.005 847.65L509.633 816.961L496.158 814.49L490.529 845.178Z" fill="#AEE7F4"/>
<path d="M388.026 812.589L399.522 820.042L423.022 783.793L411.527 776.34L388.026 812.589Z" fill="#AEE7F4"/>
<path d="M271.73 771.333L279.552 781.464L352.054 725.487L344.231 715.356L271.73 771.333Z" fill="#AEE7F4"/>
<path d="M266.206 643.668L269.967 655.589L307.257 643.824L303.496 631.903L266.206 643.668Z" fill="#AEE7F4"/>
<path d="M273.21 540.077L272.744 552.368L290.532 553.042L290.998 540.751L273.21 540.077Z" fill="#AEE7F4"/>
<path d="M267.596 430.786L262.619 443.55L309.204 461.715L314.181 448.951L267.596 430.786Z" fill="#AEE7F4"/>
<path d="M344.283 352.6L334.321 363.546L353.698 381.181L363.66 370.235L344.283 352.6Z" fill="#AEE7F4"/>
<path d="M419.243 285.88L409.457 291.53L425.857 319.935L435.643 314.285L419.243 285.88Z" fill="#AEE7F4"/>
<path d="M515.64 245.57L504.501 247.474L511.224 286.803L522.363 284.899L515.64 245.57Z" fill="#AEE7F4"/>
</svg>
