<svg width="960" height="960" viewBox="0 0 960 960" fill="none" xmlns="http://www.w3.org/2000/svg">
<path d="M728.711 433.778L725.955 425.511L746.222 418.755L748.978 427.022L728.711 433.778ZM497.6 746.4C496.444 746.4 495.289 746.4 494.133 746.4L494.311 736.089C495.467 736.089 496.533 736.089 497.689 736.089V746.4H497.6ZM507.022 746.222L506.667 736C507.822 736 508.889 735.911 510.044 735.822L510.578 746.133C509.422 746.133 508.267 746.222 507.022 746.222ZM480.089 745.867C478.933 745.778 477.778 745.689 476.622 745.6L477.511 735.378C478.667 735.466 479.733 735.555 480.889 735.644L480.089 745.867ZM462.667 744C461.511 743.822 460.356 743.644 459.2 743.467L460.8 733.333C461.867 733.511 463.022 733.689 464.089 733.778L462.667 744ZM541.867 742.578L540.089 732.444C541.156 732.267 542.311 732.089 543.378 731.822L545.333 741.955C544.178 742.133 543.022 742.311 541.867 742.578ZM558.933 738.933L556.444 728.889C557.511 728.622 558.578 728.355 559.733 728.089L562.4 738.044C561.244 738.311 560.089 738.578 558.933 738.933ZM428.444 736.8C427.289 736.444 426.222 736.178 425.067 735.822L428 725.955C429.067 726.311 430.133 726.578 431.2 726.933L428.444 736.8ZM575.822 734.044L572.622 724.266C573.689 723.911 574.756 723.555 575.822 723.2L579.111 732.978C578.044 733.333 576.889 733.689 575.822 734.044ZM411.733 731.467C410.667 731.111 409.511 730.667 408.444 730.222L412.089 720.622C413.156 720.978 414.222 721.422 415.289 721.778L411.733 731.467ZM592.178 728.089L588.356 718.578C589.422 718.133 590.4 717.778 591.467 717.333L595.467 726.844C594.4 727.2 593.333 727.644 592.178 728.089ZM395.467 724.889C394.4 724.444 393.333 723.911 392.267 723.467L396.533 714.133C397.511 714.578 398.578 715.022 399.556 715.555L395.467 724.889ZM379.733 717.244C378.667 716.711 377.689 716.178 376.622 715.555L381.6 706.489C382.578 707.022 383.556 707.555 384.533 708.089L379.733 717.244ZM623.644 712.711L618.489 703.822C619.467 703.289 620.444 702.667 621.422 702.133L626.667 711.022C625.6 711.555 624.622 712.178 623.644 712.711ZM638.489 703.467L632.711 694.933C633.6 694.311 634.578 693.689 635.467 693.067L641.333 701.511C640.356 702.133 639.378 702.844 638.489 703.467ZM349.956 698.755C348.978 698.044 348.089 697.422 347.111 696.711L353.244 688.444C354.133 689.155 355.022 689.778 356 690.4L349.956 698.755ZM652.622 693.244L646.311 685.155C647.2 684.444 648.089 683.733 648.978 683.111L655.378 691.111C654.489 691.822 653.511 692.533 652.622 693.244ZM336.089 688C335.2 687.289 334.311 686.489 333.422 685.778L340.089 677.955C340.978 678.667 341.778 679.378 342.667 680.089L336.089 688ZM666.044 682.044L659.2 674.4C660 673.689 660.889 672.889 661.689 672.178L668.622 679.733C667.733 680.444 666.933 681.244 666.044 682.044ZM323.022 676.355C322.133 675.555 321.333 674.755 320.533 673.955L327.733 666.578C328.533 667.378 329.333 668.178 330.133 668.889L323.022 676.355ZM310.756 663.822C309.956 662.933 309.156 662.133 308.444 661.244L316.178 654.4C316.889 655.2 317.689 656.089 318.4 656.889L310.756 663.822ZM690.489 656.978L682.667 650.311C683.378 649.422 684.089 648.622 684.8 647.733L692.711 654.311C692 655.2 691.2 656.089 690.489 656.978ZM701.333 643.2L693.067 637.067C693.689 636.178 694.4 635.289 695.022 634.311L703.378 640.267C702.667 641.333 702.044 642.311 701.333 643.2ZM289.067 636.444C288.444 635.467 287.733 634.489 287.111 633.511L295.644 627.822C296.267 628.711 296.889 629.689 297.511 630.578L289.067 636.444ZM711.2 628.8L702.489 623.289C703.111 622.311 703.644 621.422 704.267 620.444L713.067 625.867C712.444 626.755 711.822 627.822 711.2 628.8ZM279.644 621.689C279.022 620.711 278.489 619.644 277.867 618.667L286.844 613.6C287.378 614.578 288 615.555 288.533 616.533L279.644 621.689ZM720.089 613.689L711.022 608.8C711.556 607.822 712.089 606.844 712.622 605.867L721.778 610.667C721.244 611.555 720.622 612.622 720.089 613.689ZM271.289 606.4C270.756 605.333 270.222 604.355 269.778 603.289L279.022 598.755C279.467 599.733 280 600.8 280.533 601.778L271.289 606.4ZM264 590.489C263.556 589.422 263.111 588.355 262.667 587.289L272.267 583.467C272.711 584.533 273.067 585.511 273.511 586.578L264 590.489ZM734.667 581.778L724.978 578.222C725.333 577.155 725.778 576.089 726.133 575.022L735.822 578.489C735.467 579.555 735.022 580.622 734.667 581.778ZM740.178 565.067L730.311 562.133C730.667 561.067 730.933 560 731.2 558.933L741.156 561.689C740.8 562.844 740.533 564 740.178 565.067ZM252.8 557.333C252.533 556.178 252.178 555.111 251.911 553.955L261.867 551.467C262.133 552.533 262.4 553.689 262.667 554.755L252.8 557.333ZM744.533 548.178L734.489 545.955C734.756 544.889 734.933 543.733 735.2 542.667L745.244 544.711C745.067 545.867 744.8 547.022 744.533 548.178ZM248.978 540.267C248.8 539.111 248.533 537.955 248.356 536.8L258.489 535.022C258.667 536.089 258.844 537.244 259.111 538.311L248.978 540.267ZM747.733 530.933L737.511 529.422C737.689 528.355 737.867 527.2 737.955 526.133L748.178 527.467C748.089 528.622 747.911 529.778 747.733 530.933ZM246.4 522.933C246.222 521.778 246.133 520.622 246.044 519.467L256.267 518.4C256.356 519.555 256.533 520.622 256.622 521.778L246.4 522.933ZM244.978 505.511C244.889 504.355 244.889 503.2 244.8 502.044L255.111 501.689C255.111 502.844 255.2 503.911 255.289 505.067L244.978 505.511ZM750.489 496.089L740.178 496V492.622L750.489 492.533V496.089ZM739.822 479.2C739.733 478.044 739.644 476.978 739.644 475.822L749.955 475.111C750.044 476.267 750.133 477.422 750.222 478.578L739.822 479.2ZM256 471.467L245.778 470.489C245.867 469.333 245.956 468.178 246.133 467.022L256.356 468.089C256.178 469.244 256.089 470.311 256 471.467ZM738.222 462.4C738.044 461.244 737.956 460.178 737.778 459.111L748 457.689C748.178 458.844 748.356 460 748.444 461.155L738.222 462.4ZM258.044 454.755L247.911 453.155C248.089 452 248.267 450.844 248.533 449.689L258.667 451.467C258.4 452.533 258.222 453.689 258.044 454.755ZM735.467 445.867C735.289 444.8 735.022 443.644 734.756 442.578L744.8 440.444C745.067 441.6 745.244 442.755 745.511 443.911L735.467 445.867ZM261.333 438.311L251.289 436C251.556 434.844 251.822 433.689 252.089 432.622L262.044 435.111C261.778 436.178 261.511 437.244 261.333 438.311ZM265.689 422.133L255.822 419.111C256.178 417.955 256.533 416.889 256.889 415.733L266.667 418.933C266.4 420 266.044 421.067 265.689 422.133ZM726.667 413.511C726.311 412.444 725.955 411.378 725.511 410.311L735.2 406.755C735.644 407.822 736 408.978 736.356 410.044L726.667 413.511ZM720.533 397.867C720.089 396.8 719.644 395.822 719.2 394.755L728.622 390.578C729.067 391.644 729.6 392.711 730.044 393.778L720.533 397.867ZM277.867 390.755L268.533 386.4C269.067 385.333 269.511 384.267 270.044 383.2L279.289 387.733C278.756 388.711 278.311 389.689 277.867 390.755ZM713.422 382.755C712.889 381.778 712.356 380.8 711.822 379.822L720.889 374.933C721.422 376 721.956 376.978 722.489 378.044L713.422 382.755ZM285.511 375.733L276.533 370.755C277.067 369.689 277.689 368.711 278.222 367.733L287.111 372.889C286.578 373.778 286.044 374.755 285.511 375.733ZM705.156 368.089C704.533 367.111 704 366.222 703.378 365.244L712.089 359.822C712.711 360.8 713.333 361.778 713.955 362.844L705.156 368.089ZM294.222 361.333L285.6 355.733C286.222 354.755 286.844 353.778 287.556 352.8L296.089 358.578C295.378 359.467 294.844 360.444 294.222 361.333ZM303.822 347.644L295.644 341.422C296.356 340.533 297.067 339.555 297.778 338.667L305.867 344.978C305.244 345.867 304.533 346.755 303.822 347.644ZM685.867 340.711C685.156 339.822 684.444 339.022 683.733 338.133L691.644 331.555C692.356 332.444 693.156 333.333 693.867 334.222L685.867 340.711ZM674.844 328C674.044 327.2 673.333 326.4 672.533 325.6L680 318.489C680.8 319.289 681.6 320.178 682.4 321.067L674.844 328ZM325.867 322.311L318.578 315.022C319.378 314.222 320.267 313.333 321.067 312.533L328.267 319.911C327.467 320.711 326.667 321.511 325.867 322.311ZM662.933 316.178C662.133 315.378 661.244 314.667 660.444 313.867L667.378 306.222C668.267 307.022 669.067 307.822 669.955 308.622L662.933 316.178ZM338.133 310.755L331.378 303.022C332.267 302.222 333.156 301.511 334.044 300.711L340.711 308.533C339.822 309.333 339.022 310.044 338.133 310.755ZM650.311 305.155C649.422 304.444 648.533 303.733 647.733 303.022L654.133 294.933C655.022 295.644 656 296.355 656.889 297.155L650.311 305.155ZM351.111 300.178L344.889 292C345.778 291.289 346.756 290.578 347.644 289.867L353.778 298.133C352.978 298.844 352 299.555 351.111 300.178ZM364.889 290.489L359.2 281.867C360.178 281.244 361.156 280.622 362.133 280L367.644 288.711C366.756 289.244 365.778 289.867 364.889 290.489ZM622.844 285.778C621.867 285.155 620.889 284.622 619.911 284.089L625.156 275.2C626.133 275.822 627.2 276.355 628.178 276.978L622.844 285.778ZM608.178 277.6C607.2 277.067 606.222 276.622 605.156 276.089L609.689 266.844C610.756 267.378 611.822 267.911 612.8 268.444L608.178 277.6ZM394.133 274.133L389.689 264.8C390.756 264.267 391.822 263.822 392.889 263.289L397.156 272.622C396.089 273.155 395.111 273.6 394.133 274.133ZM592.889 270.4C591.822 269.955 590.844 269.511 589.778 269.067L593.689 259.555C594.756 260 595.822 260.444 596.978 260.889L592.889 270.4ZM409.511 267.467L405.778 257.867C406.844 257.422 407.911 257.067 409.067 256.622L412.711 266.222C411.556 266.667 410.489 267.022 409.511 267.467ZM577.244 264.355C576.178 264 575.111 263.644 574.044 263.289L577.333 253.511C578.489 253.867 579.555 254.222 580.622 254.667L577.244 264.355ZM425.333 261.867L422.222 252C423.378 251.644 424.444 251.289 425.6 250.933L428.533 260.8C427.467 261.244 426.4 261.511 425.333 261.867ZM441.511 257.422L439.111 247.378C440.267 247.111 441.422 246.844 442.489 246.578L444.711 256.622C443.644 256.889 442.578 257.155 441.511 257.422ZM544.8 255.555C543.733 255.378 542.578 255.111 541.511 254.933L543.378 244.8C544.533 244.978 545.689 245.244 546.844 245.422L544.8 255.555ZM528.267 252.8C527.2 252.622 526.044 252.533 524.978 252.444L526.133 242.222C527.289 242.311 528.444 242.489 529.6 242.667L528.267 252.8ZM474.578 252L473.6 241.778C474.756 241.689 475.911 241.6 477.067 241.511L477.867 251.733C476.889 251.733 475.733 251.911 474.578 252ZM511.556 251.289C510.4 251.2 509.333 251.2 508.178 251.111L508.622 240.8C509.778 240.889 510.933 240.889 512.089 240.978L511.556 251.289ZM491.378 250.933L491.111 240.622C492.267 240.622 493.422 240.533 494.578 240.533L494.667 250.844C493.6 250.933 492.533 250.933 491.378 250.933Z" fill="#D8CEE2"/>
<path d="M497.333 870.222C289.244 870.222 120.533 701.511 120.533 493.422C120.533 285.333 289.244 116.622 497.333 116.622" stroke="#AEE7F4" stroke-width="2.2806" stroke-miterlimit="10"/>
<path d="M497.778 115.645V148.089" stroke="#AEE7F4" stroke-width="1.3377" stroke-miterlimit="10"/>
<path d="M497.6 838.756V871.2" stroke="#AEE7F4" stroke-width="1.3377" stroke-miterlimit="10"/>
<path d="M497.333 193.511C663.644 193.511 798.489 328.355 798.489 494.666C798.489 660.977 663.644 795.822 497.333 795.822" stroke="#FFDEEB" stroke-width="2.2806" stroke-miterlimit="10"/>
<path d="M497.6 192.533V224.978" stroke="#FFDEEB" stroke-width="1.3377" stroke-miterlimit="10"/>
<path d="M497.6 764.444V796.889" stroke="#FFDEEB" stroke-width="1.3377" stroke-miterlimit="10"/>
<path d="M830.897 605.526C832.817 605.526 834.313 606.078 835.385 607.182C836.457 608.286 836.993 609.886 836.993 611.982V622.47H835.241V612.03C835.241 610.398 834.825 609.174 833.993 608.358C833.177 607.526 832.057 607.11 830.633 607.11C829.129 607.11 827.953 607.55 827.105 608.43C826.257 609.294 825.833 610.622 825.833 612.414V622.47H824.081V612.03C824.081 610.398 823.681 609.174 822.881 608.358C822.081 607.526 820.969 607.11 819.545 607.11C818.025 607.11 816.833 607.55 815.969 608.43C815.121 609.294 814.697 610.622 814.697 612.414V622.47H812.921V605.67H814.625V608.478C815.089 607.518 815.777 606.79 816.689 606.294C817.601 605.782 818.681 605.526 819.929 605.526C821.241 605.526 822.361 605.806 823.289 606.366C824.233 606.91 824.913 607.678 825.329 608.67C825.809 607.646 826.529 606.87 827.489 606.342C828.465 605.798 829.601 605.526 830.897 605.526ZM845.815 607.206V620.934H849.223V622.47H840.655V620.934H844.063V607.206H840.655V605.67H849.223V607.206H845.815ZM860.415 605.526C862.431 605.526 864.007 606.126 865.143 607.326C866.295 608.526 866.871 610.238 866.871 612.462V622.47H865.095V612.51C865.095 610.734 864.655 609.39 863.775 608.478C862.895 607.566 861.663 607.11 860.079 607.11C858.415 607.11 857.119 607.598 856.191 608.574C855.263 609.534 854.799 610.982 854.799 612.918V622.47H853.023V605.67H854.727V608.502C855.799 606.518 857.695 605.526 860.415 605.526Z" fill="#FFDEEB"/>
<path d="M830.071 638.157C832.503 638.157 834.271 638.597 835.375 639.477C836.495 640.341 837.055 641.557 837.055 643.125C837.055 644.101 836.823 644.973 836.359 645.741C835.911 646.509 835.231 647.117 834.319 647.565C833.407 647.997 832.287 648.213 830.959 648.213C829.759 648.213 828.615 648.021 827.527 647.637C826.455 647.237 825.591 646.709 824.935 646.053L825.775 644.685C826.335 645.261 827.071 645.733 827.983 646.101C828.895 646.453 829.879 646.629 830.935 646.629C832.327 646.629 833.399 646.317 834.151 645.693C834.919 645.069 835.303 644.237 835.303 643.197C835.303 642.045 834.871 641.173 834.007 640.581C833.159 639.989 831.719 639.693 829.687 639.693H826.111L826.975 631.269H836.167V632.805H828.487L827.911 638.157H830.071ZM850.604 646.533V648.069H838.82V646.845L845.804 640.005C846.684 639.141 847.276 638.397 847.58 637.773C847.9 637.133 848.06 636.493 848.06 635.853C848.06 634.861 847.716 634.093 847.028 633.549C846.356 632.989 845.388 632.709 844.124 632.709C842.156 632.709 840.628 633.333 839.54 634.581L838.316 633.525C838.972 632.757 839.804 632.165 840.812 631.749C841.836 631.333 842.988 631.125 844.268 631.125C845.98 631.125 847.332 631.533 848.324 632.349C849.332 633.149 849.836 634.253 849.836 635.661C849.836 636.525 849.644 637.357 849.26 638.157C848.876 638.957 848.148 639.877 847.076 640.917L841.364 646.533H850.604Z" fill="#FFDEEB"/>
<path d="M795.378 413.423H779.2" stroke="#FFDEEB" stroke-width="2.2806" stroke-miterlimit="10"/>
<path d="M262.675 98.1064L258.835 92.7064C258.403 92.7544 257.955 92.7784 257.491 92.7784H252.979V98.1064H251.203V81.3064H257.491C259.635 81.3064 261.315 81.8184 262.531 82.8424C263.747 83.8664 264.355 85.2744 264.355 87.0664C264.355 88.3784 264.019 89.4904 263.347 90.4024C262.691 91.2984 261.747 91.9464 260.515 92.3464L264.619 98.1064H262.675ZM257.443 91.2664C259.107 91.2664 260.379 90.8984 261.259 90.1624C262.139 89.4264 262.579 88.3944 262.579 87.0664C262.579 85.7064 262.139 84.6664 261.259 83.9464C260.379 83.2104 259.107 82.8424 257.443 82.8424H252.979V91.2664H257.443ZM273.587 96.7144C274.371 96.7144 275.091 96.5784 275.747 96.3064C276.419 96.0184 276.987 95.6024 277.451 95.0584L278.411 96.1624C277.851 96.8344 277.155 97.3464 276.323 97.6984C275.491 98.0504 274.571 98.2264 273.563 98.2264C272.267 98.2264 271.115 97.9544 270.107 97.4104C269.099 96.8504 268.315 96.0824 267.755 95.1064C267.195 94.1304 266.915 93.0264 266.915 91.7944C266.915 90.5624 267.179 89.4584 267.707 88.4824C268.251 87.5064 268.995 86.7464 269.939 86.2024C270.883 85.6584 271.955 85.3864 273.155 85.3864C274.275 85.3864 275.283 85.6424 276.179 86.1544C277.091 86.6664 277.811 87.3784 278.339 88.2904C278.883 89.2024 279.171 90.2424 279.203 91.4104L268.835 93.4264C269.155 94.4504 269.731 95.2584 270.563 95.8504C271.411 96.4264 272.419 96.7144 273.587 96.7144ZM273.155 86.8504C272.275 86.8504 271.483 87.0584 270.779 87.4744C270.091 87.8744 269.547 88.4424 269.147 89.1784C268.763 89.8984 268.571 90.7304 268.571 91.6744C268.571 91.9144 268.579 92.0904 268.595 92.2024L277.499 90.4744C277.307 89.4184 276.819 88.5544 276.035 87.8824C275.251 87.1944 274.291 86.8504 273.155 86.8504ZM286.056 98.2264C285.032 98.2264 284.048 98.0824 283.104 97.7944C282.176 97.4904 281.448 97.1144 280.92 96.6664L281.688 95.3224C282.216 95.7384 282.88 96.0824 283.68 96.3544C284.48 96.6104 285.312 96.7384 286.176 96.7384C287.328 96.7384 288.176 96.5624 288.72 96.2104C289.28 95.8424 289.56 95.3304 289.56 94.6744C289.56 94.2104 289.408 93.8504 289.104 93.5944C288.8 93.3224 288.416 93.1224 287.952 92.9944C287.488 92.8504 286.872 92.7144 286.104 92.5864C285.08 92.3944 284.256 92.2024 283.632 92.0104C283.008 91.8024 282.472 91.4584 282.024 90.9784C281.592 90.4984 281.376 89.8344 281.376 88.9864C281.376 87.9304 281.816 87.0664 282.696 86.3944C283.576 85.7224 284.8 85.3864 286.368 85.3864C287.184 85.3864 288 85.4984 288.816 85.7224C289.632 85.9304 290.304 86.2104 290.832 86.5624L290.088 87.9304C289.048 87.2104 287.808 86.8504 286.368 86.8504C285.28 86.8504 284.456 87.0424 283.896 87.4264C283.352 87.8104 283.08 88.3144 283.08 88.9384C283.08 89.4184 283.232 89.8024 283.536 90.0904C283.856 90.3784 284.248 90.5944 284.712 90.7384C285.176 90.8664 285.816 91.0024 286.632 91.1464C287.64 91.3384 288.448 91.5304 289.056 91.7224C289.664 91.9144 290.184 92.2424 290.616 92.7064C291.048 93.1704 291.264 93.8104 291.264 94.6264C291.264 95.7304 290.8 96.6104 289.872 97.2664C288.96 97.9064 287.688 98.2264 286.056 98.2264ZM300.918 85.3864C302.102 85.3864 303.174 85.6584 304.134 86.2024C305.094 86.7304 305.846 87.4824 306.39 88.4584C306.934 89.4344 307.206 90.5464 307.206 91.7944C307.206 93.0584 306.934 94.1784 306.39 95.1544C305.846 96.1304 305.094 96.8904 304.134 97.4344C303.19 97.9624 302.118 98.2264 300.918 98.2264C299.894 98.2264 298.966 98.0184 298.134 97.6024C297.318 97.1704 296.646 96.5464 296.118 95.7304V102.762H294.414V85.4824H296.046V87.9784C296.558 87.1464 297.23 86.5064 298.062 86.0584C298.91 85.6104 299.862 85.3864 300.918 85.3864ZM300.798 96.7144C301.678 96.7144 302.478 96.5144 303.198 96.1144C303.918 95.6984 304.478 95.1144 304.878 94.3624C305.294 93.6104 305.502 92.7544 305.502 91.7944C305.502 90.8344 305.294 89.9864 304.878 89.2504C304.478 88.4984 303.918 87.9144 303.198 87.4984C302.478 87.0824 301.678 86.8744 300.798 86.8744C299.902 86.8744 299.094 87.0824 298.374 87.4984C297.67 87.9144 297.11 88.4984 296.694 89.2504C296.294 89.9864 296.094 90.8344 296.094 91.7944C296.094 92.7544 296.294 93.6104 296.694 94.3624C297.11 95.1144 297.67 95.6984 298.374 96.1144C299.094 96.5144 299.902 96.7144 300.798 96.7144ZM310.679 85.4824H312.383V98.1064H310.679V85.4824ZM311.543 82.7224C311.191 82.7224 310.895 82.6024 310.655 82.3624C310.415 82.1224 310.295 81.8344 310.295 81.4984C310.295 81.1784 310.415 80.8984 310.655 80.6584C310.895 80.4184 311.191 80.2984 311.543 80.2984C311.895 80.2984 312.191 80.4184 312.431 80.6584C312.671 80.8824 312.791 81.1544 312.791 81.4744C312.791 81.8264 312.671 82.1224 312.431 82.3624C312.191 82.6024 311.895 82.7224 311.543 82.7224ZM318.757 87.9544C319.157 87.1064 319.749 86.4664 320.533 86.0344C321.333 85.6024 322.317 85.3864 323.485 85.3864V87.0424L323.077 87.0184C321.749 87.0184 320.709 87.4264 319.957 88.2424C319.205 89.0584 318.829 90.2024 318.829 91.6744V98.1064H317.125V85.4824H318.757V87.9544ZM337.973 85.4824V98.1064H336.341V95.6104C335.829 96.4584 335.149 97.1064 334.301 97.5544C333.469 98.0024 332.525 98.2264 331.469 98.2264C330.285 98.2264 329.213 97.9544 328.253 97.4104C327.293 96.8664 326.541 96.1064 325.997 95.1304C325.453 94.1544 325.181 93.0424 325.181 91.7944C325.181 90.5464 325.453 89.4344 325.997 88.4584C326.541 87.4824 327.293 86.7304 328.253 86.2024C329.213 85.6584 330.285 85.3864 331.469 85.3864C332.493 85.3864 333.413 85.6024 334.229 86.0344C335.061 86.4504 335.741 87.0664 336.269 87.8824V85.4824H337.973ZM331.613 96.7144C332.493 96.7144 333.285 96.5144 333.989 96.1144C334.709 95.6984 335.269 95.1144 335.669 94.3624C336.085 93.6104 336.293 92.7544 336.293 91.7944C336.293 90.8344 336.085 89.9784 335.669 89.2264C335.269 88.4744 334.709 87.8984 333.989 87.4984C333.285 87.0824 332.493 86.8744 331.613 86.8744C330.717 86.8744 329.909 87.0824 329.189 87.4984C328.485 87.8984 327.925 88.4744 327.509 89.2264C327.109 89.9784 326.909 90.8344 326.909 91.7944C326.909 92.7544 327.109 93.6104 327.509 94.3624C327.925 95.1144 328.485 95.6984 329.189 96.1144C329.909 96.5144 330.717 96.7144 331.613 96.7144ZM348.934 97.3384C348.614 97.6264 348.222 97.8504 347.758 98.0104C347.294 98.1544 346.806 98.2264 346.294 98.2264C345.11 98.2264 344.198 97.9064 343.558 97.2664C342.918 96.6264 342.598 95.7224 342.598 94.5544V82.7224H344.302V85.4824H348.118V86.9224H344.302V94.4584C344.302 95.2104 344.486 95.7864 344.854 96.1864C345.222 96.5704 345.758 96.7624 346.462 96.7624C347.23 96.7624 347.854 96.5464 348.334 96.1144L348.934 97.3384ZM356.738 98.2264C355.522 98.2264 354.426 97.9544 353.45 97.4104C352.474 96.8504 351.706 96.0824 351.146 95.1064C350.586 94.1304 350.306 93.0264 350.306 91.7944C350.306 90.5624 350.586 89.4584 351.146 88.4824C351.706 87.5064 352.474 86.7464 353.45 86.2024C354.426 85.6584 355.522 85.3864 356.738 85.3864C357.954 85.3864 359.05 85.6584 360.026 86.2024C361.002 86.7464 361.762 87.5064 362.306 88.4824C362.866 89.4584 363.146 90.5624 363.146 91.7944C363.146 93.0264 362.866 94.1304 362.306 95.1064C361.762 96.0824 361.002 96.8504 360.026 97.4104C359.05 97.9544 357.954 98.2264 356.738 98.2264ZM356.738 96.7144C357.634 96.7144 358.434 96.5144 359.138 96.1144C359.858 95.6984 360.418 95.1144 360.818 94.3624C361.218 93.6104 361.418 92.7544 361.418 91.7944C361.418 90.8344 361.218 89.9784 360.818 89.2264C360.418 88.4744 359.858 87.8984 359.138 87.4984C358.434 87.0824 357.634 86.8744 356.738 86.8744C355.842 86.8744 355.034 87.0824 354.314 87.4984C353.61 87.8984 353.05 88.4744 352.634 89.2264C352.234 89.9784 352.034 90.8344 352.034 91.7944C352.034 92.7544 352.234 93.6104 352.634 94.3624C353.05 95.1144 353.61 95.6984 354.314 96.1144C355.034 96.5144 355.842 96.7144 356.738 96.7144ZM368.257 87.9544C368.657 87.1064 369.249 86.4664 370.033 86.0344C370.833 85.6024 371.817 85.3864 372.985 85.3864V87.0424L372.577 87.0184C371.249 87.0184 370.209 87.4264 369.457 88.2424C368.705 89.0584 368.329 90.2024 368.329 91.6744V98.1064H366.625V85.4824H368.257V87.9544ZM387.633 85.4824V96.5704C387.633 98.7144 387.145 100.298 386.169 101.322C385.193 102.362 383.721 102.882 381.753 102.882C380.649 102.882 379.601 102.706 378.609 102.354C377.633 102.018 376.841 101.546 376.233 100.938L377.097 99.6424C377.641 100.186 378.313 100.61 379.113 100.914C379.913 101.218 380.769 101.37 381.681 101.37C383.137 101.37 384.209 100.994 384.897 100.242C385.585 99.5064 385.929 98.3544 385.929 96.7864V95.3224C385.481 96.0584 384.865 96.6264 384.081 97.0264C383.313 97.4264 382.441 97.6264 381.465 97.6264C379.817 97.6264 378.513 97.1704 377.553 96.2584C376.609 95.3304 376.137 93.9784 376.137 92.2024V85.4824H377.841V92.0344C377.841 93.3624 378.169 94.3704 378.825 95.0584C379.481 95.7464 380.417 96.0904 381.633 96.0904C382.961 96.0904 384.009 95.6904 384.777 94.8904C385.545 94.0744 385.929 92.9464 385.929 91.5064V85.4824H387.633ZM410.519 98.1064L406.679 92.7064C406.247 92.7544 405.799 92.7784 405.335 92.7784H400.823V98.1064H399.047V81.3064H405.335C407.479 81.3064 409.159 81.8184 410.375 82.8424C411.591 83.8664 412.199 85.2744 412.199 87.0664C412.199 88.3784 411.863 89.4904 411.191 90.4024C410.535 91.2984 409.591 91.9464 408.359 92.3464L412.463 98.1064H410.519ZM405.287 91.2664C406.951 91.2664 408.223 90.8984 409.103 90.1624C409.983 89.4264 410.423 88.3944 410.423 87.0664C410.423 85.7064 409.983 84.6664 409.103 83.9464C408.223 83.2104 406.951 82.8424 405.287 82.8424H400.823V91.2664H405.287ZM427.551 85.4824V98.1064H425.919V95.6104C425.407 96.4584 424.727 97.1064 423.879 97.5544C423.047 98.0024 422.103 98.2264 421.047 98.2264C419.863 98.2264 418.791 97.9544 417.831 97.4104C416.871 96.8664 416.119 96.1064 415.575 95.1304C415.031 94.1544 414.759 93.0424 414.759 91.7944C414.759 90.5464 415.031 89.4344 415.575 88.4584C416.119 87.4824 416.871 86.7304 417.831 86.2024C418.791 85.6584 419.863 85.3864 421.047 85.3864C422.071 85.3864 422.991 85.6024 423.807 86.0344C424.639 86.4504 425.319 87.0664 425.847 87.8824V85.4824H427.551ZM421.191 96.7144C422.071 96.7144 422.863 96.5144 423.567 96.1144C424.287 95.6984 424.847 95.1144 425.247 94.3624C425.663 93.6104 425.871 92.7544 425.871 91.7944C425.871 90.8344 425.663 89.9784 425.247 89.2264C424.847 88.4744 424.287 87.8984 423.567 87.4984C422.863 87.0824 422.071 86.8744 421.191 86.8744C420.295 86.8744 419.487 87.0824 418.767 87.4984C418.063 87.8984 417.503 88.4744 417.087 89.2264C416.687 89.9784 416.487 90.8344 416.487 91.7944C416.487 92.7544 416.687 93.6104 417.087 94.3624C417.503 95.1144 418.063 95.6984 418.767 96.1144C419.487 96.5144 420.295 96.7144 421.191 96.7144ZM438.513 97.3384C438.193 97.6264 437.801 97.8504 437.337 98.0104C436.873 98.1544 436.385 98.2264 435.873 98.2264C434.689 98.2264 433.777 97.9064 433.137 97.2664C432.497 96.6264 432.177 95.7224 432.177 94.5544V82.7224H433.881V85.4824H437.697V86.9224H433.881V94.4584C433.881 95.2104 434.065 95.7864 434.433 96.1864C434.801 96.5704 435.337 96.7624 436.041 96.7624C436.809 96.7624 437.433 96.5464 437.913 96.1144L438.513 97.3384ZM446.556 96.7144C447.34 96.7144 448.06 96.5784 448.716 96.3064C449.388 96.0184 449.956 95.6024 450.42 95.0584L451.38 96.1624C450.82 96.8344 450.124 97.3464 449.292 97.6984C448.46 98.0504 447.54 98.2264 446.532 98.2264C445.236 98.2264 444.084 97.9544 443.076 97.4104C442.068 96.8504 441.284 96.0824 440.724 95.1064C440.164 94.1304 439.884 93.0264 439.884 91.7944C439.884 90.5624 440.148 89.4584 440.676 88.4824C441.22 87.5064 441.964 86.7464 442.908 86.2024C443.852 85.6584 444.924 85.3864 446.124 85.3864C447.244 85.3864 448.252 85.6424 449.148 86.1544C450.06 86.6664 450.78 87.3784 451.308 88.2904C451.852 89.2024 452.14 90.2424 452.172 91.4104L441.804 93.4264C442.124 94.4504 442.7 95.2584 443.532 95.8504C444.38 96.4264 445.388 96.7144 446.556 96.7144ZM446.124 86.8504C445.244 86.8504 444.452 87.0584 443.748 87.4744C443.06 87.8744 442.516 88.4424 442.116 89.1784C441.732 89.8984 441.54 90.7304 441.54 91.6744C441.54 91.9144 441.548 92.0904 441.564 92.2024L450.468 90.4744C450.276 89.4184 449.788 88.5544 449.004 87.8824C448.22 87.1944 447.26 86.8504 446.124 86.8504ZM455.808 88.0024C455.456 88.0024 455.152 87.8744 454.896 87.6184C454.656 87.3624 454.536 87.0504 454.536 86.6824C454.536 86.3144 454.656 86.0104 454.896 85.7704C455.152 85.5144 455.456 85.3864 455.808 85.3864C456.16 85.3864 456.464 85.5144 456.72 85.7704C456.976 86.0104 457.104 86.3144 457.104 86.6824C457.104 87.0504 456.976 87.3624 456.72 87.6184C456.464 87.8744 456.16 88.0024 455.808 88.0024ZM455.808 98.2264C455.456 98.2264 455.152 98.0984 454.896 97.8424C454.656 97.5864 454.536 97.2744 454.536 96.9064C454.536 96.5384 454.656 96.2344 454.896 95.9944C455.152 95.7384 455.456 95.6104 455.808 95.6104C456.16 95.6104 456.464 95.7384 456.72 95.9944C456.976 96.2344 457.104 96.5384 457.104 96.9064C457.104 97.2744 456.976 97.5864 456.72 97.8424C456.464 98.0984 456.16 98.2264 455.808 98.2264ZM471.999 98.2504C470.751 98.2504 469.551 98.0504 468.399 97.6504C467.263 97.2504 466.383 96.7224 465.759 96.0664L466.455 94.6984C467.063 95.3064 467.871 95.8024 468.879 96.1864C469.887 96.5544 470.927 96.7384 471.999 96.7384C473.503 96.7384 474.631 96.4664 475.383 95.9224C476.135 95.3624 476.511 94.6424 476.511 93.7624C476.511 93.0904 476.303 92.5544 475.887 92.1544C475.487 91.7544 474.991 91.4504 474.399 91.2424C473.807 91.0184 472.983 90.7784 471.927 90.5224C470.663 90.2024 469.655 89.8984 468.903 89.6104C468.151 89.3064 467.503 88.8504 466.959 88.2424C466.431 87.6344 466.167 86.8104 466.167 85.7704C466.167 84.9224 466.391 84.1544 466.839 83.4664C467.287 82.7624 467.975 82.2024 468.903 81.7864C469.831 81.3704 470.983 81.1624 472.359 81.1624C473.319 81.1624 474.255 81.2984 475.167 81.5704C476.095 81.8264 476.895 82.1864 477.567 82.6504L476.967 84.0664C476.263 83.6024 475.511 83.2584 474.711 83.0344C473.911 82.7944 473.127 82.6744 472.359 82.6744C470.887 82.6744 469.775 82.9624 469.023 83.5384C468.287 84.0984 467.919 84.8264 467.919 85.7224C467.919 86.3944 468.119 86.9384 468.519 87.3544C468.935 87.7544 469.447 88.0664 470.055 88.2904C470.679 88.4984 471.511 88.7304 472.551 88.9864C473.783 89.2904 474.775 89.5944 475.527 89.8984C476.295 90.1864 476.943 90.6344 477.471 91.2424C477.999 91.8344 478.263 92.6424 478.263 93.6664C478.263 94.5144 478.031 95.2904 477.567 95.9944C477.119 96.6824 476.423 97.2344 475.479 97.6504C474.535 98.0504 473.375 98.2504 471.999 98.2504ZM485.325 98.2264C484.189 98.2264 483.309 97.9064 482.685 97.2664C482.077 96.6264 481.773 95.7384 481.773 94.6024V80.2984H483.477V94.4584C483.477 95.2104 483.653 95.7864 484.005 96.1864C484.357 96.5704 484.885 96.7624 485.589 96.7624C486.037 96.7624 486.421 96.6904 486.741 96.5464L486.861 97.9624C486.365 98.1384 485.853 98.2264 485.325 98.2264ZM494.345 96.7144C495.129 96.7144 495.849 96.5784 496.505 96.3064C497.177 96.0184 497.745 95.6024 498.209 95.0584L499.169 96.1624C498.609 96.8344 497.913 97.3464 497.081 97.6984C496.249 98.0504 495.329 98.2264 494.321 98.2264C493.025 98.2264 491.873 97.9544 490.865 97.4104C489.857 96.8504 489.073 96.0824 488.513 95.1064C487.953 94.1304 487.673 93.0264 487.673 91.7944C487.673 90.5624 487.937 89.4584 488.465 88.4824C489.009 87.5064 489.753 86.7464 490.697 86.2024C491.641 85.6584 492.713 85.3864 493.913 85.3864C495.033 85.3864 496.041 85.6424 496.937 86.1544C497.849 86.6664 498.569 87.3784 499.097 88.2904C499.641 89.2024 499.929 90.2424 499.961 91.4104L489.593 93.4264C489.913 94.4504 490.489 95.2584 491.321 95.8504C492.169 96.4264 493.177 96.7144 494.345 96.7144ZM493.913 86.8504C493.033 86.8504 492.241 87.0584 491.537 87.4744C490.849 87.8744 490.305 88.4424 489.905 89.1784C489.521 89.8984 489.329 90.7304 489.329 91.6744C489.329 91.9144 489.337 92.0904 489.353 92.2024L498.257 90.4744C498.065 89.4184 497.577 88.5544 496.793 87.8824C496.009 87.1944 495.049 86.8504 493.913 86.8504ZM508.829 96.7144C509.613 96.7144 510.333 96.5784 510.989 96.3064C511.661 96.0184 512.229 95.6024 512.693 95.0584L513.653 96.1624C513.093 96.8344 512.397 97.3464 511.565 97.6984C510.733 98.0504 509.813 98.2264 508.805 98.2264C507.509 98.2264 506.357 97.9544 505.349 97.4104C504.341 96.8504 503.557 96.0824 502.997 95.1064C502.437 94.1304 502.157 93.0264 502.157 91.7944C502.157 90.5624 502.421 89.4584 502.949 88.4824C503.493 87.5064 504.237 86.7464 505.181 86.2024C506.125 85.6584 507.197 85.3864 508.397 85.3864C509.517 85.3864 510.525 85.6424 511.421 86.1544C512.333 86.6664 513.053 87.3784 513.581 88.2904C514.125 89.2024 514.413 90.2424 514.445 91.4104L504.077 93.4264C504.397 94.4504 504.973 95.2584 505.805 95.8504C506.653 96.4264 507.661 96.7144 508.829 96.7144ZM508.397 86.8504C507.517 86.8504 506.725 87.0584 506.021 87.4744C505.333 87.8744 504.789 88.4424 504.389 89.1784C504.005 89.8984 503.813 90.7304 503.813 91.6744C503.813 91.9144 503.821 92.0904 503.837 92.2024L512.741 90.4744C512.549 89.4184 512.061 88.5544 511.277 87.8824C510.493 87.1944 509.533 86.8504 508.397 86.8504ZM524.418 85.3864C525.602 85.3864 526.674 85.6584 527.634 86.2024C528.594 86.7304 529.346 87.4824 529.89 88.4584C530.434 89.4344 530.706 90.5464 530.706 91.7944C530.706 93.0584 530.434 94.1784 529.89 95.1544C529.346 96.1304 528.594 96.8904 527.634 97.4344C526.69 97.9624 525.618 98.2264 524.418 98.2264C523.394 98.2264 522.466 98.0184 521.634 97.6024C520.818 97.1704 520.146 96.5464 519.618 95.7304V102.762H517.914V85.4824H519.546V87.9784C520.058 87.1464 520.73 86.5064 521.562 86.0584C522.41 85.6104 523.362 85.3864 524.418 85.3864ZM524.298 96.7144C525.178 96.7144 525.978 96.5144 526.698 96.1144C527.418 95.6984 527.978 95.1144 528.378 94.3624C528.794 93.6104 529.002 92.7544 529.002 91.7944C529.002 90.8344 528.794 89.9864 528.378 89.2504C527.978 88.4984 527.418 87.9144 526.698 87.4984C525.978 87.0824 525.178 86.8744 524.298 86.8744C523.402 86.8744 522.594 87.0824 521.874 87.4984C521.17 87.9144 520.61 88.4984 520.194 89.2504C519.794 89.9864 519.594 90.8344 519.594 91.7944C519.594 92.7544 519.794 93.6104 520.194 94.3624C520.61 95.1144 521.17 95.6984 521.874 96.1144C522.594 96.5144 523.402 96.7144 524.298 96.7144Z" fill="#AEE7F4"/>
<path d="M512.035 165.029V181.829H510.283V174.077H499.771V181.829H497.995V165.029H499.771V172.517H510.283V165.029H512.035ZM522.558 180.437C523.342 180.437 524.062 180.301 524.718 180.029C525.39 179.741 525.958 179.325 526.422 178.781L527.382 179.885C526.822 180.557 526.126 181.069 525.294 181.421C524.462 181.773 523.542 181.949 522.534 181.949C521.238 181.949 520.086 181.677 519.078 181.133C518.07 180.573 517.286 179.805 516.726 178.829C516.166 177.853 515.886 176.749 515.886 175.517C515.886 174.285 516.15 173.181 516.678 172.205C517.222 171.229 517.966 170.469 518.91 169.925C519.854 169.381 520.926 169.109 522.126 169.109C523.246 169.109 524.254 169.365 525.15 169.877C526.062 170.389 526.782 171.101 527.31 172.013C527.854 172.925 528.142 173.965 528.174 175.133L517.806 177.149C518.126 178.173 518.702 178.981 519.534 179.573C520.382 180.149 521.39 180.437 522.558 180.437ZM522.126 170.573C521.246 170.573 520.454 170.781 519.75 171.197C519.062 171.597 518.518 172.165 518.118 172.901C517.734 173.621 517.542 174.453 517.542 175.397C517.542 175.637 517.55 175.813 517.566 175.925L526.47 174.197C526.278 173.141 525.79 172.277 525.006 171.605C524.222 170.917 523.262 170.573 522.126 170.573ZM543.162 169.205V181.829H541.53V179.333C541.018 180.181 540.338 180.829 539.49 181.277C538.658 181.725 537.714 181.949 536.658 181.949C535.474 181.949 534.402 181.677 533.442 181.133C532.482 180.589 531.73 179.829 531.186 178.853C530.642 177.877 530.37 176.765 530.37 175.517C530.37 174.269 530.642 173.157 531.186 172.181C531.73 171.205 532.482 170.453 533.442 169.925C534.402 169.381 535.474 169.109 536.658 169.109C537.682 169.109 538.602 169.325 539.418 169.757C540.25 170.173 540.93 170.789 541.458 171.605V169.205H543.162ZM536.802 180.437C537.682 180.437 538.474 180.237 539.178 179.837C539.898 179.421 540.458 178.837 540.858 178.085C541.274 177.333 541.482 176.477 541.482 175.517C541.482 174.557 541.274 173.701 540.858 172.949C540.458 172.197 539.898 171.621 539.178 171.221C538.474 170.805 537.682 170.597 536.802 170.597C535.906 170.597 535.098 170.805 534.378 171.221C533.674 171.621 533.114 172.197 532.698 172.949C532.298 173.701 532.098 174.557 532.098 175.517C532.098 176.477 532.298 177.333 532.698 178.085C533.114 178.837 533.674 179.421 534.378 179.837C535.098 180.237 535.906 180.437 536.802 180.437ZM549.54 171.677C549.94 170.829 550.532 170.189 551.316 169.757C552.116 169.325 553.1 169.109 554.268 169.109V170.765L553.86 170.741C552.532 170.741 551.492 171.149 550.74 171.965C549.988 172.781 549.612 173.925 549.612 175.397V181.829H547.908V169.205H549.54V171.677ZM563.569 181.061C563.249 181.349 562.857 181.573 562.393 181.733C561.929 181.877 561.441 181.949 560.929 181.949C559.745 181.949 558.833 181.629 558.193 180.989C557.553 180.349 557.233 179.445 557.233 178.277V166.445H558.937V169.205H562.753V170.645H558.937V178.181C558.937 178.933 559.121 179.509 559.489 179.909C559.857 180.293 560.393 180.485 561.097 180.485C561.865 180.485 562.489 180.269 562.969 179.837L563.569 181.061ZM584.771 181.829L580.931 176.429C580.499 176.477 580.051 176.501 579.587 176.501H575.075V181.829H573.299V165.029H579.587C581.731 165.029 583.411 165.541 584.627 166.565C585.843 167.589 586.451 168.997 586.451 170.789C586.451 172.101 586.115 173.213 585.443 174.125C584.787 175.021 583.843 175.669 582.611 176.069L586.715 181.829H584.771ZM579.539 174.989C581.203 174.989 582.475 174.621 583.355 173.885C584.235 173.149 584.675 172.117 584.675 170.789C584.675 169.429 584.235 168.389 583.355 167.669C582.475 166.933 581.203 166.565 579.539 166.565H575.075V174.989H579.539ZM601.803 169.205V181.829H600.171V179.333C599.659 180.181 598.979 180.829 598.131 181.277C597.299 181.725 596.355 181.949 595.299 181.949C594.115 181.949 593.043 181.677 592.083 181.133C591.123 180.589 590.371 179.829 589.827 178.853C589.283 177.877 589.011 176.765 589.011 175.517C589.011 174.269 589.283 173.157 589.827 172.181C590.371 171.205 591.123 170.453 592.083 169.925C593.043 169.381 594.115 169.109 595.299 169.109C596.323 169.109 597.243 169.325 598.059 169.757C598.891 170.173 599.571 170.789 600.099 171.605V169.205H601.803ZM595.443 180.437C596.323 180.437 597.115 180.237 597.819 179.837C598.539 179.421 599.099 178.837 599.499 178.085C599.915 177.333 600.123 176.477 600.123 175.517C600.123 174.557 599.915 173.701 599.499 172.949C599.099 172.197 598.539 171.621 597.819 171.221C597.115 170.805 596.323 170.597 595.443 170.597C594.547 170.597 593.739 170.805 593.019 171.221C592.315 171.621 591.755 172.197 591.339 172.949C590.939 173.701 590.739 174.557 590.739 175.517C590.739 176.477 590.939 177.333 591.339 178.085C591.755 178.837 592.315 179.421 593.019 179.837C593.739 180.237 594.547 180.437 595.443 180.437ZM612.765 181.061C612.445 181.349 612.053 181.573 611.589 181.733C611.125 181.877 610.637 181.949 610.125 181.949C608.941 181.949 608.029 181.629 607.389 180.989C606.749 180.349 606.429 179.445 606.429 178.277V166.445H608.133V169.205H611.949V170.645H608.133V178.181C608.133 178.933 608.317 179.509 608.685 179.909C609.053 180.293 609.589 180.485 610.293 180.485C611.061 180.485 611.685 180.269 612.165 179.837L612.765 181.061ZM620.808 180.437C621.592 180.437 622.312 180.301 622.968 180.029C623.64 179.741 624.208 179.325 624.672 178.781L625.632 179.885C625.072 180.557 624.376 181.069 623.544 181.421C622.712 181.773 621.792 181.949 620.784 181.949C619.488 181.949 618.336 181.677 617.328 181.133C616.32 180.573 615.536 179.805 614.976 178.829C614.416 177.853 614.136 176.749 614.136 175.517C614.136 174.285 614.4 173.181 614.928 172.205C615.472 171.229 616.216 170.469 617.16 169.925C618.104 169.381 619.176 169.109 620.376 169.109C621.496 169.109 622.504 169.365 623.4 169.877C624.312 170.389 625.032 171.101 625.56 172.013C626.104 172.925 626.392 173.965 626.424 175.133L616.056 177.149C616.376 178.173 616.952 178.981 617.784 179.573C618.632 180.149 619.64 180.437 620.808 180.437ZM620.376 170.573C619.496 170.573 618.704 170.781 618 171.197C617.312 171.597 616.768 172.165 616.368 172.901C615.984 173.621 615.792 174.453 615.792 175.397C615.792 175.637 615.8 175.813 615.816 175.925L624.72 174.197C624.528 173.141 624.04 172.277 623.256 171.605C622.472 170.917 621.512 170.573 620.376 170.573ZM630.06 171.725C629.708 171.725 629.404 171.597 629.148 171.341C628.908 171.085 628.788 170.773 628.788 170.405C628.788 170.037 628.908 169.733 629.148 169.493C629.404 169.237 629.708 169.109 630.06 169.109C630.412 169.109 630.716 169.237 630.972 169.493C631.228 169.733 631.356 170.037 631.356 170.405C631.356 170.773 631.228 171.085 630.972 171.341C630.716 171.597 630.412 171.725 630.06 171.725ZM630.06 181.949C629.708 181.949 629.404 181.821 629.148 181.565C628.908 181.309 628.788 180.997 628.788 180.629C628.788 180.261 628.908 179.957 629.148 179.717C629.404 179.461 629.708 179.333 630.06 179.333C630.412 179.333 630.716 179.461 630.972 179.717C631.228 179.957 631.356 180.261 631.356 180.629C631.356 180.997 631.228 181.309 630.972 181.565C630.716 181.821 630.412 181.949 630.06 181.949ZM646.252 181.973C645.004 181.973 643.804 181.773 642.652 181.373C641.516 180.973 640.636 180.445 640.012 179.789L640.708 178.421C641.316 179.029 642.124 179.525 643.132 179.909C644.14 180.277 645.18 180.461 646.252 180.461C647.756 180.461 648.884 180.189 649.636 179.645C650.388 179.085 650.764 178.365 650.764 177.485C650.764 176.813 650.556 176.277 650.14 175.877C649.74 175.477 649.244 175.173 648.652 174.965C648.06 174.741 647.236 174.501 646.18 174.245C644.916 173.925 643.908 173.621 643.156 173.333C642.404 173.029 641.756 172.573 641.212 171.965C640.684 171.357 640.42 170.533 640.42 169.493C640.42 168.645 640.644 167.877 641.092 167.189C641.54 166.485 642.228 165.925 643.156 165.509C644.084 165.093 645.236 164.885 646.612 164.885C647.572 164.885 648.508 165.021 649.42 165.293C650.348 165.549 651.148 165.909 651.82 166.373L651.22 167.789C650.516 167.325 649.764 166.981 648.964 166.757C648.164 166.517 647.38 166.397 646.612 166.397C645.14 166.397 644.028 166.685 643.276 167.261C642.54 167.821 642.172 168.549 642.172 169.445C642.172 170.117 642.372 170.661 642.772 171.077C643.188 171.477 643.7 171.789 644.308 172.013C644.932 172.221 645.764 172.453 646.804 172.709C648.036 173.013 649.028 173.317 649.78 173.621C650.548 173.909 651.196 174.357 651.724 174.965C652.252 175.557 652.516 176.365 652.516 177.389C652.516 178.237 652.284 179.013 651.82 179.717C651.372 180.405 650.676 180.957 649.732 181.373C648.788 181.773 647.628 181.973 646.252 181.973ZM659.577 181.949C658.441 181.949 657.561 181.629 656.937 180.989C656.329 180.349 656.025 179.461 656.025 178.325V164.021H657.729V178.181C657.729 178.933 657.905 179.509 658.257 179.909C658.609 180.293 659.137 180.485 659.841 180.485C660.289 180.485 660.673 180.413 660.993 180.269L661.113 181.685C660.617 181.861 660.105 181.949 659.577 181.949ZM668.597 180.437C669.381 180.437 670.101 180.301 670.757 180.029C671.429 179.741 671.997 179.325 672.461 178.781L673.421 179.885C672.861 180.557 672.165 181.069 671.333 181.421C670.501 181.773 669.581 181.949 668.573 181.949C667.277 181.949 666.125 181.677 665.117 181.133C664.109 180.573 663.325 179.805 662.765 178.829C662.205 177.853 661.925 176.749 661.925 175.517C661.925 174.285 662.189 173.181 662.717 172.205C663.261 171.229 664.005 170.469 664.949 169.925C665.893 169.381 666.965 169.109 668.165 169.109C669.285 169.109 670.293 169.365 671.189 169.877C672.101 170.389 672.821 171.101 673.349 172.013C673.893 172.925 674.181 173.965 674.213 175.133L663.845 177.149C664.165 178.173 664.741 178.981 665.573 179.573C666.421 180.149 667.429 180.437 668.597 180.437ZM668.165 170.573C667.285 170.573 666.493 170.781 665.789 171.197C665.101 171.597 664.557 172.165 664.157 172.901C663.773 173.621 663.581 174.453 663.581 175.397C663.581 175.637 663.589 175.813 663.605 175.925L672.509 174.197C672.317 173.141 671.829 172.277 671.045 171.605C670.261 170.917 669.301 170.573 668.165 170.573ZM683.082 180.437C683.866 180.437 684.586 180.301 685.242 180.029C685.914 179.741 686.482 179.325 686.946 178.781L687.906 179.885C687.346 180.557 686.65 181.069 685.818 181.421C684.986 181.773 684.066 181.949 683.058 181.949C681.762 181.949 680.61 181.677 679.602 181.133C678.594 180.573 677.81 179.805 677.25 178.829C676.69 177.853 676.41 176.749 676.41 175.517C676.41 174.285 676.674 173.181 677.202 172.205C677.746 171.229 678.49 170.469 679.434 169.925C680.378 169.381 681.45 169.109 682.65 169.109C683.77 169.109 684.778 169.365 685.674 169.877C686.586 170.389 687.306 171.101 687.834 172.013C688.378 172.925 688.666 173.965 688.698 175.133L678.33 177.149C678.65 178.173 679.226 178.981 680.058 179.573C680.906 180.149 681.914 180.437 683.082 180.437ZM682.65 170.573C681.77 170.573 680.978 170.781 680.274 171.197C679.586 171.597 679.042 172.165 678.642 172.901C678.258 173.621 678.066 174.453 678.066 175.397C678.066 175.637 678.074 175.813 678.09 175.925L686.994 174.197C686.802 173.141 686.314 172.277 685.53 171.605C684.746 170.917 683.786 170.573 682.65 170.573ZM698.67 169.109C699.854 169.109 700.926 169.381 701.886 169.925C702.846 170.453 703.598 171.205 704.142 172.181C704.686 173.157 704.958 174.269 704.958 175.517C704.958 176.781 704.686 177.901 704.142 178.877C703.598 179.853 702.846 180.613 701.886 181.157C700.942 181.685 699.87 181.949 698.67 181.949C697.646 181.949 696.718 181.741 695.886 181.325C695.07 180.893 694.398 180.269 693.87 179.453V186.485H692.166V169.205H693.798V171.701C694.31 170.869 694.982 170.229 695.814 169.781C696.662 169.333 697.614 169.109 698.67 169.109ZM698.55 180.437C699.43 180.437 700.23 180.237 700.95 179.837C701.67 179.421 702.23 178.837 702.63 178.085C703.046 177.333 703.254 176.477 703.254 175.517C703.254 174.557 703.046 173.709 702.63 172.973C702.23 172.221 701.67 171.637 700.95 171.221C700.23 170.805 699.43 170.597 698.55 170.597C697.654 170.597 696.846 170.805 696.126 171.221C695.422 171.637 694.862 172.221 694.446 172.973C694.046 173.709 693.846 174.557 693.846 175.517C693.846 176.477 694.046 177.333 694.446 178.085C694.862 178.837 695.422 179.421 696.126 179.837C696.846 180.237 697.654 180.437 698.55 180.437Z" fill="#FFDEEB"/>
<path d="M311.429 850.493C313.349 850.493 314.845 851.045 315.917 852.149C316.989 853.253 317.525 854.853 317.525 856.949V867.438H315.773V856.997C315.773 855.365 315.357 854.141 314.525 853.326C313.709 852.493 312.589 852.077 311.165 852.077C309.661 852.077 308.485 852.517 307.637 853.397C306.789 854.261 306.365 855.589 306.365 857.381V867.438H304.613V856.997C304.613 855.365 304.213 854.141 303.413 853.326C302.613 852.493 301.501 852.077 300.077 852.077C298.557 852.077 297.365 852.517 296.501 853.397C295.653 854.261 295.229 855.589 295.229 857.381V867.438H293.453V850.637H295.157V853.445C295.621 852.485 296.309 851.757 297.221 851.261C298.133 850.749 299.213 850.493 300.461 850.493C301.773 850.493 302.893 850.773 303.821 851.333C304.765 851.877 305.445 852.645 305.861 853.637C306.341 852.613 307.061 851.837 308.021 851.309C308.997 850.765 310.133 850.493 311.429 850.493ZM326.347 852.173V865.901H329.755V867.438H321.187V865.901H324.595V852.173H321.187V850.637H329.755V852.173H326.347ZM340.946 850.493C342.962 850.493 344.538 851.093 345.674 852.293C346.826 853.493 347.402 855.205 347.402 857.429V867.438H345.626V857.477C345.626 855.701 345.186 854.357 344.306 853.445C343.426 852.533 342.194 852.077 340.61 852.077C338.946 852.077 337.65 852.565 336.722 853.541C335.794 854.501 335.33 855.949 335.33 857.885V867.438H333.554V850.637H335.258V853.469C336.33 851.485 338.226 850.493 340.946 850.493Z" fill="#AEE7F4"/>
<path d="M302.754 876.237V893.037H301.026V877.773H297.066V876.237H302.754ZM321.05 888.621H317.69V893.037H315.962V888.621H306.482V887.373L315.386 876.237H317.306L308.714 887.085H316.01V883.197H317.69V887.085H321.05V888.621ZM324.402 893.157C324.05 893.157 323.746 893.029 323.49 892.773C323.25 892.517 323.13 892.205 323.13 891.837C323.13 891.469 323.25 891.165 323.49 890.925C323.746 890.669 324.05 890.541 324.402 890.541C324.754 890.541 325.058 890.669 325.314 890.925C325.57 891.165 325.698 891.469 325.698 891.837C325.698 892.205 325.57 892.517 325.314 892.773C325.058 893.029 324.754 893.157 324.402 893.157ZM334.63 893.181C333.334 893.181 332.174 892.837 331.15 892.149C330.142 891.461 329.35 890.477 328.774 889.197C328.214 887.901 327.934 886.381 327.934 884.637C327.934 882.893 328.214 881.381 328.774 880.101C329.35 878.805 330.142 877.813 331.15 877.125C332.174 876.437 333.334 876.093 334.63 876.093C335.926 876.093 337.078 876.437 338.086 877.125C339.11 877.813 339.91 878.805 340.486 880.101C341.062 881.381 341.35 882.893 341.35 884.637C341.35 886.381 341.062 887.901 340.486 889.197C339.91 890.477 339.11 891.461 338.086 892.149C337.078 892.837 335.926 893.181 334.63 893.181ZM334.63 891.597C335.606 891.597 336.462 891.325 337.198 890.781C337.95 890.237 338.534 889.445 338.95 888.405C339.366 887.365 339.574 886.109 339.574 884.637C339.574 883.165 339.366 881.909 338.95 880.869C338.534 879.829 337.95 879.037 337.198 878.493C336.462 877.949 335.606 877.677 334.63 877.677C333.654 877.677 332.79 877.949 332.038 878.493C331.302 879.037 330.726 879.829 330.31 880.869C329.894 881.909 329.686 883.165 329.686 884.637C329.686 886.109 329.894 887.365 330.31 888.405C330.726 889.445 331.302 890.237 332.038 890.781C332.79 891.325 333.654 891.597 334.63 891.597Z" fill="#AEE7F4"/>
<path d="M319.289 817.067V833.245" stroke="#AEE7F4" stroke-width="2.2806" stroke-miterlimit="10"/>
<path d="M444.99 137.917C446.91 137.917 448.406 138.469 449.478 139.573C450.55 140.677 451.086 142.277 451.086 144.373V154.861H449.334V144.421C449.334 142.789 448.918 141.565 448.086 140.749C447.27 139.917 446.15 139.501 444.726 139.501C443.222 139.501 442.046 139.941 441.198 140.821C440.35 141.685 439.926 143.013 439.926 144.805V154.861H438.174V144.421C438.174 142.789 437.774 141.565 436.974 140.749C436.174 139.917 435.062 139.501 433.638 139.501C432.118 139.501 430.926 139.941 430.062 140.821C429.214 141.685 428.79 143.013 428.79 144.805V154.861H427.014V138.061H428.718V140.869C429.182 139.909 429.87 139.181 430.782 138.685C431.694 138.173 432.774 137.917 434.022 137.917C435.334 137.917 436.454 138.197 437.382 138.757C438.326 139.301 439.006 140.069 439.422 141.061C439.902 140.037 440.622 139.261 441.582 138.733C442.558 138.189 443.694 137.917 444.99 137.917ZM463.292 137.917C465.468 137.917 467.18 138.557 468.428 139.837C469.692 141.101 470.324 142.933 470.324 145.333V154.861H468.572V149.917H458.012V154.861H456.284V145.333C456.284 142.933 456.908 141.101 458.156 139.837C459.42 138.557 461.132 137.917 463.292 137.917ZM468.572 148.381V145.165C468.572 143.293 468.108 141.885 467.18 140.941C466.252 139.981 464.956 139.501 463.292 139.501C461.628 139.501 460.332 139.981 459.404 140.941C458.476 141.885 458.012 143.293 458.012 145.165V148.381H468.572ZM485.949 154.861L480.525 147.469L475.125 154.861H473.085L479.469 146.221L473.493 138.061H475.533L480.597 144.925L485.637 138.061H487.557L481.605 146.173L488.013 154.861H485.949Z" fill="#AEE7F4"/>
<path d="M443.132 178.925V180.461H431.348V179.237L438.332 172.397C439.212 171.533 439.804 170.789 440.108 170.165C440.428 169.525 440.588 168.885 440.588 168.245C440.588 167.253 440.244 166.485 439.556 165.941C438.884 165.381 437.916 165.101 436.652 165.101C434.684 165.101 433.156 165.725 432.068 166.973L430.844 165.917C431.5 165.149 432.332 164.557 433.34 164.141C434.364 163.725 435.516 163.517 436.796 163.517C438.508 163.517 439.86 163.925 440.852 164.741C441.86 165.541 442.364 166.645 442.364 168.053C442.364 168.917 442.172 169.749 441.788 170.549C441.404 171.349 440.676 172.269 439.604 173.309L433.892 178.925H443.132ZM451.903 180.605C450.607 180.605 449.447 180.261 448.423 179.573C447.415 178.885 446.623 177.901 446.047 176.621C445.487 175.325 445.207 173.805 445.207 172.061C445.207 170.317 445.487 168.805 446.047 167.525C446.623 166.229 447.415 165.237 448.423 164.549C449.447 163.861 450.607 163.517 451.903 163.517C453.199 163.517 454.351 163.861 455.359 164.549C456.383 165.237 457.183 166.229 457.759 167.525C458.335 168.805 458.623 170.317 458.623 172.061C458.623 173.805 458.335 175.325 457.759 176.621C457.183 177.901 456.383 178.885 455.359 179.573C454.351 180.261 453.199 180.605 451.903 180.605ZM451.903 179.021C452.879 179.021 453.735 178.749 454.471 178.205C455.223 177.661 455.807 176.869 456.223 175.829C456.639 174.789 456.847 173.533 456.847 172.061C456.847 170.589 456.639 169.333 456.223 168.293C455.807 167.253 455.223 166.461 454.471 165.917C453.735 165.373 452.879 165.101 451.903 165.101C450.927 165.101 450.063 165.373 449.311 165.917C448.575 166.461 447.999 167.253 447.583 168.293C447.167 169.333 446.959 170.589 446.959 172.061C446.959 173.533 447.167 174.789 447.583 175.829C447.999 176.869 448.575 177.661 449.311 178.205C450.063 178.749 450.927 179.021 451.903 179.021ZM462.135 180.581C461.783 180.581 461.479 180.453 461.223 180.197C460.983 179.941 460.863 179.629 460.863 179.261C460.863 178.893 460.983 178.589 461.223 178.349C461.479 178.093 461.783 177.965 462.135 177.965C462.487 177.965 462.791 178.093 463.047 178.349C463.303 178.589 463.431 178.893 463.431 179.261C463.431 179.629 463.303 179.941 463.047 180.197C462.791 180.453 462.487 180.581 462.135 180.581ZM472.363 180.605C471.067 180.605 469.907 180.261 468.883 179.573C467.875 178.885 467.083 177.901 466.507 176.621C465.947 175.325 465.667 173.805 465.667 172.061C465.667 170.317 465.947 168.805 466.507 167.525C467.083 166.229 467.875 165.237 468.883 164.549C469.907 163.861 471.067 163.517 472.363 163.517C473.659 163.517 474.811 163.861 475.819 164.549C476.843 165.237 477.643 166.229 478.219 167.525C478.795 168.805 479.083 170.317 479.083 172.061C479.083 173.805 478.795 175.325 478.219 176.621C477.643 177.901 476.843 178.885 475.819 179.573C474.811 180.261 473.659 180.605 472.363 180.605ZM472.363 179.021C473.339 179.021 474.195 178.749 474.931 178.205C475.683 177.661 476.267 176.869 476.683 175.829C477.099 174.789 477.307 173.533 477.307 172.061C477.307 170.589 477.099 169.333 476.683 168.293C476.267 167.253 475.683 166.461 474.931 165.917C474.195 165.373 473.339 165.101 472.363 165.101C471.387 165.101 470.523 165.373 469.771 165.917C469.035 166.461 468.459 167.253 468.043 168.293C467.627 169.333 467.419 170.589 467.419 172.061C467.419 173.533 467.627 174.789 468.043 175.829C468.459 176.869 469.035 177.661 469.771 178.205C470.523 178.749 471.387 179.021 472.363 179.021Z" fill="#AEE7F4"/>
<path d="M449.067 111.378V127.645" stroke="#AEE7F4" stroke-width="2.2806" stroke-miterlimit="10"/>
<path d="M835.62 407.534C837.54 407.534 839.036 408.086 840.108 409.19C841.18 410.294 841.716 411.894 841.716 413.99V424.478H839.964V414.038C839.964 412.406 839.548 411.182 838.716 410.366C837.9 409.534 836.78 409.118 835.356 409.118C833.852 409.118 832.676 409.558 831.828 410.438C830.98 411.302 830.556 412.63 830.556 414.422V424.478H828.804V414.038C828.804 412.406 828.404 411.182 827.604 410.366C826.804 409.534 825.692 409.118 824.268 409.118C822.748 409.118 821.556 409.558 820.692 410.438C819.844 411.302 819.42 412.63 819.42 414.422V424.478H817.644V407.678H819.348V410.486C819.812 409.526 820.5 408.798 821.412 408.302C822.324 407.79 823.404 407.534 824.652 407.534C825.964 407.534 827.084 407.814 828.012 408.374C828.956 408.918 829.636 409.686 830.052 410.678C830.532 409.654 831.252 408.878 832.212 408.35C833.188 407.806 834.324 407.534 835.62 407.534ZM853.922 407.534C856.098 407.534 857.81 408.174 859.058 409.454C860.322 410.718 860.954 412.55 860.954 414.95V424.478H859.202V419.534H848.642V424.478H846.914V414.95C846.914 412.55 847.538 410.718 848.786 409.454C850.05 408.174 851.762 407.534 853.922 407.534ZM859.202 417.998V414.782C859.202 412.91 858.738 411.502 857.81 410.558C856.882 409.598 855.586 409.118 853.922 409.118C852.258 409.118 850.962 409.598 850.034 410.558C849.106 411.502 848.642 412.91 848.642 414.782V417.998H859.202ZM876.578 424.478L871.154 417.086L865.754 424.478H863.714L870.098 415.838L864.122 407.678H866.162L871.226 414.542L876.266 407.678H878.186L872.234 415.79L878.642 424.478H876.578Z" fill="#FFDEEB"/>
<path d="M843.301 433.277V434.501L836.269 450.077H834.397L841.309 434.813H832.669V437.957H830.965V433.277H843.301ZM851.805 450.221C850.509 450.221 849.349 449.877 848.325 449.189C847.317 448.501 846.525 447.517 845.949 446.237C845.389 444.941 845.109 443.421 845.109 441.677C845.109 439.933 845.389 438.421 845.949 437.141C846.525 435.845 847.317 434.853 848.325 434.165C849.349 433.477 850.509 433.133 851.805 433.133C853.101 433.133 854.253 433.477 855.261 434.165C856.285 434.853 857.085 435.845 857.661 437.141C858.237 438.421 858.525 439.933 858.525 441.677C858.525 443.421 858.237 444.941 857.661 446.237C857.085 447.517 856.285 448.501 855.261 449.189C854.253 449.877 853.101 450.221 851.805 450.221ZM851.805 448.637C852.781 448.637 853.637 448.365 854.373 447.821C855.125 447.277 855.709 446.485 856.125 445.445C856.541 444.405 856.749 443.149 856.749 441.677C856.749 440.205 856.541 438.949 856.125 437.909C855.709 436.869 855.125 436.077 854.373 435.533C853.637 434.989 852.781 434.717 851.805 434.717C850.829 434.717 849.965 434.989 849.213 435.533C848.477 436.077 847.901 436.869 847.485 437.909C847.069 438.949 846.861 440.205 846.861 441.677C846.861 443.149 847.069 444.405 847.485 445.445C847.901 446.485 848.477 447.277 849.213 447.821C849.965 448.365 850.829 448.637 851.805 448.637Z" fill="#FFDEEB"/>
<path d="M782.489 607.912H766.311" stroke="#FFDEEB" stroke-width="2.2806" stroke-miterlimit="10"/>
<path d="M717.94 342.891L712.071 334.959L691.706 350.027L697.574 357.959L717.94 342.891Z" fill="#FFDEEB"/>
<path d="M523.13 760.711L532.31 759.617L529.071 732.431L519.891 733.525L523.13 760.711Z" fill="#FFDEEB"/>
<path d="M609.794 730.666L618.004 726.417L607.015 705.182L598.805 709.43L609.794 730.666Z" fill="#FFDEEB"/>
<path d="M685.256 680.207L691.557 673.443L672.891 656.055L666.59 662.819L685.256 680.207Z" fill="#FFDEEB"/>
<path d="M731.141 602.301L734.546 593.706L718.348 587.289L714.944 595.884L731.141 602.301Z" fill="#FFDEEB"/>
<path d="M763.096 517.896L763.626 508.666L735.848 507.072L735.318 516.302L763.096 517.896Z" fill="#FFDEEB"/>
<path d="M775.365 419.303L772.317 410.199L726.377 425.58L729.425 434.684L775.365 419.303Z" fill="#FFDEEB"/>
<path d="M570.602 237.093L560.761 234.676L554.803 258.934L564.645 261.351L570.602 237.093Z" fill="#FFDEEB"/>
<path d="M648.65 283.368L641.395 278.546L631.159 293.943L638.414 298.766L648.65 283.368Z" fill="#FFDEEB"/>
<path d="M429.429 787.092L441.494 789.305L452.719 728.103L440.654 725.89L429.429 787.092Z" fill="#AEE7F4"/>
<path d="M354.335 708.945L364.627 715.618L375.653 698.612L365.36 691.939L354.335 708.945Z" fill="#AEE7F4"/>
<path d="M282.511 655.2L289.518 664.276L312.454 646.568L305.446 637.492L282.511 655.2Z" fill="#AEE7F4"/>
<path d="M229.464 575.744L232.807 586.341L272.481 573.823L269.138 563.227L229.464 575.744Z" fill="#AEE7F4"/>
<path d="M229.207 480.871L228.793 491.797L257.573 492.887L257.987 481.961L229.207 480.871Z" fill="#AEE7F4"/>
<path d="M255.164 390.9L250.708 402.329L274.311 411.533L278.767 400.104L255.164 390.9Z" fill="#AEE7F4"/>
<path d="M296.424 306.183L289.304 314.007L315.601 337.939L322.721 330.116L296.424 306.183Z" fill="#AEE7F4"/>
<path d="M372.361 254.858L363.585 259.925L378.207 285.25L386.983 280.184L372.361 254.858Z" fill="#AEE7F4"/>
<path d="M455.16 201.647L443.507 203.639L452.479 256.122L464.132 254.13L455.16 201.647Z" fill="#AEE7F4"/>
</svg>
