<svg width="960" height="960" viewBox="0 0 960 960" fill="none" xmlns="http://www.w3.org/2000/svg">
<path d="M728.711 433.867L725.956 425.69L746.222 418.934L748.978 427.112L728.711 433.867ZM497.689 746.401C496.533 746.401 495.378 746.401 494.222 746.401L494.4 736.09C495.556 736.09 496.622 736.09 497.778 736.09V746.401H497.689ZM507.2 746.223L506.844 735.912C508 735.912 509.067 735.823 510.222 735.734L510.756 746.045C509.511 746.134 508.356 746.134 507.2 746.223ZM480.178 745.779C479.022 745.69 477.867 745.601 476.711 745.512L477.511 735.29C478.667 735.379 479.733 735.467 480.889 735.556L480.178 745.779ZM462.844 744.001C461.689 743.823 460.533 743.645 459.378 743.467L460.978 733.334C462.044 733.512 463.2 733.69 464.267 733.779L462.844 744.001ZM541.956 742.49L540.178 732.356C541.244 732.179 542.4 732.001 543.467 731.734L545.422 741.867C544.267 742.045 543.111 742.312 541.956 742.49ZM559.022 738.845L556.533 728.89C557.6 728.623 558.667 728.356 559.822 728.09L562.489 738.045C561.333 738.312 560.178 738.579 559.022 738.845ZM428.622 736.801C427.467 736.445 426.4 736.179 425.244 735.823L428.178 725.956C429.244 726.312 430.311 726.579 431.378 726.934L428.622 736.801ZM575.911 734.045L572.711 724.267C573.778 723.912 574.844 723.556 575.911 723.201L579.2 732.979C578.133 733.245 576.978 733.69 575.911 734.045ZM411.911 731.379C410.844 731.023 409.689 730.579 408.622 730.134L412.267 720.534C413.333 720.89 414.4 721.334 415.467 721.69L411.911 731.379ZM592.267 728.001L588.444 718.49C589.511 718.045 590.489 717.69 591.556 717.245L595.556 726.756C594.4 727.112 593.333 727.556 592.267 728.001ZM395.644 724.89C394.578 724.445 393.511 723.912 392.444 723.467L396.711 714.134C397.689 714.579 398.756 715.023 399.733 715.556L395.644 724.89ZM379.822 717.156C378.756 716.623 377.778 716.09 376.711 715.467L381.689 706.401C382.667 706.934 383.644 707.467 384.622 708.001L379.822 717.156ZM623.644 712.712L618.489 703.823C619.467 703.29 620.444 702.667 621.422 702.134L626.667 710.934C625.689 711.556 624.711 712.09 623.644 712.712ZM638.489 703.467L632.711 694.934C633.6 694.312 634.578 693.69 635.467 693.067L641.333 701.512C640.444 702.134 639.467 702.756 638.489 703.467ZM350.133 698.756C349.156 698.045 348.267 697.423 347.289 696.712L353.422 688.445C354.311 689.156 355.2 689.779 356.178 690.401L350.133 698.756ZM652.622 693.156L646.311 685.067C647.2 684.356 648.089 683.645 648.978 683.023L655.378 691.023C654.489 691.734 653.6 692.445 652.622 693.156ZM336.267 688.001C335.378 687.29 334.489 686.49 333.6 685.779L340.267 677.956C341.156 678.667 341.956 679.379 342.844 680.09L336.267 688.001ZM666.045 681.956L659.2 674.312C660 673.601 660.889 672.801 661.689 672.09L668.622 679.645C667.822 680.445 666.933 681.245 666.045 681.956ZM323.2 676.356C322.311 675.556 321.511 674.756 320.711 673.956L327.911 666.579C328.711 667.379 329.511 668.179 330.311 668.89L323.2 676.356ZM311.022 663.823C310.222 662.934 309.422 662.134 308.711 661.245L316.444 654.401C317.156 655.201 317.956 656.09 318.667 656.89L311.022 663.823ZM690.489 656.979L682.667 650.312C683.378 649.423 684.089 648.623 684.8 647.734L692.711 654.312C692 655.201 691.2 656.09 690.489 656.979ZM701.333 643.201L693.067 637.067C693.689 636.179 694.4 635.29 695.022 634.312L703.378 640.267C702.756 641.334 702.044 642.312 701.333 643.201ZM289.244 636.445C288.622 635.467 287.911 634.49 287.289 633.512L295.822 627.823C296.444 628.712 297.067 629.69 297.689 630.579L289.244 636.445ZM711.2 628.801L702.489 623.29C703.111 622.312 703.645 621.423 704.267 620.445L713.067 625.867C712.444 626.756 711.822 627.823 711.2 628.801ZM279.822 621.779C279.2 620.801 278.667 619.734 278.044 618.756L286.933 613.69C287.467 614.667 288.089 615.645 288.622 616.623L279.822 621.779ZM720.089 613.69L711.022 608.801C711.556 607.823 712.089 606.845 712.622 605.867L721.689 610.667C721.244 611.645 720.622 612.623 720.089 613.69ZM271.467 606.401C270.933 605.334 270.4 604.356 269.956 603.29L279.2 598.756C279.644 599.734 280.178 600.801 280.711 601.779L271.467 606.401ZM264.178 590.49C263.733 589.423 263.289 588.356 262.844 587.29L272.356 583.467C272.8 584.534 273.156 585.512 273.6 586.579L264.178 590.49ZM734.578 581.779L724.978 578.223C725.333 577.156 725.778 576.09 726.133 575.023L735.822 578.49C735.467 579.556 735.022 580.712 734.578 581.779ZM740.178 565.156L730.311 562.223C730.667 561.156 730.933 560.09 731.2 559.023L741.067 561.779C740.8 562.934 740.533 564.001 740.178 565.156ZM253.067 557.334C252.8 556.179 252.444 555.112 252.178 553.956L262.133 551.467C262.4 552.534 262.667 553.69 262.933 554.756L253.067 557.334ZM744.533 548.179L734.489 545.956C734.756 544.89 734.933 543.734 735.2 542.667L745.244 544.712C745.067 545.867 744.8 547.023 744.533 548.179ZM249.244 540.267C249.067 539.112 248.8 537.956 248.622 536.801L258.756 535.023C258.933 536.09 259.111 537.245 259.378 538.312L249.244 540.267ZM747.733 531.023L737.6 529.512C737.778 528.445 737.956 527.29 738.045 526.223L748.267 527.556C748.089 528.712 747.911 529.867 747.733 531.023ZM246.578 523.023C246.4 521.867 246.311 520.712 246.222 519.556L256.444 518.49C256.533 519.645 256.711 520.712 256.8 521.779L246.578 523.023ZM245.156 505.601C245.067 504.445 245.067 503.29 244.978 502.134L255.289 501.779C255.289 502.934 255.378 504.001 255.467 505.156L245.156 505.601ZM750.489 496.09L740.178 496.001V492.623L750.489 492.534V496.09ZM739.733 479.201C739.644 478.045 739.556 476.979 739.556 475.823L749.778 475.112C749.867 476.267 749.956 477.423 750.045 478.579L739.733 479.201ZM256.178 471.556L245.956 470.579C246.044 469.423 246.133 468.267 246.311 467.112L256.533 468.179C256.444 469.334 256.267 470.401 256.178 471.556ZM738.222 462.49C738.044 461.334 737.956 460.267 737.778 459.201L748 457.779C748.178 458.934 748.356 460.09 748.444 461.245L738.222 462.49ZM258.311 454.845L248.178 453.245C248.356 452.09 248.533 450.934 248.8 449.779L258.933 451.556C258.667 452.623 258.489 453.779 258.311 454.845ZM735.467 445.956C735.289 444.89 735.022 443.734 734.756 442.667L744.8 440.534C745.067 441.69 745.244 442.845 745.511 444.001L735.467 445.956ZM261.511 438.401L251.467 436.09C251.733 434.934 252 433.779 252.267 432.712L262.222 435.201C262.044 436.267 261.778 437.334 261.511 438.401ZM265.956 422.223L256.089 419.201C256.444 418.045 256.8 416.979 257.156 415.823L266.933 419.023C266.578 420.09 266.222 421.156 265.956 422.223ZM726.667 413.601C726.311 412.534 725.956 411.467 725.511 410.401L735.2 406.845C735.644 407.912 736 409.067 736.356 410.134L726.667 413.601ZM720.533 397.956C720.089 396.89 719.644 395.912 719.2 394.845L728.622 390.667C729.067 391.734 729.6 392.801 730.045 393.867L720.533 397.956ZM278.044 390.845L268.711 386.49C269.244 385.423 269.689 384.356 270.222 383.29L279.467 387.823C279.022 388.801 278.489 389.867 278.044 390.845ZM713.422 382.845C712.889 381.867 712.356 380.89 711.822 379.912L720.889 375.112C721.422 376.179 721.956 377.156 722.489 378.223L713.422 382.845ZM285.689 375.912L276.711 370.934C277.244 369.867 277.867 368.89 278.4 367.912L287.289 373.067C286.844 373.956 286.222 374.934 285.689 375.912ZM705.244 368.179C704.711 367.201 704.089 366.312 703.467 365.334L712.178 359.912C712.8 360.89 713.422 361.867 714.045 362.845L705.244 368.179ZM294.4 361.512L285.778 355.912C286.4 354.934 287.022 353.956 287.733 352.979L296.267 358.756C295.644 359.645 295.022 360.534 294.4 361.512ZM304.089 347.734L295.911 341.512C296.622 340.623 297.333 339.645 298.044 338.756L306.133 345.067C305.422 345.956 304.711 346.845 304.089 347.734ZM685.867 340.801C685.156 339.912 684.444 339.112 683.733 338.223L691.644 331.645C692.356 332.534 693.156 333.423 693.867 334.312L685.867 340.801ZM674.844 328.179C674.044 327.379 673.333 326.579 672.533 325.779L679.911 318.667C680.711 319.467 681.511 320.356 682.311 321.245L674.844 328.179ZM326.044 322.401L318.756 315.112C319.556 314.312 320.444 313.423 321.244 312.623L328.444 320.001C327.644 320.89 326.844 321.601 326.044 322.401ZM663.022 316.267C662.222 315.467 661.333 314.756 660.533 313.956L667.467 306.312C668.356 307.112 669.156 307.912 670.045 308.712L663.022 316.267ZM338.311 310.934L331.556 303.201C332.444 302.401 333.333 301.69 334.222 300.89L340.889 308.712C340 309.512 339.2 310.223 338.311 310.934ZM650.311 305.245C649.422 304.534 648.533 303.823 647.733 303.112L654.133 295.023C655.022 295.734 656 296.445 656.889 297.245L650.311 305.245ZM351.378 300.356L345.156 292.179C346.044 291.467 347.022 290.756 347.911 290.045L354.044 298.312C353.156 299.023 352.267 299.645 351.378 300.356ZM365.067 290.667L359.378 282.045C360.356 281.423 361.333 280.801 362.311 280.179L367.822 288.89C366.933 289.423 365.956 290.045 365.067 290.667ZM622.844 285.956C621.867 285.334 620.889 284.801 619.911 284.267L625.156 275.379C626.133 276.001 627.2 276.534 628.178 277.156L622.844 285.956ZM608.178 277.779C607.2 277.245 606.222 276.801 605.156 276.267L609.689 267.023C610.756 267.556 611.822 268.09 612.8 268.623L608.178 277.779ZM394.222 274.312L389.778 264.979C390.844 264.445 391.911 264.001 392.978 263.467L397.333 272.89C396.267 273.334 395.289 273.779 394.222 274.312ZM592.978 270.579C591.911 270.134 590.933 269.69 589.867 269.245L593.778 259.734C594.844 260.179 595.911 260.623 597.067 261.067L592.978 270.579ZM409.6 267.645L405.867 258.045C406.933 257.601 408 257.245 409.156 256.801L412.8 266.401C411.733 266.845 410.667 267.201 409.6 267.645ZM577.333 264.534C576.267 264.179 575.2 263.823 574.133 263.467L577.422 253.69C578.578 254.045 579.645 254.401 580.711 254.845L577.333 264.534ZM425.511 262.045L422.4 252.267C423.556 251.912 424.622 251.556 425.778 251.201L428.711 261.067C427.644 261.423 426.578 261.779 425.511 262.045ZM441.689 257.601L439.289 247.556C440.444 247.29 441.6 247.023 442.667 246.756L444.889 256.801C443.822 257.156 442.756 257.334 441.689 257.601ZM544.889 255.734C543.822 255.556 542.667 255.29 541.6 255.112L543.467 244.979C544.622 245.156 545.778 245.423 546.933 245.601L544.889 255.734ZM528.356 252.979C527.289 252.801 526.133 252.712 525.067 252.623L526.222 242.401C527.378 242.49 528.533 242.667 529.689 242.845L528.356 252.979ZM474.756 252.179L473.778 241.956C474.933 241.867 476.089 241.779 477.244 241.69L478.044 251.912C476.978 252.001 475.822 252.09 474.756 252.179ZM511.644 251.467C510.489 251.379 509.422 251.379 508.267 251.29L508.711 240.979C509.867 241.067 511.022 241.067 512.178 241.156L511.644 251.467ZM491.467 251.201L491.2 240.89C492.356 240.89 493.511 240.801 494.667 240.801L494.756 251.112C493.689 251.112 492.622 251.112 491.467 251.201Z" fill="#D8CEE2"/>
<path d="M497.511 870.133C289.511 870.133 120.889 701.511 120.889 493.511C120.889 285.511 289.511 116.889 497.511 116.889" stroke="#AEE7F4" stroke-width="2.2794" stroke-miterlimit="10"/>
<path d="M497.867 115.911V148.356" stroke="#AEE7F4" stroke-width="1.3371" stroke-miterlimit="10"/>
<path d="M497.689 838.667V871.111" stroke="#AEE7F4" stroke-width="1.3371" stroke-miterlimit="10"/>
<path d="M497.511 193.777C663.733 193.777 798.578 328.533 798.578 494.844C798.578 661.155 663.822 795.911 497.511 795.911" stroke="#FFDEEB" stroke-width="2.2794" stroke-miterlimit="10"/>
<path d="M497.689 192.711V225.155" stroke="#FFDEEB" stroke-width="1.3371" stroke-miterlimit="10"/>
<path d="M497.689 764.444V796.8" stroke="#FFDEEB" stroke-width="1.3371" stroke-miterlimit="10"/>
<path d="M818.99 605.418C820.91 605.418 822.406 605.97 823.478 607.074C824.55 608.178 825.086 609.778 825.086 611.874V622.362H823.334V611.922C823.334 610.29 822.918 609.066 822.086 608.25C821.27 607.418 820.15 607.002 818.726 607.002C817.222 607.002 816.046 607.442 815.198 608.322C814.35 609.186 813.926 610.514 813.926 612.306V622.362H812.174V611.922C812.174 610.29 811.774 609.066 810.974 608.25C810.174 607.418 809.062 607.002 807.638 607.002C806.118 607.002 804.926 607.442 804.062 608.322C803.214 609.186 802.79 610.514 802.79 612.306V622.362H801.014V605.562H802.718V608.37C803.182 607.41 803.87 606.682 804.782 606.186C805.694 605.674 806.774 605.418 808.022 605.418C809.334 605.418 810.454 605.698 811.382 606.258C812.326 606.802 813.006 607.57 813.422 608.562C813.902 607.538 814.622 606.762 815.582 606.234C816.558 605.69 817.694 605.418 818.99 605.418ZM833.908 607.098V620.826H837.316V622.362H828.748V620.826H832.156V607.098H828.748V605.562H837.316V607.098H833.908ZM848.507 605.418C850.523 605.418 852.099 606.018 853.235 607.218C854.387 608.418 854.963 610.13 854.963 612.354V622.362H853.187V612.402C853.187 610.626 852.747 609.282 851.867 608.37C850.987 607.458 849.755 607.002 848.171 607.002C846.507 607.002 845.211 607.49 844.283 608.466C843.355 609.426 842.891 610.874 842.891 612.81V622.362H841.115V605.562H842.819V608.394C843.891 606.41 845.787 605.418 848.507 605.418Z" fill="#FFDEEB"/>
<path d="M818.164 638.05C820.596 638.05 822.364 638.49 823.468 639.37C824.588 640.234 825.148 641.45 825.148 643.018C825.148 643.994 824.916 644.866 824.452 645.634C824.004 646.402 823.324 647.01 822.412 647.458C821.5 647.89 820.38 648.106 819.052 648.106C817.852 648.106 816.708 647.914 815.62 647.53C814.548 647.13 813.684 646.602 813.028 645.946L813.868 644.578C814.428 645.154 815.164 645.626 816.076 645.994C816.988 646.346 817.972 646.522 819.028 646.522C820.42 646.522 821.492 646.21 822.244 645.586C823.012 644.962 823.396 644.13 823.396 643.09C823.396 641.938 822.964 641.066 822.1 640.474C821.252 639.882 819.812 639.586 817.78 639.586H814.204L815.068 631.162H824.26V632.698H816.58L816.004 638.05H818.164ZM838.696 646.426V647.962H826.912V646.738L833.896 639.898C834.776 639.034 835.368 638.29 835.672 637.666C835.992 637.026 836.152 636.386 836.152 635.746C836.152 634.754 835.808 633.986 835.12 633.442C834.448 632.882 833.48 632.602 832.216 632.602C830.248 632.602 828.72 633.226 827.632 634.474L826.408 633.418C827.064 632.65 827.896 632.058 828.904 631.642C829.928 631.226 831.08 631.018 832.36 631.018C834.072 631.018 835.424 631.426 836.416 632.242C837.424 633.042 837.928 634.146 837.928 635.554C837.928 636.418 837.736 637.25 837.352 638.05C836.968 638.85 836.24 639.77 835.168 640.81L829.456 646.426H838.696Z" fill="#FFDEEB"/>
<path d="M782.489 612.179H766.311" stroke="#D8CEE2" stroke-width="2.2794" stroke-miterlimit="10"/>
<path d="M262.85 98.3701L259.01 92.9701C258.578 93.0181 258.13 93.0421 257.666 93.0421H253.154V98.3701H251.378V81.5701H257.666C259.81 81.5701 261.49 82.0821 262.706 83.1061C263.922 84.1301 264.53 85.5381 264.53 87.3301C264.53 88.6421 264.194 89.7541 263.522 90.6661C262.866 91.5621 261.922 92.2101 260.69 92.6101L264.794 98.3701H262.85ZM257.618 91.5301C259.282 91.5301 260.554 91.1621 261.434 90.4261C262.314 89.6901 262.754 88.6581 262.754 87.3301C262.754 85.9701 262.314 84.9301 261.434 84.2101C260.554 83.4741 259.282 83.1061 257.618 83.1061H253.154V91.5301H257.618ZM273.762 96.9781C274.546 96.9781 275.266 96.8421 275.922 96.5701C276.594 96.2821 277.162 95.8661 277.626 95.3221L278.586 96.4261C278.026 97.0981 277.33 97.6101 276.498 97.9621C275.666 98.3141 274.746 98.4901 273.738 98.4901C272.442 98.4901 271.29 98.2181 270.282 97.6741C269.274 97.1141 268.49 96.3461 267.93 95.3701C267.37 94.3941 267.09 93.2901 267.09 92.0581C267.09 90.8261 267.354 89.7221 267.882 88.7461C268.426 87.7701 269.17 87.0101 270.114 86.4661C271.058 85.9221 272.13 85.6501 273.33 85.6501C274.45 85.6501 275.458 85.9061 276.354 86.4181C277.266 86.9301 277.986 87.6421 278.514 88.5541C279.058 89.4661 279.346 90.5061 279.378 91.6741L269.01 93.6901C269.33 94.7141 269.906 95.5221 270.738 96.1141C271.586 96.6901 272.594 96.9781 273.762 96.9781ZM273.33 87.1141C272.45 87.1141 271.658 87.3221 270.954 87.7381C270.266 88.1381 269.722 88.7061 269.322 89.4421C268.938 90.1621 268.746 90.9941 268.746 91.9381C268.746 92.1781 268.754 92.3541 268.77 92.4661L277.674 90.7381C277.482 89.6821 276.994 88.8181 276.21 88.1461C275.426 87.4581 274.466 87.1141 273.33 87.1141ZM286.23 98.4901C285.206 98.4901 284.222 98.3461 283.278 98.0581C282.35 97.7541 281.622 97.3781 281.094 96.9301L281.862 95.5861C282.39 96.0021 283.054 96.3461 283.854 96.6181C284.654 96.8741 285.486 97.0021 286.35 97.0021C287.502 97.0021 288.35 96.8261 288.894 96.4741C289.454 96.1061 289.734 95.5941 289.734 94.9381C289.734 94.4741 289.582 94.1141 289.278 93.8581C288.974 93.5861 288.59 93.3861 288.126 93.2581C287.662 93.1141 287.046 92.9781 286.278 92.8501C285.254 92.6581 284.43 92.4661 283.806 92.2741C283.182 92.0661 282.646 91.7221 282.198 91.2421C281.766 90.7621 281.55 90.0981 281.55 89.2501C281.55 88.1941 281.99 87.3301 282.87 86.6581C283.75 85.9861 284.974 85.6501 286.542 85.6501C287.358 85.6501 288.174 85.7621 288.99 85.9861C289.806 86.1941 290.478 86.4741 291.006 86.8261L290.262 88.1941C289.222 87.4741 287.982 87.1141 286.542 87.1141C285.454 87.1141 284.63 87.3061 284.07 87.6901C283.526 88.0741 283.254 88.5781 283.254 89.2021C283.254 89.6821 283.406 90.0661 283.71 90.3541C284.03 90.6421 284.422 90.8581 284.886 91.0021C285.35 91.1301 285.99 91.2661 286.806 91.4101C287.814 91.6021 288.622 91.7941 289.23 91.9861C289.838 92.1781 290.358 92.5061 290.79 92.9701C291.222 93.4341 291.438 94.0741 291.438 94.8901C291.438 95.9941 290.974 96.8741 290.046 97.5301C289.134 98.1701 287.862 98.4901 286.23 98.4901ZM301.092 85.6501C302.276 85.6501 303.348 85.9221 304.308 86.4661C305.268 86.9941 306.02 87.7461 306.564 88.7221C307.108 89.6981 307.38 90.8101 307.38 92.0581C307.38 93.3221 307.108 94.4421 306.564 95.4181C306.02 96.3941 305.268 97.1541 304.308 97.6981C303.364 98.2261 302.292 98.4901 301.092 98.4901C300.068 98.4901 299.14 98.2821 298.308 97.8661C297.492 97.4341 296.82 96.8101 296.292 95.9941V103.026H294.588V85.7461H296.22V88.2421C296.732 87.4101 297.404 86.7701 298.236 86.3221C299.084 85.8741 300.036 85.6501 301.092 85.6501ZM300.972 96.9781C301.852 96.9781 302.652 96.7781 303.372 96.3781C304.092 95.9621 304.652 95.3781 305.052 94.6261C305.468 93.8741 305.676 93.0181 305.676 92.0581C305.676 91.0981 305.468 90.2501 305.052 89.5141C304.652 88.7621 304.092 88.1781 303.372 87.7621C302.652 87.3461 301.852 87.1381 300.972 87.1381C300.076 87.1381 299.268 87.3461 298.548 87.7621C297.844 88.1781 297.284 88.7621 296.868 89.5141C296.468 90.2501 296.268 91.0981 296.268 92.0581C296.268 93.0181 296.468 93.8741 296.868 94.6261C297.284 95.3781 297.844 95.9621 298.548 96.3781C299.268 96.7781 300.076 96.9781 300.972 96.9781ZM310.854 85.7461H312.558V98.3701H310.854V85.7461ZM311.718 82.9861C311.366 82.9861 311.07 82.8661 310.83 82.6261C310.59 82.3861 310.47 82.0981 310.47 81.7621C310.47 81.4421 310.59 81.1621 310.83 80.9221C311.07 80.6821 311.366 80.5621 311.718 80.5621C312.07 80.5621 312.366 80.6821 312.606 80.9221C312.846 81.1461 312.966 81.4181 312.966 81.7381C312.966 82.0901 312.846 82.3861 312.606 82.6261C312.366 82.8661 312.07 82.9861 311.718 82.9861ZM318.931 88.2181C319.331 87.3701 319.923 86.7301 320.707 86.2981C321.507 85.8661 322.491 85.6501 323.659 85.6501V87.3061L323.251 87.2821C321.923 87.2821 320.883 87.6901 320.131 88.5061C319.379 89.3221 319.003 90.4661 319.003 91.9381V98.3701H317.299V85.7461H318.931V88.2181ZM338.147 85.7461V98.3701H336.515V95.8741C336.003 96.7221 335.323 97.3701 334.475 97.8181C333.643 98.2661 332.699 98.4901 331.643 98.4901C330.459 98.4901 329.387 98.2181 328.427 97.6741C327.467 97.1301 326.715 96.3701 326.171 95.3941C325.627 94.4181 325.355 93.3061 325.355 92.0581C325.355 90.8101 325.627 89.6981 326.171 88.7221C326.715 87.7461 327.467 86.9941 328.427 86.4661C329.387 85.9221 330.459 85.6501 331.643 85.6501C332.667 85.6501 333.587 85.8661 334.403 86.2981C335.235 86.7141 335.915 87.3301 336.443 88.1461V85.7461H338.147ZM331.787 96.9781C332.667 96.9781 333.459 96.7781 334.163 96.3781C334.883 95.9621 335.443 95.3781 335.843 94.6261C336.259 93.8741 336.467 93.0181 336.467 92.0581C336.467 91.0981 336.259 90.2421 335.843 89.4901C335.443 88.7381 334.883 88.1621 334.163 87.7621C333.459 87.3461 332.667 87.1381 331.787 87.1381C330.891 87.1381 330.083 87.3461 329.363 87.7621C328.659 88.1621 328.099 88.7381 327.683 89.4901C327.283 90.2421 327.083 91.0981 327.083 92.0581C327.083 93.0181 327.283 93.8741 327.683 94.6261C328.099 95.3781 328.659 95.9621 329.363 96.3781C330.083 96.7781 330.891 96.9781 331.787 96.9781ZM349.109 97.6021C348.789 97.8901 348.397 98.1141 347.933 98.2741C347.469 98.4181 346.981 98.4901 346.469 98.4901C345.285 98.4901 344.373 98.1701 343.733 97.5301C343.093 96.8901 342.773 95.9861 342.773 94.8181V82.9861H344.477V85.7461H348.293V87.1861H344.477V94.7221C344.477 95.4741 344.661 96.0501 345.029 96.4501C345.397 96.8341 345.933 97.0261 346.637 97.0261C347.405 97.0261 348.029 96.8101 348.509 96.3781L349.109 97.6021ZM356.912 98.4901C355.696 98.4901 354.6 98.2181 353.624 97.6741C352.648 97.1141 351.88 96.3461 351.32 95.3701C350.76 94.3941 350.48 93.2901 350.48 92.0581C350.48 90.8261 350.76 89.7221 351.32 88.7461C351.88 87.7701 352.648 87.0101 353.624 86.4661C354.6 85.9221 355.696 85.6501 356.912 85.6501C358.128 85.6501 359.224 85.9221 360.2 86.4661C361.176 87.0101 361.936 87.7701 362.48 88.7461C363.04 89.7221 363.32 90.8261 363.32 92.0581C363.32 93.2901 363.04 94.3941 362.48 95.3701C361.936 96.3461 361.176 97.1141 360.2 97.6741C359.224 98.2181 358.128 98.4901 356.912 98.4901ZM356.912 96.9781C357.808 96.9781 358.608 96.7781 359.312 96.3781C360.032 95.9621 360.592 95.3781 360.992 94.6261C361.392 93.8741 361.592 93.0181 361.592 92.0581C361.592 91.0981 361.392 90.2421 360.992 89.4901C360.592 88.7381 360.032 88.1621 359.312 87.7621C358.608 87.3461 357.808 87.1381 356.912 87.1381C356.016 87.1381 355.208 87.3461 354.488 87.7621C353.784 88.1621 353.224 88.7381 352.808 89.4901C352.408 90.2421 352.208 91.0981 352.208 92.0581C352.208 93.0181 352.408 93.8741 352.808 94.6261C353.224 95.3781 353.784 95.9621 354.488 96.3781C355.208 96.7781 356.016 96.9781 356.912 96.9781ZM368.431 88.2181C368.831 87.3701 369.423 86.7301 370.207 86.2981C371.007 85.8661 371.991 85.6501 373.159 85.6501V87.3061L372.751 87.2821C371.423 87.2821 370.383 87.6901 369.631 88.5061C368.879 89.3221 368.503 90.4661 368.503 91.9381V98.3701H366.799V85.7461H368.431V88.2181ZM387.808 85.7461V96.8341C387.808 98.9781 387.32 100.562 386.344 101.586C385.368 102.626 383.896 103.146 381.928 103.146C380.824 103.146 379.776 102.97 378.784 102.618C377.808 102.282 377.016 101.81 376.408 101.202L377.272 99.9061C377.816 100.45 378.488 100.874 379.288 101.178C380.088 101.482 380.944 101.634 381.856 101.634C383.312 101.634 384.384 101.258 385.072 100.506C385.76 99.7701 386.104 98.6181 386.104 97.0501V95.5861C385.656 96.3221 385.04 96.8901 384.256 97.2901C383.488 97.6901 382.616 97.8901 381.64 97.8901C379.992 97.8901 378.688 97.4341 377.728 96.5221C376.784 95.5941 376.312 94.2421 376.312 92.4661V85.7461H378.016V92.2981C378.016 93.6261 378.344 94.6341 379 95.3221C379.656 96.0101 380.592 96.3541 381.808 96.3541C383.136 96.3541 384.184 95.9541 384.952 95.1541C385.72 94.3381 386.104 93.2101 386.104 91.7701V85.7461H387.808ZM410.694 98.3701L406.854 92.9701C406.422 93.0181 405.974 93.0421 405.51 93.0421H400.998V98.3701H399.222V81.5701H405.51C407.654 81.5701 409.334 82.0821 410.55 83.1061C411.766 84.1301 412.374 85.5381 412.374 87.3301C412.374 88.6421 412.038 89.7541 411.366 90.6661C410.71 91.5621 409.766 92.2101 408.534 92.6101L412.638 98.3701H410.694ZM405.462 91.5301C407.126 91.5301 408.398 91.1621 409.278 90.4261C410.158 89.6901 410.598 88.6581 410.598 87.3301C410.598 85.9701 410.158 84.9301 409.278 84.2101C408.398 83.4741 407.126 83.1061 405.462 83.1061H400.998V91.5301H405.462ZM427.725 85.7461V98.3701H426.093V95.8741C425.581 96.7221 424.901 97.3701 424.053 97.8181C423.221 98.2661 422.277 98.4901 421.221 98.4901C420.037 98.4901 418.965 98.2181 418.005 97.6741C417.045 97.1301 416.293 96.3701 415.749 95.3941C415.205 94.4181 414.933 93.3061 414.933 92.0581C414.933 90.8101 415.205 89.6981 415.749 88.7221C416.293 87.7461 417.045 86.9941 418.005 86.4661C418.965 85.9221 420.037 85.6501 421.221 85.6501C422.245 85.6501 423.165 85.8661 423.981 86.2981C424.813 86.7141 425.493 87.3301 426.021 88.1461V85.7461H427.725ZM421.365 96.9781C422.245 96.9781 423.037 96.7781 423.741 96.3781C424.461 95.9621 425.021 95.3781 425.421 94.6261C425.837 93.8741 426.045 93.0181 426.045 92.0581C426.045 91.0981 425.837 90.2421 425.421 89.4901C425.021 88.7381 424.461 88.1621 423.741 87.7621C423.037 87.3461 422.245 87.1381 421.365 87.1381C420.469 87.1381 419.661 87.3461 418.941 87.7621C418.237 88.1621 417.677 88.7381 417.261 89.4901C416.861 90.2421 416.661 91.0981 416.661 92.0581C416.661 93.0181 416.861 93.8741 417.261 94.6261C417.677 95.3781 418.237 95.9621 418.941 96.3781C419.661 96.7781 420.469 96.9781 421.365 96.9781ZM438.687 97.6021C438.367 97.8901 437.975 98.1141 437.511 98.2741C437.047 98.4181 436.559 98.4901 436.047 98.4901C434.863 98.4901 433.951 98.1701 433.311 97.5301C432.671 96.8901 432.351 95.9861 432.351 94.8181V82.9861H434.055V85.7461H437.871V87.1861H434.055V94.7221C434.055 95.4741 434.239 96.0501 434.607 96.4501C434.975 96.8341 435.511 97.0261 436.215 97.0261C436.983 97.0261 437.607 96.8101 438.087 96.3781L438.687 97.6021ZM446.73 96.9781C447.514 96.9781 448.234 96.8421 448.89 96.5701C449.562 96.2821 450.13 95.8661 450.594 95.3221L451.554 96.4261C450.994 97.0981 450.298 97.6101 449.466 97.9621C448.634 98.3141 447.714 98.4901 446.706 98.4901C445.41 98.4901 444.258 98.2181 443.25 97.6741C442.242 97.1141 441.458 96.3461 440.898 95.3701C440.338 94.3941 440.058 93.2901 440.058 92.0581C440.058 90.8261 440.322 89.7221 440.85 88.7461C441.394 87.7701 442.138 87.0101 443.082 86.4661C444.026 85.9221 445.098 85.6501 446.298 85.6501C447.418 85.6501 448.426 85.9061 449.322 86.4181C450.234 86.9301 450.954 87.6421 451.482 88.5541C452.026 89.4661 452.314 90.5061 452.346 91.6741L441.978 93.6901C442.298 94.7141 442.874 95.5221 443.706 96.1141C444.554 96.6901 445.562 96.9781 446.73 96.9781ZM446.298 87.1141C445.418 87.1141 444.626 87.3221 443.922 87.7381C443.234 88.1381 442.69 88.7061 442.29 89.4421C441.906 90.1621 441.714 90.9941 441.714 91.9381C441.714 92.1781 441.722 92.3541 441.738 92.4661L450.642 90.7381C450.45 89.6821 449.962 88.8181 449.178 88.1461C448.394 87.4581 447.434 87.1141 446.298 87.1141ZM455.983 88.2661C455.631 88.2661 455.327 88.1381 455.071 87.8821C454.831 87.6261 454.711 87.3141 454.711 86.9461C454.711 86.5781 454.831 86.2741 455.071 86.0341C455.327 85.7781 455.631 85.6501 455.983 85.6501C456.335 85.6501 456.639 85.7781 456.895 86.0341C457.151 86.2741 457.279 86.5781 457.279 86.9461C457.279 87.3141 457.151 87.6261 456.895 87.8821C456.639 88.1381 456.335 88.2661 455.983 88.2661ZM455.983 98.4901C455.631 98.4901 455.327 98.3621 455.071 98.1061C454.831 97.8501 454.711 97.5381 454.711 97.1701C454.711 96.8021 454.831 96.4981 455.071 96.2581C455.327 96.0021 455.631 95.8741 455.983 95.8741C456.335 95.8741 456.639 96.0021 456.895 96.2581C457.151 96.4981 457.279 96.8021 457.279 97.1701C457.279 97.5381 457.151 97.8501 456.895 98.1061C456.639 98.3621 456.335 98.4901 455.983 98.4901ZM472.174 98.5141C470.926 98.5141 469.726 98.3141 468.574 97.9141C467.438 97.5141 466.558 96.9861 465.934 96.3301L466.63 94.9621C467.238 95.5701 468.046 96.0661 469.054 96.4501C470.062 96.8181 471.102 97.0021 472.174 97.0021C473.678 97.0021 474.806 96.7301 475.558 96.1861C476.31 95.6261 476.686 94.9061 476.686 94.0261C476.686 93.3541 476.478 92.8181 476.062 92.4181C475.662 92.0181 475.166 91.7141 474.574 91.5061C473.982 91.2821 473.158 91.0421 472.102 90.7861C470.838 90.4661 469.83 90.1621 469.078 89.8741C468.326 89.5701 467.678 89.1141 467.134 88.5061C466.606 87.8981 466.342 87.0741 466.342 86.0341C466.342 85.1861 466.566 84.4181 467.014 83.7301C467.462 83.0261 468.15 82.4661 469.078 82.0501C470.006 81.6341 471.158 81.4261 472.534 81.4261C473.494 81.4261 474.43 81.5621 475.342 81.8341C476.27 82.0901 477.07 82.4501 477.742 82.9141L477.142 84.3301C476.438 83.8661 475.686 83.5221 474.886 83.2981C474.086 83.0581 473.302 82.9381 472.534 82.9381C471.062 82.9381 469.95 83.2261 469.198 83.8021C468.462 84.3621 468.094 85.0901 468.094 85.9861C468.094 86.6581 468.294 87.2021 468.694 87.6181C469.11 88.0181 469.622 88.3301 470.23 88.5541C470.854 88.7621 471.686 88.9941 472.726 89.2501C473.958 89.5541 474.95 89.8581 475.702 90.1621C476.47 90.4501 477.118 90.8981 477.646 91.5061C478.174 92.0981 478.438 92.9061 478.438 93.9301C478.438 94.7781 478.206 95.5541 477.742 96.2581C477.294 96.9461 476.598 97.4981 475.654 97.9141C474.71 98.3141 473.55 98.5141 472.174 98.5141ZM485.5 98.4901C484.364 98.4901 483.484 98.1701 482.86 97.5301C482.252 96.8901 481.948 96.0021 481.948 94.8661V80.5621H483.652V94.7221C483.652 95.4741 483.828 96.0501 484.18 96.4501C484.532 96.8341 485.06 97.0261 485.764 97.0261C486.212 97.0261 486.596 96.9541 486.916 96.8101L487.036 98.2261C486.54 98.4021 486.028 98.4901 485.5 98.4901ZM494.519 96.9781C495.303 96.9781 496.023 96.8421 496.679 96.5701C497.351 96.2821 497.919 95.8661 498.383 95.3221L499.343 96.4261C498.783 97.0981 498.087 97.6101 497.255 97.9621C496.423 98.3141 495.503 98.4901 494.495 98.4901C493.199 98.4901 492.047 98.2181 491.039 97.6741C490.031 97.1141 489.247 96.3461 488.687 95.3701C488.127 94.3941 487.847 93.2901 487.847 92.0581C487.847 90.8261 488.111 89.7221 488.639 88.7461C489.183 87.7701 489.927 87.0101 490.871 86.4661C491.815 85.9221 492.887 85.6501 494.087 85.6501C495.207 85.6501 496.215 85.9061 497.111 86.4181C498.023 86.9301 498.743 87.6421 499.271 88.5541C499.815 89.4661 500.103 90.5061 500.135 91.6741L489.767 93.6901C490.087 94.7141 490.663 95.5221 491.495 96.1141C492.343 96.6901 493.351 96.9781 494.519 96.9781ZM494.087 87.1141C493.207 87.1141 492.415 87.3221 491.711 87.7381C491.023 88.1381 490.479 88.7061 490.079 89.4421C489.695 90.1621 489.503 90.9941 489.503 91.9381C489.503 92.1781 489.511 92.3541 489.527 92.4661L498.431 90.7381C498.239 89.6821 497.751 88.8181 496.967 88.1461C496.183 87.4581 495.223 87.1141 494.087 87.1141ZM509.004 96.9781C509.788 96.9781 510.508 96.8421 511.164 96.5701C511.836 96.2821 512.404 95.8661 512.868 95.3221L513.828 96.4261C513.268 97.0981 512.572 97.6101 511.74 97.9621C510.908 98.3141 509.988 98.4901 508.98 98.4901C507.684 98.4901 506.532 98.2181 505.524 97.6741C504.516 97.1141 503.732 96.3461 503.172 95.3701C502.612 94.3941 502.332 93.2901 502.332 92.0581C502.332 90.8261 502.596 89.7221 503.124 88.7461C503.668 87.7701 504.412 87.0101 505.356 86.4661C506.3 85.9221 507.372 85.6501 508.572 85.6501C509.692 85.6501 510.7 85.9061 511.596 86.4181C512.508 86.9301 513.228 87.6421 513.756 88.5541C514.3 89.4661 514.588 90.5061 514.62 91.6741L504.252 93.6901C504.572 94.7141 505.148 95.5221 505.98 96.1141C506.828 96.6901 507.836 96.9781 509.004 96.9781ZM508.572 87.1141C507.692 87.1141 506.9 87.3221 506.196 87.7381C505.508 88.1381 504.964 88.7061 504.564 89.4421C504.18 90.1621 503.988 90.9941 503.988 91.9381C503.988 92.1781 503.996 92.3541 504.012 92.4661L512.916 90.7381C512.724 89.6821 512.236 88.8181 511.452 88.1461C510.668 87.4581 509.708 87.1141 508.572 87.1141ZM524.592 85.6501C525.776 85.6501 526.848 85.9221 527.808 86.4661C528.768 86.9941 529.52 87.7461 530.064 88.7221C530.608 89.6981 530.88 90.8101 530.88 92.0581C530.88 93.3221 530.608 94.4421 530.064 95.4181C529.52 96.3941 528.768 97.1541 527.808 97.6981C526.864 98.2261 525.792 98.4901 524.592 98.4901C523.568 98.4901 522.64 98.2821 521.808 97.8661C520.992 97.4341 520.32 96.8101 519.792 95.9941V103.026H518.088V85.7461H519.72V88.2421C520.232 87.4101 520.904 86.7701 521.736 86.3221C522.584 85.8741 523.536 85.6501 524.592 85.6501ZM524.472 96.9781C525.352 96.9781 526.152 96.7781 526.872 96.3781C527.592 95.9621 528.152 95.3781 528.552 94.6261C528.968 93.8741 529.176 93.0181 529.176 92.0581C529.176 91.0981 528.968 90.2501 528.552 89.5141C528.152 88.7621 527.592 88.1781 526.872 87.7621C526.152 87.3461 525.352 87.1381 524.472 87.1381C523.576 87.1381 522.768 87.3461 522.048 87.7621C521.344 88.1781 520.784 88.7621 520.368 89.5141C519.968 90.2501 519.768 91.0981 519.768 92.0581C519.768 93.0181 519.968 93.8741 520.368 94.6261C520.784 95.3781 521.344 95.9621 522.048 96.3781C522.768 96.7781 523.576 96.9781 524.472 96.9781Z" fill="#AEE7F4"/>
<path d="M512.105 165.251V182.051H510.353V174.299H499.841V182.051H498.065V165.251H499.841V172.739H510.353V165.251H512.105ZM522.628 180.659C523.412 180.659 524.132 180.523 524.788 180.251C525.46 179.963 526.028 179.547 526.492 179.003L527.452 180.107C526.892 180.779 526.196 181.291 525.364 181.643C524.532 181.995 523.612 182.171 522.604 182.171C521.308 182.171 520.156 181.899 519.148 181.355C518.14 180.795 517.356 180.027 516.796 179.051C516.236 178.075 515.956 176.971 515.956 175.739C515.956 174.507 516.22 173.403 516.748 172.427C517.292 171.451 518.036 170.691 518.98 170.147C519.924 169.603 520.996 169.331 522.196 169.331C523.316 169.331 524.324 169.587 525.22 170.099C526.132 170.611 526.852 171.323 527.38 172.235C527.924 173.147 528.212 174.187 528.244 175.355L517.876 177.371C518.196 178.395 518.772 179.203 519.604 179.795C520.452 180.371 521.46 180.659 522.628 180.659ZM522.196 170.795C521.316 170.795 520.524 171.003 519.82 171.419C519.132 171.819 518.588 172.387 518.188 173.123C517.804 173.843 517.612 174.675 517.612 175.619C517.612 175.859 517.62 176.035 517.636 176.147L526.54 174.419C526.348 173.363 525.86 172.499 525.076 171.827C524.292 171.139 523.332 170.795 522.196 170.795ZM543.233 169.427V182.051H541.601V179.555C541.089 180.403 540.409 181.051 539.561 181.499C538.729 181.947 537.785 182.171 536.729 182.171C535.545 182.171 534.473 181.899 533.513 181.355C532.553 180.811 531.801 180.051 531.257 179.075C530.713 178.099 530.441 176.987 530.441 175.739C530.441 174.491 530.713 173.379 531.257 172.403C531.801 171.427 532.553 170.675 533.513 170.147C534.473 169.603 535.545 169.331 536.729 169.331C537.753 169.331 538.673 169.547 539.489 169.979C540.321 170.395 541.001 171.011 541.529 171.827V169.427H543.233ZM536.873 180.659C537.753 180.659 538.545 180.459 539.249 180.059C539.969 179.643 540.529 179.059 540.929 178.307C541.345 177.555 541.553 176.699 541.553 175.739C541.553 174.779 541.345 173.923 540.929 173.171C540.529 172.419 539.969 171.843 539.249 171.443C538.545 171.027 537.753 170.819 536.873 170.819C535.977 170.819 535.169 171.027 534.449 171.443C533.745 171.843 533.185 172.419 532.769 173.171C532.369 173.923 532.169 174.779 532.169 175.739C532.169 176.699 532.369 177.555 532.769 178.307C533.185 179.059 533.745 179.643 534.449 180.059C535.169 180.459 535.977 180.659 536.873 180.659ZM549.61 171.899C550.01 171.051 550.602 170.411 551.386 169.979C552.186 169.547 553.17 169.331 554.338 169.331V170.987L553.93 170.963C552.602 170.963 551.562 171.371 550.81 172.187C550.058 173.003 549.682 174.147 549.682 175.619V182.051H547.978V169.427H549.61V171.899ZM563.64 181.283C563.32 181.571 562.928 181.795 562.464 181.955C562 182.099 561.512 182.171 561 182.171C559.816 182.171 558.904 181.851 558.264 181.211C557.624 180.571 557.304 179.667 557.304 178.499V166.667H559.008V169.427H562.824V170.867H559.008V178.403C559.008 179.155 559.192 179.731 559.56 180.131C559.928 180.515 560.464 180.707 561.168 180.707C561.936 180.707 562.56 180.491 563.04 180.059L563.64 181.283ZM584.842 182.051L581.002 176.651C580.57 176.699 580.122 176.723 579.658 176.723H575.146V182.051H573.37V165.251H579.658C581.802 165.251 583.482 165.763 584.698 166.787C585.914 167.811 586.522 169.219 586.522 171.011C586.522 172.323 586.186 173.435 585.514 174.347C584.858 175.243 583.914 175.891 582.682 176.291L586.786 182.051H584.842ZM579.61 175.211C581.274 175.211 582.546 174.843 583.426 174.107C584.306 173.371 584.746 172.339 584.746 171.011C584.746 169.651 584.306 168.611 583.426 167.891C582.546 167.155 581.274 166.787 579.61 166.787H575.146V175.211H579.61ZM601.873 169.427V182.051H600.241V179.555C599.729 180.403 599.049 181.051 598.201 181.499C597.369 181.947 596.425 182.171 595.369 182.171C594.185 182.171 593.113 181.899 592.153 181.355C591.193 180.811 590.441 180.051 589.897 179.075C589.353 178.099 589.081 176.987 589.081 175.739C589.081 174.491 589.353 173.379 589.897 172.403C590.441 171.427 591.193 170.675 592.153 170.147C593.113 169.603 594.185 169.331 595.369 169.331C596.393 169.331 597.313 169.547 598.129 169.979C598.961 170.395 599.641 171.011 600.169 171.827V169.427H601.873ZM595.513 180.659C596.393 180.659 597.185 180.459 597.889 180.059C598.609 179.643 599.169 179.059 599.569 178.307C599.985 177.555 600.193 176.699 600.193 175.739C600.193 174.779 599.985 173.923 599.569 173.171C599.169 172.419 598.609 171.843 597.889 171.443C597.185 171.027 596.393 170.819 595.513 170.819C594.617 170.819 593.809 171.027 593.089 171.443C592.385 171.843 591.825 172.419 591.409 173.171C591.009 173.923 590.809 174.779 590.809 175.739C590.809 176.699 591.009 177.555 591.409 178.307C591.825 179.059 592.385 179.643 593.089 180.059C593.809 180.459 594.617 180.659 595.513 180.659ZM612.835 181.283C612.515 181.571 612.123 181.795 611.659 181.955C611.195 182.099 610.707 182.171 610.195 182.171C609.011 182.171 608.099 181.851 607.459 181.211C606.819 180.571 606.499 179.667 606.499 178.499V166.667H608.203V169.427H612.019V170.867H608.203V178.403C608.203 179.155 608.387 179.731 608.755 180.131C609.123 180.515 609.659 180.707 610.363 180.707C611.131 180.707 611.755 180.491 612.235 180.059L612.835 181.283ZM620.878 180.659C621.662 180.659 622.382 180.523 623.038 180.251C623.71 179.963 624.278 179.547 624.742 179.003L625.702 180.107C625.142 180.779 624.446 181.291 623.614 181.643C622.782 181.995 621.862 182.171 620.854 182.171C619.558 182.171 618.406 181.899 617.398 181.355C616.39 180.795 615.606 180.027 615.046 179.051C614.486 178.075 614.206 176.971 614.206 175.739C614.206 174.507 614.47 173.403 614.998 172.427C615.542 171.451 616.286 170.691 617.23 170.147C618.174 169.603 619.246 169.331 620.446 169.331C621.566 169.331 622.574 169.587 623.47 170.099C624.382 170.611 625.102 171.323 625.63 172.235C626.174 173.147 626.462 174.187 626.494 175.355L616.126 177.371C616.446 178.395 617.022 179.203 617.854 179.795C618.702 180.371 619.71 180.659 620.878 180.659ZM620.446 170.795C619.566 170.795 618.774 171.003 618.07 171.419C617.382 171.819 616.838 172.387 616.438 173.123C616.054 173.843 615.862 174.675 615.862 175.619C615.862 175.859 615.87 176.035 615.886 176.147L624.79 174.419C624.598 173.363 624.11 172.499 623.326 171.827C622.542 171.139 621.582 170.795 620.446 170.795ZM630.131 171.947C629.779 171.947 629.475 171.819 629.219 171.563C628.979 171.307 628.859 170.995 628.859 170.627C628.859 170.259 628.979 169.955 629.219 169.715C629.475 169.459 629.779 169.331 630.131 169.331C630.483 169.331 630.787 169.459 631.043 169.715C631.299 169.955 631.427 170.259 631.427 170.627C631.427 170.995 631.299 171.307 631.043 171.563C630.787 171.819 630.483 171.947 630.131 171.947ZM630.131 182.171C629.779 182.171 629.475 182.043 629.219 181.787C628.979 181.531 628.859 181.219 628.859 180.851C628.859 180.483 628.979 180.179 629.219 179.939C629.475 179.683 629.779 179.555 630.131 179.555C630.483 179.555 630.787 179.683 631.043 179.939C631.299 180.179 631.427 180.483 631.427 180.851C631.427 181.219 631.299 181.531 631.043 181.787C630.787 182.043 630.483 182.171 630.131 182.171ZM646.322 182.195C645.074 182.195 643.874 181.995 642.722 181.595C641.586 181.195 640.706 180.667 640.082 180.011L640.778 178.643C641.386 179.251 642.194 179.747 643.202 180.131C644.21 180.499 645.25 180.683 646.322 180.683C647.826 180.683 648.954 180.411 649.706 179.867C650.458 179.307 650.834 178.587 650.834 177.707C650.834 177.035 650.626 176.499 650.21 176.099C649.81 175.699 649.314 175.395 648.722 175.187C648.13 174.963 647.306 174.723 646.25 174.467C644.986 174.147 643.978 173.843 643.226 173.555C642.474 173.251 641.826 172.795 641.282 172.187C640.754 171.579 640.49 170.755 640.49 169.715C640.49 168.867 640.714 168.099 641.162 167.411C641.61 166.707 642.298 166.147 643.226 165.731C644.154 165.315 645.306 165.107 646.682 165.107C647.642 165.107 648.578 165.243 649.49 165.515C650.418 165.771 651.218 166.131 651.89 166.595L651.29 168.011C650.586 167.547 649.834 167.203 649.034 166.979C648.234 166.739 647.45 166.619 646.682 166.619C645.21 166.619 644.098 166.907 643.346 167.483C642.61 168.043 642.242 168.771 642.242 169.667C642.242 170.339 642.442 170.883 642.842 171.299C643.258 171.699 643.77 172.011 644.378 172.235C645.002 172.443 645.834 172.675 646.874 172.931C648.106 173.235 649.098 173.539 649.85 173.843C650.618 174.131 651.266 174.579 651.794 175.187C652.322 175.779 652.586 176.587 652.586 177.611C652.586 178.459 652.354 179.235 651.89 179.939C651.442 180.627 650.746 181.179 649.802 181.595C648.858 181.995 647.698 182.195 646.322 182.195ZM659.647 182.171C658.511 182.171 657.631 181.851 657.007 181.211C656.399 180.571 656.095 179.683 656.095 178.547V164.243H657.799V178.403C657.799 179.155 657.975 179.731 658.327 180.131C658.679 180.515 659.207 180.707 659.911 180.707C660.359 180.707 660.743 180.635 661.063 180.491L661.183 181.907C660.687 182.083 660.175 182.171 659.647 182.171ZM668.667 180.659C669.451 180.659 670.171 180.523 670.827 180.251C671.499 179.963 672.067 179.547 672.531 179.003L673.491 180.107C672.931 180.779 672.235 181.291 671.403 181.643C670.571 181.995 669.651 182.171 668.643 182.171C667.347 182.171 666.195 181.899 665.187 181.355C664.179 180.795 663.395 180.027 662.835 179.051C662.275 178.075 661.995 176.971 661.995 175.739C661.995 174.507 662.259 173.403 662.787 172.427C663.331 171.451 664.075 170.691 665.019 170.147C665.963 169.603 667.035 169.331 668.235 169.331C669.355 169.331 670.363 169.587 671.259 170.099C672.171 170.611 672.891 171.323 673.419 172.235C673.963 173.147 674.251 174.187 674.283 175.355L663.915 177.371C664.235 178.395 664.811 179.203 665.643 179.795C666.491 180.371 667.499 180.659 668.667 180.659ZM668.235 170.795C667.355 170.795 666.563 171.003 665.859 171.419C665.171 171.819 664.627 172.387 664.227 173.123C663.843 173.843 663.651 174.675 663.651 175.619C663.651 175.859 663.659 176.035 663.675 176.147L672.579 174.419C672.387 173.363 671.899 172.499 671.115 171.827C670.331 171.139 669.371 170.795 668.235 170.795ZM683.152 180.659C683.936 180.659 684.656 180.523 685.312 180.251C685.984 179.963 686.552 179.547 687.016 179.003L687.976 180.107C687.416 180.779 686.72 181.291 685.888 181.643C685.056 181.995 684.136 182.171 683.128 182.171C681.832 182.171 680.68 181.899 679.672 181.355C678.664 180.795 677.88 180.027 677.32 179.051C676.76 178.075 676.48 176.971 676.48 175.739C676.48 174.507 676.744 173.403 677.272 172.427C677.816 171.451 678.56 170.691 679.504 170.147C680.448 169.603 681.52 169.331 682.72 169.331C683.84 169.331 684.848 169.587 685.744 170.099C686.656 170.611 687.376 171.323 687.904 172.235C688.448 173.147 688.736 174.187 688.768 175.355L678.4 177.371C678.72 178.395 679.296 179.203 680.128 179.795C680.976 180.371 681.984 180.659 683.152 180.659ZM682.72 170.795C681.84 170.795 681.048 171.003 680.344 171.419C679.656 171.819 679.112 172.387 678.712 173.123C678.328 173.843 678.136 174.675 678.136 175.619C678.136 175.859 678.144 176.035 678.16 176.147L687.064 174.419C686.872 173.363 686.384 172.499 685.6 171.827C684.816 171.139 683.856 170.795 682.72 170.795ZM698.74 169.331C699.924 169.331 700.996 169.603 701.956 170.147C702.916 170.675 703.668 171.427 704.212 172.403C704.756 173.379 705.028 174.491 705.028 175.739C705.028 177.003 704.756 178.123 704.212 179.099C703.668 180.075 702.916 180.835 701.956 181.379C701.012 181.907 699.94 182.171 698.74 182.171C697.716 182.171 696.788 181.963 695.956 181.547C695.14 181.115 694.468 180.491 693.94 179.675V186.707H692.236V169.427H693.868V171.923C694.38 171.091 695.052 170.451 695.884 170.003C696.732 169.555 697.684 169.331 698.74 169.331ZM698.62 180.659C699.5 180.659 700.3 180.459 701.02 180.059C701.74 179.643 702.3 179.059 702.7 178.307C703.116 177.555 703.324 176.699 703.324 175.739C703.324 174.779 703.116 173.931 702.7 173.195C702.3 172.443 701.74 171.859 701.02 171.443C700.3 171.027 699.5 170.819 698.62 170.819C697.724 170.819 696.916 171.027 696.196 171.443C695.492 171.859 694.932 172.443 694.516 173.195C694.116 173.931 693.916 174.779 693.916 175.739C693.916 176.699 694.116 177.555 694.516 178.307C694.932 179.059 695.492 179.643 696.196 180.059C696.916 180.459 697.724 180.659 698.62 180.659Z" fill="#FFDEEB"/>
<path d="M81.1854 368.099C83.1054 368.099 84.6014 368.651 85.6734 369.755C86.7454 370.859 87.2814 372.459 87.2814 374.555V385.043H85.5294V374.603C85.5294 372.971 85.1134 371.747 84.2814 370.931C83.4654 370.099 82.3454 369.683 80.9214 369.683C79.4174 369.683 78.2414 370.123 77.3934 371.003C76.5454 371.867 76.1214 373.195 76.1214 374.987V385.043H74.3694V374.603C74.3694 372.971 73.9694 371.747 73.1694 370.931C72.3694 370.099 71.2574 369.683 69.8334 369.683C68.3134 369.683 67.1214 370.123 66.2574 371.003C65.4094 371.867 64.9854 373.195 64.9854 374.987V385.043H63.2094V368.243H64.9134V371.051C65.3774 370.091 66.0654 369.363 66.9774 368.867C67.8894 368.355 68.9694 368.099 70.2174 368.099C71.5294 368.099 72.6494 368.379 73.5774 368.939C74.5214 369.483 75.2014 370.251 75.6174 371.243C76.0974 370.219 76.8174 369.443 77.7774 368.915C78.7534 368.371 79.8894 368.099 81.1854 368.099ZM99.4875 368.099C101.663 368.099 103.375 368.739 104.623 370.019C105.887 371.283 106.519 373.115 106.519 375.515V385.043H104.767V380.099H94.2075V385.043H92.4795V375.515C92.4795 373.115 93.1035 371.283 94.3515 370.019C95.6155 368.739 97.3275 368.099 99.4875 368.099ZM104.767 378.563V375.347C104.767 373.475 104.303 372.067 103.375 371.123C102.447 370.163 101.151 369.683 99.4875 369.683C97.8235 369.683 96.5275 370.163 95.5995 371.123C94.6715 372.067 94.2075 373.475 94.2075 375.347V378.563H104.767ZM122.144 385.043L116.72 377.651L111.32 385.043H109.28L115.664 376.403L109.688 368.243H111.728L116.792 375.107L121.832 368.243H123.752L117.8 376.355L124.208 385.043H122.144Z" fill="#AEE7F4"/>
<path d="M79.3266 409.107V410.643H67.5426V409.419L74.5266 402.579C75.4066 401.715 75.9986 400.971 76.3026 400.347C76.6226 399.707 76.7826 399.067 76.7826 398.427C76.7826 397.435 76.4386 396.667 75.7506 396.123C75.0786 395.563 74.1106 395.283 72.8466 395.283C70.8786 395.283 69.3506 395.907 68.2626 397.155L67.0386 396.099C67.6946 395.331 68.5266 394.739 69.5346 394.323C70.5586 393.907 71.7106 393.699 72.9906 393.699C74.7026 393.699 76.0546 394.107 77.0466 394.923C78.0546 395.723 78.5586 396.827 78.5586 398.235C78.5586 399.099 78.3666 399.931 77.9826 400.731C77.5986 401.531 76.8706 402.451 75.7986 403.491L70.0866 409.107H79.3266ZM88.0974 410.787C86.8014 410.787 85.6414 410.443 84.6174 409.755C83.6094 409.067 82.8174 408.083 82.2414 406.803C81.6814 405.507 81.4014 403.987 81.4014 402.243C81.4014 400.499 81.6814 398.987 82.2414 397.707C82.8174 396.411 83.6094 395.419 84.6174 394.731C85.6414 394.043 86.8014 393.699 88.0974 393.699C89.3934 393.699 90.5454 394.043 91.5534 394.731C92.5774 395.419 93.3774 396.411 93.9534 397.707C94.5294 398.987 94.8174 400.499 94.8174 402.243C94.8174 403.987 94.5294 405.507 93.9534 406.803C93.3774 408.083 92.5774 409.067 91.5534 409.755C90.5454 410.443 89.3934 410.787 88.0974 410.787ZM88.0974 409.203C89.0734 409.203 89.9294 408.931 90.6654 408.387C91.4174 407.843 92.0014 407.051 92.4174 406.011C92.8334 404.971 93.0414 403.715 93.0414 402.243C93.0414 400.771 92.8334 399.515 92.4174 398.475C92.0014 397.435 91.4174 396.643 90.6654 396.099C89.9294 395.555 89.0734 395.283 88.0974 395.283C87.1214 395.283 86.2574 395.555 85.5054 396.099C84.7694 396.643 84.1934 397.435 83.7774 398.475C83.3614 399.515 83.1534 400.771 83.1534 402.243C83.1534 403.715 83.3614 404.971 83.7774 406.011C84.1934 407.051 84.7694 407.843 85.5054 408.387C86.2574 408.931 87.1214 409.203 88.0974 409.203ZM98.3303 410.763C97.9783 410.763 97.6743 410.635 97.4183 410.379C97.1783 410.123 97.0583 409.811 97.0583 409.443C97.0583 409.075 97.1783 408.771 97.4183 408.531C97.6743 408.275 97.9783 408.147 98.3303 408.147C98.6823 408.147 98.9863 408.275 99.2423 408.531C99.4983 408.771 99.6263 409.075 99.6263 409.443C99.6263 409.811 99.4983 410.123 99.2423 410.379C98.9863 410.635 98.6823 410.763 98.3303 410.763ZM108.558 410.787C107.262 410.787 106.102 410.443 105.078 409.755C104.07 409.067 103.278 408.083 102.702 406.803C102.142 405.507 101.862 403.987 101.862 402.243C101.862 400.499 102.142 398.987 102.702 397.707C103.278 396.411 104.07 395.419 105.078 394.731C106.102 394.043 107.262 393.699 108.558 393.699C109.854 393.699 111.006 394.043 112.014 394.731C113.038 395.419 113.838 396.411 114.414 397.707C114.99 398.987 115.278 400.499 115.278 402.243C115.278 403.987 114.99 405.507 114.414 406.803C113.838 408.083 113.038 409.067 112.014 409.755C111.006 410.443 109.854 410.787 108.558 410.787ZM108.558 409.203C109.534 409.203 110.39 408.931 111.126 408.387C111.878 407.843 112.462 407.051 112.878 406.011C113.294 404.971 113.502 403.715 113.502 402.243C113.502 400.771 113.294 399.515 112.878 398.475C112.462 397.435 111.878 396.643 111.126 396.099C110.39 395.555 109.534 395.283 108.558 395.283C107.582 395.283 106.718 395.555 105.966 396.099C105.23 396.643 104.654 397.435 104.238 398.475C103.822 399.515 103.614 400.771 103.614 402.243C103.614 403.715 103.822 404.971 104.238 406.011C104.654 407.051 105.23 407.843 105.966 408.387C106.718 408.931 107.582 409.203 108.558 409.203Z" fill="#AEE7F4"/>
<path d="M146.933 374.578H130.755" stroke="#AEE7F4" stroke-width="2.2794" stroke-miterlimit="10"/>
<path d="M357.585 161.268C359.505 161.268 361.001 161.82 362.073 162.924C363.145 164.028 363.681 165.628 363.681 167.724V178.212H361.929V167.772C361.929 166.14 361.513 164.916 360.681 164.1C359.865 163.268 358.745 162.852 357.321 162.852C355.817 162.852 354.641 163.292 353.793 164.172C352.945 165.036 352.521 166.364 352.521 168.156V178.212H350.769V167.772C350.769 166.14 350.369 164.916 349.569 164.1C348.769 163.268 347.657 162.852 346.233 162.852C344.713 162.852 343.521 163.292 342.657 164.172C341.809 165.036 341.385 166.364 341.385 168.156V178.212H339.609V161.412H341.313V164.22C341.777 163.26 342.465 162.532 343.377 162.036C344.289 161.524 345.369 161.268 346.617 161.268C347.929 161.268 349.049 161.548 349.977 162.108C350.921 162.652 351.601 163.42 352.017 164.412C352.497 163.388 353.217 162.612 354.177 162.084C355.153 161.54 356.289 161.268 357.585 161.268ZM372.503 162.948V176.676H375.911V178.212H367.343V176.676H370.751V162.948H367.343V161.412H375.911V162.948H372.503ZM387.102 161.268C389.118 161.268 390.694 161.868 391.83 163.068C392.982 164.268 393.558 165.98 393.558 168.204V178.212H391.782V168.252C391.782 166.476 391.342 165.132 390.462 164.22C389.582 163.308 388.35 162.852 386.766 162.852C385.102 162.852 383.806 163.34 382.878 164.316C381.95 165.276 381.486 166.724 381.486 168.66V178.212H379.71V161.412H381.414V164.244C382.486 162.26 384.382 161.268 387.102 161.268Z" fill="#AEE7F4"/>
<path d="M348.91 187.012V203.812H347.182V188.548H343.222V187.012H348.91ZM367.206 199.396H363.846V203.812H362.118V199.396H352.638V198.148L361.542 187.012H363.462L354.87 197.86H362.166V193.972H363.846V197.86H367.206V199.396ZM370.558 203.932C370.206 203.932 369.902 203.804 369.646 203.548C369.406 203.292 369.286 202.98 369.286 202.612C369.286 202.244 369.406 201.94 369.646 201.7C369.902 201.444 370.206 201.316 370.558 201.316C370.91 201.316 371.214 201.444 371.47 201.7C371.726 201.94 371.854 202.244 371.854 202.612C371.854 202.98 371.726 203.292 371.47 203.548C371.214 203.804 370.91 203.932 370.558 203.932ZM380.786 203.956C379.49 203.956 378.33 203.612 377.306 202.924C376.298 202.236 375.506 201.252 374.93 199.972C374.37 198.676 374.09 197.156 374.09 195.412C374.09 193.668 374.37 192.156 374.93 190.876C375.506 189.58 376.298 188.588 377.306 187.9C378.33 187.212 379.49 186.868 380.786 186.868C382.082 186.868 383.234 187.212 384.242 187.9C385.266 188.588 386.066 189.58 386.642 190.876C387.218 192.156 387.506 193.668 387.506 195.412C387.506 197.156 387.218 198.676 386.642 199.972C386.066 201.252 385.266 202.236 384.242 202.924C383.234 203.612 382.082 203.956 380.786 203.956ZM380.786 202.372C381.762 202.372 382.618 202.1 383.354 201.556C384.106 201.012 384.69 200.22 385.106 199.18C385.522 198.14 385.73 196.884 385.73 195.412C385.73 193.94 385.522 192.684 385.106 191.644C384.69 190.604 384.106 189.812 383.354 189.268C382.618 188.724 381.762 188.452 380.786 188.452C379.81 188.452 378.946 188.724 378.194 189.268C377.458 189.812 376.882 190.604 376.466 191.644C376.05 192.684 375.842 193.94 375.842 195.412C375.842 196.884 376.05 198.14 376.466 199.18C376.882 200.22 377.458 201.012 378.194 201.556C378.946 202.1 379.81 202.372 380.786 202.372Z" fill="#AEE7F4"/>
<path d="M359.377 134.756V151.023" stroke="#AEE7F4" stroke-width="2.2794" stroke-miterlimit="10"/>
<path d="M840.615 410.503C842.535 410.503 844.031 411.055 845.103 412.159C846.175 413.263 846.711 414.863 846.711 416.959V427.447H844.959V417.007C844.959 415.375 844.543 414.151 843.711 413.335C842.895 412.503 841.775 412.087 840.351 412.087C838.847 412.087 837.671 412.527 836.823 413.407C835.975 414.271 835.551 415.599 835.551 417.391V427.447H833.799V417.007C833.799 415.375 833.399 414.151 832.599 413.335C831.799 412.503 830.687 412.087 829.263 412.087C827.743 412.087 826.551 412.527 825.687 413.407C824.839 414.271 824.415 415.599 824.415 417.391V427.447H822.639V410.647H824.343V413.455C824.807 412.495 825.495 411.767 826.407 411.271C827.319 410.759 828.399 410.503 829.647 410.503C830.959 410.503 832.079 410.783 833.007 411.343C833.951 411.887 834.631 412.655 835.047 413.647C835.527 412.623 836.247 411.847 837.207 411.319C838.183 410.775 839.319 410.503 840.615 410.503ZM858.917 410.503C861.093 410.503 862.805 411.143 864.053 412.423C865.317 413.687 865.949 415.519 865.949 417.919V427.447H864.197V422.503H853.637V427.447H851.909V417.919C851.909 415.519 852.533 413.687 853.781 412.423C855.045 411.143 856.757 410.503 858.917 410.503ZM864.197 420.967V417.751C864.197 415.879 863.733 414.471 862.805 413.527C861.877 412.567 860.581 412.087 858.917 412.087C857.253 412.087 855.957 412.567 855.029 413.527C854.101 414.471 853.637 415.879 853.637 417.751V420.967H864.197ZM881.573 427.447L876.149 420.055L870.749 427.447H868.709L875.093 418.807L869.117 410.647H871.157L876.221 417.511L881.261 410.647H883.181L877.229 418.759L883.637 427.447H881.573Z" fill="#FFDEEB"/>
<path d="M851.495 436.247V437.471L844.463 453.047H842.591L849.503 437.783H840.863V440.927H839.159V436.247H851.495ZM858.662 436.247V453.047H856.934V437.783H852.974V436.247H858.662Z" fill="#FFDEEB"/>
<path d="M794.667 413.601H778.4" stroke="#D8CEE2" stroke-width="2.2794" stroke-miterlimit="10"/>
<path d="M726.444 335.562L721.157 328.416L691.716 350.199L697.004 357.345L726.444 335.562Z" fill="#FFDEEB"/>
<path d="M522.054 750.523L531.234 749.43L529.204 732.394L520.025 733.488L522.054 750.523Z" fill="#FFDEEB"/>
<path d="M615.35 741.299L623.56 737.05L607.055 705.157L598.845 709.406L615.35 741.299Z" fill="#FFDEEB"/>
<path d="M692.702 687.04L699.003 680.275L672.987 656.041L666.686 662.805L692.702 687.04Z" fill="#FFDEEB"/>
<path d="M730.714 602.173L734.119 593.578L718.335 587.325L714.93 595.92L730.714 602.173Z" fill="#FFDEEB"/>
<path d="M767.97 518.269L768.5 509.039L735.752 507.16L735.222 516.39L767.97 518.269Z" fill="#FFDEEB"/>
<path d="M772.57 420.285L769.55 411.266L726.392 425.715L729.411 434.735L772.57 420.285Z" fill="#FFDEEB"/>
<path d="M570.607 237.251L560.766 234.834L554.83 259.006L564.671 261.423L570.607 237.251Z" fill="#FFDEEB"/>
<path d="M655.296 273.731L648.041 268.908L631.261 294.151L638.515 298.974L655.296 273.731Z" fill="#FFDEEB"/>
<path d="M431.038 778.98L443.103 781.193L452.853 728.035L440.787 725.822L431.038 778.98Z" fill="#AEE7F4"/>
<path d="M346.876 720.694L357.169 727.367L375.834 698.577L365.541 691.904L346.876 720.694Z" fill="#AEE7F4"/>
<path d="M256.783 675.185L263.79 684.261L312.617 646.563L305.609 637.487L256.783 675.185Z" fill="#AEE7F4"/>
<path d="M224.013 577.61L227.357 588.207L272.71 573.898L269.367 563.301L224.013 577.61Z" fill="#AEE7F4"/>
<path d="M221.412 480.673L220.998 491.599L257.861 492.995L258.275 482.069L221.412 480.673Z" fill="#AEE7F4"/>
<path d="M211.607 373.976L207.151 385.405L274.482 411.66L278.938 400.231L211.607 373.976Z" fill="#AEE7F4"/>
<path d="M296.629 306.376L289.509 314.199L315.806 338.132L322.926 330.308L296.629 306.376Z" fill="#AEE7F4"/>
<path d="M379.285 266.764L370.51 271.831L378.332 285.379L387.108 280.312L379.285 266.764Z" fill="#AEE7F4"/>
<path d="M456.903 210.813L445.25 212.805L452.679 256.263L464.332 254.271L456.903 210.813Z" fill="#AEE7F4"/>
</svg>
